<?xml version="1.0" standalone="no"?>
<!DOCTYPE svg PUBLIC "-//W3C//DTD SVG 1.1//EN" "http://www.w3.org/Graphics/SVG/1.1/DTD/svg11.dtd" >
<svg xmlns="http://www.w3.org/2000/svg" xmlns:xlink="http://www.w3.org/1999/xlink" version="1.1">
<metadata>
Created by FontForge 20170731 at Sat Feb 25 21:44:23 2023
 By Aleksey,,,
Copyright (c) 2015 by Fontfabric LLC. All rights reserved.
</metadata>
<defs>
<font id="MullerRegular" horiz-adv-x="1202" >
  <font-face 
    font-family="Muller Regular"
    font-weight="400"
    font-stretch="normal"
    units-per-em="2048"
    panose-1="0 0 0 0 0 0 0 0 0 0"
    ascent="1597"
    descent="-451"
    x-height="983"
    cap-height="1434"
    bbox="-330 -494 2562 1974"
    underline-thickness="102"
    underline-position="-358"
    unicode-range="U+0020-25CA"
  />
<missing-glyph horiz-adv-x="509" 
 />
    <glyph glyph-name="f_f" unicode="ff" horiz-adv-x="1415" 
d="M1456 1282q-92 45 -207 45q-50 0 -86 -8t-69 -29.5t-50.5 -65t-17.5 -108.5v-133h369v-152h-369v-831h-164v831h-471v-831h-164v831h-184v152h184v109q0 163 107.5 254.5t279.5 91.5q89 0 161 -20t151 -64q92 125 284 125q133 0 246 -45v-152zM391 983h471v139
q0 39 8 101q-58 34 -112.5 48.5t-134.5 14.5q-105 0 -168.5 -48.5t-63.5 -145.5v-109z" />
    <glyph glyph-name="f_f_i" unicode="ffi" horiz-adv-x="1789" 
d="M391 0h-164v831h-184v152h184v109q0 163 107.5 254.5t279.5 91.5q90 0 163 -21t159 -67q105 129 313 129q147 0 297 -72v-164q-147 84 -289 84q-107 0 -169 -52t-62 -163v-129h608v-983h-164v831h-444v-831h-164v831h-471v-831zM391 1092v-109h471v129q0 60 12 109
q-59 35 -114.5 50t-136.5 15q-105 0 -168.5 -48.5t-63.5 -145.5z" />
    <glyph glyph-name="f_f_l" unicode="ffl" horiz-adv-x="1810" 
d="M1249 1479q134 0 269 -60l137 35v-1454h-164v1282q-104 45 -234 45q-107 0 -169 -52t-62 -163v-129h307v-152h-307v-831h-164v831h-471v-831h-164v831h-184v152h184v109q0 163 107.5 254.5t279.5 91.5q90 0 163 -21t159 -67q105 129 313 129zM862 983v129q0 60 12 109
q-59 35 -114.5 50t-136.5 15q-105 0 -168.5 -48.5t-63.5 -145.5v-109h471z" />
    <glyph glyph-name=".notdef" horiz-adv-x="509" 
 />
    <glyph glyph-name=".null" horiz-adv-x="0" 
 />
    <glyph glyph-name="nonmarkingreturn" horiz-adv-x="682" 
 />
    <glyph glyph-name="space" unicode=" " horiz-adv-x="509" 
 />
    <glyph glyph-name="exclam" unicode="!" horiz-adv-x="471" 
d="M307 416h-143l-14 1018h172zM340 82q0 -49 -30 -75.5t-74 -26.5t-74.5 26.5t-30.5 75.5t30.5 75.5t74.5 26.5t74 -26.5t30 -75.5z" />
    <glyph glyph-name="quotedbl" unicode="&#x22;" horiz-adv-x="651" 
d="M508 1065h-115v369h156zM242 1065h-115v369h156z" />
    <glyph glyph-name="numbersign" unicode="#" horiz-adv-x="1337" 
d="M317 0h-163l82 350h-160v144h194l97 407h-189v143h223l82 351h164l-82 -351h373l82 351h164l-82 -351h158v-143h-193l-96 -407h186v-144h-221l-82 -350h-164l82 350h-373zM530 901l-96 -407h373l96 407h-373z" />
    <glyph glyph-name="dollar" unicode="$" horiz-adv-x="1193" 
d="M649 -266h-143v246q-236 22 -408 118v172q216 -131 500 -131q348 0 348 213q0 78 -46.5 132t-121 84.5t-164.5 55.5t-180 54.5t-164.5 70t-121 114t-46.5 175.5q0 162 113.5 257.5t290.5 117.5v246h143v-244q223 -13 379 -102v-172q-85 55 -197.5 84.5t-224.5 27.5
q-152 0 -241 -50t-89 -159q0 -58 29 -101.5t77.5 -71.5t112 -49.5t133.5 -40.5t140 -40t133.5 -52t112 -72t77.5 -105.5t29 -146.5q0 -98 -37 -173t-102.5 -120.5t-148.5 -69.5t-183 -27v-241z" />
    <glyph glyph-name="percent" unicode="%" horiz-adv-x="1835" 
d="M582 -123h-164l837 1679h164zM739 1137q0 -149 -97 -235.5t-236 -86.5q-141 0 -239.5 86.5t-98.5 235.5t98.5 235t239.5 86q139 0 236 -86t97 -235zM223 1137q0 -76 48 -127.5t135 -51.5q84 0 131 51.5t47 127.5t-47 127t-131 51q-87 0 -135 -51t-48 -127zM1767 297
q0 -149 -97 -235.5t-236 -86.5q-141 0 -239.5 86.5t-98.5 235.5t98.5 235t239.5 86q139 0 236 -86t97 -235zM1251 297q0 -76 48 -127t135 -51q84 0 131 51t47 127t-47 127t-131 51q-87 0 -135 -51t-48 -127z" />
    <glyph glyph-name="ampersand" unicode="&#x26;" horiz-adv-x="1443" 
d="M1171 246l265 -246h-207l-156 141q-194 -166 -489 -166q-226 0 -355 103t-129 266q0 228 303 404l-4 4q-170 166 -170 338q0 154 128.5 261t316.5 107q173 0 279 -87.5t106 -227.5q0 -45 -14 -88t-35.5 -77t-56.5 -68.5t-65.5 -58.5t-75.5 -52t-75 -44t-73 -38l387 -361
q96 138 90 314h172q0 -241 -142 -424zM672 1303q-122 0 -198.5 -63t-76.5 -153q0 -116 152 -264q48 22 86 41.5t89 51.5t85 62.5t58 71t24 80.5q0 79 -58 126t-161 47zM272 352q0 -104 83.5 -162.5t238.5 -58.5q210 0 358 119l-432 391q-248 -132 -248 -289z" />
    <glyph glyph-name="quotesingle" unicode="'" horiz-adv-x="385" 
d="M242 1065h-115v369h156z" />
    <glyph glyph-name="parenleft" unicode="(" horiz-adv-x="589" 
d="M387 1657h160q-129 -193 -201 -444t-72 -496t72 -496t201 -444h-160q-137 198 -217 447t-80 493t80 493t217 447z" />
    <glyph glyph-name="parenright" unicode=")" horiz-adv-x="589" 
d="M43 1657h160q137 -198 217 -447t80 -493t-80 -493t-217 -447h-160q129 192 200.5 443.5t71.5 496.5t-71.5 496.5t-200.5 443.5z" />
    <glyph glyph-name="asterisk" unicode="*" horiz-adv-x="911" 
d="M457 1008l-154 -246l-125 86l178 217l-266 65l53 144l254 -100l-16 260h151l-18 -260l256 100l51 -144l-266 -65l178 -217l-123 -86z" />
    <glyph glyph-name="plus" unicode="+" horiz-adv-x="1093" 
d="M625 795h379v-156h-379v-379h-156v379h-379v156h379v379h156v-379z" />
    <glyph glyph-name="comma" unicode="," horiz-adv-x="458" 
d="M176 -307h-133l113 471h174z" />
    <glyph glyph-name="hyphen" unicode="-" horiz-adv-x="993" 
d="M131 586h731v-156h-731v156z" />
    <glyph glyph-name="period" unicode="." horiz-adv-x="440" 
d="M328 86q0 -50 -30.5 -77t-76.5 -27t-77 27t-31 77q0 49 31 75.5t77 26.5q45 0 76 -26.5t31 -75.5z" />
    <glyph glyph-name="slash" unicode="/" horiz-adv-x="866" 
d="M188 -119h-122l610 1671h123z" />
    <glyph glyph-name="zero" unicode="0" horiz-adv-x="1439" 
d="M104 696q0 157 37.5 287t111 227.5t193 152t273.5 54.5q155 0 274.5 -54.5t193 -152t111 -227.5t37.5 -287t-37.5 -287t-111 -227.5t-193 -152t-274.5 -54.5q-154 0 -273.5 54.5t-193 152t-111 227.5t-37.5 287zM1161 696q0 268 -109 412.5t-333 144.5
q-222 0 -331 -144.5t-109 -412.5t109 -412.5t331 -144.5q224 0 333 144.5t109 412.5z" />
    <glyph glyph-name="one" unicode="1" horiz-adv-x="880" 
d="M446 1393h127v-1229h261v-164h-725v164h292v1046l-292 -110v164z" />
    <glyph glyph-name="two" unicode="2" horiz-adv-x="1175" 
d="M139 1282q195 135 447 135q217 0 346 -98.5t129 -274.5q0 -69 -23.5 -132t-57.5 -109.5t-90.5 -94.5t-104.5 -80t-117 -73q-166 -98 -201 -122q-140 -95 -175 -195q-12 -36 -13 -76l792 2v-164h-981v82q0 116 33.5 206t112 163.5t129.5 108.5t162 100q7 4 10.5 6.5t9 5.5
t10.5 6q151 88 204 131q123 101 128 228v10q0 102 -83 156t-235 54q-222 0 -432 -147v172z" />
    <glyph glyph-name="three" unicode="3" 
d="M1044 1038q0 -107 -56 -191.5t-146 -115.5q48 -15 91 -41.5t83 -67.5t63 -104t23 -139q0 -79 -26.5 -145.5t-73 -113.5t-110.5 -80t-140 -49t-160 -16q-277 0 -486 93v170q198 -104 472 -101q79 0 142.5 14t113 42.5t76 78t26.5 115.5q0 250 -340 250h-213v164l195 -2
q147 0 224 62t77 163q0 109 -86 171t-244 62q-219 0 -418 -106v168q194 98 440 98q213 0 343 -105t130 -274z" />
    <glyph glyph-name="four" unicode="4" horiz-adv-x="1320" 
d="M811 1393h186v-924h263v-160h-263v-309h-170v309h-776v154zM827 469v692l-565 -692h565z" />
    <glyph glyph-name="five" unicode="5" horiz-adv-x="1185" 
d="M193 1393h835v-164h-674l-24 -393q111 30 237 30q104 0 194 -23.5t167.5 -73.5t122.5 -139.5t45 -209.5q0 -138 -72.5 -240t-194 -153.5t-274.5 -51.5q-251 0 -446 95v163q185 -98 426 -98q176 0 281.5 74t105.5 211q0 82 -33.5 140.5t-93 90.5t-130 46t-157.5 14
q-182 0 -361 -66z" />
    <glyph glyph-name="six" unicode="6" horiz-adv-x="1271" 
d="M281 735q199 133 436 133q89 0 172.5 -28t152.5 -80.5t110.5 -137.5t41.5 -190q0 -144 -69 -249.5t-181 -156.5t-250 -51q-295 0 -441.5 183.5t-146.5 515.5q0 187 48 331t134.5 233t200 134t250.5 45q181 0 338 -80v-163q-149 79 -334 79q-72 0 -135.5 -16.5t-121.5 -55
t-101 -97.5t-70.5 -148t-33.5 -201zM283 563q20 -216 122.5 -322t276.5 -106q151 0 244.5 70t93.5 219q0 64 -19 113.5t-51 81.5t-77 52.5t-93.5 29t-105.5 8.5q-226 0 -391 -146z" />
    <glyph glyph-name="seven" unicode="7" horiz-adv-x="1101" 
d="M55 1393h1004v-156l-582 -1237h-184l577 1229h-815v164z" />
    <glyph glyph-name="eight" unicode="8" horiz-adv-x="1325" 
d="M150 1057q0 68 30 130.5t89 115t159.5 83.5t228.5 31q232 0 373 -112.5t146 -270.5q3 -99 -45.5 -192t-145.5 -160q240 -119 240 -328q0 -75 -32.5 -141t-97.5 -120.5t-174.5 -86t-250.5 -31.5q-138 0 -249 33.5t-180 91t-105 130t-36 153.5q0 102 60.5 204.5
t177.5 170.5q-188 114 -188 299zM678 627q-110 29 -195 61q-103 -50 -157 -128t-54 -159q0 -125 103.5 -195.5t298.5 -70.5q165 0 272 58.5t107 152.5q0 50 -20 89.5t-48 65t-79 49t-92 36.5t-108 33q-6 2 -9.5 3t-9 2.5t-9.5 2.5zM1004 1004q0 108 -93 180.5t-258 72.5
q-153 0 -242 -56t-89 -142q0 -49 21 -88.5t43.5 -63t77.5 -48.5t80.5 -34t93.5 -29q22 -7 32 -10q159 -44 170 -47q81 52 122.5 122t41.5 143z" />
    <glyph glyph-name="nine" unicode="9" horiz-adv-x="1269" 
d="M78 961q0 144 69 249t180.5 156t250.5 51q295 0 441 -183t146 -515q0 -150 -31.5 -273.5t-88 -210t-136 -145.5t-174 -87t-203.5 -28q-180 0 -337 80v164q151 -80 333 -80q72 0 135.5 16.5t122 55t101.5 97.5t70.5 148t33.5 201q-199 -133 -436 -133q-70 0 -138 17
t-129.5 53t-108 87t-74 123t-27.5 157zM590 1257q-57 0 -106.5 -9.5t-92.5 -31t-73.5 -54.5t-48 -82t-17.5 -111q0 -64 19 -113.5t51 -81.5t77 -52.5t93.5 -29t105.5 -8.5q227 0 391 145q-20 216 -122.5 322t-276.5 106z" />
    <glyph glyph-name="colon" unicode=":" horiz-adv-x="475" 
d="M344 799q0 -50 -30.5 -77.5t-77.5 -27.5q-44 0 -75.5 27.5t-31.5 77.5t31.5 77t75.5 27q47 0 77.5 -27t30.5 -77zM344 86q0 -50 -30.5 -77t-77.5 -27q-44 0 -75.5 27t-31.5 77q0 48 31.5 75t75.5 27q47 0 77.5 -26.5t30.5 -75.5z" />
    <glyph glyph-name="semicolon" unicode=";" horiz-adv-x="577" 
d="M240 -307h-134l113 471h174zM391 872q0 -50 -30.5 -77t-77.5 -27q-44 0 -75.5 27t-31.5 77t31.5 77.5t75.5 27.5q47 0 77.5 -27.5t30.5 -77.5z" />
    <glyph glyph-name="less" unicode="&#x3c;" horiz-adv-x="1030" 
d="M864 481v-159l-770 313v164l770 313v-160l-604 -235z" />
    <glyph glyph-name="equal" unicode="=" horiz-adv-x="1136" 
d="M1001 825h-866v156h866v-156zM1001 453h-866v155h866v-155z" />
    <glyph glyph-name="greater" unicode="&#x3e;" horiz-adv-x="1030" 
d="M936 635l-770 -313v159l604 236l-604 235v160l770 -313v-164z" />
    <glyph glyph-name="question" unicode="?" horiz-adv-x="1005" 
d="M553 426h-164q0 63 27.5 126.5t68.5 114t89.5 106.5t89.5 104t68.5 106t27.5 113q0 198 -316 198q-185 0 -368 -108v164q184 108 395 108q133 0 235.5 -37.5t165 -117t62.5 -191.5q0 -68 -28 -136t-70.5 -121t-92 -110.5t-92 -105.5t-70.5 -104.5t-28 -108.5zM578 86
q0 -50 -30.5 -77t-76.5 -27t-77.5 27t-31.5 77q0 49 31.5 75.5t77.5 26.5q45 0 76 -26.5t31 -75.5z" />
    <glyph glyph-name="at" unicode="@" horiz-adv-x="2152" 
d="M90 492q0 149 42 290.5t127.5 264t203.5 214.5t281 144.5t350 52.5q184 0 343.5 -54.5t270.5 -144t190.5 -205.5t117.5 -239t38 -244q0 -272 -109.5 -413.5t-293.5 -141.5q-120 0 -204 54.5t-116 156.5q-49 -82 -130.5 -125t-178.5 -43q-173 0 -287 121.5t-114 304.5
q0 185 114 307.5t287 122.5q96 0 174.5 -44t116.5 -107v131h160v-537q0 -198 180 -198q115 0 172 112t57 299q0 85 -23 170.5t-66 166.5t-111 151t-153 122.5t-197 82.5t-238 30q-193 0 -352.5 -66t-263 -177t-160 -255.5t-56.5 -303.5q0 -189 70.5 -342.5t192 -253.5
t283 -153.5t345.5 -53.5q243 0 451 73v-163q-209 -74 -455 -74q-169 0 -325 39.5t-289.5 120t-232.5 194t-155.5 271t-56.5 342.5zM1313 561q-22 83 -94.5 143t-176.5 60q-108 0 -183 -77.5t-75 -199.5t75 -199t183 -77q104 0 176.5 60t94.5 143v147z" />
    <glyph glyph-name="A" unicode="A" horiz-adv-x="1468" 
d="M201 0h-187l625 1434h190l623 -1434h-184l-148 346h-772zM711 1202l-295 -696h637l-297 696q-10 22 -23 55q-3 -7 -7 -18t-7.5 -20t-7.5 -17z" />
    <glyph glyph-name="B" unicode="B" horiz-adv-x="1415" 
d="M188 1434h588q226 0 357 -93t131 -270q0 -127 -67.5 -208t-162.5 -109q39 -11 75.5 -27.5t76.5 -47t68.5 -68.5t47.5 -94.5t19 -123.5q0 -93 -35.5 -165.5t-89.5 -114t-127.5 -68.5t-139.5 -36t-136 -9h-605v1434zM1147 412q0 247 -342 247h-445v-495h398q46 0 78.5 1.5
t76.5 6.5t74.5 15t62.5 28.5t52 44t32.5 64.5t12.5 88zM1090 1047q0 122 -83 172.5t-245 50.5h-402v-447h449q123 0 202 54.5t79 169.5z" />
    <glyph glyph-name="C" unicode="C" horiz-adv-x="1337" 
d="M92 707q1 145 43.5 269t115.5 211t169 149.5t204.5 92t221.5 29.5q219 0 403 -96v-172q-155 104 -375 104q-91 0 -177 -21t-164.5 -68t-137 -114t-93.5 -166t-36 -218q-1 -111 34.5 -205.5t95.5 -160.5t139.5 -112t167 -68t178.5 -22q232 0 379 105v-172
q-189 -97 -416 -97q-109 0 -216.5 29.5t-204.5 91t-171 147t-117.5 205.5t-42.5 259z" />
    <glyph glyph-name="D" unicode="D" horiz-adv-x="1511" 
d="M188 1434h471q186 0 331.5 -53.5t238 -150t140.5 -226.5t48 -287t-48 -287t-140.5 -226.5t-238 -150t-331.5 -53.5h-471v1434zM1243 717q0 262 -149 407.5t-435 145.5h-299v-1106h299q286 0 435 145.5t149 407.5z" />
    <glyph glyph-name="E" unicode="E" horiz-adv-x="1269" 
d="M188 1434h967v-164h-795v-465h734v-164h-734v-477h807v-164h-979v1434z" />
    <glyph glyph-name="F" unicode="F" horiz-adv-x="1236" 
d="M188 1434h971v-164h-799v-494h740v-164h-740v-612h-172v1434z" />
    <glyph glyph-name="G" unicode="G" horiz-adv-x="1443" 
d="M94 717q0 144 42.5 266.5t116 208.5t171 147t207 90t225.5 29q236 0 430 -96v-172q-165 104 -405 104q-93 0 -179.5 -20t-166 -65.5t-138.5 -111t-94 -163.5t-35 -217q0 -125 35.5 -225.5t94.5 -165t140 -108t167 -61.5t180 -18q153 0 264 54v569h172v-690
q-211 -97 -449 -97q-122 0 -232 24.5t-211 81.5t-174.5 141t-117 211t-43.5 284z" />
    <glyph glyph-name="H" unicode="H" horiz-adv-x="1570" 
d="M1210 1434h172v-1434h-172v637h-850v-637h-172v1434h172v-633h850v633z" />
    <glyph glyph-name="I" unicode="I" horiz-adv-x="548" 
d="M188 1434h172v-1434h-172v1434z" />
    <glyph glyph-name="J" unicode="J" horiz-adv-x="1050" 
d="M281 1434h593v-1028q0 -110 -36.5 -193t-101.5 -133t-148.5 -75t-184.5 -25q-226 0 -368 88v172q139 -97 338 -97q74 0 131.5 13.5t103 43t70 83.5t24.5 129v858h-421v164z" />
    <glyph glyph-name="K" unicode="K" horiz-adv-x="1361" 
d="M360 0h-172v1434h172v-621h326l432 621h197l-488 -699l531 -735h-197l-469 649h-332v-649z" />
    <glyph glyph-name="L" unicode="L" horiz-adv-x="1185" 
d="M188 1434h172v-1270h795v-164h-967v1434z" />
    <glyph glyph-name="M" unicode="M" horiz-adv-x="1855" 
d="M1520 1434h147v-1434h-172v1108l-514 -770h-107l-514 770v-1108h-172v1434h148l592 -885z" />
    <glyph glyph-name="N" unicode="N" horiz-adv-x="1570" 
d="M360 0h-172v1434h160l862 -1145v123v1022h172v-1434h-159l-863 1147v-123v-1024z" />
    <glyph glyph-name="O" unicode="O" horiz-adv-x="1683" 
d="M92 717q0 113 29.5 219.5t90.5 201.5t148.5 166t211.5 112.5t270 41.5t270 -41.5t211 -112.5t148.5 -166t90.5 -201.5t29 -219.5t-29 -219.5t-90.5 -201.5t-148.5 -166.5t-211 -113t-270 -41.5t-270 41.5t-211.5 113t-148.5 166.5t-90.5 201.5t-29.5 219.5zM1417 717
q0 113 -36 215t-105 183.5t-181 130t-253 48.5t-253.5 -48.5t-181.5 -130t-105 -183.5t-36 -215q0 -90 22 -173.5t69 -157.5t114 -128.5t162.5 -86.5t208.5 -32q141 0 253 48.5t181 130.5t105 184t36 215z" />
    <glyph glyph-name="P" unicode="P" horiz-adv-x="1353" 
d="M188 1434h490q608 0 608 -463t-608 -463h-318v-508h-172v1434zM1112 971q0 71 -22 124.5t-59.5 86.5t-93.5 53t-115.5 27.5t-135.5 7.5h-326v-598h326q74 0 134 7.5t116 28t93.5 53.5t60 86t22.5 124z" />
    <glyph glyph-name="Q" unicode="Q" horiz-adv-x="1683" 
d="M1591 -16l-110 -111l-215 215q-182 -113 -424 -113q-146 0 -270 41.5t-211.5 113t-148.5 166.5t-90.5 201.5t-29.5 219.5t29.5 219.5t90.5 201.5t148.5 166t211.5 112.5t270 41.5t270 -41.5t211 -112.5t148.5 -166t90.5 -201.5t29 -219.5q0 -150 -52 -288.5t-153 -242.5z
M266 717q0 -90 22 -173.5t69 -157.5t114 -128.5t162.5 -86.5t208.5 -32q170 0 301 72l-250 250l111 108l262 -262q75 80 113 186.5t38 223.5q0 113 -36 215t-105 183.5t-181 130t-253 48.5t-253.5 -48.5t-181.5 -130t-105 -183.5t-36 -215z" />
    <glyph glyph-name="R" unicode="R" horiz-adv-x="1423" 
d="M360 0h-172v1434h562q81 0 155 -13.5t144.5 -45.5t122 -80.5t83 -124.5t31.5 -171q0 -96 -30.5 -171t-85.5 -124t-121 -79t-146 -45l486 -580h-215l-469 565h-345v-565zM360 1270v-541h398q55 0 103 7.5t95.5 26.5t81 48.5t54 77.5t20.5 110t-20.5 110.5t-54 78t-81 48.5
t-95.5 26.5t-103 7.5h-398z" />
    <glyph glyph-name="S" unicode="S" horiz-adv-x="1198" 
d="M102 1079q0 93 40 166.5t109 119.5t156.5 69.5t186.5 23.5q119 0 233.5 -27.5t200.5 -76.5v-172q-85 55 -197.5 84.5t-224.5 27.5q-152 0 -241 -50t-89 -159q0 -58 29 -103t78.5 -75t113.5 -55t135 -47.5t142 -46.5t135 -58.5t113.5 -78t78.5 -109t29 -147.5
q0 -83 -29 -150t-78.5 -111.5t-118 -74t-144 -42.5t-160.5 -12q-272 0 -491 123v172q216 -131 479 -131q79 0 142.5 11t115.5 34.5t81 66t29 101.5q0 61 -29 109t-78.5 80t-113.5 58t-135 49t-142 47t-135 57.5t-113.5 75.5t-78.5 106t-29 145z" />
    <glyph glyph-name="T" unicode="T" horiz-adv-x="1236" 
d="M29 1434h1179v-164h-503v-1270h-173v1270h-503v164z" />
    <glyph glyph-name="U" unicode="U" horiz-adv-x="1542" 
d="M1198 1434h172v-910q0 -120 -32 -214.5t-87 -156.5t-132 -102.5t-162.5 -58t-184.5 -17.5q-125 0 -229 29t-189.5 91t-133.5 171.5t-48 257.5v910h172v-902q0 -393 428 -393q96 0 171 21t133.5 66t90 122.5t31.5 183.5v902z" />
    <glyph glyph-name="V" unicode="V" horiz-adv-x="1411" 
d="M795 0h-179l-593 1434h184l498 -1241l499 1241h185z" />
    <glyph glyph-name="W" unicode="W" horiz-adv-x="2045" 
d="M1839 1434h189l-451 -1434h-193l-362 1147l-363 -1147h-190l-451 1434h189l358 -1225l381 1225h154l381 -1225z" />
    <glyph glyph-name="X" unicode="X" horiz-adv-x="1320" 
d="M209 0h-205l555 737l-524 697h205l422 -560l419 560h205l-522 -697l553 -737h-205l-450 600z" />
    <glyph glyph-name="Y" unicode="Y" horiz-adv-x="1343" 
d="M758 0h-172v543l-563 891h190l459 -738l458 738h191l-563 -891v-543z" />
    <glyph glyph-name="Z" unicode="Z" horiz-adv-x="1200" 
d="M1135 0h-1063v156l823 1114h-803v164h1010v-156l-826 -1114h859v-164z" />
    <glyph glyph-name="bracketleft" unicode="[" horiz-adv-x="583" 
d="M526 -225h-383v1884h383v-164h-211v-1556h211v-164z" />
    <glyph glyph-name="backslash" unicode="\" horiz-adv-x="866" 
d="M801 -119h-123l-610 1671h122z" />
    <glyph glyph-name="bracketright" unicode="]" horiz-adv-x="583" 
d="M440 -225h-383v164h211v1556h-211v164h383v-1884z" />
    <glyph glyph-name="asciicircum" unicode="^" horiz-adv-x="1097" 
d="M279 778h-185l383 656h144l383 -656h-185l-270 473z" />
    <glyph glyph-name="underscore" unicode="_" horiz-adv-x="929" 
d="M930 -305h-930v155h930v-155z" />
    <glyph glyph-name="grave" unicode="`" horiz-adv-x="378" 
d="M360 1577h-178l-213 301h205z" />
    <glyph glyph-name="a" unicode="a" horiz-adv-x="1114" 
d="M950 205q0 -76 76 -76q32 0 76 14v-133q-61 -22 -123 -22q-140 0 -180 118q-157 -131 -383 -131q-67 0 -127.5 18t-110 53.5t-79 94t-29.5 133.5q0 74 26 132t69 95t102 61t119.5 34t127.5 10q131 0 272 -31v35q0 112 -73.5 179t-206.5 67q-187 0 -359 -74v160
q191 66 375 66q200 0 314 -108t114 -310v-385zM238 283q0 -81 62 -123.5t151 -42.5q95 0 183 37.5t152 105.5v180q-145 29 -249 29q-57 0 -107.5 -9.5t-95 -29.5t-70.5 -58t-26 -89z" />
    <glyph glyph-name="b" unicode="b" horiz-adv-x="1271" 
d="M152 1434h163v-598q147 172 381 172q211 0 351.5 -147.5t140.5 -368.5t-140.5 -369t-351.5 -148q-231 0 -397 189v-164h-147v1434zM1024 492q0 164 -99.5 264t-246.5 100q-125 0 -222 -70t-141 -172v-245q44 -102 141 -172t222 -70q147 0 246.5 100t99.5 265z" />
    <glyph glyph-name="c" unicode="c" horiz-adv-x="1009" 
d="M84 487q0 104 31 191.5t82.5 147t120.5 101.5t144.5 61.5t153.5 19.5q182 0 304 -80v-160q-114 88 -283 88q-74 0 -141.5 -21t-124 -63.5t-90 -114.5t-33.5 -165q0 -73 21.5 -134.5t58.5 -103.5t86.5 -71t104.5 -42.5t114 -13.5q163 0 297 80v-164q-139 -68 -320 -68
q-100 0 -191.5 31.5t-167.5 92.5t-121.5 161.5t-45.5 226.5z" />
    <glyph glyph-name="d" unicode="d" horiz-adv-x="1271" 
d="M956 1434h164v-1434h-147v164q-166 -189 -398 -189q-211 0 -351 148t-140 369t140 368.5t351 147.5q234 0 381 -172v598zM956 614q-44 103 -140.5 172.5t-221.5 69.5q-147 0 -246.5 -100t-99.5 -264q0 -165 99.5 -265t246.5 -100q125 0 221.5 69.5t140.5 172.5v245z" />
    <glyph glyph-name="e" unicode="e" horiz-adv-x="1122" 
d="M84 492q0 124 43.5 225t114 163t156 95t175.5 33q79 0 147.5 -18t119.5 -50t91 -75.5t64.5 -96t37 -110t11.5 -118t-14 -120.5h-782q10 -99 70 -167t145.5 -97t189.5 -29q181 0 324 80v-160q-138 -72 -348 -72q-111 0 -208 32t-173 94.5t-120 163t-44 227.5zM885 563
q4 33 -1.5 70.5t-26.5 77.5t-54.5 72t-90 52.5t-128.5 20.5q-134 0 -230.5 -77.5t-105.5 -215.5h637z" />
    <glyph glyph-name="f" unicode="f" horiz-adv-x="780" 
d="M391 0h-164v831h-184v152h184v119q0 99 29.5 171t81 110.5t110 56.5t127.5 18q133 0 246 -45v-151q-92 45 -207 45q-50 0 -86 -8t-69 -29.5t-50.5 -65t-17.5 -108.5v-113h369v-152h-369v-831z" />
    <glyph glyph-name="g" unicode="g" horiz-adv-x="1271" 
d="M84 492q0 221 140 368.5t351 147.5q232 0 398 -189v164h147v-983q0 -98 -30 -178.5t-80.5 -135t-119.5 -91.5t-145.5 -53.5t-160.5 -16.5q-218 0 -400 92v160q179 -101 379 -101q82 0 150.5 17t124.5 53t87.5 101t30.5 153v152q-145 -177 -381 -177q-211 0 -351 148
t-140 369zM956 614q-44 103 -140.5 172.5t-221.5 69.5q-147 0 -246.5 -100t-99.5 -264q0 -165 99.5 -265t246.5 -100q125 0 221 64t141 157v266z" />
    <glyph glyph-name="h" unicode="h" 
d="M152 1434h163v-576q58 64 147 107t191 43q179 0 294.5 -112t115.5 -290v-606h-164v586q0 133 -72.5 201.5t-191.5 68.5q-100 0 -181.5 -56t-138.5 -141v-659h-163v1434z" />
    <glyph glyph-name="i" unicode="i" horiz-adv-x="475" 
d="M319 0h-163v983h163v-983zM344 1296q0 -50 -30.5 -77t-75.5 -27q-46 0 -76.5 27t-30.5 77q0 49 31 77t76 28t75.5 -28t30.5 -77z" />
    <glyph glyph-name="j" unicode="j" horiz-adv-x="475" 
d="M319 -182q0 -83 -24.5 -142.5t-67 -91t-89.5 -45.5t-101 -14q-85 0 -152 26v152q45 -22 107 -22q164 0 164 161v1141h163v-1165zM344 1296q0 -50 -30.5 -77t-75.5 -27q-46 0 -77.5 27t-31.5 77q0 49 32 77t77 28t75.5 -28t30.5 -77z" />
    <glyph glyph-name="k" unicode="k" horiz-adv-x="1067" 
d="M1061 0h-193l-360 422h-193v-422h-163v1434h163v-861h199l311 410h191l-373 -489z" />
    <glyph glyph-name="l" unicode="l" horiz-adv-x="475" 
d="M156 1495h163v-1495h-163v1495z" />
    <glyph glyph-name="m" unicode="m" horiz-adv-x="1822" 
d="M315 0h-163v983h147v-131q34 36 74 67t113 60t149 29q108 0 189 -44t126 -122q162 166 359 166q178 0 276 -112t98 -290v-606h-163v610q0 113 -61.5 179.5t-168.5 66.5q-159 0 -286 -162q6 -44 6 -88v-606h-164v610q0 113 -61.5 179.5t-168.5 66.5q-166 0 -301 -178v-678
z" />
    <glyph glyph-name="n" unicode="n" 
d="M299 838q55 71 149 120.5t205 49.5q179 0 294.5 -112t115.5 -290v-606h-164v586q0 133 -72.5 201.5t-191.5 68.5q-100 0 -181.5 -56t-138.5 -141v-659h-163v983h147v-145z" />
    <glyph glyph-name="o" unicode="o" horiz-adv-x="1216" 
d="M84 492q0 98 29 182.5t79 145t116.5 103.5t143 64t156.5 21q81 0 157.5 -21t143 -64t116.5 -103.5t79 -145t29 -182.5t-29 -182.5t-79 -145t-116.5 -104t-143 -64.5t-157.5 -21q-80 0 -156.5 21t-143 64.5t-116.5 104t-79 145t-29 182.5zM969 492q0 166 -102.5 263
t-258.5 97q-155 0 -257.5 -97t-102.5 -263t102.5 -263.5t257.5 -97.5t258 97.5t103 263.5z" />
    <glyph glyph-name="p" unicode="p" horiz-adv-x="1271" 
d="M299 819q166 189 397 189q211 0 351.5 -147.5t140.5 -368.5t-140.5 -369t-351.5 -148q-234 0 -381 172v-598h-163v1434h147v-164zM1024 492q0 164 -99.5 264t-246.5 100q-125 0 -222 -70t-141 -172v-245q44 -102 141 -172t222 -70q147 0 246.5 100t99.5 265z" />
    <glyph glyph-name="q" unicode="q" horiz-adv-x="1271" 
d="M84 492q0 221 140 368.5t351 147.5q232 0 398 -189v164h147v-1434h-164v598q-147 -172 -381 -172q-211 0 -351 148t-140 369zM956 614q-44 103 -140.5 172.5t-221.5 69.5q-147 0 -246.5 -100t-99.5 -264q0 -165 99.5 -265t246.5 -100q125 0 221.5 69.5t140.5 172.5v245z
" />
    <glyph glyph-name="r" unicode="r" horiz-adv-x="749" 
d="M299 809q58 97 176.5 151.5t247.5 43.5v-164q-143 17 -253 -45.5t-155 -182.5v-612h-163v983h147v-174z" />
    <glyph glyph-name="s" unicode="s" horiz-adv-x="954" 
d="M94 725q0 59 21.5 107t57.5 80.5t84.5 54.5t101.5 31.5t110 9.5q190 0 348 -84v-156q-62 40 -156 66t-182 26q-57 0 -104.5 -12t-81 -43t-33.5 -76q0 -38 27 -67.5t71 -47.5t100 -36.5t114.5 -34t114.5 -41t100 -56.5t71 -81t27 -113q0 -74 -33 -129t-91 -86.5
t-128 -46.5t-154 -15q-104 0 -208 26.5t-173 70.5v159q72 -49 174.5 -76.5t198.5 -27.5q56 0 98.5 5.5t78 18t54.5 37t19 60.5q0 42 -34.5 73t-90 51t-122 39t-133.5 44t-122.5 57.5t-90 87t-34.5 125.5z" />
    <glyph glyph-name="t" unicode="t" horiz-adv-x="839" 
d="M217 1288l162 41v-346h393v-152h-393v-507q0 -109 50 -152t161 -43q107 0 217 45v-151q-126 -46 -264 -46q-148 0 -237 81t-89 237v536h-184v152h184v305z" />
    <glyph glyph-name="u" unicode="u" 
d="M887 983h164v-983h-148v145q-55 -71 -149 -120.5t-205 -49.5q-190 0 -300 110t-110 292v606h164v-586q0 -270 264 -270q100 0 181.5 56t138.5 141v659z" />
    <glyph glyph-name="v" unicode="v" horiz-adv-x="1097" 
d="M887 983h182l-434 -983h-172l-434 983h182l338 -799z" />
    <glyph glyph-name="w" unicode="w" horiz-adv-x="1634" 
d="M1425 983h172l-335 -983h-179l-266 760l-266 -760h-178l-336 983h172l254 -803l280 803h148l280 -803z" />
    <glyph glyph-name="x" unicode="x" horiz-adv-x="1001" 
d="M768 983h188l-360 -477l381 -506h-189l-286 389l-289 -389h-188l383 506l-363 477h188l269 -362z" />
    <glyph glyph-name="y" unicode="y" horiz-adv-x="1101" 
d="M565 186l332 797h174l-483 -1130q-141 -328 -371 -328q-54 0 -106 14v142q47 -13 86 -13q82 0 144 59.5t110 180.5l36 90l-467 985h175z" />
    <glyph glyph-name="z" unicode="z" horiz-adv-x="950" 
d="M98 983h746v-145l-578 -695h617v-143h-809v145l577 695h-553v143z" />
    <glyph glyph-name="braceleft" unicode="{" horiz-adv-x="630" 
d="M549 -82v-143q-159 -33 -242.5 31.5t-83.5 203.5v469q0 89 -50.5 131t-113.5 35v143q63 -7 113.5 34.5t50.5 131.5v469q0 139 83.5 204t242.5 32v-143q-86 12 -120 -29t-34 -135v-410q0 -100 -32 -158t-84 -67q52 -9 84 -67t32 -158v-410q0 -94 34 -135t120 -29z" />
    <glyph glyph-name="bar" unicode="|" horiz-adv-x="458" 
d="M315 -205h-172v1864h172v-1864z" />
    <glyph glyph-name="braceright" unicode="}" horiz-adv-x="630" 
d="M408 10q0 -139 -83.5 -203.5t-242.5 -31.5v143q86 -12 120 29t34 135v410q0 100 32 158t84 67q-52 9 -84 67t-32 158v410q0 94 -34 135t-120 29v143q159 33 242.5 -32t83.5 -204v-469q0 -90 50 -131.5t113 -34.5v-143q-63 7 -113 -35t-50 -131v-469z" />
    <glyph glyph-name="asciitilde" unicode="~" horiz-adv-x="1206" 
d="M1071 782q4 -110 -56 -174.5t-163 -64.5q-73 0 -238 56t-235 56q-39 0 -61 -21t-19 -63h-156q-4 111 56.5 174.5t160.5 63.5q78 0 239.5 -55.5t236.5 -55.5q84 0 79 84h156z" />
    <glyph glyph-name="exclamdown" unicode="&#xa1;" horiz-adv-x="446" 
d="M309 -446h-172l15 1017h143zM328 905q0 -49 -30.5 -75.5t-74.5 -26.5t-74 26.5t-30 75.5t30 76t74 27t74.5 -27t30.5 -76z" />
    <glyph glyph-name="cent" unicode="&#xa2;" horiz-adv-x="1042" 
d="M692 129q133 12 246 78v-164q-116 -55 -246 -66v-223h-143v226q-90 10 -170 46.5t-145.5 97t-103.5 154.5t-38 209q0 117 38.5 212.5t104 157.5t145 99t169.5 48v225h143v-225q136 -13 236 -76v-160q-94 73 -236 86v-725zM549 846q-128 -25 -210.5 -114t-82.5 -240
q0 -150 82.5 -241t210.5 -116v711z" />
    <glyph glyph-name="sterling" unicode="&#xa3;" horiz-adv-x="1232" 
d="M1153 0h-1075v164h76q63 0 101 47.5t38 122.5v272h-174v160h174v174q0 123 39 217t106.5 149.5t149.5 83t176 27.5q167 0 307 -78v-163q-135 84 -287 84q-65 0 -121 -18.5t-101 -56t-71 -101.5t-26 -148v-170h455v-160h-455v-272q0 -128 -57 -170h745v-164z" />
    <glyph glyph-name="currency" unicode="&#xa4;" horiz-adv-x="1183" 
d="M373 381l-131 -131l-115 115l125 124q-70 92 -70 228q0 135 70 227l-125 125l115 115l131 -131q94 55 219 55q127 0 221 -55l131 131l115 -115l-125 -125q67 -95 67 -227q0 -133 -67 -228l125 -124l-115 -115l-131 131q-94 -55 -221 -55q-125 0 -219 55zM346 717
q0 -111 67.5 -175.5t178.5 -64.5t178.5 64.5t67.5 175.5t-67 175t-179 64t-179 -64t-67 -175z" />
    <glyph glyph-name="yen" unicode="&#xa5;" horiz-adv-x="1376" 
d="M1122 1393h189l-457 -725h266v-144h-346v-114h346v-144h-346v-266h-172v266h-342v144h342v114h-342v144h262l-456 725h188l434 -697z" />
    <glyph glyph-name="brokenbar" unicode="&#xa6;" horiz-adv-x="491" 
d="M332 928h-172v731h172v-731zM332 -205h-172v731h172v-731z" />
    <glyph glyph-name="section" unicode="&#xa7;" horiz-adv-x="1024" 
d="M895 207q0 -74 -33 -129t-91 -86.5t-128 -46.5t-154 -15q-91 0 -191.5 26.5t-168.5 70.5v151q71 -49 170.5 -76.5t181.5 -27.5q56 0 98 5.5t78 19t55 40t19 64.5q0 45 -41 79t-80.5 49t-135.5 44q-17 5 -25 8q-44 13 -71 22t-66.5 24.5t-63.5 30.5t-52.5 38t-44 48.5
t-26 60t-10.5 75.5q0 148 164 268q-144 81 -144 226q0 73 32 129t87.5 88.5t122.5 48.5t143 16q81 0 169 -23t159 -61v-151q-61 39 -152.5 65.5t-165.5 26.5q-97 0 -163 -34t-66 -101q0 -36 19.5 -63t58.5 -46.5t80.5 -34t102.5 -32.5q7 -2 11 -3t10 -3t11 -3q44 -13 71 -22
t66.5 -24.5t63.5 -30.5t52.5 -38t44 -48.5t26 -60t10.5 -75.5q0 -148 -164 -268q131 -79 131 -221zM500 526q102 -30 123 -37q66 28 105.5 81.5t39.5 101.5q0 31 -13 56t-31 42t-51.5 33.5t-59.5 25.5t-70 23q-106 32 -121 37q-68 -26 -108 -80t-40 -102q0 -31 13 -56.5
t31.5 -42.5t51.5 -33t60 -25.5t70 -23.5z" />
    <glyph glyph-name="dieresis" unicode="&#xa8;" horiz-adv-x="616" 
d="M631 1714q0 -46 -33.5 -79t-79.5 -33t-79 33t-33 79q0 45 33.5 79t78.5 34t79 -34t34 -79zM217 1714q0 -46 -33.5 -79t-79.5 -33t-79 33t-33 79q0 45 33.5 79t78.5 34t79 -34t34 -79z" />
    <glyph glyph-name="copyright" unicode="&#xa9;" horiz-adv-x="1736" 
d="M1640 717q0 -143 -45 -266t-121.5 -209t-176 -147.5t-209 -90.5t-220.5 -29t-220.5 29t-209 90.5t-176 147.5t-121.5 209t-45 266t45 266t121.5 209t176 147t209 90t220.5 29t220.5 -29t209 -90t176 -147t121.5 -209t45 -266zM1176 373q-131 -70 -281 -70q-73 0 -144 24
t-132 70.5t-98.5 125t-37.5 177.5q0 88 25.5 161t68.5 122t100 82.5t118 49t125 15.5q146 0 256 -69v-125q-108 68 -234 68q-62 0 -116 -15t-101 -47.5t-74.5 -92.5t-27.5 -142q0 -61 17.5 -109.5t46 -79.5t69 -51t83.5 -28.5t91 -8.5q124 0 246 66v-123zM160 717
q0 -132 41 -244.5t110 -191.5t160 -135t192 -82.5t205 -26.5t205 26.5t192.5 82.5t160.5 135t110 191.5t41 244.5t-41 244.5t-110 191.5t-160.5 135t-192.5 82.5t-205 26.5t-205 -26.5t-192 -82.5t-160 -135t-110 -191.5t-41 -244.5z" />
    <glyph glyph-name="guillemotleft" unicode="&#xab;" horiz-adv-x="1007" 
d="M901 119h-176l-252 356v33l252 356h176l-262 -372zM518 119h-176l-252 356v33l252 356h176l-264 -372z" />
    <glyph glyph-name="logicalnot" unicode="&#xac;" horiz-adv-x="1181" 
d="M1034 555h-164v272h-749v156h913v-428z" />
    <glyph glyph-name="registered" unicode="&#xae;" horiz-adv-x="1736" 
d="M1640 717q0 -143 -45 -266t-121.5 -209t-176 -147.5t-209 -90.5t-220.5 -29t-220.5 29t-209 90.5t-176 147.5t-121.5 209t-45 266t45 266t121.5 209t176 147t209 90t220.5 29t220.5 -29t209 -90t176 -147t121.5 -209t45 -266zM160 717q0 -132 41 -244.5t110 -191.5
t160 -135t192 -82.5t205 -26.5t205 26.5t192.5 82.5t160.5 135t110 191.5t41 244.5t-41 244.5t-110 191.5t-160.5 135t-192.5 82.5t-205 26.5t-205 -26.5t-192 -82.5t-160 -135t-110 -191.5t-41 -244.5zM700 315h-122v805h346q42 0 81.5 -6.5t82 -23.5t73 -44.5t50.5 -73
t20 -104.5q0 -182 -176 -233l225 -320h-141l-209 301h-27h-203v-301zM700 1001v-266h211q27 0 42 0.5t42.5 4t44 12t35 22.5t27 38t8.5 56t-8.5 56t-27 38t-35 22.5t-44 12t-42.5 4t-42 0.5h-211z" />
    <glyph glyph-name="macron" unicode="&#xaf;" horiz-adv-x="737" 
d="M61 1755h615v-149h-615v149z" />
    <glyph glyph-name="degree" unicode="&#xb0;" horiz-adv-x="806" 
d="M721 1151q0 -143 -92.5 -227t-225.5 -84q-132 0 -225.5 84t-93.5 227q0 139 94 223t225 84q132 0 225 -83.5t93 -223.5zM207 1151q0 -87 54.5 -138.5t141.5 -51.5t141 51.5t54 138.5q0 85 -54 135.5t-141 50.5t-141.5 -50.5t-54.5 -135.5z" />
    <glyph glyph-name="plusminus" unicode="&#xb1;" horiz-adv-x="1175" 
d="M666 1243v-379h378v-155h-378v-379h-156v379h-379v155h379v379h156zM1044 0h-913v156h913v-156z" />
    <glyph glyph-name="acute" unicode="&#xb4;" horiz-adv-x="378" 
d="M229 1577h-178l187 301h204z" />
    <glyph glyph-name="paragraph" unicode="&#xb6;" horiz-adv-x="1308" 
d="M696 -451h-172v1024q-214 0 -335 114.5t-121 316.5t121 316t335 114h619v-1885h-172v1721h-275v-1721z" />
    <glyph glyph-name="periodcentered" unicode="&#xb7;" horiz-adv-x="477" 
d="M346 489q0 -50 -30.5 -77t-75.5 -27q-46 0 -77.5 27t-31.5 77t31.5 77.5t77.5 27.5q45 0 75.5 -27.5t30.5 -77.5z" />
    <glyph glyph-name="cedilla" unicode="&#xb8;" horiz-adv-x="440" 
d="M147 0h144l-31 -119q98 5 156 -38t59 -122q1 -97 -72.5 -146.5t-199.5 -49.5q-112 0 -201 39v139q78 -45 182 -45q74 0 112 18.5t38 51.5q0 43 -79 56t-157 -5z" />
    <glyph glyph-name="guillemotright" unicode="&#xbb;" horiz-adv-x="1007" 
d="M664 119h-175l263 373l-263 372h175l254 -356v-33zM281 119h-175l263 373l-263 372h175l254 -356v-33z" />
    <glyph glyph-name="onequarter" unicode="&#xbc;" horiz-adv-x="1888" 
d="M1520 836h153v-531h144v-133h-144v-172h-139v172h-451v129zM1534 305v340l-277 -340h277zM463 -27h-72l938 1485h72zM319 1393h107v-701h143v-135h-460v135h176v551l-168 -63v135z" />
    <glyph glyph-name="onehalf" unicode="&#xbd;" horiz-adv-x="1806" 
d="M455 -27h-72l938 1485h72zM1145 768q120 84 278 84q136 0 215.5 -62t79.5 -174q0 -50 -19 -95t-55 -82t-72 -63.5t-85 -56.5q-9 -5 -35 -20t-36 -21t-31.5 -19t-31 -20t-25.5 -19t-23 -21t-16 -20.5t-12.5 -22.5t-4.5 -23l450 2v-135h-606v66q0 56 16 103.5t39.5 80.5
t60 64t69 51t74.5 45q12 7 18 10q97 58 126 83q56 51 56 115q0 101 -164 101q-135 0 -266 -94v143zM311 1393h107v-701h143v-135h-461v135h176v551l-167 -63v135z" />
    <glyph glyph-name="threequarters" unicode="&#xbe;" horiz-adv-x="2002" 
d="M598 -27h-72l938 1485h72zM1634 836h154v-531h143v-133h-143v-172h-139v172h-451v129zM1649 305v340l-277 -340h277zM680 1186q0 -61 -29 -109.5t-69 -70.5q131 -64 131 -209q0 -120 -92 -184t-228 -64q-162 0 -291 57v139q116 -63 279 -63q91 0 142.5 27.5t51.5 95.5
q0 69 -46 96t-128 27h-133v135h117q77 0 117.5 28.5t40.5 82.5q0 110 -176 110q-133 0 -250 -67v139q119 61 268 61q132 0 213.5 -62.5t81.5 -168.5z" />
    <glyph glyph-name="questiondown" unicode="&#xbf;" horiz-adv-x="989" 
d="M922 -360q-186 -109 -396 -109q-133 0 -235.5 37.5t-165 117t-62.5 191.5q0 68 28 136t70.5 121t92 110.5t92 105.5t70.5 104.5t28 108.5h164q0 -63 -27.5 -126.5t-68.5 -114t-89 -106t-89 -103.5t-68.5 -106t-27.5 -113q0 -199 315 -199q186 0 369 108v-163zM635 903
q0 -49 -31.5 -75.5t-77.5 -26.5q-45 0 -75.5 26.5t-30.5 75.5q0 50 30.5 77.5t75.5 27.5q46 0 77.5 -27.5t31.5 -77.5z" />
    <glyph glyph-name="Agrave" unicode="&#xc0;" horiz-adv-x="1468" 
d="M201 0h-187l625 1434h190l623 -1434h-184l-148 346h-772zM711 1202l-295 -696h637l-297 696q-10 22 -23 55q-3 -7 -7 -18t-7.5 -20t-7.5 -17zM866 1577h-178l-213 301h205z" />
    <glyph glyph-name="Aacute" unicode="&#xc1;" horiz-adv-x="1468" 
d="M201 0h-187l625 1434h190l623 -1434h-184l-148 346h-772zM711 1202l-295 -696h637l-297 696q-10 22 -23 55q-3 -7 -7 -18t-7.5 -20t-7.5 -17zM774 1577h-178l186 301h205z" />
    <glyph glyph-name="Acircumflex" unicode="&#xc2;" horiz-adv-x="1468" 
d="M201 0h-187l625 1434h190l623 -1434h-184l-148 346h-772zM711 1202l-295 -696h637l-297 696q-10 22 -23 55q-3 -7 -7 -18t-7.5 -20t-7.5 -17zM664 1878h147l270 -299h-186l-158 176l-157 -176h-187z" />
    <glyph glyph-name="Atilde" unicode="&#xc3;" horiz-adv-x="1468" 
d="M201 0h-187l625 1434h190l623 -1434h-184l-148 346h-772zM711 1202l-295 -696h637l-297 696q-10 22 -23 55q-3 -7 -7 -18t-7.5 -20t-7.5 -17zM1069 1780q14 -104 -37 -160.5t-131 -56.5q-54 0 -116.5 21.5t-112.5 43t-74 21.5q-32 0 -48 -21t-11 -55h-144
q-16 103 34.5 161t129.5 58q53 0 115.5 -21.5t113.5 -43t76 -21.5q69 0 62 74h143z" />
    <glyph glyph-name="Adieresis" unicode="&#xc4;" horiz-adv-x="1468" 
d="M201 0h-187l625 1434h190l623 -1434h-184l-148 346h-772zM711 1202l-295 -696h637l-297 696q-10 22 -23 55q-3 -7 -7 -18t-7.5 -20t-7.5 -17zM1049 1714q0 -46 -33.5 -79t-79.5 -33t-79.5 33t-33.5 79q0 45 34 79t79 34t79 -34t34 -79zM635 1714q0 -46 -33.5 -79
t-79.5 -33t-79 33t-33 79q0 45 33.5 79t78.5 34t79 -34t34 -79z" />
    <glyph glyph-name="Aring" unicode="&#xc5;" horiz-adv-x="1468" 
d="M201 0h-187l625 1434h190l623 -1434h-184l-148 346h-772zM711 1202l-295 -696h637l-297 696q-10 22 -23 55q-3 -7 -7 -18t-7.5 -20t-7.5 -17zM965 1751q0 -102 -69.5 -164.5t-166.5 -62.5q-98 0 -167.5 62.5t-69.5 164.5q0 99 70 161t167 62q96 0 166 -62t70 -161z
M616 1749q0 -52 33 -82.5t80 -30.5t80 30.5t33 82.5q0 51 -33.5 82t-79.5 31t-79.5 -31t-33.5 -82z" />
    <glyph glyph-name="AE" unicode="&#xc6;" horiz-adv-x="2039" 
d="M1192 641v-477h745v-164h-917v350h-621l-241 -350h-191l983 1434h975v-164h-733v-465h672v-164h-672zM500 506h520v749z" />
    <glyph glyph-name="Ccedilla" unicode="&#xc7;" horiz-adv-x="1337" 
d="M1260 244v-172q-157 -80 -345 -95l-24 -96q98 5 156 -38t59 -122q1 -97 -72.5 -146.5t-199.5 -49.5q-112 0 -201 39v139q78 -45 182 -45q74 0 112 18.5t38 51.5q0 43 -79 56t-157 -5l45 201q-104 9 -202 44t-185.5 97.5t-153 145.5t-104 196.5t-37.5 243.5
q1 145 43.5 269t115.5 211t169 149.5t204.5 92t221.5 29.5q219 0 403 -96v-172q-155 104 -375 104q-91 0 -177 -21t-164.5 -68t-137 -114t-93.5 -166t-36 -218q-1 -111 34.5 -205.5t95.5 -160.5t139.5 -112t167 -68t178.5 -22q232 0 379 105z" />
    <glyph glyph-name="Egrave" unicode="&#xc8;" horiz-adv-x="1269" 
d="M188 1434h967v-164h-795v-465h734v-164h-734v-477h807v-164h-979v1434zM819 1577h-178l-213 301h205z" />
    <glyph glyph-name="Eacute" unicode="&#xc9;" horiz-adv-x="1269" 
d="M188 1434h967v-164h-795v-465h734v-164h-734v-477h807v-164h-979v1434zM727 1577h-178l186 301h205z" />
    <glyph glyph-name="Ecircumflex" unicode="&#xca;" horiz-adv-x="1269" 
d="M188 1434h967v-164h-795v-465h734v-164h-734v-477h807v-164h-979v1434zM616 1878h148l270 -299h-186l-158 176l-158 -176h-186z" />
    <glyph glyph-name="Edieresis" unicode="&#xcb;" horiz-adv-x="1269" 
d="M188 1434h967v-164h-795v-465h734v-164h-734v-477h807v-164h-979v1434zM1001 1714q0 -46 -33 -79t-79 -33t-79.5 33t-33.5 79q0 45 34 79t79 34t78.5 -34t33.5 -79zM588 1714q0 -46 -33.5 -79t-79.5 -33t-79.5 33t-33.5 79q0 45 34 79t79 34t79 -34t34 -79z" />
    <glyph glyph-name="Igrave" unicode="&#xcc;" horiz-adv-x="548" 
d="M188 1434h172v-1434h-172v1434zM412 1577h-179l-213 301h205z" />
    <glyph glyph-name="Iacute" unicode="&#xcd;" horiz-adv-x="548" 
d="M188 1434h172v-1434h-172v1434zM319 1577h-178l187 301h204z" />
    <glyph glyph-name="Icircumflex" unicode="&#xce;" horiz-adv-x="548" 
d="M188 1434h172v-1434h-172v1434zM209 1878h147l271 -299h-187l-157 176l-158 -176h-186z" />
    <glyph glyph-name="Idieresis" unicode="&#xcf;" horiz-adv-x="548" 
d="M188 1434h172v-1434h-172v1434zM594 1714q0 -46 -33.5 -79t-79.5 -33t-79 33t-33 79q0 45 33.5 79t78.5 34t79 -34t34 -79zM180 1714q0 -46 -33 -79t-79 -33t-79.5 33t-33.5 79q0 45 34 79t79 34t78.5 -34t33.5 -79z" />
    <glyph glyph-name="Eth" unicode="&#xd0;" horiz-adv-x="1521" 
d="M199 1434h471q186 0 331 -53.5t237.5 -150t140.5 -226.5t48 -287t-48 -287t-140.5 -226.5t-237.5 -150t-331 -53.5h-471v637h-168v156h168v641zM371 164h299q286 0 434.5 145.5t148.5 407.5t-148.5 407.5t-434.5 145.5h-299v-477h432v-156h-432v-473z" />
    <glyph glyph-name="Ntilde" unicode="&#xd1;" horiz-adv-x="1570" 
d="M360 0h-172v1434h160l862 -1145v123v1022h172v-1434h-159l-863 1147v-123v-1024zM1124 1780q14 -104 -37 -160.5t-131 -56.5q-54 0 -116.5 21.5t-112.5 43t-74 21.5q-32 0 -48 -21t-11 -55h-143q-16 104 34 161.5t129 57.5q53 0 116 -21.5t114 -43t76 -21.5q68 0 61 74
h143z" />
    <glyph glyph-name="Ograve" unicode="&#xd2;" horiz-adv-x="1683" 
d="M92 717q0 113 29.5 219.5t90.5 201.5t148.5 166t211.5 112.5t270 41.5t270 -41.5t211 -112.5t148.5 -166t90.5 -201.5t29 -219.5t-29 -219.5t-90.5 -201.5t-148.5 -166.5t-211 -113t-270 -41.5t-270 41.5t-211.5 113t-148.5 166.5t-90.5 201.5t-29.5 219.5zM1417 717
q0 113 -36 215t-105 183.5t-181 130t-253 48.5t-253.5 -48.5t-181.5 -130t-105 -183.5t-36 -215q0 -90 22 -173.5t69 -157.5t114 -128.5t162.5 -86.5t208.5 -32q141 0 253 48.5t181 130.5t105 184t36 215zM977 1577h-178l-213 301h205z" />
    <glyph glyph-name="Oacute" unicode="&#xd3;" horiz-adv-x="1683" 
d="M92 717q0 113 29.5 219.5t90.5 201.5t148.5 166t211.5 112.5t270 41.5t270 -41.5t211 -112.5t148.5 -166t90.5 -201.5t29 -219.5t-29 -219.5t-90.5 -201.5t-148.5 -166.5t-211 -113t-270 -41.5t-270 41.5t-211.5 113t-148.5 166.5t-90.5 201.5t-29.5 219.5zM1417 717
q0 113 -36 215t-105 183.5t-181 130t-253 48.5t-253.5 -48.5t-181.5 -130t-105 -183.5t-36 -215q0 -90 22 -173.5t69 -157.5t114 -128.5t162.5 -86.5t208.5 -32q141 0 253 48.5t181 130.5t105 184t36 215zM885 1577h-178l186 301h205z" />
    <glyph glyph-name="Ocircumflex" unicode="&#xd4;" horiz-adv-x="1683" 
d="M92 717q0 113 29.5 219.5t90.5 201.5t148.5 166t211.5 112.5t270 41.5t270 -41.5t211 -112.5t148.5 -166t90.5 -201.5t29 -219.5t-29 -219.5t-90.5 -201.5t-148.5 -166.5t-211 -113t-270 -41.5t-270 41.5t-211.5 113t-148.5 166.5t-90.5 201.5t-29.5 219.5zM1417 717
q0 113 -36 215t-105 183.5t-181 130t-253 48.5t-253.5 -48.5t-181.5 -130t-105 -183.5t-36 -215q0 -90 22 -173.5t69 -157.5t114 -128.5t162.5 -86.5t208.5 -32q141 0 253 48.5t181 130.5t105 184t36 215zM774 1878h148l270 -299h-186l-158 176l-158 -176h-186z" />
    <glyph glyph-name="Otilde" unicode="&#xd5;" horiz-adv-x="1683" 
d="M92 717q0 113 29.5 219.5t90.5 201.5t148.5 166t211.5 112.5t270 41.5t270 -41.5t211 -112.5t148.5 -166t90.5 -201.5t29 -219.5t-29 -219.5t-90.5 -201.5t-148.5 -166.5t-211 -113t-270 -41.5t-270 41.5t-211.5 113t-148.5 166.5t-90.5 201.5t-29.5 219.5zM1417 717
q0 113 -36 215t-105 183.5t-181 130t-253 48.5t-253.5 -48.5t-181.5 -130t-105 -183.5t-36 -215q0 -90 22 -173.5t69 -157.5t114 -128.5t162.5 -86.5t208.5 -32q141 0 253 48.5t181 130.5t105 184t36 215zM1180 1780q14 -104 -37 -160.5t-131 -56.5q-54 0 -116.5 21.5
t-112.5 43t-74 21.5q-32 0 -48.5 -21t-11.5 -55h-143q-16 103 34.5 161t129.5 58q53 0 115.5 -21.5t113.5 -43t76 -21.5q68 0 61 74h144z" />
    <glyph glyph-name="Odieresis" unicode="&#xd6;" horiz-adv-x="1683" 
d="M92 717q0 113 29.5 219.5t90.5 201.5t148.5 166t211.5 112.5t270 41.5t270 -41.5t211 -112.5t148.5 -166t90.5 -201.5t29 -219.5t-29 -219.5t-90.5 -201.5t-148.5 -166.5t-211 -113t-270 -41.5t-270 41.5t-211.5 113t-148.5 166.5t-90.5 201.5t-29.5 219.5zM1417 717
q0 113 -36 215t-105 183.5t-181 130t-253 48.5t-253.5 -48.5t-181.5 -130t-105 -183.5t-36 -215q0 -90 22 -173.5t69 -157.5t114 -128.5t162.5 -86.5t208.5 -32q141 0 253 48.5t181 130.5t105 184t36 215zM1159 1714q0 -46 -33 -79t-79 -33t-79.5 33t-33.5 79q0 45 34 79
t79 34t78.5 -34t33.5 -79zM745 1714q0 -46 -33 -79t-79 -33t-79.5 33t-33.5 79q0 45 34 79t79 34t78.5 -34t33.5 -79z" />
    <glyph glyph-name="multiply" unicode="&#xd7;" horiz-adv-x="964" 
d="M483 616l-262 -262l-104 105l262 262l-262 260l104 104l262 -260l260 260l105 -104l-260 -260l260 -262l-105 -105z" />
    <glyph glyph-name="Oslash" unicode="&#xd8;" horiz-adv-x="1683" 
d="M1516 1532l-177 -242q123 -105 187.5 -256t64.5 -317q0 -113 -29 -219.5t-90.5 -201.5t-148.5 -166.5t-211 -113t-270 -41.5q-222 0 -389 95l-123 -168h-164l176 243q-122 103 -186 254.5t-64 317.5q0 113 29.5 219.5t90.5 201.5t148.5 166t211.5 112.5t270 41.5
q218 0 389 -92l121 166h164zM842 1294q-141 0 -253.5 -48.5t-181.5 -130t-105 -183.5t-36 -215q0 -127 44.5 -240.5t131.5 -193.5l688 946q-124 65 -288 65zM551 205q129 -66 291 -66q141 0 253 48.5t181 130.5t105 184t36 215q0 127 -45 241t-133 195z" />
    <glyph glyph-name="Ugrave" unicode="&#xd9;" horiz-adv-x="1542" 
d="M1198 1434h172v-910q0 -120 -32 -214.5t-87 -156.5t-132 -102.5t-162.5 -58t-184.5 -17.5q-125 0 -229 29t-189.5 91t-133.5 171.5t-48 257.5v910h172v-902q0 -393 428 -393q96 0 171 21t133.5 66t90 122.5t31.5 183.5v902zM899 1577h-178l-213 301h205z" />
    <glyph glyph-name="Uacute" unicode="&#xda;" horiz-adv-x="1542" 
d="M1198 1434h172v-910q0 -120 -32 -214.5t-87 -156.5t-132 -102.5t-162.5 -58t-184.5 -17.5q-125 0 -229 29t-189.5 91t-133.5 171.5t-48 257.5v910h172v-902q0 -393 428 -393q96 0 171 21t133.5 66t90 122.5t31.5 183.5v902zM807 1577h-178l186 301h205z" />
    <glyph glyph-name="Ucircumflex" unicode="&#xdb;" horiz-adv-x="1542" 
d="M1198 1434h172v-910q0 -120 -32 -214.5t-87 -156.5t-132 -102.5t-162.5 -58t-184.5 -17.5q-125 0 -229 29t-189.5 91t-133.5 171.5t-48 257.5v910h172v-902q0 -393 428 -393q96 0 171 21t133.5 66t90 122.5t31.5 183.5v902zM696 1878h148l270 -299h-186l-158 176
l-158 -176h-186z" />
    <glyph glyph-name="Udieresis" unicode="&#xdc;" horiz-adv-x="1542" 
d="M1198 1434h172v-910q0 -120 -32 -214.5t-87 -156.5t-132 -102.5t-162.5 -58t-184.5 -17.5q-125 0 -229 29t-189.5 91t-133.5 171.5t-48 257.5v910h172v-902q0 -393 428 -393q96 0 171 21t133.5 66t90 122.5t31.5 183.5v902zM1081 1714q0 -46 -33 -79t-79 -33t-79.5 33
t-33.5 79q0 45 34 79t79 34t78.5 -34t33.5 -79zM668 1714q0 -46 -33.5 -79t-79.5 -33t-79.5 33t-33.5 79q0 45 34 79t79 34t79 -34t34 -79z" />
    <glyph glyph-name="Yacute" unicode="&#xdd;" horiz-adv-x="1343" 
d="M758 0h-172v543l-563 891h190l459 -738l458 738h191l-563 -891v-543zM717 1577h-178l186 301h205z" />
    <glyph glyph-name="Thorn" unicode="&#xde;" horiz-adv-x="1347" 
d="M360 1180h318q608 0 608 -463t-608 -463h-318v-254h-172v1434h172v-254zM360 418h326q74 0 134 7.5t116 28t93.5 53.5t60 86t22.5 124t-22 124.5t-59.5 86.5t-93.5 53t-115.5 27.5t-135.5 7.5h-326v-598z" />
    <glyph glyph-name="germandbls" unicode="&#xdf;" horiz-adv-x="1216" 
d="M1147 301q0 -82 -35.5 -146t-94.5 -102.5t-130.5 -58t-149.5 -19.5q-133 0 -256 50v143q113 -49 226 -49q56 0 103.5 10.5t87 32t62.5 60.5t23 91t-32 104t-77.5 94.5t-90.5 83.5t-77 85t-32 84q0 47 23 95t50.5 83t50.5 88t23 109q0 77 -61 126.5t-168 49.5
q-125 0 -201 -70.5t-76 -197.5v-1047h-163v1018q0 208 118 323t322 117q99 1 177 -26.5t123.5 -72.5t69 -96.5t23.5 -105.5q0 -61 -23 -118t-50.5 -92.5t-50.5 -77.5t-23 -76q0 -37 32 -77.5t77 -81.5t90.5 -87t77.5 -110.5t32 -135.5z" />
    <glyph glyph-name="agrave" unicode="&#xe0;" horiz-adv-x="1114" 
d="M950 205q0 -76 76 -76q32 0 76 14v-133q-61 -22 -123 -22q-140 0 -180 118q-157 -131 -383 -131q-67 0 -127.5 18t-110 53.5t-79 94t-29.5 133.5q0 74 26 132t69 95t102 61t119.5 34t127.5 10q131 0 272 -31v35q0 112 -73.5 179t-206.5 67q-187 0 -359 -74v160
q191 66 375 66q200 0 314 -108t114 -310v-385zM238 283q0 -81 62 -123.5t151 -42.5q95 0 183 37.5t152 105.5v180q-145 29 -249 29q-57 0 -107.5 -9.5t-95 -29.5t-70.5 -58t-26 -89zM637 1126h-178l-213 301h205z" />
    <glyph glyph-name="aacute" unicode="&#xe1;" horiz-adv-x="1114" 
d="M950 205q0 -76 76 -76q32 0 76 14v-133q-61 -22 -123 -22q-140 0 -180 118q-157 -131 -383 -131q-67 0 -127.5 18t-110 53.5t-79 94t-29.5 133.5q0 74 26 132t69 95t102 61t119.5 34t127.5 10q131 0 272 -31v35q0 112 -73.5 179t-206.5 67q-187 0 -359 -74v160
q191 66 375 66q200 0 314 -108t114 -310v-385zM238 283q0 -81 62 -123.5t151 -42.5q95 0 183 37.5t152 105.5v180q-145 29 -249 29q-57 0 -107.5 -9.5t-95 -29.5t-70.5 -58t-26 -89zM545 1126h-178l186 301h205z" />
    <glyph glyph-name="acircumflex" unicode="&#xe2;" horiz-adv-x="1114" 
d="M950 205q0 -76 76 -76q32 0 76 14v-133q-61 -22 -123 -22q-140 0 -180 118q-157 -131 -383 -131q-67 0 -127.5 18t-110 53.5t-79 94t-29.5 133.5q0 74 26 132t69 95t102 61t119.5 34t127.5 10q131 0 272 -31v35q0 112 -73.5 179t-206.5 67q-187 0 -359 -74v160
q191 66 375 66q200 0 314 -108t114 -310v-385zM238 283q0 -81 62 -123.5t151 -42.5q95 0 183 37.5t152 105.5v180q-145 29 -249 29q-57 0 -107.5 -9.5t-95 -29.5t-70.5 -58t-26 -89zM434 1427h148l270 -299h-186l-158 177l-158 -177h-186z" />
    <glyph glyph-name="atilde" unicode="&#xe3;" horiz-adv-x="1114" 
d="M950 205q0 -76 76 -76q32 0 76 14v-133q-61 -22 -123 -22q-140 0 -180 118q-157 -131 -383 -131q-67 0 -127.5 18t-110 53.5t-79 94t-29.5 133.5q0 74 26 132t69 95t102 61t119.5 34t127.5 10q131 0 272 -31v35q0 112 -73.5 179t-206.5 67q-187 0 -359 -74v160
q191 66 375 66q200 0 314 -108t114 -310v-385zM238 283q0 -81 62 -123.5t151 -42.5q95 0 183 37.5t152 105.5v180q-145 29 -249 29q-57 0 -107.5 -9.5t-95 -29.5t-70.5 -58t-26 -89zM840 1329q14 -104 -37 -160.5t-131 -56.5q-54 0 -116.5 21.5t-112.5 43t-74 21.5
q-32 0 -48.5 -21t-11.5 -55h-143q-16 103 34.5 161t129.5 58q53 0 115.5 -21.5t113.5 -43t76 -21.5q68 0 61 74h144z" />
    <glyph glyph-name="adieresis" unicode="&#xe4;" horiz-adv-x="1114" 
d="M950 205q0 -76 76 -76q32 0 76 14v-133q-61 -22 -123 -22q-140 0 -180 118q-157 -131 -383 -131q-67 0 -127.5 18t-110 53.5t-79 94t-29.5 133.5q0 74 26 132t69 95t102 61t119.5 34t127.5 10q131 0 272 -31v35q0 112 -73.5 179t-206.5 67q-187 0 -359 -74v160
q191 66 375 66q200 0 314 -108t114 -310v-385zM238 283q0 -81 62 -123.5t151 -42.5q95 0 183 37.5t152 105.5v180q-145 29 -249 29q-57 0 -107.5 -9.5t-95 -29.5t-70.5 -58t-26 -89zM819 1264q0 -46 -33 -79.5t-79 -33.5t-79.5 33.5t-33.5 79.5q0 44 34 78t79 34t78.5 -33.5
t33.5 -78.5zM406 1264q0 -46 -33.5 -79.5t-79.5 -33.5t-79.5 33.5t-33.5 79.5q0 44 34 78t79 34t79 -34t34 -78z" />
    <glyph glyph-name="aring" unicode="&#xe5;" horiz-adv-x="1114" 
d="M950 205q0 -76 76 -76q32 0 76 14v-133q-61 -22 -123 -22q-140 0 -180 118q-157 -131 -383 -131q-67 0 -127.5 18t-110 53.5t-79 94t-29.5 133.5q0 74 26 132t69 95t102 61t119.5 34t127.5 10q131 0 272 -31v35q0 112 -73.5 179t-206.5 67q-187 0 -359 -74v160
q191 66 375 66q200 0 314 -108t114 -310v-385zM238 283q0 -81 62 -123.5t151 -42.5q95 0 183 37.5t152 105.5v180q-145 29 -249 29q-57 0 -107.5 -9.5t-95 -29.5t-70.5 -58t-26 -89zM735 1300q0 -102 -69.5 -164.5t-165.5 -62.5q-98 0 -168 62.5t-70 164.5q0 99 70.5 161.5
t167.5 62.5q96 0 165.5 -62.5t69.5 -161.5zM387 1298q0 -52 33 -82t80 -30t79.5 30t32.5 82q0 51 -33 82t-79 31t-79.5 -31t-33.5 -82z" />
    <glyph glyph-name="ae" unicode="&#xe6;" horiz-adv-x="1865" 
d="M940 154q-199 -179 -504 -179q-157 0 -261.5 76t-104.5 223q0 74 26.5 132t70.5 95t105 61t125.5 34t137.5 10q151 0 292 -31v35q0 246 -321 246q-187 0 -359 -74v160q191 66 375 66q321 0 412 -207q66 100 171.5 153.5t221.5 53.5q92 0 169 -24t129 -66.5t90.5 -99.5
t54 -123.5t19 -139t-14.5 -145.5h-783q7 -71 43.5 -126.5t93 -89t124.5 -50.5t145 -17q172 0 315 80v-152q-67 -38 -160.5 -59t-189.5 -21q-125 0 -236 46t-186 133zM238 283q0 -82 65 -124t168 -42q242 0 403 141q-36 76 -45 182q-162 29 -272 29q-65 0 -119.5 -9.5
t-101 -29.5t-72.5 -57.5t-26 -89.5zM1327 856q-137 0 -232 -78.5t-104 -224.5h637q4 37 -2 76t-26.5 80t-54 73.5t-90 53t-128.5 20.5z" />
    <glyph glyph-name="ccedilla" unicode="&#xe7;" horiz-adv-x="1009" 
d="M930 207v-164q-121 -57 -262 -66l-25 -96q98 5 156 -38t59 -122q1 -97 -72.5 -146.5t-199.5 -49.5q-112 0 -201 39v139q78 -45 182 -45q74 0 112 18.5t38 51.5q0 43 -79 56t-157 -5l45 203q-88 12 -166 49t-140.5 98t-99 153t-36.5 205q0 104 31 191.5t82.5 147
t120.5 101.5t144.5 61.5t153.5 19.5q182 0 304 -80v-160q-114 88 -283 88q-74 0 -141.5 -21t-124 -63.5t-90 -114.5t-33.5 -165q0 -73 21.5 -134.5t58.5 -103.5t86.5 -71t104.5 -42.5t114 -13.5q163 0 297 80z" />
    <glyph glyph-name="egrave" unicode="&#xe8;" horiz-adv-x="1122" 
d="M84 492q0 124 43.5 225t114 163t156 95t175.5 33q79 0 147.5 -18t119.5 -50t91 -75.5t64.5 -96t37 -110t11.5 -118t-14 -120.5h-782q10 -99 70 -167t145.5 -97t189.5 -29q181 0 324 80v-160q-138 -72 -348 -72q-111 0 -208 32t-173 94.5t-120 163t-44 227.5zM885 563
q4 33 -1.5 70.5t-26.5 77.5t-54.5 72t-90 52.5t-128.5 20.5q-134 0 -230.5 -77.5t-105.5 -215.5h637zM711 1126h-179l-213 301h205z" />
    <glyph glyph-name="eacute" unicode="&#xe9;" horiz-adv-x="1122" 
d="M84 492q0 124 43.5 225t114 163t156 95t175.5 33q79 0 147.5 -18t119.5 -50t91 -75.5t64.5 -96t37 -110t11.5 -118t-14 -120.5h-782q10 -99 70 -167t145.5 -97t189.5 -29q181 0 324 80v-160q-138 -72 -348 -72q-111 0 -208 32t-173 94.5t-120 163t-44 227.5zM885 563
q4 33 -1.5 70.5t-26.5 77.5t-54.5 72t-90 52.5t-128.5 20.5q-134 0 -230.5 -77.5t-105.5 -215.5h637zM618 1126h-178l187 301h204z" />
    <glyph glyph-name="ecircumflex" unicode="&#xea;" horiz-adv-x="1122" 
d="M84 492q0 124 43.5 225t114 163t156 95t175.5 33q79 0 147.5 -18t119.5 -50t91 -75.5t64.5 -96t37 -110t11.5 -118t-14 -120.5h-782q10 -99 70 -167t145.5 -97t189.5 -29q181 0 324 80v-160q-138 -72 -348 -72q-111 0 -208 32t-173 94.5t-120 163t-44 227.5zM885 563
q4 33 -1.5 70.5t-26.5 77.5t-54.5 72t-90 52.5t-128.5 20.5q-134 0 -230.5 -77.5t-105.5 -215.5h637zM508 1427h147l271 -299h-187l-157 177l-158 -177h-186z" />
    <glyph glyph-name="edieresis" unicode="&#xeb;" horiz-adv-x="1122" 
d="M84 492q0 124 43.5 225t114 163t156 95t175.5 33q79 0 147.5 -18t119.5 -50t91 -75.5t64.5 -96t37 -110t11.5 -118t-14 -120.5h-782q10 -99 70 -167t145.5 -97t189.5 -29q181 0 324 80v-160q-138 -72 -348 -72q-111 0 -208 32t-173 94.5t-120 163t-44 227.5zM885 563
q4 33 -1.5 70.5t-26.5 77.5t-54.5 72t-90 52.5t-128.5 20.5q-134 0 -230.5 -77.5t-105.5 -215.5h637zM893 1264q0 -46 -33.5 -79.5t-79.5 -33.5t-79 33.5t-33 79.5q0 45 33.5 78.5t78.5 33.5q46 0 79.5 -34t33.5 -78zM479 1264q0 -46 -33 -79.5t-79 -33.5t-79.5 33.5
t-33.5 79.5q0 44 34 78t79 34t78.5 -33.5t33.5 -78.5z" />
    <glyph glyph-name="igrave" unicode="&#xec;" horiz-adv-x="475" 
d="M319 0h-163v983h163v-983zM373 1126h-158l-172 301h184z" />
    <glyph glyph-name="iacute" unicode="&#xed;" horiz-adv-x="475" 
d="M156 983h163v-983h-163v983zM281 1126h-179l187 301h205z" />
    <glyph glyph-name="icircumflex" unicode="&#xee;" horiz-adv-x="475" 
d="M170 1407h147l220 -279h-177l-116 156l-117 -156h-176zM156 983h163v-983h-163v983z" />
    <glyph glyph-name="idieresis" unicode="&#xef;" horiz-adv-x="475" 
d="M506 1264q0 -41 -31 -72t-72 -31t-71.5 31t-30.5 72q0 40 30.5 71t71.5 31t72 -31t31 -71zM174 1264q0 -41 -30.5 -72t-71.5 -31t-72 31t-31 72q0 40 31 71t72 31t71.5 -31t30.5 -71zM156 983h163v-983h-163v983z" />
    <glyph glyph-name="eth" unicode="&#xf0;" horiz-adv-x="1212" 
d="M1108 555q0 -280 -141 -430t-373 -150q-144 0 -260 58.5t-183 168t-67 251.5q0 97 37.5 183t101 145.5t148.5 93.5t178 34q140 0 253 -59.5t161 -155.5q-3 21 -9 45q-64 334 -348 463l-188 -188l-94 94l143 143q-123 27 -260 27v156q196 0 379 -64l176 176l94 -94
l-141 -141q85 -48 153.5 -114.5t124 -157.5t85.5 -214.5t30 -269.5zM248 453q0 -145 94 -233.5t252 -88.5q149 0 233 77.5t105 211.5q-3 148 -103 243t-254 95q-146 0 -236.5 -85t-90.5 -220z" />
    <glyph glyph-name="ntilde" unicode="&#xf1;" 
d="M299 838q55 71 149 120.5t205 49.5q179 0 294.5 -112t115.5 -290v-606h-164v586q0 133 -72.5 201.5t-191.5 68.5q-100 0 -181.5 -56t-138.5 -141v-659h-163v983h147v-145zM948 1329q14 -104 -37 -160.5t-131 -56.5q-54 0 -116.5 21.5t-112.5 43t-74 21.5q-32 0 -48 -21
t-11 -55h-144q-16 103 34.5 161t129.5 58q53 0 115.5 -21.5t113.5 -43t76 -21.5q69 0 62 74h143z" />
    <glyph glyph-name="ograve" unicode="&#xf2;" horiz-adv-x="1216" 
d="M84 492q0 98 29 182.5t79 145t116.5 103.5t143 64t156.5 21q81 0 157.5 -21t143 -64t116.5 -103.5t79 -145t29 -182.5t-29 -182.5t-79 -145t-116.5 -104t-143 -64.5t-157.5 -21q-80 0 -156.5 21t-143 64.5t-116.5 104t-79 145t-29 182.5zM969 492q0 166 -102.5 263
t-258.5 97q-155 0 -257.5 -97t-102.5 -263t102.5 -263.5t257.5 -97.5t258 97.5t103 263.5zM741 1126h-178l-213 301h205z" />
    <glyph glyph-name="oacute" unicode="&#xf3;" horiz-adv-x="1216" 
d="M84 492q0 98 29 182.5t79 145t116.5 103.5t143 64t156.5 21q81 0 157.5 -21t143 -64t116.5 -103.5t79 -145t29 -182.5t-29 -182.5t-79 -145t-116.5 -104t-143 -64.5t-157.5 -21q-80 0 -156.5 21t-143 64.5t-116.5 104t-79 145t-29 182.5zM969 492q0 166 -102.5 263
t-258.5 97q-155 0 -257.5 -97t-102.5 -263t102.5 -263.5t257.5 -97.5t258 97.5t103 263.5zM649 1126h-178l186 301h205z" />
    <glyph glyph-name="ocircumflex" unicode="&#xf4;" horiz-adv-x="1216" 
d="M84 492q0 98 29 182.5t79 145t116.5 103.5t143 64t156.5 21q81 0 157.5 -21t143 -64t116.5 -103.5t79 -145t29 -182.5t-29 -182.5t-79 -145t-116.5 -104t-143 -64.5t-157.5 -21q-80 0 -156.5 21t-143 64.5t-116.5 104t-79 145t-29 182.5zM969 492q0 166 -102.5 263
t-258.5 97q-155 0 -257.5 -97t-102.5 -263t102.5 -263.5t257.5 -97.5t258 97.5t103 263.5zM539 1427h147l270 -299h-186l-158 177l-157 -177h-187z" />
    <glyph glyph-name="otilde" unicode="&#xf5;" horiz-adv-x="1216" 
d="M84 492q0 98 29 182.5t79 145t116.5 103.5t143 64t156.5 21q81 0 157.5 -21t143 -64t116.5 -103.5t79 -145t29 -182.5t-29 -182.5t-79 -145t-116.5 -104t-143 -64.5t-157.5 -21q-80 0 -156.5 21t-143 64.5t-116.5 104t-79 145t-29 182.5zM969 492q0 166 -102.5 263
t-258.5 97q-155 0 -257.5 -97t-102.5 -263t102.5 -263.5t257.5 -97.5t258 97.5t103 263.5zM944 1329q14 -104 -37 -160.5t-131 -56.5q-54 0 -116.5 21.5t-112.5 43t-74 21.5q-32 0 -48 -21t-11 -55h-144q-16 103 34.5 161t129.5 58q53 0 115.5 -21.5t113.5 -43t76 -21.5
q69 0 62 74h143z" />
    <glyph glyph-name="odieresis" unicode="&#xf6;" horiz-adv-x="1216" 
d="M84 492q0 98 29 182.5t79 145t116.5 103.5t143 64t156.5 21q81 0 157.5 -21t143 -64t116.5 -103.5t79 -145t29 -182.5t-29 -182.5t-79 -145t-116.5 -104t-143 -64.5t-157.5 -21q-80 0 -156.5 21t-143 64.5t-116.5 104t-79 145t-29 182.5zM969 492q0 166 -102.5 263
t-258.5 97q-155 0 -257.5 -97t-102.5 -263t102.5 -263.5t257.5 -97.5t258 97.5t103 263.5zM924 1264q0 -46 -33.5 -79.5t-79.5 -33.5t-79.5 33.5t-33.5 79.5q0 44 34 78t79 34t79 -34t34 -78zM510 1264q0 -46 -33.5 -79.5t-79.5 -33.5t-79 33.5t-33 79.5q0 45 33.5 78.5
t78.5 33.5t79 -34t34 -78z" />
    <glyph glyph-name="divide" unicode="&#xf7;" horiz-adv-x="1257" 
d="M1120 639h-983v156h983v-156zM735 258q0 -50 -29.5 -77t-76.5 -27q-46 0 -76.5 27t-30.5 77t30.5 76t76.5 26q47 0 76.5 -26t29.5 -76zM735 1174q0 -50 -30 -77.5t-76 -27.5q-45 0 -76 27.5t-31 77.5t30.5 76t76.5 26q47 0 76.5 -26t29.5 -76z" />
    <glyph glyph-name="oslash" unicode="&#xf8;" horiz-adv-x="1216" 
d="M1092 1112l-146 -217q187 -142 187 -403q0 -98 -29 -182.5t-79 -145t-116.5 -104t-143 -64.5t-157.5 -21q-122 0 -239 52l-101 -150h-143l141 213q-85 67 -133.5 169.5t-48.5 232.5q0 98 29 182.5t79 145t116.5 103.5t143 64t156.5 21q128 0 238 -52l102 156h144z
M608 852q-155 0 -257.5 -97t-102.5 -263q0 -172 108 -269l400 602q-76 27 -148 27zM457 160q73 -29 151 -29q155 0 258 97.5t103 263.5q0 170 -111 270z" />
    <glyph glyph-name="ugrave" unicode="&#xf9;" 
d="M887 983h164v-983h-148v145q-55 -71 -149 -120.5t-205 -49.5q-190 0 -300 110t-110 292v606h164v-586q0 -270 264 -270q100 0 181.5 56t138.5 141v659zM733 1126h-178l-213 301h205z" />
    <glyph glyph-name="uacute" unicode="&#xfa;" 
d="M887 983h164v-983h-148v145q-55 -71 -149 -120.5t-205 -49.5q-190 0 -300 110t-110 292v606h164v-586q0 -270 264 -270q100 0 181.5 56t138.5 141v659zM641 1126h-178l186 301h205z" />
    <glyph glyph-name="ucircumflex" unicode="&#xfb;" 
d="M887 983h164v-983h-148v145q-55 -71 -149 -120.5t-205 -49.5q-190 0 -300 110t-110 292v606h164v-586q0 -270 264 -270q100 0 181.5 56t138.5 141v659zM530 1427h148l270 -299h-186l-158 177l-158 -177h-186z" />
    <glyph glyph-name="udieresis" unicode="&#xfc;" 
d="M887 983h164v-983h-148v145q-55 -71 -149 -120.5t-205 -49.5q-190 0 -300 110t-110 292v606h164v-586q0 -270 264 -270q100 0 181.5 56t138.5 141v659zM915 1264q0 -46 -33 -79.5t-79 -33.5t-79.5 33.5t-33.5 79.5q0 44 34 78t79 34t78.5 -33.5t33.5 -78.5zM502 1264
q0 -46 -33.5 -79.5t-79.5 -33.5t-79.5 33.5t-33.5 79.5q0 44 34 78t79 34t79 -34t34 -78z" />
    <glyph glyph-name="yacute" unicode="&#xfd;" horiz-adv-x="1101" 
d="M565 186l332 797h174l-483 -1130q-141 -328 -371 -328q-54 0 -106 14v142q47 -13 86 -13q82 0 144 59.5t110 180.5l36 90l-467 985h175zM575 1126h-178l187 301h204z" />
    <glyph glyph-name="thorn" unicode="&#xfe;" horiz-adv-x="1271" 
d="M152 1434h163v-598q147 172 381 172q211 0 351.5 -147.5t140.5 -368.5t-140.5 -369t-351.5 -148q-234 0 -381 172v-598h-163v1885zM1024 492q0 164 -99.5 264t-246.5 100q-125 0 -222 -70t-141 -172v-245q44 -102 141 -172t222 -70q147 0 246.5 100t99.5 265z" />
    <glyph glyph-name="ydieresis" unicode="&#xff;" horiz-adv-x="1101" 
d="M565 186l332 797h174l-483 -1130q-141 -328 -371 -328q-54 0 -106 14v142q47 -13 86 -13q82 0 144 59.5t110 180.5l36 90l-467 985h175zM850 1264q0 -46 -33.5 -79.5t-79.5 -33.5t-79 33.5t-33 79.5q0 45 33.5 78.5t78.5 33.5t79 -34t34 -78zM436 1264q0 -46 -33 -79.5
t-79 -33.5t-79.5 33.5t-33.5 79.5q0 44 33.5 78t79.5 34q45 0 78.5 -33.5t33.5 -78.5z" />
    <glyph glyph-name="Amacron" unicode="&#x100;" horiz-adv-x="1468" 
d="M201 0h-187l625 1434h190l623 -1434h-184l-148 346h-772zM711 1202l-295 -696h637l-297 696q-10 22 -23 55q-3 -7 -7 -18t-7.5 -20t-7.5 -17zM424 1755h614v-149h-614v149z" />
    <glyph glyph-name="amacron" unicode="&#x101;" horiz-adv-x="1114" 
d="M950 205q0 -76 76 -76q32 0 76 14v-133q-61 -22 -123 -22q-140 0 -180 118q-157 -131 -383 -131q-67 0 -127.5 18t-110 53.5t-79 94t-29.5 133.5q0 74 26 132t69 95t102 61t119.5 34t127.5 10q131 0 272 -31v35q0 112 -73.5 179t-206.5 67q-187 0 -359 -74v160
q191 66 375 66q200 0 314 -108t114 -310v-385zM238 283q0 -81 62 -123.5t151 -42.5q95 0 183 37.5t152 105.5v180q-145 29 -249 29q-57 0 -107.5 -9.5t-95 -29.5t-70.5 -58t-26 -89zM195 1305h614v-150h-614v150z" />
    <glyph glyph-name="Abreve" unicode="&#x102;" horiz-adv-x="1468" 
d="M201 0h-187l625 1434h190l623 -1434h-184l-148 346h-772zM711 1202l-295 -696h637l-297 696q-10 22 -23 55q-3 -7 -7 -18t-7.5 -20t-7.5 -17zM1018 1659q-120 -86 -287 -86t-287 86v160q135 -90 287 -90t287 90v-160z" />
    <glyph glyph-name="abreve" unicode="&#x103;" horiz-adv-x="1114" 
d="M950 205q0 -76 76 -76q32 0 76 14v-133q-61 -22 -123 -22q-140 0 -180 118q-157 -131 -383 -131q-67 0 -127.5 18t-110 53.5t-79 94t-29.5 133.5q0 74 26 132t69 95t102 61t119.5 34t127.5 10q131 0 272 -31v35q0 112 -73.5 179t-206.5 67q-187 0 -359 -74v160
q191 66 375 66q200 0 314 -108t114 -310v-385zM238 283q0 -81 62 -123.5t151 -42.5q95 0 183 37.5t152 105.5v180q-145 29 -249 29q-57 0 -107.5 -9.5t-95 -29.5t-70.5 -58t-26 -89zM788 1208q-120 -86 -286 -86q-167 0 -287 86v160q135 -90 287 -90q78 0 145 20.5t141 69.5
v-160z" />
    <glyph glyph-name="Aogonek" unicode="&#x104;" horiz-adv-x="1468" 
d="M1268 -258q-2 -38 21.5 -61t66.5 -23q65 0 121 43v-131q-65 -45 -162 -45q-98 0 -150.5 51t-52.5 131q0 140 156 293l-148 346h-772l-147 -346h-187l625 1434h190l623 -1434q-85 -57 -135.5 -129t-48.5 -129zM711 1202l-295 -696h637l-297 696q-10 22 -23 55
q-3 -7 -7 -18t-7.5 -20t-7.5 -17z" />
    <glyph glyph-name="aogonek" unicode="&#x105;" horiz-adv-x="1114" 
d="M1102 143v-133q-84 -57 -135 -130t-49 -130q-2 -37 21 -60t67 -24q48 3 94 27v-131q-66 -29 -135 -29q-97 -1 -150 50.5t-53 131.5q0 69 39 143.5t112 137.5q-86 24 -114 110q-157 -131 -383 -131q-67 0 -127.5 18t-110 53.5t-79 94t-29.5 133.5q0 74 26 132t69 95
t102 61t119.5 34t127.5 10q131 0 272 -31v35q0 112 -73.5 179t-206.5 67q-187 0 -359 -74v160q191 66 375 66q200 0 314 -108t114 -310v-385q0 -76 76 -76q32 0 76 14zM451 117q95 0 183 37.5t152 105.5v180q-145 29 -249 29q-57 0 -107.5 -9.5t-95 -29.5t-70.5 -58t-26 -89
q0 -81 62 -123.5t151 -42.5z" />
    <glyph glyph-name="Cacute" unicode="&#x106;" horiz-adv-x="1337" 
d="M92 707q1 145 43.5 269t115.5 211t169 149.5t204.5 92t221.5 29.5q219 0 403 -96v-172q-155 104 -375 104q-91 0 -177 -21t-164.5 -68t-137 -114t-93.5 -166t-36 -218q-1 -111 34.5 -205.5t95.5 -160.5t139.5 -112t167 -68t178.5 -22q232 0 379 105v-172
q-189 -97 -416 -97q-109 0 -216.5 29.5t-204.5 91t-171 147t-117.5 205.5t-42.5 259zM856 1577h-178l186 301h205z" />
    <glyph glyph-name="cacute" unicode="&#x107;" horiz-adv-x="1009" 
d="M84 487q0 104 31 191.5t82.5 147t120.5 101.5t144.5 61.5t153.5 19.5q182 0 304 -80v-160q-114 88 -283 88q-74 0 -141.5 -21t-124 -63.5t-90 -114.5t-33.5 -165q0 -73 21.5 -134.5t58.5 -103.5t86.5 -71t104.5 -42.5t114 -13.5q163 0 297 80v-164q-139 -68 -320 -68
q-100 0 -191.5 31.5t-167.5 92.5t-121.5 161.5t-45.5 226.5zM670 1126h-178l186 301h205z" />
    <glyph glyph-name="Cdotaccent" unicode="&#x10a;" horiz-adv-x="1337" 
d="M92 707q1 145 43.5 269t115.5 211t169 149.5t204.5 92t221.5 29.5q219 0 403 -96v-172q-155 104 -375 104q-91 0 -177 -21t-164.5 -68t-137 -114t-93.5 -166t-36 -218q-1 -111 34.5 -205.5t95.5 -160.5t139.5 -112t167 -68t178.5 -22q232 0 379 105v-172
q-189 -97 -416 -97q-109 0 -216.5 29.5t-204.5 91t-171 147t-117.5 205.5t-42.5 259zM682 1694q0 56 35.5 87t87.5 31q53 0 88 -31t35 -87q0 -58 -35 -89.5t-88 -31.5q-52 0 -87.5 32t-35.5 89z" />
    <glyph glyph-name="cdotaccent" unicode="&#x10b;" horiz-adv-x="1009" 
d="M84 487q0 104 31 191.5t82.5 147t120.5 101.5t144.5 61.5t153.5 19.5q182 0 304 -80v-160q-114 88 -283 88q-74 0 -141.5 -21t-124 -63.5t-90 -114.5t-33.5 -165q0 -73 21.5 -134.5t58.5 -103.5t86.5 -71t104.5 -42.5t114 -13.5q163 0 297 80v-164q-139 -68 -320 -68
q-100 0 -191.5 31.5t-167.5 92.5t-121.5 161.5t-45.5 226.5zM496 1243q0 56 35 87.5t87 31.5q53 0 88 -31.5t35 -87.5q0 -58 -35 -89.5t-88 -31.5q-52 0 -87 31.5t-35 89.5z" />
    <glyph glyph-name="Ccaron" unicode="&#x10c;" horiz-adv-x="1337" 
d="M92 707q1 145 43.5 269t115.5 211t169 149.5t204.5 92t221.5 29.5q219 0 403 -96v-172q-155 104 -375 104q-91 0 -177 -21t-164.5 -68t-137 -114t-93.5 -166t-36 -218q-1 -111 34.5 -205.5t95.5 -160.5t139.5 -112t167 -68t178.5 -22q232 0 379 105v-172
q-189 -97 -416 -97q-109 0 -216.5 29.5t-204.5 91t-171 147t-117.5 205.5t-42.5 259zM1163 1858l-270 -299h-148l-270 299h187l157 -177l158 177h186z" />
    <glyph glyph-name="ccaron" unicode="&#x10d;" horiz-adv-x="1009" 
d="M84 487q0 104 31 191.5t82.5 147t120.5 101.5t144.5 61.5t153.5 19.5q182 0 304 -80v-160q-114 88 -283 88q-74 0 -141.5 -21t-124 -63.5t-90 -114.5t-33.5 -165q0 -73 21.5 -134.5t58.5 -103.5t86.5 -71t104.5 -42.5t114 -13.5q163 0 297 80v-164q-139 -68 -320 -68
q-100 0 -191.5 31.5t-167.5 92.5t-121.5 161.5t-45.5 226.5zM977 1407l-270 -299h-148l-270 299h186l158 -176l158 176h186z" />
    <glyph glyph-name="Dcaron" unicode="&#x10e;" horiz-adv-x="1511" 
d="M188 1434h471q186 0 331.5 -53.5t238 -150t140.5 -226.5t48 -287t-48 -287t-140.5 -226.5t-238 -150t-331.5 -53.5h-471v1434zM1243 717q0 262 -149 407.5t-435 145.5h-299v-1106h299q286 0 435 145.5t149 407.5zM1040 1858l-270 -299h-147l-271 299h187l157 -177
l158 177h186z" />
    <glyph glyph-name="dcaron" unicode="&#x10f;" horiz-adv-x="1269" 
d="M1274 1434h164l-58 -377h-143zM956 1434h164v-1434h-147v164q-166 -189 -398 -189q-211 0 -351 148t-140 369t140 368.5t351 147.5q234 0 381 -172v598zM956 614q-44 103 -140.5 172.5t-221.5 69.5q-147 0 -246.5 -100t-99.5 -264q0 -165 99.5 -265t246.5 -100
q125 0 221.5 69.5t140.5 172.5v245z" />
    <glyph glyph-name="Dcroat" unicode="&#x110;" horiz-adv-x="1521" 
d="M199 1434h471q186 0 331 -53.5t237.5 -150t140.5 -226.5t48 -287t-48 -287t-140.5 -226.5t-237.5 -150t-331 -53.5h-471v637h-168v156h168v641zM371 164h299q286 0 434.5 145.5t148.5 407.5t-148.5 407.5t-434.5 145.5h-299v-477h432v-156h-432v-473z" />
    <glyph glyph-name="dcroat" unicode="&#x111;" horiz-adv-x="1269" 
d="M1120 1294h135v-123h-135v-1171h-147v164q-166 -189 -398 -189q-211 0 -351 148t-140 369t140 368.5t351 147.5q234 0 381 -172v335h-352v123h352v140h164v-140zM594 127q125 0 221.5 69.5t140.5 172.5v245q-44 103 -140.5 172.5t-221.5 69.5q-147 0 -246.5 -100
t-99.5 -264q0 -165 99.5 -265t246.5 -100z" />
    <glyph glyph-name="Emacron" unicode="&#x112;" horiz-adv-x="1269" 
d="M188 1434h967v-164h-795v-465h734v-164h-734v-477h807v-164h-979v1434zM377 1755h614v-149h-614v149z" />
    <glyph glyph-name="emacron" unicode="&#x113;" horiz-adv-x="1122" 
d="M84 492q0 124 43.5 225t114 163t156 95t175.5 33q79 0 147.5 -18t119.5 -50t91 -75.5t64.5 -96t37 -110t11.5 -118t-14 -120.5h-782q10 -99 70 -167t145.5 -97t189.5 -29q181 0 324 80v-160q-138 -72 -348 -72q-111 0 -208 32t-173 94.5t-120 163t-44 227.5zM885 563
q4 33 -1.5 70.5t-26.5 77.5t-54.5 72t-90 52.5t-128.5 20.5q-134 0 -230.5 -77.5t-105.5 -215.5h637zM268 1305h615v-150h-615v150z" />
    <glyph glyph-name="Edotaccent" unicode="&#x116;" horiz-adv-x="1269" 
d="M188 1434h967v-164h-795v-465h734v-164h-734v-477h807v-164h-979v1434zM553 1694q0 56 35.5 87t87.5 31q53 0 88 -31t35 -87q0 -58 -35 -89.5t-88 -31.5q-52 0 -87.5 32t-35.5 89z" />
    <glyph glyph-name="edotaccent" unicode="&#x117;" horiz-adv-x="1122" 
d="M84 492q0 124 43.5 225t114 163t156 95t175.5 33q79 0 147.5 -18t119.5 -50t91 -75.5t64.5 -96t37 -110t11.5 -118t-14 -120.5h-782q10 -99 70 -167t145.5 -97t189.5 -29q181 0 324 80v-160q-138 -72 -348 -72q-111 0 -208 32t-173 94.5t-120 163t-44 227.5zM885 563
q4 33 -1.5 70.5t-26.5 77.5t-54.5 72t-90 52.5t-128.5 20.5q-134 0 -230.5 -77.5t-105.5 -215.5h637zM444 1243q0 56 35.5 87.5t87.5 31.5q53 0 88 -31.5t35 -87.5q0 -58 -35 -89.5t-88 -31.5q-52 0 -87.5 32t-35.5 89z" />
    <glyph glyph-name="Eogonek" unicode="&#x118;" horiz-adv-x="1269" 
d="M1167 164v-164q-84 -57 -135 -130t-49 -130q-2 -37 21 -60t67 -24q50 3 96 27v-129q-64 -31 -137 -31q-97 -1 -150 50.5t-53 131.5q0 73 44 152t126 143h-809v1434h967v-164h-795v-465h734v-164h-734v-477h807z" />
    <glyph glyph-name="eogonek" unicode="&#x119;" horiz-adv-x="1122" 
d="M952 -430q-65 -45 -161 -45q-97 -1 -150 50.5t-53 131.5q0 69 40 140t117 135q-68 -7 -116 -7q-111 0 -208 32t-173 94.5t-120 163t-44 227.5q0 124 43.5 225t114 163t156 95t175.5 33q79 0 147.5 -18t119.5 -49.5t91 -75.5t64.5 -96t37 -109.5t11.5 -118.5t-14 -121
h-782q10 -99 70 -167t145.5 -97t189.5 -29q181 0 324 80v-160q-237 -181 -234 -305q-2 -37 21 -60t67 -24q70 4 121 43v-131zM584 856q-134 0 -230.5 -77.5t-105.5 -215.5h637q4 33 -1.5 70.5t-26.5 77.5t-54.5 72t-90 52.5t-128.5 20.5z" />
    <glyph glyph-name="Ecaron" unicode="&#x11a;" horiz-adv-x="1269" 
d="M188 1434h967v-164h-795v-465h734v-164h-734v-477h807v-164h-979v1434zM1034 1858l-270 -299h-148l-270 299h186l158 -177l158 177h186z" />
    <glyph glyph-name="ecaron" unicode="&#x11b;" horiz-adv-x="1122" 
d="M84 492q0 124 43.5 225t114 163t156 95t175.5 33q79 0 147.5 -18t119.5 -50t91 -75.5t64.5 -96t37 -110t11.5 -118t-14 -120.5h-782q10 -99 70 -167t145.5 -97t189.5 -29q181 0 324 80v-160q-138 -72 -348 -72q-111 0 -208 32t-173 94.5t-120 163t-44 227.5zM885 563
q4 33 -1.5 70.5t-26.5 77.5t-54.5 72t-90 52.5t-128.5 20.5q-134 0 -230.5 -77.5t-105.5 -215.5h637zM926 1407l-271 -299h-147l-270 299h186l158 -176l157 176h187z" />
    <glyph glyph-name="Gbreve" unicode="&#x11e;" horiz-adv-x="1443" 
d="M94 717q0 144 42.5 266.5t116 208.5t171 147t207 90t225.5 29q236 0 430 -96v-172q-165 104 -405 104q-93 0 -179.5 -20t-166 -65.5t-138.5 -111t-94 -163.5t-35 -217q0 -125 35.5 -225.5t94.5 -165t140 -108t167 -61.5t180 -18q153 0 264 54v569h172v-690
q-211 -97 -449 -97q-122 0 -232 24.5t-211 81.5t-174.5 141t-117 211t-43.5 284zM1110 1659q-120 -86 -287 -86q-166 0 -286 86v160q74 -49 141 -69.5t145 -20.5q152 0 287 90v-160z" />
    <glyph glyph-name="gbreve" unicode="&#x11f;" horiz-adv-x="1271" 
d="M84 492q0 221 140 368.5t351 147.5q232 0 398 -189v164h147v-983q0 -98 -30 -178.5t-80.5 -135t-119.5 -91.5t-145.5 -53.5t-160.5 -16.5q-218 0 -400 92v160q179 -101 379 -101q82 0 150.5 17t124.5 53t87.5 101t30.5 153v152q-145 -177 -381 -177q-211 0 -351 148
t-140 369zM956 614q-44 103 -140.5 172.5t-221.5 69.5q-147 0 -246.5 -100t-99.5 -264q0 -165 99.5 -265t246.5 -100q125 0 221 64t141 157v266zM879 1208q-120 -86 -287 -86t-287 86v160q135 -90 287 -90t287 90v-160z" />
    <glyph glyph-name="Gdotaccent" unicode="&#x120;" horiz-adv-x="1443" 
d="M94 717q0 144 42.5 266.5t116 208.5t171 147t207 90t225.5 29q236 0 430 -96v-172q-165 104 -405 104q-93 0 -179.5 -20t-166 -65.5t-138.5 -111t-94 -163.5t-35 -217q0 -125 35.5 -225.5t94.5 -165t140 -108t167 -61.5t180 -18q153 0 264 54v569h172v-690
q-211 -97 -449 -97q-122 0 -232 24.5t-211 81.5t-174.5 141t-117 211t-43.5 284zM692 1694q0 56 35.5 87t87.5 31q53 0 88 -31t35 -87q0 -58 -35 -89.5t-88 -31.5q-52 0 -87.5 32t-35.5 89z" />
    <glyph glyph-name="gdotaccent" unicode="&#x121;" horiz-adv-x="1271" 
d="M84 492q0 221 140 368.5t351 147.5q232 0 398 -189v164h147v-983q0 -98 -30 -178.5t-80.5 -135t-119.5 -91.5t-145.5 -53.5t-160.5 -16.5q-218 0 -400 92v160q179 -101 379 -101q82 0 150.5 17t124.5 53t87.5 101t30.5 153v152q-145 -177 -381 -177q-211 0 -351 148
t-140 369zM956 614q-44 103 -140.5 172.5t-221.5 69.5q-147 0 -246.5 -100t-99.5 -264q0 -165 99.5 -265t246.5 -100q125 0 221 64t141 157v266zM461 1243q0 56 35.5 87.5t87.5 31.5q53 0 88 -31.5t35 -87.5q0 -58 -35 -89.5t-88 -31.5q-52 0 -87.5 32t-35.5 89z" />
    <glyph glyph-name="Gcommaaccent" unicode="&#x122;" horiz-adv-x="1443" 
d="M94 717q0 144 42.5 266.5t116 208.5t171 147t207 90t225.5 29q236 0 430 -96v-172q-165 104 -405 104q-93 0 -179.5 -20t-166 -65.5t-138.5 -111t-94 -163.5t-35 -217q0 -125 35.5 -225.5t94.5 -165t140 -108t167 -61.5t180 -18q153 0 264 54v569h172v-690
q-211 -97 -449 -97q-122 0 -232 24.5t-211 81.5t-174.5 141t-117 211t-43.5 284zM868 -494h-143l51 390h164z" />
    <glyph glyph-name="gcommaaccent" unicode="&#x123;" horiz-adv-x="1271" 
d="M674 1118h-164l68 336h143zM84 492q0 221 140 368.5t351 147.5q232 0 398 -189v164h147v-983q0 -98 -30 -178.5t-80.5 -135t-119.5 -91.5t-145.5 -53.5t-160.5 -16.5q-218 0 -400 92v160q179 -101 379 -101q82 0 150.5 17t124.5 53t87.5 101t30.5 153v152
q-145 -177 -381 -177q-211 0 -351 148t-140 369zM956 614q-44 103 -140.5 172.5t-221.5 69.5q-147 0 -246.5 -100t-99.5 -264q0 -165 99.5 -265t246.5 -100q125 0 221 64t141 157v266z" />
    <glyph glyph-name="Hbar" unicode="&#x126;" horiz-adv-x="1583" 
d="M367 0h-172v1028h-152v143h152v263h172v-263h850v263h172v-263h151v-143h-151v-1028h-172v637h-850v-637zM367 1028v-227h850v227h-850z" />
    <glyph glyph-name="hbar" unicode="&#x127;" horiz-adv-x="1200" 
d="M313 858q58 64 147 107t191 43q179 0 294.5 -112t115.5 -290v-606h-164v586q0 133 -72.5 201.5t-191.5 68.5q-100 0 -181.5 -56t-138.5 -141v-659h-163v1149h-121v123h121v162h163v-162h365v-123h-365v-291z" />
    <glyph glyph-name="Imacron" unicode="&#x12a;" horiz-adv-x="548" 
d="M188 1434h172v-1434h-172v1434zM-31 1755h615v-149h-615v149z" />
    <glyph glyph-name="imacron" unicode="&#x12b;" horiz-adv-x="475" 
d="M12 1329h451v-153h-451v153zM156 983h163v-983h-163v983z" />
    <glyph glyph-name="Iogonek" unicode="&#x12e;" horiz-adv-x="548" 
d="M205 -260q-2 -37 21 -60t67 -24q70 4 121 43v-131q-65 -45 -162 -45q-97 -1 -150 50.5t-53 131.5q0 134 139 305v1424h172v-1434q-158 -158 -155 -260z" />
    <glyph glyph-name="iogonek" unicode="&#x12f;" horiz-adv-x="477" 
d="M348 1296q0 -50 -30.5 -77t-75.5 -27q-46 0 -77.5 27t-31.5 77q0 49 32 77t77 28t75.5 -28t30.5 -77zM180 -260q-2 -37 21 -60t67 -24q70 4 121 43v-131q-65 -45 -162 -45q-97 -1 -149.5 50t-52.5 132q0 68 37 151t96 156v971h164v-983q-60 -65 -101.5 -136.5
t-40.5 -123.5z" />
    <glyph glyph-name="Idotaccent" unicode="&#x130;" horiz-adv-x="548" 
d="M188 1434h172v-1434h-172v1434zM145 1694q0 56 35.5 87t87.5 31q53 0 88 -31t35 -87q0 -58 -35 -89.5t-88 -31.5q-52 0 -87.5 32t-35.5 89z" />
    <glyph glyph-name="dotlessi" unicode="&#x131;" horiz-adv-x="475" 
d="M156 983h163v-983h-163v983z" />
    <glyph glyph-name="IJ" unicode="&#x132;" horiz-adv-x="1599" 
d="M188 1434h172v-1434h-172v1434zM829 1434h594v-1028q0 -110 -36.5 -193t-101.5 -133t-148.5 -75t-184.5 -25q-226 0 -368 88v172q139 -97 338 -97q74 0 131.5 13.5t103 43t70 83.5t24.5 129v858h-422v164z" />
    <glyph glyph-name="ij" unicode="&#x133;" horiz-adv-x="950" 
d="M319 0h-163v983h163v-983zM344 1296q0 -50 -30.5 -77t-75.5 -27q-46 0 -76.5 27t-30.5 77q0 49 31 77t76 28t75.5 -28t30.5 -77zM795 -182q0 -83 -25 -142.5t-67.5 -91t-89.5 -45.5t-101 -14q-85 0 -152 26v152q45 -22 107 -22q164 0 164 161v1141h164v-1165zM819 1296
q0 -50 -30.5 -77t-75.5 -27q-46 0 -77.5 27t-31.5 77q0 49 32 77t77 28t75.5 -28t30.5 -77z" />
    <glyph glyph-name="Kcommaaccent" unicode="&#x136;" horiz-adv-x="1361" 
d="M360 0h-172v1434h172v-621h326l432 621h197l-488 -699l531 -735h-197l-469 649h-332v-649zM748 -473h-144l51 389h164z" />
    <glyph glyph-name="kcommaaccent" unicode="&#x137;" horiz-adv-x="1067" 
d="M1061 0h-193l-360 422h-193v-422h-163v1434h163v-861h199l311 410h191l-373 -489zM580 -473h-144l51 389h164z" />
    <glyph glyph-name="Lacute" unicode="&#x139;" horiz-adv-x="1185" 
d="M188 1434h172v-1270h795v-164h-967v1434zM330 1577h-178l186 301h205z" />
    <glyph glyph-name="lacute" unicode="&#x13a;" horiz-adv-x="475" 
d="M156 1495h163v-1495h-163v1495zM315 1577h-178l187 301h204z" />
    <glyph glyph-name="Lcommaaccent" unicode="&#x13b;" horiz-adv-x="1185" 
d="M188 1434h172v-1270h795v-164h-967v1434zM690 -473h-143l51 389h164z" />
    <glyph glyph-name="lcommaaccent" unicode="&#x13c;" horiz-adv-x="475" 
d="M156 1495h163v-1495h-163v1495zM256 -473h-143l51 389h164z" />
    <glyph glyph-name="Lcaron" unicode="&#x13d;" horiz-adv-x="1187" 
d="M762 1434h164l-58 -377h-143zM188 1434h172v-1270h795v-164h-967v1434z" />
    <glyph glyph-name="lcaron" unicode="&#x13e;" horiz-adv-x="475" 
d="M475 1495h164l-57 -377h-144zM156 1495h163v-1495h-163v1495z" />
    <glyph glyph-name="Ldot" unicode="&#x13f;" horiz-adv-x="1196" 
d="M852 717q0 -50 -31 -77.5t-76 -27.5q-46 0 -77 27.5t-31 77.5t31 77t77 27t76.5 -27t30.5 -77zM188 1434h172v-1270h795v-164h-967v1434z" />
    <glyph glyph-name="ldot" unicode="&#x140;" horiz-adv-x="595" 
d="M156 1495h163v-1495h-163v1495zM643 717q0 -50 -30.5 -77.5t-75.5 -27.5q-46 0 -77.5 27.5t-31.5 77.5t31.5 77t77.5 27q45 0 75.5 -27t30.5 -77z" />
    <glyph glyph-name="Lslash" unicode="&#x141;" horiz-adv-x="1200" 
d="M1167 0h-966v553l-164 -68v144l164 67v738h172v-672l430 180v-143l-430 -181v-454h794v-164z" />
    <glyph glyph-name="lslash" unicode="&#x142;" horiz-adv-x="604" 
d="M221 1495h164v-625l172 72v-143l-172 -74v-725h-164v662l-172 -72v143l172 74v688z" />
    <glyph glyph-name="Nacute" unicode="&#x143;" horiz-adv-x="1570" 
d="M360 0h-172v1434h160l862 -1145v123v1022h172v-1434h-159l-863 1147v-123v-1024zM829 1577h-178l187 301h204z" />
    <glyph glyph-name="nacute" unicode="&#x144;" 
d="M299 838q55 71 149 120.5t205 49.5q179 0 294.5 -112t115.5 -290v-606h-164v586q0 133 -72.5 201.5t-191.5 68.5q-100 0 -181.5 -56t-138.5 -141v-659h-163v983h147v-145zM653 1126h-178l187 301h204z" />
    <glyph glyph-name="Ncommaaccent" unicode="&#x145;" horiz-adv-x="1570" 
d="M360 0h-172v1434h160l862 -1145v123v1022h172v-1434h-159l-863 1147v-123v-1024zM823 -473h-143l51 389h164z" />
    <glyph glyph-name="ncommaaccent" unicode="&#x146;" 
d="M299 838q55 71 149 120.5t205 49.5q179 0 294.5 -112t115.5 -290v-606h-164v586q0 133 -72.5 201.5t-191.5 68.5q-100 0 -181.5 -56t-138.5 -141v-659h-163v983h147v-145zM631 -473h-144l52 389h163z" />
    <glyph glyph-name="Ncaron" unicode="&#x147;" horiz-adv-x="1570" 
d="M360 0h-172v1434h160l862 -1145v123v1022h172v-1434h-159l-863 1147v-123v-1024zM1137 1858l-271 -299h-147l-270 299h186l158 -177l157 177h187z" />
    <glyph glyph-name="ncaron" unicode="&#x148;" 
d="M299 838q55 71 149 120.5t205 49.5q179 0 294.5 -112t115.5 -290v-606h-164v586q0 133 -72.5 201.5t-191.5 68.5q-100 0 -181.5 -56t-138.5 -141v-659h-163v983h147v-145zM961 1407l-271 -299h-147l-271 299h187l157 -176l158 176h187z" />
    <glyph glyph-name="Eng" unicode="&#x14a;" horiz-adv-x="1570" 
d="M1382 -166q0 -153 -80.5 -229t-211.5 -76q-71 0 -148 22v158q50 -16 109 -16q77 0 118 37.5t41 124.5v161l-850 1131v-123v-1024h-172v1434h160l862 -1145v123v1022h172v-1600z" />
    <glyph glyph-name="eng" unicode="&#x14b;" 
d="M1063 -182q0 -83 -25 -142.5t-67.5 -91t-89.5 -45.5t-101 -14q-84 0 -151 26v152q56 -27 106 -27q73 0 118.5 38t45.5 128v744q0 133 -72.5 201.5t-191.5 68.5q-100 0 -181.5 -56t-138.5 -141v-659h-163v983h147v-145q55 71 149 120.5t205 49.5q179 0 294.5 -112
t115.5 -290v-788z" />
    <glyph glyph-name="Omacron" unicode="&#x14c;" horiz-adv-x="1683" 
d="M92 717q0 113 29.5 219.5t90.5 201.5t148.5 166t211.5 112.5t270 41.5t270 -41.5t211 -112.5t148.5 -166t90.5 -201.5t29 -219.5t-29 -219.5t-90.5 -201.5t-148.5 -166.5t-211 -113t-270 -41.5t-270 41.5t-211.5 113t-148.5 166.5t-90.5 201.5t-29.5 219.5zM1417 717
q0 113 -36 215t-105 183.5t-181 130t-253 48.5t-253.5 -48.5t-181.5 -130t-105 -183.5t-36 -215q0 -90 22 -173.5t69 -157.5t114 -128.5t162.5 -86.5t208.5 -32q141 0 253 48.5t181 130.5t105 184t36 215zM535 1755h614v-149h-614v149z" />
    <glyph glyph-name="omacron" unicode="&#x14d;" horiz-adv-x="1216" 
d="M84 492q0 98 29 182.5t79 145t116.5 103.5t143 64t156.5 21q81 0 157.5 -21t143 -64t116.5 -103.5t79 -145t29 -182.5t-29 -182.5t-79 -145t-116.5 -104t-143 -64.5t-157.5 -21q-80 0 -156.5 21t-143 64.5t-116.5 104t-79 145t-29 182.5zM969 492q0 166 -102.5 263
t-258.5 97q-155 0 -257.5 -97t-102.5 -263t102.5 -263.5t257.5 -97.5t258 97.5t103 263.5zM299 1305h614v-150h-614v150z" />
    <glyph glyph-name="Ohungarumlaut" unicode="&#x150;" horiz-adv-x="1683" 
d="M92 717q0 113 29.5 219.5t90.5 201.5t148.5 166t211.5 112.5t270 41.5t270 -41.5t211 -112.5t148.5 -166t90.5 -201.5t29 -219.5t-29 -219.5t-90.5 -201.5t-148.5 -166.5t-211 -113t-270 -41.5t-270 41.5t-211.5 113t-148.5 166.5t-90.5 201.5t-29.5 219.5zM1417 717
q0 113 -36 215t-105 183.5t-181 130t-253 48.5t-253.5 -48.5t-181.5 -130t-105 -183.5t-36 -215q0 -90 22 -173.5t69 -157.5t114 -128.5t162.5 -86.5t208.5 -32q141 0 253 48.5t181 130.5t105 184t36 215zM1081 1597h-174l142 301h184zM764 1597h-174l141 301h184z" />
    <glyph glyph-name="ohungarumlaut" unicode="&#x151;" horiz-adv-x="1216" 
d="M84 492q0 98 29 182.5t79 145t116.5 103.5t143 64t156.5 21q81 0 157.5 -21t143 -64t116.5 -103.5t79 -145t29 -182.5t-29 -182.5t-79 -145t-116.5 -104t-143 -64.5t-157.5 -21q-80 0 -156.5 21t-143 64.5t-116.5 104t-79 145t-29 182.5zM969 492q0 166 -102.5 263
t-258.5 97q-155 0 -257.5 -97t-102.5 -263t102.5 -263.5t257.5 -97.5t258 97.5t103 263.5zM846 1147h-174l141 301h184zM528 1147h-174l142 301h184z" />
    <glyph glyph-name="OE" unicode="&#x152;" horiz-adv-x="2111" 
d="M1092 0q-103 -25 -250 -25q-146 0 -270 41.5t-211.5 113t-148.5 166.5t-90.5 201.5t-29.5 219.5t29.5 219.5t90.5 201.5t148.5 166t211.5 112.5t270 41.5q151 0 250 -24h905v-164h-733v-465h671v-164h-671v-477h745v-164h-917zM270 717q0 -163 67.5 -292.5t201.5 -207.5
t313 -78q126 0 240 31v1094q-110 30 -240 30q-180 0 -313.5 -77.5t-201 -207.5t-67.5 -292z" />
    <glyph glyph-name="oe" unicode="&#x153;" horiz-adv-x="2004" 
d="M1049 211q-67 -114 -184.5 -175t-256.5 -61q-80 0 -156.5 21t-143 64.5t-116.5 104t-79 145t-29 182.5t29 182.5t79 145t116.5 103.5t143 64t156.5 21q137 0 255.5 -60.5t185.5 -173.5q64 113 174 173.5t235 60.5q92 0 169.5 -24t131 -66.5t93 -100t56.5 -124t21 -139
t-14 -144.5h-782q10 -94 70 -160t145.5 -94.5t189.5 -28.5q172 0 315 80v-152q-67 -38 -160.5 -59t-189.5 -21q-144 0 -265 60t-189 176zM248 492q0 -166 102.5 -263.5t257.5 -97.5t258 97.5t103 263.5t-102.5 263t-258.5 97q-155 0 -257.5 -97t-102.5 -263zM1468 856
q-137 0 -231.5 -78.5t-103.5 -224.5h636q4 37 -2 76t-26.5 80t-54 73.5t-90 53t-128.5 20.5z" />
    <glyph glyph-name="Racute" unicode="&#x154;" horiz-adv-x="1423" 
d="M360 0h-172v1434h562q81 0 155 -13.5t144.5 -45.5t122 -80.5t83 -124.5t31.5 -171q0 -96 -30.5 -171t-85.5 -124t-121 -79t-146 -45l486 -580h-215l-469 565h-345v-565zM360 1270v-541h398q55 0 103 7.5t95.5 26.5t81 48.5t54 77.5t20.5 110t-20.5 110.5t-54 78t-81 48.5
t-95.5 26.5t-103 7.5h-398zM729 1577h-178l186 301h205z" />
    <glyph glyph-name="racute" unicode="&#x155;" horiz-adv-x="749" 
d="M299 809q58 97 176.5 151.5t247.5 43.5v-164q-143 17 -253 -45.5t-155 -182.5v-612h-163v983h147v-174zM469 1126h-178l186 301h205z" />
    <glyph glyph-name="Rcommaaccent" unicode="&#x156;" horiz-adv-x="1423" 
d="M360 0h-172v1434h562q81 0 155 -13.5t144.5 -45.5t122 -80.5t83 -124.5t31.5 -171q0 -96 -30.5 -171t-85.5 -124t-121 -79t-146 -45l486 -580h-215l-469 565h-345v-565zM360 1270v-541h398q55 0 103 7.5t95.5 26.5t81 48.5t54 77.5t20.5 110t-20.5 110.5t-54 78t-81 48.5
t-95.5 26.5t-103 7.5h-398zM743 -473h-143l51 389h164z" />
    <glyph glyph-name="rcommaaccent" unicode="&#x157;" horiz-adv-x="749" 
d="M299 809q58 97 176.5 151.5t247.5 43.5v-164q-143 17 -253 -45.5t-155 -182.5v-612h-163v983h147v-174zM242 -473h-144l52 389h163z" />
    <glyph glyph-name="Rcaron" unicode="&#x158;" horiz-adv-x="1423" 
d="M360 0h-172v1434h562q81 0 155 -13.5t144.5 -45.5t122 -80.5t83 -124.5t31.5 -171q0 -96 -30.5 -171t-85.5 -124t-121 -79t-146 -45l486 -580h-215l-469 565h-345v-565zM360 1270v-541h398q55 0 103 7.5t95.5 26.5t81 48.5t54 77.5t20.5 110t-20.5 110.5t-54 78t-81 48.5
t-95.5 26.5t-103 7.5h-398zM1036 1858l-270 -299h-148l-270 299h187l157 -177l158 177h186z" />
    <glyph glyph-name="rcaron" unicode="&#x159;" horiz-adv-x="747" 
d="M297 809q58 97 176.5 151.5t247.5 43.5v-164q-143 17 -253 -45.5t-155 -182.5v-612h-163v983h147v-174zM774 1407l-270 -299h-148l-270 299h186l158 -176l158 176h186z" />
    <glyph glyph-name="Sacute" unicode="&#x15a;" horiz-adv-x="1198" 
d="M102 1079q0 93 40 166.5t109 119.5t156.5 69.5t186.5 23.5q119 0 233.5 -27.5t200.5 -76.5v-172q-85 55 -197.5 84.5t-224.5 27.5q-152 0 -241 -50t-89 -159q0 -58 29 -103t78.5 -75t113.5 -55t135 -47.5t142 -46.5t135 -58.5t113.5 -78t78.5 -109t29 -147.5
q0 -83 -29 -150t-78.5 -111.5t-118 -74t-144 -42.5t-160.5 -12q-272 0 -491 123v172q216 -131 479 -131q79 0 142.5 11t115.5 34.5t81 66t29 101.5q0 61 -29 109t-78.5 80t-113.5 58t-135 49t-142 47t-135 57.5t-113.5 75.5t-78.5 106t-29 145zM621 1577h-179l187 301h205z
" />
    <glyph glyph-name="sacute" unicode="&#x15b;" horiz-adv-x="954" 
d="M94 725q0 59 21.5 107t57.5 80.5t84.5 54.5t101.5 31.5t110 9.5q190 0 348 -84v-156q-62 40 -156 66t-182 26q-57 0 -104.5 -12t-81 -43t-33.5 -76q0 -38 27 -67.5t71 -47.5t100 -36.5t114.5 -34t114.5 -41t100 -56.5t71 -81t27 -113q0 -74 -33 -129t-91 -86.5
t-128 -46.5t-154 -15q-104 0 -208 26.5t-173 70.5v159q72 -49 174.5 -76.5t198.5 -27.5q56 0 98.5 5.5t78 18t54.5 37t19 60.5q0 42 -34.5 73t-90 51t-122 39t-133.5 44t-122.5 57.5t-90 87t-34.5 125.5zM504 1126h-178l186 301h205z" />
    <glyph glyph-name="Scedilla" unicode="&#x15e;" horiz-adv-x="1198" 
d="M276 1085q0 -58 29 -103t78.5 -75t113.5 -55t135 -47.5t142 -46.5t135 -58.5t113.5 -78t78.5 -109t29 -147.5q0 -74 -23 -135t-63 -104t-96.5 -74.5t-120.5 -48.5t-137 -23l-24 -99q98 5 156 -38t59 -122q1 -97 -73 -146.5t-200 -49.5q-111 0 -200 39v139q78 -45 182 -45
q149 0 149 70q0 43 -78.5 56t-156.5 -5l43 198q-234 9 -438 121v172q216 -131 479 -131q79 0 142.5 11t115.5 34.5t81 66t29 101.5q0 61 -29 109t-78.5 80t-113.5 58t-135 49t-142 47t-135 57.5t-113.5 75.5t-78.5 106t-29 145q0 93 40 166.5t109 119.5t156.5 69.5
t186.5 23.5q119 0 233.5 -27.5t200.5 -76.5v-172q-85 55 -197.5 84.5t-224.5 27.5q-152 0 -241 -50t-89 -159z" />
    <glyph glyph-name="scedilla" unicode="&#x15f;" horiz-adv-x="954" 
d="M260 729q0 -38 27 -67.5t71 -47.5t100 -36.5t114.5 -34t114.5 -41t100 -56.5t71 -81t27 -113q0 -124 -87.5 -190.5t-230.5 -81.5l-24 -99q98 5 156 -38t59 -122q1 -97 -73 -146.5t-200 -49.5q-111 0 -200 39v139q78 -45 182 -45q149 0 149 70q0 43 -78.5 56t-156.5 -5
l45 198q-92 6 -180 31.5t-148 63.5v159q72 -49 174.5 -76.5t198.5 -27.5q56 0 98.5 5.5t78 18t54.5 37t19 60.5q0 42 -34.5 73t-90 51t-122 39t-133.5 44t-122.5 57.5t-90 87t-34.5 125.5q0 59 21.5 107t57.5 80.5t84.5 54.5t101.5 31.5t110 9.5q190 0 348 -84v-156
q-62 40 -156 66t-182 26q-57 0 -104.5 -12t-81 -43t-33.5 -76z" />
    <glyph glyph-name="Scaron" unicode="&#x160;" horiz-adv-x="1198" 
d="M102 1079q0 93 40 166.5t109 119.5t156.5 69.5t186.5 23.5q119 0 233.5 -27.5t200.5 -76.5v-172q-85 55 -197.5 84.5t-224.5 27.5q-152 0 -241 -50t-89 -159q0 -58 29 -103t78.5 -75t113.5 -55t135 -47.5t142 -46.5t135 -58.5t113.5 -78t78.5 -109t29 -147.5
q0 -83 -29 -150t-78.5 -111.5t-118 -74t-144 -42.5t-160.5 -12q-272 0 -491 123v172q216 -131 479 -131q79 0 142.5 11t115.5 34.5t81 66t29 101.5q0 61 -29 109t-78.5 80t-113.5 58t-135 49t-142 47t-135 57.5t-113.5 75.5t-78.5 106t-29 145zM928 1858l-271 -299h-147
l-270 299h186l158 -177l157 177h187z" />
    <glyph glyph-name="scaron" unicode="&#x161;" horiz-adv-x="954" 
d="M94 725q0 59 21.5 107t57.5 80.5t84.5 54.5t101.5 31.5t110 9.5q190 0 348 -84v-156q-62 40 -156 66t-182 26q-57 0 -104.5 -12t-81 -43t-33.5 -76q0 -38 27 -67.5t71 -47.5t100 -36.5t114.5 -34t114.5 -41t100 -56.5t71 -81t27 -113q0 -74 -33 -129t-91 -86.5
t-128 -46.5t-154 -15q-104 0 -208 26.5t-173 70.5v159q72 -49 174.5 -76.5t198.5 -27.5q56 0 98.5 5.5t78 18t54.5 37t19 60.5q0 42 -34.5 73t-90 51t-122 39t-133.5 44t-122.5 57.5t-90 87t-34.5 125.5zM811 1407l-270 -299h-148l-270 299h186l158 -176l158 176h186z" />
    <glyph glyph-name="Tcommaaccent" unicode="&#x162;" horiz-adv-x="1236" 
d="M29 1434h1179v-164h-503v-1270h-173v1270h-503v164zM635 -473h-143l51 389h164z" />
    <glyph glyph-name="tcommaaccent" unicode="&#x163;" horiz-adv-x="839" 
d="M217 1288l162 41v-346h393v-152h-393v-507q0 -109 50 -152t161 -43q107 0 217 45v-151q-126 -46 -264 -46q-148 0 -237 81t-89 237v536h-184v152h184v305zM524 -473h-143l51 389h164z" />
    <glyph glyph-name="Tcaron" unicode="&#x164;" horiz-adv-x="1236" 
d="M29 1434h1179v-164h-503v-1270h-173v1270h-503v164zM975 1858l-270 -299h-148l-270 299h186l158 -177l157 177h187z" />
    <glyph glyph-name="tcaron" unicode="&#x165;" horiz-adv-x="839" 
d="M567 1495h164l-57 -356h-144zM217 1288l162 41v-346h393v-152h-393v-507q0 -109 50 -152t161 -43q107 0 217 45v-151q-126 -46 -264 -46q-148 0 -237 81t-89 237v536h-184v152h184v305z" />
    <glyph glyph-name="Tbar" unicode="&#x166;" horiz-adv-x="1257" 
d="M715 0h-172v641h-244v143h244v486h-504v164h1180v-164h-504v-486h243v-143h-243v-641z" />
    <glyph glyph-name="tbar" unicode="&#x167;" horiz-adv-x="841" 
d="M381 324q0 -109 50 -152t161 -43q107 0 217 45v-151q-126 -46 -264 -46q-148 0 -237 81t-89 237v172h-94v143h94v221h-184v152h184v305l162 41v-346h393v-152h-393v-221h321v-143h-321v-143z" />
    <glyph glyph-name="Umacron" unicode="&#x16a;" horiz-adv-x="1542" 
d="M1198 1434h172v-910q0 -120 -32 -214.5t-87 -156.5t-132 -102.5t-162.5 -58t-184.5 -17.5q-125 0 -229 29t-189.5 91t-133.5 171.5t-48 257.5v910h172v-902q0 -393 428 -393q96 0 171 21t133.5 66t90 122.5t31.5 183.5v902zM457 1755h614v-149h-614v149z" />
    <glyph glyph-name="umacron" unicode="&#x16b;" 
d="M887 983h164v-983h-148v145q-55 -71 -149 -120.5t-205 -49.5q-190 0 -300 110t-110 292v606h164v-586q0 -270 264 -270q100 0 181.5 56t138.5 141v659zM291 1305h614v-150h-614v150z" />
    <glyph glyph-name="Uring" unicode="&#x16e;" horiz-adv-x="1542" 
d="M1198 1434h172v-910q0 -120 -32 -214.5t-87 -156.5t-132 -102.5t-162.5 -58t-184.5 -17.5q-125 0 -229 29t-189.5 91t-133.5 171.5t-48 257.5v910h172v-902q0 -393 428 -393q96 0 171 21t133.5 66t90 122.5t31.5 183.5v902zM997 1751q0 -102 -69.5 -164.5t-165.5 -62.5
q-98 0 -168 62.5t-70 164.5q0 99 70 161t168 62q96 0 165.5 -62t69.5 -161zM649 1749q0 -52 33 -82.5t80 -30.5t79.5 30.5t32.5 82.5q0 51 -33 82t-79 31t-79.5 -31t-33.5 -82z" />
    <glyph glyph-name="uring" unicode="&#x16f;" 
d="M887 983h164v-983h-148v145q-55 -71 -149 -120.5t-205 -49.5q-190 0 -300 110t-110 292v606h164v-586q0 -270 264 -270q100 0 181.5 56t138.5 141v659zM831 1300q0 -102 -69.5 -164.5t-165.5 -62.5q-98 0 -168 62.5t-70 164.5q0 99 70.5 161.5t167.5 62.5
q96 0 165.5 -62.5t69.5 -161.5zM483 1298q0 -52 33 -82t80 -30t80 30t33 82q0 51 -33.5 82t-79.5 31t-79.5 -31t-33.5 -82z" />
    <glyph glyph-name="Uhungarumlaut" unicode="&#x170;" horiz-adv-x="1542" 
d="M1198 1434h172v-910q0 -120 -32 -214.5t-87 -156.5t-132 -102.5t-162.5 -58t-184.5 -17.5q-125 0 -229 29t-189.5 91t-133.5 171.5t-48 257.5v910h172v-902q0 -393 428 -393q96 0 171 21t133.5 66t90 122.5t31.5 183.5v902zM1004 1597h-175l142 301h184zM686 1597h-174
l141 301h185z" />
    <glyph glyph-name="uhungarumlaut" unicode="&#x171;" 
d="M887 983h164v-983h-148v145q-55 -71 -149 -120.5t-205 -49.5q-190 0 -300 110t-110 292v606h164v-586q0 -270 264 -270q100 0 181.5 56t138.5 141v659zM838 1147h-174l141 301h184zM520 1147h-174l141 301h185z" />
    <glyph glyph-name="Uogonek" unicode="&#x172;" horiz-adv-x="1542" 
d="M1120 -432q-65 -45 -162 -45q-97 -1 -149.5 50t-52.5 132q0 66 35 140t96 137q-65 -7 -115 -7q-125 0 -229 29t-189.5 91t-133.5 171.5t-48 257.5v910h172v-902q0 -393 428 -393q96 0 171 21t133.5 66t90 122.5t31.5 183.5v902h172v-910q0 -305 -203 -444
q-137 -94 -197.5 -184t-58.5 -156q-2 -37 21 -60t67 -24q70 4 121 43v-131z" />
    <glyph glyph-name="uogonek" unicode="&#x173;" 
d="M1051 983v-983q-85 -58 -136 -130t-49 -128q-2 -38 21.5 -61t66.5 -23q49 0 97 25v-127q-64 -31 -138 -31q-97 0 -149.5 51t-52.5 131q0 159 192 328v110q-55 -71 -149 -120.5t-205 -49.5q-190 0 -300 110t-110 292v606h164v-586q0 -270 264 -270q100 0 181.5 56
t138.5 141v659h164z" />
    <glyph glyph-name="Wcircumflex" unicode="&#x174;" horiz-adv-x="2074" 
d="M1853 1434h189l-451 -1434h-192l-363 1147l-362 -1147h-191l-450 1434h188l359 -1225l381 1225h153l381 -1225zM969 1878h147l270 -299h-186l-158 176l-157 -176h-187z" />
    <glyph glyph-name="wcircumflex" unicode="&#x175;" horiz-adv-x="1634" 
d="M1425 983h172l-335 -983h-179l-266 760l-266 -760h-178l-336 983h172l254 -803l280 803h148l280 -803zM750 1427h147l270 -299h-186l-158 177l-157 -177h-187z" />
    <glyph glyph-name="Ycircumflex" unicode="&#x176;" horiz-adv-x="1343" 
d="M758 0h-172v543l-563 891h190l459 -738l458 738h191l-563 -891v-543zM606 1878h148l270 -299h-186l-158 176l-158 -176h-186z" />
    <glyph glyph-name="ycircumflex" unicode="&#x177;" horiz-adv-x="1101" 
d="M565 186l332 797h174l-483 -1130q-141 -328 -371 -328q-54 0 -106 14v142q47 -13 86 -13q82 0 144 59.5t110 180.5l36 90l-467 985h175zM465 1427h147l271 -299h-187l-157 177l-158 -177h-186z" />
    <glyph glyph-name="Ydieresis" unicode="&#x178;" horiz-adv-x="1343" 
d="M758 0h-172v543l-563 891h190l459 -738l458 738h191l-563 -891v-543zM991 1714q0 -46 -33 -79t-79 -33t-79.5 33t-33.5 79q0 45 34 79t79 34t78.5 -34t33.5 -79zM578 1714q0 -46 -33.5 -79t-79.5 -33t-79.5 33t-33.5 79q0 45 34 79t79 34t79 -34t34 -79z" />
    <glyph glyph-name="Zacute" unicode="&#x179;" horiz-adv-x="1200" 
d="M1135 0h-1063v156l823 1114h-803v164h1010v-156l-826 -1114h859v-164zM659 1577h-178l187 301h204z" />
    <glyph glyph-name="zacute" unicode="&#x17a;" horiz-adv-x="950" 
d="M98 983h746v-145l-578 -695h617v-143h-809v145l577 695h-553v143zM522 1126h-178l186 301h205z" />
    <glyph glyph-name="Zdotaccent" unicode="&#x17b;" horiz-adv-x="1200" 
d="M1135 0h-1063v156l823 1114h-803v164h1010v-156l-826 -1114h859v-164zM485 1694q0 56 35.5 87t87.5 31q53 0 88 -31t35 -87q0 -58 -35 -89.5t-88 -31.5q-52 0 -87.5 32t-35.5 89z" />
    <glyph glyph-name="zdotaccent" unicode="&#x17c;" horiz-adv-x="950" 
d="M98 983h746v-145l-578 -695h617v-143h-809v145l577 695h-553v143zM348 1243q0 56 35.5 87.5t87.5 31.5q53 0 88 -31.5t35 -87.5q0 -58 -35 -89.5t-88 -31.5q-52 0 -87.5 32t-35.5 89z" />
    <glyph glyph-name="Zcaron" unicode="&#x17d;" horiz-adv-x="1200" 
d="M1135 0h-1063v156l823 1114h-803v164h1010v-156l-826 -1114h859v-164zM967 1858l-271 -299h-147l-270 299h186l158 -177l157 177h187z" />
    <glyph glyph-name="zcaron" unicode="&#x17e;" horiz-adv-x="950" 
d="M98 983h746v-145l-578 -695h617v-143h-809v145l577 695h-553v143zM829 1407l-270 -299h-147l-271 299h187l157 -176l158 176h186z" />
    <glyph glyph-name="Scommaaccent" unicode="&#x218;" horiz-adv-x="1198" 
d="M102 1079q0 93 40 166.5t109 119.5t156.5 69.5t186.5 23.5q119 0 233.5 -27.5t200.5 -76.5v-172q-85 55 -197.5 84.5t-224.5 27.5q-152 0 -241 -50t-89 -159q0 -58 29 -103t78.5 -75t113.5 -55t135 -47.5t142 -46.5t135 -58.5t113.5 -78t78.5 -109t29 -147.5
q0 -83 -29 -150t-78.5 -111.5t-118 -74t-144 -42.5t-160.5 -12q-272 0 -491 123v172q216 -131 479 -131q79 0 142.5 11t115.5 34.5t81 66t29 101.5q0 61 -29 109t-78.5 80t-113.5 58t-135 49t-142 47t-135 57.5t-113.5 75.5t-78.5 106t-29 145zM623 -473h-144l51 389h164z
" />
    <glyph glyph-name="scommaaccent" unicode="&#x219;" horiz-adv-x="954" 
d="M94 725q0 59 21.5 107t57.5 80.5t84.5 54.5t101.5 31.5t110 9.5q190 0 348 -84v-156q-62 40 -156 66t-182 26q-57 0 -104.5 -12t-81 -43t-33.5 -76q0 -38 27 -67.5t71 -47.5t100 -36.5t114.5 -34t114.5 -41t100 -56.5t71 -81t27 -113q0 -74 -33 -129t-91 -86.5
t-128 -46.5t-154 -15q-104 0 -208 26.5t-173 70.5v159q72 -49 174.5 -76.5t198.5 -27.5q56 0 98.5 5.5t78 18t54.5 37t19 60.5q0 42 -34.5 73t-90 51t-122 39t-133.5 44t-122.5 57.5t-90 87t-34.5 125.5zM500 -473h-144l52 389h163z" />
    <glyph glyph-name="uni021A" unicode="&#x21a;" horiz-adv-x="1236" 
d="M29 1434h1179v-164h-503v-1270h-173v1270h-503v164zM635 -473h-143l51 389h164z" />
    <glyph glyph-name="uni021B" unicode="&#x21b;" horiz-adv-x="839" 
d="M217 1288l162 41v-346h393v-152h-393v-507q0 -109 50 -152t161 -43q107 0 217 45v-151q-126 -46 -264 -46q-148 0 -237 81t-89 237v536h-184v152h184v305zM524 -473h-143l51 389h164z" />
    <glyph glyph-name="circumflex" unicode="&#x2c6;" horiz-adv-x="671" 
d="M262 1878h148l270 -299h-186l-158 176l-158 -176h-186z" />
    <glyph glyph-name="caron" unicode="&#x2c7;" horiz-adv-x="671" 
d="M680 1858l-270 -299h-148l-270 299h186l158 -177l158 177h186z" />
    <glyph glyph-name="breve" unicode="&#x2d8;" horiz-adv-x="692" 
d="M633 1659q-120 -86 -287 -86t-287 86v160q135 -90 287 -90t287 90v-160z" />
    <glyph glyph-name="dotaccent" unicode="&#x2d9;" horiz-adv-x="227" 
d="M-8 1694q0 56 35.5 87t87.5 31q53 0 88 -31t35 -87q0 -58 -35 -89.5t-88 -31.5q-52 0 -87.5 32t-35.5 89z" />
    <glyph glyph-name="ring" unicode="&#x2da;" horiz-adv-x="456" 
d="M465 1751q0 -102 -69.5 -164.5t-166.5 -62.5q-98 0 -167.5 62.5t-69.5 164.5q0 99 70 161t167 62q96 0 166 -62t70 -161zM117 1749q0 -52 32.5 -82.5t79.5 -30.5t80 30.5t33 82.5q0 51 -33.5 82t-79.5 31t-79 -31t-33 -82z" />
    <glyph glyph-name="ogonek" unicode="&#x2db;" horiz-adv-x="440" 
d="M195 0h170q-85 -57 -136 -130t-49 -130q-2 -37 21 -60t67 -24q70 4 121 43v-131q-65 -45 -162 -45q-97 -1 -149.5 50t-52.5 132q0 73 44 152t126 143z" />
    <glyph glyph-name="tilde" unicode="&#x2dc;" horiz-adv-x="718" 
d="M696 1780q14 -104 -37 -160.5t-131 -56.5q-54 0 -116.5 21.5t-112.5 43t-74 21.5q-32 0 -48 -21t-11 -55h-143q-16 104 34 161.5t129 57.5q53 0 116 -21.5t114 -43t76 -21.5q68 0 61 74h143z" />
    <glyph glyph-name="hungarumlaut" unicode="&#x2dd;" horiz-adv-x="765" 
d="M553 1597h-174l141 301h185zM236 1597h-175l142 301h184z" />
    <glyph glyph-name="uni0326" unicode="&#x326;" horiz-adv-x="296" 
d="M184 -473h-143l51 389h164z" />
    <glyph glyph-name="uni0401" unicode="&#x401;" horiz-adv-x="1265" 
d="M1001 1714q0 -46 -33 -79t-79 -33t-79.5 33t-33.5 79q0 45 34 79t79 34t78.5 -34t33.5 -79zM588 1714q0 -46 -33.5 -79t-79.5 -33t-79.5 33t-33.5 79q0 45 34 79t79 34t79 -34t34 -79zM188 1434h967v-164h-795v-465h734v-164h-734v-477h807v-164h-979v1434z" />
    <glyph glyph-name="uni0410" unicode="&#x410;" horiz-adv-x="1468" 
d="M201 0h-187l625 1434h190l623 -1434h-184l-148 346h-772zM711 1202l-295 -696h637l-297 696q-10 22 -23 55q-3 -7 -7 -18t-7.5 -20t-7.5 -17z" />
    <glyph glyph-name="uni0411" unicode="&#x411;" horiz-adv-x="1363" 
d="M360 854h381q60 0 114 -5t110.5 -18.5t103.5 -34.5t89 -54.5t71 -77.5t46 -104.5t17 -133.5q0 -101 -32.5 -178t-84.5 -123.5t-126.5 -75t-148 -39t-159.5 -10.5h-553v1434h994v-164h-822v-416zM360 164h390q51 0 91 3.5t84.5 12.5t77 27.5t60 46.5t41.5 71.5t14 100.5
q0 68 -22 117.5t-55 77.5t-84.5 44t-98 20.5t-108.5 4.5h-390v-526z" />
    <glyph glyph-name="uni0412" unicode="&#x412;" horiz-adv-x="1417" 
d="M188 1434h588q226 0 357 -93t131 -270q0 -127 -67.5 -208t-162.5 -109q39 -11 75.5 -27.5t76.5 -47t68.5 -68.5t47.5 -94.5t19 -123.5q0 -93 -35.5 -165.5t-89.5 -114t-127.5 -68.5t-139.5 -36t-136 -9h-605v1434zM1147 412q0 247 -342 247h-445v-495h398q46 0 78.5 1.5
t76.5 6.5t74.5 15t62.5 28.5t52 44t32.5 64.5t12.5 88zM1090 1047q0 122 -83 172.5t-245 50.5h-402v-447h449q123 0 202 54.5t79 169.5z" />
    <glyph glyph-name="uni0413" unicode="&#x413;" horiz-adv-x="1161" 
d="M360 0h-172v1434h942v-164h-770v-1270z" />
    <glyph glyph-name="uni0414" unicode="&#x414;" horiz-adv-x="1572" 
d="M203 -338h-164v502h174q233 423 233 1270h881v-1270h180v-502h-164v338h-1140v-338zM623 1270q-46 -767 -217 -1106h749v1106h-532z" />
    <glyph glyph-name="uni0415" unicode="&#x415;" horiz-adv-x="1265" 
d="M188 1434h967v-164h-795v-465h734v-164h-734v-477h807v-164h-979v1434z" />
    <glyph glyph-name="uni0416" unicode="&#x416;" horiz-adv-x="1923" 
d="M211 0h-197l465 735l-422 699h197l362 -621h261v621h172v-621h258l362 621h197l-422 -699l465 -735h-197l-407 649h-256v-649h-172v649h-259z" />
    <glyph glyph-name="uni0417" unicode="&#x417;" horiz-adv-x="1249" 
d="M1155 387q0 -89 -33.5 -161t-89 -118t-130.5 -76.5t-152.5 -43.5t-161.5 -13q-271 0 -510 91v172q218 -102 497 -99q63 0 117.5 7t108.5 25t92.5 47t62 76t23.5 109q0 74 -33 127t-91 80.5t-121.5 39.5t-139.5 12h-293v163h274q158 0 252.5 60.5t94.5 173.5
q0 235 -373 235q-227 3 -447 -100v172q212 92 461 92q155 0 273 -40.5t189 -127.5t71 -211q0 -125 -66 -210t-170 -119q53 -11 102 -36.5t94 -67.5t72 -109.5t27 -149.5z" />
    <glyph glyph-name="uni0418" unicode="&#x418;" horiz-adv-x="1570" 
d="M1382 0h-172v1024v123l-862 -1147h-160v1434h172v-1022v-123l863 1145h159v-1434z" />
    <glyph glyph-name="uni0419" unicode="&#x419;" horiz-adv-x="1570" 
d="M1210 0h172v1434h-159l-863 -1145v123v1022h-172v-1434h160l862 1147v-123v-1024zM1071 1659q-120 -86 -287 -86q-166 0 -286 86v160q74 -49 141 -69.5t145 -20.5q152 0 287 90v-160z" />
    <glyph glyph-name="uni041A" unicode="&#x41a;" horiz-adv-x="1361" 
d="M360 0h-172v1434h172v-621h326l432 621h197l-488 -699l531 -735h-197l-469 649h-332v-649z" />
    <glyph glyph-name="uni041B" unicode="&#x41b;" horiz-adv-x="1527" 
d="M457 1434h882v-1434h-172v1270h-546q-41 -472 -76 -672q-71 -409 -217 -543q-82 -74 -193 -75q-65 0 -127 22v164q41 -14 98 -14q53 0 96 35.5t74.5 100.5t56.5 152.5t43 197t31.5 228t24.5 250.5t21 261q3 38 4 57z" />
    <glyph glyph-name="uni041C" unicode="&#x41c;" horiz-adv-x="1855" 
d="M1520 1434h147v-1434h-172v1108l-514 -770h-107l-514 770v-1108h-172v1434h148l592 -885z" />
    <glyph glyph-name="uni041D" unicode="&#x41d;" horiz-adv-x="1570" 
d="M1210 1434h172v-1434h-172v637h-850v-637h-172v1434h172v-633h850v633z" />
    <glyph glyph-name="uni041E" unicode="&#x41e;" horiz-adv-x="1683" 
d="M92 717q0 113 29.5 219.5t90.5 201.5t148.5 166t211.5 112.5t270 41.5t270 -41.5t211 -112.5t148.5 -166t90.5 -201.5t29 -219.5t-29 -219.5t-90.5 -201.5t-148.5 -166.5t-211 -113t-270 -41.5t-270 41.5t-211.5 113t-148.5 166.5t-90.5 201.5t-29.5 219.5zM1417 717
q0 113 -36 215t-105 183.5t-181 130t-253 48.5t-253.5 -48.5t-181.5 -130t-105 -183.5t-36 -215q0 -90 22 -173.5t69 -157.5t114 -128.5t162.5 -86.5t208.5 -32q141 0 253 48.5t181 130.5t105 184t36 215z" />
    <glyph glyph-name="uni041F" unicode="&#x41f;" horiz-adv-x="1546" 
d="M360 0h-172v1434h1170v-1434h-172v1270h-826v-1270z" />
    <glyph glyph-name="uni0420" unicode="&#x420;" horiz-adv-x="1353" 
d="M188 1434h490q608 0 608 -463t-608 -463h-318v-508h-172v1434zM1112 971q0 71 -22 124.5t-59.5 86.5t-93.5 53t-115.5 27.5t-135.5 7.5h-326v-598h326q74 0 134 7.5t116 28t93.5 53.5t60 86t22.5 124z" />
    <glyph glyph-name="uni0421" unicode="&#x421;" horiz-adv-x="1347" 
d="M92 707q1 145 43.5 269t115.5 211t169 149.5t204.5 92t221.5 29.5q219 0 403 -96v-172q-155 104 -375 104q-91 0 -177 -21t-164.5 -68t-137 -114t-93.5 -166t-36 -218q-1 -111 34.5 -205.5t95.5 -160.5t139.5 -112t167 -68t178.5 -22q232 0 379 105v-172
q-189 -97 -416 -97q-109 0 -216.5 29.5t-204.5 91t-171 147t-117.5 205.5t-42.5 259z" />
    <glyph glyph-name="uni0422" unicode="&#x422;" horiz-adv-x="1236" 
d="M29 1434h1179v-164h-503v-1270h-173v1270h-503v164z" />
    <glyph glyph-name="uni0423" unicode="&#x423;" horiz-adv-x="1294" 
d="M776 326q-48 -102 -103 -173t-113.5 -108.5t-114.5 -53.5t-119 -16q-97 0 -195 29v162q91 -27 164 -27q44 0 77.5 6.5t72 25t73 57.5t66.5 100l24 53l-592 1053h191l493 -891l414 891h184z" />
    <glyph glyph-name="uni0424" unicode="&#x424;" horiz-adv-x="1769" 
d="M971 -76h-172v187q-224 6 -389.5 77t-258 207t-92.5 322t92.5 322t258 207t389.5 77v186h172v-186q340 -9 539.5 -167.5t199.5 -438.5t-199.5 -438.5t-539.5 -167.5v-187zM233 717q0 -204 144 -322.5t422 -128.5v901q-278 -10 -422 -128t-144 -322zM971 1167v-901
q278 10 421.5 128t143.5 323q0 204 -143.5 322t-421.5 128z" />
    <glyph glyph-name="uni0425" unicode="&#x425;" horiz-adv-x="1320" 
d="M209 0h-205l555 737l-524 697h205l422 -560l419 560h205l-522 -697l553 -737h-205l-450 600z" />
    <glyph glyph-name="uni0426" unicode="&#x426;" horiz-adv-x="1605" 
d="M1540 -338h-164l2 338h-1190v1434h172v-1270h830v1270h172v-1270h178v-502z" />
    <glyph glyph-name="uni0427" unicode="&#x427;" horiz-adv-x="1402" 
d="M1214 0h-172v561q-213 -72 -419 -72q-251 3 -390 126.5t-139 361.5v457h172v-465q0 -313 398 -316q191 0 378 72v709h172v-1434z" />
    <glyph glyph-name="uni0428" unicode="&#x428;" horiz-adv-x="2170" 
d="M1982 0h-1794v1434h172v-1270h639v1270h172v-1270h639v1270h172v-1434z" />
    <glyph glyph-name="uni0429" unicode="&#x429;" horiz-adv-x="2226" 
d="M2161 -338h-164l2 338h-1811v1434h172v-1270h639v1270h172v-1270h639v1270h172v-1270h179v-502z" />
    <glyph glyph-name="uni042A" unicode="&#x42a;" horiz-adv-x="1560" 
d="M885 0h-490v1270h-364v164h536v-510h318q608 0 608 -461q0 -463 -608 -463zM567 760v-596h326q76 0 135.5 7.5t115.5 27.5t93.5 53t59.5 86.5t22 124.5t-22.5 124t-60 85.5t-93.5 52.5t-115.5 27.5t-134.5 7.5h-326z" />
    <glyph glyph-name="uni042B" unicode="&#x42b;" horiz-adv-x="1804" 
d="M678 0h-490v1434h172v-510h318q608 0 608 -461q0 -463 -608 -463zM360 760v-596h326q76 0 135.5 7.5t115.5 27.5t93.5 53t59.5 86.5t22 124.5t-22.5 124t-60 85.5t-93.5 52.5t-115.5 27.5t-134.5 7.5h-326zM1616 0h-172v1434h172v-1434z" />
    <glyph glyph-name="uni042C" unicode="&#x42c;" horiz-adv-x="1353" 
d="M678 0h-490v1434h172v-510h318q608 0 608 -461q0 -463 -608 -463zM360 760v-596h326q76 0 135.5 7.5t115.5 27.5t93.5 53t59.5 86.5t22 124.5t-22.5 124t-60 85.5t-93.5 52.5t-115.5 27.5t-134.5 7.5h-326z" />
    <glyph glyph-name="uni042D" unicode="&#x42d;" horiz-adv-x="1341" 
d="M92 1362q181 96 408 96q113 0 220 -28.5t203 -90t168.5 -149t115 -213.5t42.5 -275q0 -147 -43 -269.5t-115.5 -205.5t-169.5 -141t-204 -84.5t-221 -26.5q-218 0 -404 97v178q155 -111 379 -111q89 0 171 17t158.5 55t134 94.5t95.5 141t45 188.5h-747v164h745
q-12 125 -67 222.5t-139 155.5t-183.5 87.5t-208.5 29.5q-105 0 -207 -26.5t-176 -77.5v172z" />
    <glyph glyph-name="uni042E" unicode="&#x42e;" horiz-adv-x="2234" 
d="M2142 717q0 -113 -29 -219.5t-90.5 -201.5t-148.5 -166.5t-211 -113t-270 -41.5q-168 0 -306.5 54.5t-229 148t-144 210t-66.5 247.5h-287v-635h-172v1434h172v-635h287q13 131 66.5 247.5t144 209.5t228.5 147.5t307 54.5q146 0 270 -41.5t211 -112.5t148.5 -166
t90.5 -201.5t29 -219.5zM817 717q0 -90 22 -173.5t69 -157.5t114 -128.5t162.5 -86.5t208.5 -32q141 0 253 48.5t181 130.5t105 184t36 215t-36 215t-105 183.5t-181 130t-253 48.5t-253.5 -48.5t-181.5 -130t-105 -183.5t-36 -215z" />
    <glyph glyph-name="uni042F" unicode="&#x42f;" horiz-adv-x="1402" 
d="M266 0h-209l424 547q-164 39 -263 147.5t-99 284.5q0 115 45.5 204t124 143t176.5 81t209 27h540v-1434h-172v524h-368h-2zM297 979q0 -99 51 -166t132 -96t188 -29h374v582h-374q-107 0 -188 -29t-132 -96t-51 -166z" />
    <glyph glyph-name="uni0430" unicode="&#x430;" horiz-adv-x="1126" 
d="M950 205q0 -76 76 -76q32 0 76 14v-133q-61 -22 -123 -22q-140 0 -180 118q-157 -131 -383 -131q-67 0 -127.5 18t-110 53.5t-79 94t-29.5 133.5q0 74 26 132t69 95t102 61t119.5 34t127.5 10q131 0 272 -31v35q0 112 -73.5 179t-206.5 67q-187 0 -359 -74v160
q191 66 375 66q200 0 314 -108t114 -310v-385zM238 283q0 -81 62 -123.5t151 -42.5q95 0 183 37.5t152 105.5v180q-145 29 -249 29q-57 0 -107.5 -9.5t-95 -29.5t-70.5 -58t-26 -89z" />
    <glyph glyph-name="uni0431" unicode="&#x431;" horiz-adv-x="1198" 
d="M1112 463q0 -227 -138 -357.5t-364 -130.5q-229 0 -369.5 151.5t-140.5 424.5q0 238 82.5 409.5t220.5 258.5q77 48 158 78t143 42t120 24t109 34.5t91 60.5v-172q-47 -33 -110.5 -53t-119.5 -29t-137.5 -35.5t-156.5 -70.5q-49 -29 -87.5 -68.5t-66 -87t-45 -88.5
t-35.5 -96q53 83 151 133.5t212 50.5q96 0 183.5 -34t154 -95t106 -152t39.5 -198zM264 459q0 -142 94.5 -235t247.5 -93q158 0 250 92.5t92 235.5t-92 235t-250 92q-148 0 -245 -98.5t-97 -228.5z" />
    <glyph glyph-name="uni0432" unicode="&#x432;" horiz-adv-x="1122" 
d="M707 0h-555v983h538q134 0 218.5 -70t84.5 -196q0 -74 -37 -132.5t-94 -84.5q67 -23 114.5 -82.5t47.5 -145.5q0 -125 -81 -198.5t-236 -73.5zM315 426v-283h369q84 0 130 31.5t46 108.5q0 143 -170 143h-375zM315 840v-273h359q153 0 153 133q0 40 -13.5 68.5t-37 43.5
t-48.5 21.5t-54 6.5h-359z" />
    <glyph glyph-name="uni0433" unicode="&#x433;" horiz-adv-x="905" 
d="M315 0h-163v983h718v-152h-555v-831z" />
    <glyph glyph-name="uni0434" unicode="&#x434;" horiz-adv-x="1296" 
d="M213 -266h-160v413h131q92 162 131.5 360.5t36.5 475.5h733v-836h144v-413h-160v266h-856v-266zM510 836q-6 -216 -42 -380t-106 -309h560v689h-412z" />
    <glyph glyph-name="uni0435" unicode="&#x435;" horiz-adv-x="1118" 
d="M84 492q0 124 43.5 225t114 163t156 95t175.5 33q79 0 147.5 -18t119.5 -50t91 -75.5t64.5 -96t37 -110t11.5 -118t-14 -120.5h-782q10 -99 70 -167t145.5 -97t189.5 -29q181 0 324 80v-160q-138 -72 -348 -72q-111 0 -208 32t-173 94.5t-120 163t-44 227.5zM885 563
q4 33 -1.5 70.5t-26.5 77.5t-54.5 72t-90 52.5t-128.5 20.5q-134 0 -230.5 -77.5t-105.5 -215.5h637z" />
    <glyph glyph-name="uni0436" unicode="&#x436;" horiz-adv-x="1544" 
d="M1530 0h-184l-334 412h-158v-412h-164v412h-158l-333 -412h-185l392 494l-347 489h183l299 -420h149v420h164v-420h150l299 420h182l-346 -489z" />
    <glyph glyph-name="uni0437" unicode="&#x437;" horiz-adv-x="976" 
d="M887 264q0 -138 -118.5 -213.5t-324.5 -75.5q-207 0 -362 76v156q64 -35 159.5 -57.5t182.5 -22.5q299 0 299 156q0 141 -217 141h-215v151h215q196 0 196 127q0 78 -74 117t-196 39q-85 0 -174.5 -21.5t-159.5 -56.5v154q166 76 353 76q201 0 308 -76.5t107 -208.5
q0 -88 -48.5 -145t-133.5 -76q88 -23 145.5 -86t57.5 -154z" />
    <glyph glyph-name="uni0438" unicode="&#x438;" horiz-adv-x="1208" 
d="M291 0h-139v983h163v-719l603 719h139v-983h-164v719z" />
    <glyph glyph-name="uni0439" unicode="&#x439;" horiz-adv-x="1208" 
d="M891 1221q-120 -86 -287 -86t-287 86v147q135 -90 287 -90t287 90v-147zM291 0h-139v983h163v-719l603 719h139v-983h-164v719z" />
    <glyph glyph-name="uni043A" unicode="&#x43a;" horiz-adv-x="1071" 
d="M315 0h-163v983h163v-410h199l311 410h191l-373 -489l418 -494h-193l-360 422h-193v-422z" />
    <glyph glyph-name="uni043B" unicode="&#x43b;" horiz-adv-x="1214" 
d="M500 831q-9 -135 -20.5 -239t-30 -204t-45 -170.5t-63 -125t-86.5 -81.5t-112 -27q-59 0 -118 22v129q34 -12 65 -12q64 0 109.5 58.5t74 175.5t44 267.5t22.5 358.5h723v-983h-164v831h-399z" />
    <glyph glyph-name="uni043C" unicode="&#x43c;" horiz-adv-x="1376" 
d="M307 0h-155v983h178l358 -545l359 545h178v-983h-156v741l-319 -485h-123l-320 485v-741z" />
    <glyph glyph-name="uni043D" unicode="&#x43d;" horiz-adv-x="1200" 
d="M315 0h-163v983h163v-416h570v416h164v-983h-164v416h-570v-416z" />
    <glyph glyph-name="uni043E" unicode="&#x43e;" horiz-adv-x="1216" 
d="M84 492q0 98 29 182.5t79 145t116.5 103.5t143 64t156.5 21q81 0 157.5 -21t143 -64t116.5 -103.5t79 -145t29 -182.5t-29 -182.5t-79 -145t-116.5 -104t-143 -64.5t-157.5 -21q-80 0 -156.5 21t-143 64.5t-116.5 104t-79 145t-29 182.5zM969 492q0 166 -102.5 263
t-258.5 97q-155 0 -257.5 -97t-102.5 -263t102.5 -263.5t257.5 -97.5t258 97.5t103 263.5z" />
    <glyph glyph-name="uni043F" unicode="&#x43f;" horiz-adv-x="1200" 
d="M315 0h-163v983h897v-983h-164v831h-570v-831z" />
    <glyph glyph-name="uni0440" unicode="&#x440;" horiz-adv-x="1271" 
d="M299 819q166 189 397 189q211 0 351.5 -147.5t140.5 -368.5t-140.5 -369t-351.5 -148q-234 0 -381 172v-598h-163v1434h147v-164zM1024 492q0 164 -99.5 264t-246.5 100q-125 0 -222 -70t-141 -172v-245q44 -102 141 -172t222 -70q147 0 246.5 100t99.5 265z" />
    <glyph glyph-name="uni0441" unicode="&#x441;" horiz-adv-x="1017" 
d="M84 487q0 104 31 191.5t82.5 147t120.5 101.5t144.5 61.5t153.5 19.5q182 0 304 -80v-160q-114 88 -283 88q-74 0 -141.5 -21t-124 -63.5t-90 -114.5t-33.5 -165q0 -73 21.5 -134.5t58.5 -103.5t86.5 -71t104.5 -42.5t114 -13.5q163 0 297 80v-164q-139 -68 -320 -68
q-100 0 -191.5 31.5t-167.5 92.5t-121.5 161.5t-45.5 226.5z" />
    <glyph glyph-name="uni0442" unicode="&#x442;" horiz-adv-x="956" 
d="M561 0h-164v831h-362v152h887v-152h-361v-831z" />
    <glyph glyph-name="uni0443" unicode="&#x443;" horiz-adv-x="1101" 
d="M565 186l332 797h174l-483 -1130q-141 -328 -371 -328q-54 0 -106 14v142q47 -13 86 -13q82 0 144 59.5t110 180.5l36 90l-467 985h175z" />
    <glyph glyph-name="uni0444" unicode="&#x444;" horiz-adv-x="1478" 
d="M821 -451h-164v426q-163 4 -293 67t-206 180.5t-76 269.5t76 269t206 180t293 67v426h164v-426q163 -4 293.5 -67t206.5 -180t76 -269q0 -114 -44 -210.5t-121.5 -162t-183 -103.5t-227.5 -41v-426zM246 492q0 -167 111.5 -267t299.5 -106v745q-188 -6 -299.5 -105.5
t-111.5 -266.5zM821 864v-745q188 6 300 106t112 267t-112 266.5t-300 105.5z" />
    <glyph glyph-name="uni0445" unicode="&#x445;" horiz-adv-x="1001" 
d="M768 983h188l-360 -477l381 -506h-189l-286 389l-289 -389h-188l383 506l-363 477h188l269 -362z" />
    <glyph glyph-name="uni0446" unicode="&#x446;" horiz-adv-x="1230" 
d="M1163 -266h-159v266h-852v983h163v-831h539v831h164v-831h145v-418z" />
    <glyph glyph-name="uni0447" unicode="&#x447;" horiz-adv-x="1071" 
d="M920 0h-164v342q-131 -51 -293 -51q-176 0 -277.5 88t-101.5 264v340h164v-328q0 -118 66 -165.5t198 -47.5q139 0 244 43v498h164v-983z" />
    <glyph glyph-name="uni0448" unicode="&#x448;" horiz-adv-x="1675" 
d="M1524 0h-1372v983h163v-831h441v831h164v-831h440v831h164v-983z" />
    <glyph glyph-name="uni0449" unicode="&#x449;" horiz-adv-x="1734" 
d="M1667 -266h-160v266h-1355v983h163v-831h441v831h164v-831h440v831h164v-831h143v-418z" />
    <glyph glyph-name="uni044A" unicode="&#x44a;" horiz-adv-x="1212" 
d="M469 639h303q176 0 278.5 -90t102.5 -230t-102.5 -229.5t-278.5 -89.5h-467v840h-268v143h432v-344zM469 147h283q110 0 172.5 43t62.5 129t-62.5 129.5t-172.5 43.5h-283v-345z" />
    <glyph glyph-name="uni044B" unicode="&#x44b;" horiz-adv-x="1505" 
d="M618 0h-466v983h163v-344h303q176 0 278.5 -90t102.5 -230t-102.5 -229.5t-278.5 -89.5zM315 492v-345h283q111 0 173.5 43.5t62.5 128.5q0 86 -63 129.5t-173 43.5h-283zM1354 0h-164v983h164v-983z" />
    <glyph glyph-name="uni044C" unicode="&#x44c;" horiz-adv-x="1058" 
d="M618 0h-466v983h163v-344h303q176 0 278.5 -90t102.5 -230t-102.5 -229.5t-278.5 -89.5zM315 492v-345h283q111 0 173.5 43.5t62.5 128.5q0 86 -63 129.5t-173 43.5h-283z" />
    <glyph glyph-name="uni044D" unicode="&#x44d;" horiz-adv-x="1032" 
d="M948 477q0 -129 -45.5 -228.5t-121 -157.5t-163.5 -87t-184 -29q-190 0 -350 86v154q144 -88 317 -88q76 0 138 14.5t116 46t86.5 89.5t38.5 139h-508v151h508q-9 78 -45 135.5t-92 90t-120 48t-138 15.5t-152 -23.5t-139 -64.5v152q139 88 309 88q82 0 159 -19
t147.5 -61t123 -102.5t84 -150.5t31.5 -198z" />
    <glyph glyph-name="uni044E" unicode="&#x44e;" horiz-adv-x="1685" 
d="M1602 492q0 -98 -29 -182.5t-79 -145t-116.5 -104t-143 -64.5t-157.5 -21q-126 0 -236 49.5t-188.5 152t-95.5 239.5h-242v-416h-163v983h163v-416h242q17 137 95.5 239.5t188.5 152t236 49.5q81 0 157.5 -21t143 -64t116.5 -103.5t79 -145t29 -182.5zM717 492
q0 -166 102.5 -263.5t257.5 -97.5t258 97.5t103 263.5t-102.5 263t-258.5 97q-155 0 -257.5 -97t-102.5 -263z" />
    <glyph glyph-name="uni044F" unicode="&#x44f;" horiz-adv-x="1110" 
d="M250 0h-193l285 360q-113 33 -174.5 115.5t-61.5 188.5q0 136 98 227.5t271 91.5h483v-983h-163v344h-277zM270 664q0 -81 58 -126.5t161 -45.5h306v344h-306q-103 0 -161 -45.5t-58 -126.5z" />
    <glyph glyph-name="uni0451" unicode="&#x451;" horiz-adv-x="1118" 
d="M893 1264q0 -46 -33.5 -79.5t-79.5 -33.5t-79 33.5t-33 79.5q0 45 33.5 78.5t78.5 33.5q46 0 79.5 -34t33.5 -78zM479 1264q0 -46 -33 -79.5t-79 -33.5t-79.5 33.5t-33.5 79.5q0 44 34 78t79 34t78.5 -33.5t33.5 -78.5zM84 492q0 124 43.5 225t114 163t156 95t175.5 33
q79 0 147.5 -18t119.5 -50t91 -75.5t64.5 -96t37 -110t11.5 -118t-14 -120.5h-782q10 -99 70 -167t145.5 -97t189.5 -29q181 0 324 80v-160q-138 -72 -348 -72q-111 0 -208 32t-173 94.5t-120 163t-44 227.5zM885 563q4 33 -1.5 70.5t-26.5 77.5t-54.5 72t-90 52.5
t-128.5 20.5q-134 0 -230.5 -77.5t-105.5 -215.5h637z" />
    <glyph glyph-name="Wgrave" unicode="&#x1e80;" horiz-adv-x="2074" 
d="M1853 1434h189l-451 -1434h-192l-363 1147l-362 -1147h-191l-450 1434h188l359 -1225l381 1225h153l381 -1225zM1171 1577h-178l-213 301h205z" />
    <glyph glyph-name="wgrave" unicode="&#x1e81;" horiz-adv-x="1634" 
d="M1425 983h172l-335 -983h-179l-266 760l-266 -760h-178l-336 983h172l254 -803l280 803h148l280 -803zM952 1126h-178l-213 301h205z" />
    <glyph glyph-name="Wacute" unicode="&#x1e82;" horiz-adv-x="2074" 
d="M1853 1434h189l-451 -1434h-192l-363 1147l-362 -1147h-191l-450 1434h188l359 -1225l381 1225h153l381 -1225zM1079 1577h-178l186 301h205z" />
    <glyph glyph-name="wacute" unicode="&#x1e83;" horiz-adv-x="1634" 
d="M1425 983h172l-335 -983h-179l-266 760l-266 -760h-178l-336 983h172l254 -803l280 803h148l280 -803zM860 1126h-178l186 301h205z" />
    <glyph glyph-name="Wdieresis" unicode="&#x1e84;" horiz-adv-x="2074" 
d="M1853 1434h189l-451 -1434h-192l-363 1147l-362 -1147h-191l-450 1434h188l359 -1225l381 1225h153l381 -1225zM1354 1714q0 -46 -33.5 -79t-79.5 -33t-79.5 33t-33.5 79q0 45 34 79t79 34t79 -34t34 -79zM940 1714q0 -46 -33.5 -79t-79.5 -33t-79 33t-33 79
q0 45 33.5 79t78.5 34t79 -34t34 -79z" />
    <glyph glyph-name="wdieresis" unicode="&#x1e85;" horiz-adv-x="1634" 
d="M1425 983h172l-335 -983h-179l-266 760l-266 -760h-178l-336 983h172l254 -803l280 803h148l280 -803zM1135 1264q0 -46 -33.5 -79.5t-79.5 -33.5t-79.5 33.5t-33.5 79.5q0 44 33.5 78t79.5 34t79.5 -34t33.5 -78zM721 1264q0 -46 -33.5 -79.5t-79.5 -33.5t-79 33.5
t-33 79.5q0 45 33.5 78.5t78.5 33.5q46 0 79.5 -34t33.5 -78z" />
    <glyph glyph-name="Ygrave" unicode="&#x1ef2;" horiz-adv-x="1343" 
d="M758 0h-172v543l-563 891h190l459 -738l458 738h191l-563 -891v-543zM809 1577h-178l-213 301h205z" />
    <glyph glyph-name="ygrave" unicode="&#x1ef3;" horiz-adv-x="1101" 
d="M565 186l332 797h174l-483 -1130q-141 -328 -371 -328q-54 0 -106 14v142q47 -13 86 -13q82 0 144 59.5t110 180.5l36 90l-467 985h175zM668 1126h-179l-213 301h205z" />
    <glyph glyph-name="endash" unicode="&#x2013;" horiz-adv-x="1175" 
d="M1044 430h-913v156h913v-156z" />
    <glyph glyph-name="emdash" unicode="&#x2014;" horiz-adv-x="1560" 
d="M1430 430h-1299v156h1299v-156z" />
    <glyph glyph-name="quoteleft" unicode="&#x2018;" horiz-adv-x="452" 
d="M266 963h-174l154 471h133z" />
    <glyph glyph-name="quoteright" unicode="&#x2019;" horiz-adv-x="444" 
d="M233 963h-133l113 471h174z" />
    <glyph glyph-name="quotesinglbase" unicode="&#x201a;" horiz-adv-x="458" 
d="M176 -307h-133l113 471h174z" />
    <glyph glyph-name="quotedblleft" unicode="&#x201c;" horiz-adv-x="739" 
d="M553 963h-174l153 471h134zM266 963h-174l154 471h133z" />
    <glyph glyph-name="quotedblright" unicode="&#x201d;" horiz-adv-x="731" 
d="M520 963h-133l113 471h174zM233 963h-133l113 471h174z" />
    <glyph glyph-name="quotedblbase" unicode="&#x201e;" horiz-adv-x="745" 
d="M463 -307h-133l112 471h174zM176 -307h-133l113 471h174z" />
    <glyph glyph-name="dagger" unicode="&#x2020;" horiz-adv-x="1050" 
d="M612 -451h-172v1270h-374v164h374v451h172v-451h373v-164h-373v-1270z" />
    <glyph glyph-name="daggerdbl" unicode="&#x2021;" horiz-adv-x="1171" 
d="M672 -451h-172v603h-373v163h373v504h-373v164h373v451h172v-451h372v-164h-372v-504h372v-163h-372v-603z" />
    <glyph glyph-name="bullet" unicode="&#x2022;" horiz-adv-x="686" 
d="M176 717q0 78 48 120t118 42q72 0 120 -42t48 -120t-48 -120t-120 -42q-70 0 -118 42t-48 120z" />
    <glyph glyph-name="ellipsis" unicode="&#x2026;" horiz-adv-x="1206" 
d="M1094 86q0 -50 -31 -77t-78 -27q-44 0 -75 27t-31 77q0 48 31 75t75 27q47 0 78 -26.5t31 -75.5zM328 86q0 -50 -30.5 -77t-76.5 -27t-77 27t-31 77q0 49 31 75.5t77 26.5q45 0 76 -26.5t31 -75.5zM711 86q0 -50 -30.5 -77t-76.5 -27t-77 27t-31 77q0 49 31 75.5t77 26.5
q45 0 76 -26.5t31 -75.5z" />
    <glyph glyph-name="perthousand" unicode="&#x2030;" horiz-adv-x="2629" 
d="M582 -123h-164l837 1679h164zM739 1137q0 -149 -97 -235.5t-236 -86.5q-141 0 -239.5 86.5t-98.5 235.5t98.5 235t239.5 86q139 0 236 -86t97 -235zM223 1137q0 -76 48 -127.5t135 -51.5q84 0 131 51.5t47 127.5t-47 127t-131 51q-87 0 -135 -51t-48 -127zM1767 297
q0 -149 -97 -235.5t-236 -86.5q-141 0 -239.5 86.5t-98.5 235.5t98.5 235t239.5 86q139 0 236 -86t97 -235zM1251 297q0 -76 48 -127t135 -51q84 0 131 51t47 127t-47 127t-131 51q-87 0 -135 -51t-48 -127zM2562 297q0 -149 -97.5 -235.5t-236.5 -86.5q-141 0 -239.5 86.5
t-98.5 235.5t98.5 235t239.5 86q139 0 236.5 -86t97.5 -235zM2046 297q0 -76 47.5 -127t134.5 -51q84 0 131 51t47 127t-47 127t-131 51q-87 0 -134.5 -51t-47.5 -127z" />
    <glyph glyph-name="guilsinglleft" unicode="&#x2039;" horiz-adv-x="624" 
d="M518 119h-176l-252 356v33l252 356h176l-264 -372z" />
    <glyph glyph-name="guilsinglright" unicode="&#x203a;" horiz-adv-x="624" 
d="M281 119h-175l263 373l-263 372h175l254 -356v-33z" />
    <glyph glyph-name="fraction" unicode="&#x2044;" horiz-adv-x="350" 
d="M-258 -27h-72l938 1485h72z" />
    <glyph glyph-name="Euro" unicode="&#x20ac;" horiz-adv-x="1490" 
d="M1376 72q-189 -97 -405 -97q-115 0 -226 34t-206.5 97t-168 162t-104.5 221h-184v144h160q-2 20 -2 61q0 46 2 66h-160v143h184q44 163 153.5 281.5t252 175.5t301.5 57q219 0 403 -96v-172q-155 104 -375 104q-187 0 -338.5 -89.5t-213.5 -260.5h677v-143h-708
q-4 -40 -4 -66q0 -41 2 -61h710v-144h-677q42 -113 130.5 -193.5t198 -118.5t230.5 -38q221 0 368 105v-172z" />
    <glyph glyph-name="trademark" unicode="&#x2122;" horiz-adv-x="1370" 
d="M725 913h-98v521h112l183 -269l182 269h113v-521h-99v381l-170 -250h-53l-170 250v-381zM362 913h-98v430h-174v91h447v-91h-175v-430z" />
    <glyph glyph-name="oneeighth" unicode="&#x215b;" horiz-adv-x="1863" 
d="M1128 627q0 91 80 158t232 67q137 0 226.5 -70t94.5 -170q2 -51 -21 -104t-75 -94q125 -72 125 -195q0 -99 -85 -167t-255 -68q-166 0 -258 72.5t-92 176.5q0 53 31.5 112.5t95.5 103.5q-99 74 -99 178zM1458 354q-76 23 -110 37q-53 -29 -79 -67.5t-26 -73.5
q0 -65 56 -100t155 -35q80 0 136.5 25t56.5 73q0 13 -3 25t-7 21t-13 18l-15 15t-20 13.5t-21.5 11.5t-26 10t-26 8.5t-29 9.5t-28.5 9zM1618 586q0 60 -48.5 97.5t-131.5 37.5q-73 0 -119.5 -25.5t-46.5 -66.5q0 -15 2.5 -28t10.5 -24t13.5 -19t20 -16.5t21.5 -13.5t27 -12
t26.5 -9.5t30 -10t28.5 -9.5q8 -2 41 -10.5t53 -15.5q72 58 72 125zM438 -27h-71l938 1485h71zM315 1393h107v-701h143v-135h-461v135h177v551l-168 -63v135z" />
    <glyph glyph-name="threeeighths" unicode="&#x215c;" horiz-adv-x="1939" 
d="M1204 627q0 91 80 158t232 67q137 0 226.5 -70t94.5 -170q2 -51 -21 -104t-75 -94q125 -72 125 -195q0 -99 -85 -167t-255 -68q-166 0 -258 72.5t-92 176.5q0 53 31.5 112.5t95.5 103.5q-99 74 -99 178zM1534 354q-80 24 -111 37q-53 -28 -78.5 -67t-25.5 -74
q0 -65 56 -100t155 -35q80 0 136 25t56 73q0 13 -3 25t-6.5 21t-13 18.5l-15 15t-20 13t-21.5 11t-25.5 10.5t-25.5 9t-29 9t-29 9zM1694 586q0 60 -49 97.5t-132 37.5q-72 0 -118.5 -25.5t-46.5 -66.5q0 -15 2.5 -28t10.5 -24t13.5 -19t20 -16.5t21.5 -13.5t27 -12
t26.5 -9.5t30 -10t28.5 -9.5q8 -2 41 -10.5t53 -15.5q72 58 72 125zM535 -27h-72l938 1485h72zM676 1186q0 -61 -29 -109.5t-69 -70.5q131 -64 131 -209q0 -120 -92 -184t-228 -64q-162 0 -291 57v139q116 -63 279 -63q91 0 142.5 27.5t51.5 95.5q0 69 -46 96t-128 27h-133
v135h117q77 0 117.5 28.5t40.5 82.5q0 110 -177 110q-132 0 -249 -67v139q119 61 268 61q132 0 213.5 -62.5t81.5 -168.5z" />
    <glyph glyph-name="fiveeighths" unicode="&#x215d;" horiz-adv-x="1918" 
d="M1184 627q0 91 79.5 158t231.5 67q137 0 227 -70t95 -170q2 -51 -21.5 -104t-75.5 -94q125 -72 125 -195q0 -99 -85 -167t-255 -68q-166 0 -258 72.5t-92 176.5q0 53 31.5 112.5t95.5 103.5q-98 73 -98 178zM1513 354q-76 23 -110 37q-53 -29 -79 -67.5t-26 -73.5
q0 -65 56 -100t155 -35q80 0 136.5 25t56.5 73q0 13 -3 25t-7 21t-13 18l-15 15t-20 13.5t-21.5 11.5t-26 10t-26 8.5t-29 9.5t-28.5 9zM1673 586q0 60 -48.5 97.5t-131.5 37.5q-73 0 -119.5 -25.5t-46.5 -66.5q0 -15 2.5 -28t10.5 -24t13.5 -19t20 -16.5t21.5 -13.5t27 -12
t26.5 -9.5t30 -10t28.5 -9.5q8 -2 41.5 -10.5t53.5 -15.5q71 58 71 125zM514 -27h-72l938 1485h72zM145 1393h517v-136h-381l-11 -170q54 13 109 13q62 0 117 -14.5t102.5 -45.5t75.5 -88t28 -133q0 -131 -97.5 -204.5t-242.5 -73.5q-154 0 -268 57v135q106 -59 250 -59
q98 0 155.5 35.5t57.5 109.5q0 46 -18.5 77t-52.5 47t-71.5 22t-86.5 6q-109 0 -209 -39z" />
    <glyph glyph-name="seveneighths" unicode="&#x215e;" horiz-adv-x="1738" 
d="M324 -27h-72l938 1485h72zM1004 627q0 91 79.5 158t231.5 67q137 0 226.5 -70t94.5 -170q2 -51 -21 -104t-75 -94q125 -72 125 -195q0 -99 -85 -167t-255 -68q-166 0 -258 72.5t-92 176.5q0 53 31.5 112.5t95.5 103.5q-98 73 -98 178zM1333 354q-76 23 -110 37
q-53 -29 -79 -67.5t-26 -73.5q0 -65 56 -100t155 -35q80 0 136.5 25t56.5 73q0 13 -3 25t-7 21t-13 18l-15 15t-20 13.5t-21.5 11.5t-26 10t-26 8.5t-29 9.5t-28.5 9zM1493 586q0 60 -48.5 97.5t-131.5 37.5q-73 0 -119.5 -25.5t-46.5 -66.5q0 -15 2.5 -28t10.5 -24
t13.5 -19t20 -16.5t21.5 -13.5t27 -12t26.5 -9.5t30 -10t28.5 -9.5q8 -2 41 -10.5t53 -15.5q72 58 72 125zM352 557h-153l319 700h-444v136h598v-131z" />
    <glyph glyph-name="partialdiff" unicode="&#x2202;" horiz-adv-x="1212" 
d="M1108 555q0 -280 -141 -430t-373 -150q-144 0 -260 58.5t-183 168t-67 251.5q0 97 37.5 183t101 145.5t148.5 93.5t178 34q140 0 253 -59.5t161 -155.5q-3 21 -9 45q-25 132 -86 232t-135.5 157t-170.5 92.5t-179.5 47t-175.5 10.5v156q125 0 244.5 -25t241 -88.5
t211.5 -160t147 -252.5t57 -353zM248 453q0 -145 94 -233.5t252 -88.5q149 0 233 77.5t105 211.5q-3 148 -103 243t-254 95q-146 0 -236.5 -85t-90.5 -220z" />
    <glyph glyph-name="emptyset" unicode="&#x2205;" horiz-adv-x="1662" 
d="M1495 1434l-154 -179q110 -104 172 -243t62 -295q0 -151 -59 -288.5t-159 -237t-237.5 -158t-288.5 -58.5q-250 0 -454 154l-111 -129h-100l153 180q-109 103 -170 242t-61 295q0 151 59 288.5t158.5 236.5t237 157.5t288.5 58.5q254 0 453 -153l111 129h100zM831 1372
q-133 0 -254.5 -52t-209 -140t-139.5 -209t-52 -254q0 -136 53 -258t148 -213l850 993q-173 133 -396 133zM434 197q180 -136 397 -136q178 0 329 88.5t239 239.5t88 328q0 135 -53.5 257.5t-147.5 215.5z" />
    <glyph glyph-name="product" unicode="&#x220f;" horiz-adv-x="1540" 
d="M440 -451h-172v1721h-194v164h1392v-164h-194v-1721h-172v1721h-660v-1721z" />
    <glyph glyph-name="summation" unicode="&#x2211;" horiz-adv-x="1161" 
d="M1057 0h-977v96l541 621l-541 620v97h977v-164h-697l467 -535v-37l-467 -534h697v-164z" />
    <glyph glyph-name="minus" unicode="&#x2212;" horiz-adv-x="1052" 
d="M918 629h-783v155h783v-155z" />
    <glyph glyph-name="radical" unicode="&#x221a;" horiz-adv-x="1509" 
d="M760 0h-154l-348 819h-205v164h314l319 -782l651 1396h181z" />
    <glyph glyph-name="infinity" unicode="&#x221e;" horiz-adv-x="1751" 
d="M877 860q41 56 77.5 95.5t85 76.5t107.5 56.5t127 19.5q153 0 256.5 -101.5t103.5 -273.5t-103.5 -273.5t-256.5 -101.5q-68 0 -127.5 19.5t-108.5 56.5t-87 77.5t-77 94.5q-41 -56 -77.5 -95.5t-85 -76.5t-107.5 -56.5t-127 -19.5q-153 0 -256.5 101.5t-103.5 273.5
t103.5 273.5t256.5 101.5q68 0 127.5 -19.5t108.5 -56.5t87 -77.5t77 -94.5zM786 731q-37 53 -63 86t-62 67.5t-75.5 51t-83.5 16.5q-97 0 -159 -54.5t-62 -164.5t62 -164.5t159 -54.5q84 0 148.5 55.5t135.5 161.5zM1470 733q0 110 -62 164.5t-159 54.5q-58 0 -111.5 -32
t-88.5 -73.5t-84 -111.5q75 -109 138.5 -165t145.5 -56q97 0 159 54.5t62 164.5z" />
    <glyph glyph-name="integral" unicode="&#x222b;" horiz-adv-x="864" 
d="M350 1309q0 70 19.5 125t50.5 90t74.5 57.5t87.5 31.5t92 9q89 0 172 -31v-153q-70 28 -154 28q-178 0 -178 -163v-1465q0 -70 -19.5 -125t-50.5 -90t-74.5 -57.5t-87.5 -31.5t-92 -9q-89 0 -172 31v153q70 -28 136 -28q33 0 57.5 2.5t52.5 12.5t45.5 27t29 48t11.5 73
v1465z" />
    <glyph glyph-name="approxequal" unicode="&#x2248;" 
d="M1071 997q4 -110 -56 -174.5t-163 -64.5q-73 0 -238 56t-235 56q-39 0 -61 -21t-19 -63h-156q-4 111 56.5 174.5t160.5 63.5q78 0 239.5 -55.5t236.5 -55.5q84 0 79 84h156zM1071 686q4 -110 -56 -175t-163 -65q-73 0 -238 56.5t-235 56.5q-39 0 -61 -21t-19 -63h-156
q-4 111 56.5 174.5t160.5 63.5q78 0 239.5 -55.5t236.5 -55.5q84 0 79 84h156z" />
    <glyph glyph-name="notequal" unicode="&#x2260;" horiz-adv-x="1136" 
d="M360 246h-143l123 207h-205v155h297l129 217h-426v156h518l123 207h144l-123 -207h204v-156h-296l-130 -217h426v-155h-518z" />
    <glyph glyph-name="lessequal" unicode="&#x2264;" horiz-adv-x="1073" 
d="M907 530v-159l-770 313v164l770 313v-160l-604 -235zM907 0h-770v156h770v-156z" />
    <glyph glyph-name="greaterequal" unicode="&#x2265;" horiz-adv-x="1073" 
d="M936 684l-770 -313v159l604 236l-604 235v160l770 -313v-164zM936 0h-770v156h770v-156z" />
    <glyph glyph-name="lozenge" unicode="&#x25ca;" horiz-adv-x="1159" 
d="M672 0h-183l-415 717l415 717h183l413 -717zM258 717l322 -543l323 543l-323 543z" />
    <glyph glyph-name="i.loclTRK" horiz-adv-x="475" 
d="M156 983h163v-983h-163v983zM106 1243q0 56 35.5 87.5t87.5 31.5q53 0 88 -31.5t35 -87.5q0 -58 -35 -89.5t-88 -31.5q-52 0 -87.5 32t-35.5 89z" />
    <glyph glyph-name="a.ss01" horiz-adv-x="1271" 
d="M973 164q-166 -189 -398 -189q-211 0 -351 148t-140 369t140 368.5t351 147.5q232 0 398 -189v164h147v-983h-147v164zM248 492q0 -165 99.5 -265t246.5 -100q125 0 221.5 69.5t140.5 172.5v245q-44 103 -140.5 172.5t-221.5 69.5q-147 0 -246.5 -100t-99.5 -264z" />
    <glyph glyph-name="aacute.ss01" horiz-adv-x="1271" 
d="M973 164q-166 -189 -398 -189q-211 0 -351 148t-140 369t140 368.5t351 147.5q232 0 398 -189v164h147v-983h-147v164zM248 492q0 -165 99.5 -265t246.5 -100q125 0 221.5 69.5t140.5 172.5v245q-44 103 -140.5 172.5t-221.5 69.5q-147 0 -246.5 -100t-99.5 -264z
M686 1126h-178l186 301h205z" />
    <glyph glyph-name="abreve.ss01" horiz-adv-x="1271" 
d="M973 164q-166 -189 -398 -189q-211 0 -351 148t-140 369t140 368.5t351 147.5q232 0 398 -189v164h147v-983h-147v164zM248 492q0 -165 99.5 -265t246.5 -100q125 0 221.5 69.5t140.5 172.5v245q-44 103 -140.5 172.5t-221.5 69.5q-147 0 -246.5 -100t-99.5 -264z
M930 1208q-120 -86 -287 -86t-287 86v160q135 -90 287 -90t287 90v-160z" />
    <glyph glyph-name="acircumflex.ss01" horiz-adv-x="1271" 
d="M973 164q-166 -189 -398 -189q-211 0 -351 148t-140 369t140 368.5t351 147.5q232 0 398 -189v164h147v-983h-147v164zM248 492q0 -165 99.5 -265t246.5 -100q125 0 221.5 69.5t140.5 172.5v245q-44 103 -140.5 172.5t-221.5 69.5q-147 0 -246.5 -100t-99.5 -264z
M575 1427h148l270 -299h-186l-158 177l-157 -177h-187z" />
    <glyph glyph-name="adieresis.ss01" horiz-adv-x="1271" 
d="M973 164q-166 -189 -398 -189q-211 0 -351 148t-140 369t140 368.5t351 147.5q232 0 398 -189v164h147v-983h-147v164zM248 492q0 -165 99.5 -265t246.5 -100q125 0 221.5 69.5t140.5 172.5v245q-44 103 -140.5 172.5t-221.5 69.5q-147 0 -246.5 -100t-99.5 -264z
M961 1264q0 -46 -33.5 -79.5t-79.5 -33.5t-79.5 33.5t-33.5 79.5q0 44 33.5 78t79.5 34t79.5 -34t33.5 -78zM547 1264q0 -46 -33.5 -79.5t-79.5 -33.5t-79 33.5t-33 79.5q0 45 33.5 78.5t78.5 33.5q46 0 79.5 -34t33.5 -78z" />
    <glyph glyph-name="agrave.ss01" horiz-adv-x="1271" 
d="M973 164q-166 -189 -398 -189q-211 0 -351 148t-140 369t140 368.5t351 147.5q232 0 398 -189v164h147v-983h-147v164zM248 492q0 -165 99.5 -265t246.5 -100q125 0 221.5 69.5t140.5 172.5v245q-44 103 -140.5 172.5t-221.5 69.5q-147 0 -246.5 -100t-99.5 -264z
M778 1126h-178l-213 301h205z" />
    <glyph glyph-name="amacron.ss01" horiz-adv-x="1271" 
d="M973 164q-166 -189 -398 -189q-211 0 -351 148t-140 369t140 368.5t351 147.5q232 0 398 -189v164h147v-983h-147v164zM248 492q0 -165 99.5 -265t246.5 -100q125 0 221.5 69.5t140.5 172.5v245q-44 103 -140.5 172.5t-221.5 69.5q-147 0 -246.5 -100t-99.5 -264z
M336 1305h614v-150h-614v150z" />
    <glyph glyph-name="aogonek.ss01" horiz-adv-x="1271" 
d="M248 492q0 -165 99.5 -265t246.5 -100q125 0 221.5 69.5t140.5 172.5v245q-44 103 -140.5 172.5t-221.5 69.5q-147 0 -246.5 -100t-99.5 -264zM1120 983v-983q-83 -57 -133.5 -130t-48.5 -130q-2 -38 21.5 -61t66.5 -23q46 0 92 22v-127q-55 -28 -133 -28
q-97 -1 -150 50.5t-53 131.5q0 159 191 330v129q-166 -189 -398 -189q-211 0 -351 148t-140 369t140 368.5t351 147.5q232 0 398 -189v164h147z" />
    <glyph glyph-name="aring.ss01" horiz-adv-x="1271" 
d="M973 164q-166 -189 -398 -189q-211 0 -351 148t-140 369t140 368.5t351 147.5q232 0 398 -189v164h147v-983h-147v164zM248 492q0 -165 99.5 -265t246.5 -100q125 0 221.5 69.5t140.5 172.5v245q-44 103 -140.5 172.5t-221.5 69.5q-147 0 -246.5 -100t-99.5 -264z
M877 1300q0 -102 -69.5 -164.5t-166.5 -62.5q-98 0 -168 62.5t-70 164.5q0 99 70.5 161.5t167.5 62.5q96 0 166 -62.5t70 -161.5zM528 1298q0 -52 33 -82t80 -30t80 30t33 82q0 51 -33.5 82t-79.5 31t-79.5 -31t-33.5 -82z" />
    <glyph glyph-name="atilde.ss01" horiz-adv-x="1271" 
d="M973 164q-166 -189 -398 -189q-211 0 -351 148t-140 369t140 368.5t351 147.5q232 0 398 -189v164h147v-983h-147v164zM248 492q0 -165 99.5 -265t246.5 -100q125 0 221.5 69.5t140.5 172.5v245q-44 103 -140.5 172.5t-221.5 69.5q-147 0 -246.5 -100t-99.5 -264z
M981 1329q14 -104 -37 -160.5t-131 -56.5q-54 0 -116.5 21.5t-112.5 43t-74 21.5q-32 0 -48 -21t-11 -55h-144q-16 103 34.5 161t129.5 58q53 0 115.5 -21.5t113.5 -43t76 -21.5q69 0 62 74h143z" />
    <glyph glyph-name="ae.ss01" horiz-adv-x="2015" 
d="M973 164q-166 -189 -398 -189q-211 0 -351 148t-140 369t140 368.5t351 147.5q232 0 398 -189v164h147v-172q62 96 158 146.5t209 50.5q90 0 165 -24t126 -66.5t88.5 -99.5t52.5 -123.5t18.5 -139t-14.5 -145.5h-782q10 -94 70 -160t145.5 -94.5t189.5 -28.5q83 0 167 22
t149 58v-152q-141 -80 -330 -80q-132 0 -240 51.5t-172 151.5v-178h-147v164zM248 492q0 -165 99.5 -265t246.5 -100q125 0 221.5 69.5t140.5 172.5v245q-44 103 -140.5 172.5t-221.5 69.5q-147 0 -246.5 -100t-99.5 -264zM1477 856q-137 0 -232 -78.5t-104 -224.5h637
q4 37 -2 76t-26.5 80t-54 73.5t-90 53t-128.5 20.5z" />
    <glyph glyph-name="y.ss01" 
d="M1051 0q-2 -103 -33 -185t-80 -135.5t-115.5 -89t-137 -50.5t-146.5 -15q-100 0 -196.5 22.5t-160.5 59.5v151q58 -40 148 -61t188 -21q59 0 109.5 9t100 31.5t84 58.5t55.5 93.5t20 131.5v125q-58 -64 -147 -107t-191 -43q-190 0 -300 110t-110 292v606h164v-586
q0 -270 264 -270q100 0 181.5 56t138.5 141v659h164v-983z" />
    <glyph glyph-name="yacute.ss01" 
d="M1051 0q-2 -103 -33 -185t-80 -135.5t-115.5 -89t-137 -50.5t-146.5 -15q-100 0 -196.5 22.5t-160.5 59.5v151q58 -40 148 -61t188 -21q59 0 109.5 9t100 31.5t84 58.5t55.5 93.5t20 131.5v125q-58 -64 -147 -107t-191 -43q-190 0 -300 110t-110 292v606h164v-586
q0 -270 264 -270q100 0 181.5 56t138.5 141v659h164v-983zM641 1126h-178l186 301h205z" />
    <glyph glyph-name="ycircumflex.ss01" 
d="M1051 0q-2 -103 -33 -185t-80 -135.5t-115.5 -89t-137 -50.5t-146.5 -15q-100 0 -196.5 22.5t-160.5 59.5v151q58 -40 148 -61t188 -21q59 0 109.5 9t100 31.5t84 58.5t55.5 93.5t20 131.5v125q-58 -64 -147 -107t-191 -43q-190 0 -300 110t-110 292v606h164v-586
q0 -270 264 -270q100 0 181.5 56t138.5 141v659h164v-983zM530 1427h148l270 -299h-186l-158 177l-158 -177h-186z" />
    <glyph glyph-name="ydieresis.ss01" 
d="M1051 0q-2 -103 -33 -185t-80 -135.5t-115.5 -89t-137 -50.5t-146.5 -15q-100 0 -196.5 22.5t-160.5 59.5v151q58 -40 148 -61t188 -21q59 0 109.5 9t100 31.5t84 58.5t55.5 93.5t20 131.5v125q-58 -64 -147 -107t-191 -43q-190 0 -300 110t-110 292v606h164v-586
q0 -270 264 -270q100 0 181.5 56t138.5 141v659h164v-983zM915 1264q0 -46 -33 -79.5t-79 -33.5t-79.5 33.5t-33.5 79.5q0 44 34 78t79 34t78.5 -33.5t33.5 -78.5zM502 1264q0 -46 -33.5 -79.5t-79.5 -33.5t-79.5 33.5t-33.5 79.5q0 44 34 78t79 34t79 -34t34 -78z" />
    <glyph glyph-name="ygrave.ss01" 
d="M1051 0q-2 -103 -33 -185t-80 -135.5t-115.5 -89t-137 -50.5t-146.5 -15q-100 0 -196.5 22.5t-160.5 59.5v151q58 -40 148 -61t188 -21q59 0 109.5 9t100 31.5t84 58.5t55.5 93.5t20 131.5v125q-58 -64 -147 -107t-191 -43q-190 0 -300 110t-110 292v606h164v-586
q0 -270 264 -270q100 0 181.5 56t138.5 141v659h164v-983zM733 1126h-178l-213 301h205z" />
    <glyph glyph-name="f_b" horiz-adv-x="1976" 
d="M1020 836q147 172 381 172q211 0 351 -147.5t140 -368.5t-140 -369t-351 -148q-231 0 -397 189v-164h-148v1262q-104 45 -233 45q-105 0 -168.5 -49t-63.5 -146v-129h307v-152h-307v-831h-164v831h-184v152h184v129q0 163 107.5 254.5t279.5 91.5q136 0 269 -59l137 35
v-598zM1020 369q44 -103 140.5 -172.5t221.5 -69.5q147 0 247 100.5t100 264.5t-100 264t-247 100q-125 0 -221.5 -69.5t-140.5 -172.5v-245z" />
    <glyph glyph-name="f_f_b" horiz-adv-x="2611" 
d="M1655 836q147 172 381 172q211 0 351 -147.5t140 -368.5t-140 -369t-351 -148q-232 0 -398 189v-164h-147v1282q-104 45 -234 45q-107 0 -169 -52t-62 -163v-129h307v-152h-307v-831h-164v831h-471v-831h-164v831h-184v152h184v109q0 163 107.5 254.5t279.5 91.5
q90 0 163 -21t159 -67q105 129 313 129q134 0 269 -60l137 35v-618zM862 983v129q0 60 12 109q-59 35 -114.5 50t-136.5 15q-105 0 -168.5 -48.5t-63.5 -145.5v-109h471zM1655 369q44 -103 140.5 -172.5t221.5 -69.5q147 0 246.5 100t99.5 265q0 164 -99.5 264t-246.5 100
q-125 0 -221.5 -69.5t-140.5 -172.5v-245z" />
    <glyph glyph-name="f_f_h" horiz-adv-x="2541" 
d="M1655 858q58 64 147 107t191 43q178 0 293.5 -111.5t115.5 -290.5v-606h-164v586q0 133 -72.5 201.5t-191.5 68.5q-100 0 -181 -56t-138 -141v-659h-164v1282q-104 45 -234 45q-107 0 -169 -52t-62 -163v-129h307v-152h-307v-831h-164v831h-471v-831h-164v831h-184v152
h184v109q0 163 107.5 254.5t279.5 91.5q90 0 163 -21t159 -67q105 129 313 129q134 0 269 -60l137 35v-596zM862 983v129q0 60 12 109q-59 35 -114.5 50t-136.5 15q-105 0 -168.5 -48.5t-63.5 -145.5v-109h471z" />
    <glyph glyph-name="f_f_j" horiz-adv-x="1789" 
d="M1634 -182q0 -83 -24.5 -142.5t-67 -91t-89.5 -45.5t-101 -14q-85 0 -152 26v152q56 -27 107 -27q163 0 163 166v989h-444v-831h-164v831h-471v-831h-164v831h-184v152h184v109q0 163 107.5 254.5t279.5 91.5q90 0 163 -21t159 -67q105 129 313 129q147 0 297 -72v-164
q-147 84 -289 84q-107 0 -169 -52t-62 -163v-129h608v-1165zM391 1092v-109h471v129q0 60 12 109q-59 35 -114.5 50t-136.5 15q-105 0 -168.5 -48.5t-63.5 -145.5z" />
    <glyph glyph-name="f_f_k" horiz-adv-x="2406" 
d="M2355 983l-373 -489l418 -494h-192l-361 422h-192v-422h-164v1282q-104 45 -234 45q-107 0 -169 -52t-62 -163v-129h307v-152h-307v-831h-164v831h-471v-831h-164v831h-184v152h184v109q0 163 107.5 254.5t279.5 91.5q90 0 163 -21t159 -67q105 129 313 129
q134 0 269 -60l137 35v-881h198l312 410h190zM862 983v129q0 60 12 109q-59 35 -114.5 50t-136.5 15q-105 0 -168.5 -48.5t-63.5 -145.5v-109h471z" />
    <glyph glyph-name="f_h" horiz-adv-x="1906" 
d="M1020 858q58 64 147 107t191 43q178 0 293.5 -111.5t115.5 -290.5v-606h-163v586q0 133 -73 201.5t-192 68.5q-100 0 -181 -56t-138 -141v-659h-164v1262q-104 45 -233 45q-105 0 -168.5 -49t-63.5 -146v-129h307v-152h-307v-831h-164v831h-184v152h184v129
q0 163 107.5 254.5t279.5 91.5q136 0 269 -59l137 35v-576z" />
    <glyph glyph-name="f_i" horiz-adv-x="1155" 
d="M391 983h608v-983h-163v831h-445v-831h-164v831h-184v152h184v129q0 163 107.5 254.5t279.5 91.5q147 0 297 -72v-163q-147 84 -288 84q-105 0 -168.5 -49t-63.5 -146v-129z" />
    <glyph glyph-name="f_j" horiz-adv-x="1155" 
d="M391 983h608v-1165q0 -83 -24.5 -142.5t-67 -91t-89.5 -45.5t-101 -14q-85 0 -152 26v152q56 -27 107 -27q73 0 118.5 38t45.5 128v989h-445v-831h-164v831h-184v152h184v129q0 163 107.5 254.5t279.5 91.5q147 0 297 -72v-163q-147 84 -288 84q-105 0 -168.5 -49
t-63.5 -146v-129z" />
    <glyph glyph-name="f_k" horiz-adv-x="1771" 
d="M1720 983l-372 -489l417 -494h-192l-361 422h-192v-422h-164v1262q-104 45 -233 45q-105 0 -168.5 -49t-63.5 -146v-129h307v-152h-307v-831h-164v831h-184v152h184v129q0 163 107.5 254.5t279.5 91.5q136 0 269 -59l137 35v-861h199l311 410h190z" />
    <glyph glyph-name="f_l" horiz-adv-x="1175" 
d="M614 1458q136 0 269 -59l137 35v-1434h-164v1262q-104 45 -233 45q-105 0 -168.5 -49t-63.5 -146v-129h307v-152h-307v-831h-164v831h-184v152h184v129q0 163 107.5 254.5t279.5 91.5z" />
    <glyph glyph-name="uni0414.loclBGR" horiz-adv-x="1611" 
d="M217 -338h-164v502h156l502 1270h190l504 -1270h154v-502h-164v338h-1178v-338zM807 1239l-416 -1075h830z" />
    <glyph glyph-name="uni041B.loclBGR" horiz-adv-x="1400" 
d="M610 1434h178l594 -1434h-184l-500 1241l-497 -1241h-185z" />
    <glyph glyph-name="uni0424.loclBGR" horiz-adv-x="1855" 
d="M1014 -205h-172v195q-172 7 -313.5 66t-237 155.5t-147.5 226.5t-52 279t52 279t147.5 226.5t237 155.5t313.5 66v194h172v-194q172 -7 313.5 -66t236.5 -155.5t147 -226.5t52 -279t-52 -279t-147 -226.5t-236.5 -155.5t-313.5 -66v-195zM266 717q0 -111 36 -208
t105.5 -174t181 -125t253.5 -56v1126q-142 -8 -253.5 -56t-181 -125t-105.5 -174t-36 -208zM1014 1280v-1126q142 8 253.5 56t180.5 125t105 174t36 208t-36 208t-105 174t-180.5 125t-253.5 56z" />
    <glyph glyph-name="uni0432.loclBGR" horiz-adv-x="1187" 
d="M1008 1116q0 -204 -203 -305q137 -31 219 -136t82 -255q0 -187 -133.5 -316t-345.5 -129q-107 0 -196.5 34t-157.5 100t-106 171.5t-38 239.5v293q0 303 128 474t368 171q173 0 278 -99.5t105 -242.5zM625 1307q-155 0 -243.5 -120t-88.5 -374v-14l297 53q71 13 123 40.5
t79 63.5t39.5 73t12.5 77q0 77 -59 139t-160 62zM295 520q1 -200 89 -296.5t243 -96.5q147 0 231 81t84 212q0 147 -92 228.5t-254 53.5l-301 -53v-129z" />
    <glyph glyph-name="uni0433.loclBGR" horiz-adv-x="978" 
d="M881 72q-69 -44 -173 -70.5t-208 -26.5q-72 0 -134 9t-116.5 30.5t-93 54t-60.5 82.5t-22 113q0 78 35.5 132.5t92.5 83t126 47.5t137.5 32.5t125.5 31t92.5 51t35.5 83.5q0 69 -65 100t-165 31q-189 0 -358 -88v156q175 84 369 84q60 0 115 -10t104.5 -32t86 -54.5
t58 -81.5t21.5 -109q0 -79 -35.5 -135t-92.5 -85.5t-126 -49.5t-138.5 -33.5t-126.5 -30.5t-92.5 -48t-35.5 -79q0 -40 19 -67t57 -41t83.5 -19.5t110.5 -5.5q96 0 198.5 27.5t174.5 76.5v-159z" />
    <glyph glyph-name="uni0434.loclBGR" horiz-adv-x="1271" 
d="M84 492q0 221 140 368.5t351 147.5q232 0 398 -189v164h147v-983q0 -98 -30 -178.5t-80.5 -135t-119.5 -91.5t-145.5 -53.5t-160.5 -16.5q-218 0 -400 92v160q179 -101 379 -101q82 0 150.5 17t124.5 53t87.5 101t30.5 153v152q-145 -177 -381 -177q-211 0 -351 148
t-140 369zM956 614q-44 103 -140.5 172.5t-221.5 69.5q-147 0 -246.5 -100t-99.5 -264q0 -165 99.5 -265t246.5 -100q125 0 221 64t141 157v266z" />
    <glyph glyph-name="uni0436.loclBGR" horiz-adv-x="1544" 
d="M199 0h-185l392 494l-347 489h183l299 -420h149v871h164v-871h150l299 420h182l-346 -489l391 -494h-184l-334 412h-158v-412h-164v412h-158z" />
    <glyph glyph-name="uni0438.loclBGR" 
d="M887 983h164v-983h-148v145q-55 -71 -149 -120.5t-205 -49.5q-190 0 -300 110t-110 292v606h164v-586q0 -270 264 -270q100 0 181.5 56t138.5 141v659z" />
    <glyph glyph-name="uni0439.loclBGR" 
d="M887 1221q-120 -86 -287 -86t-287 86v147q135 -90 287 -90t287 90v-147zM887 983h164v-983h-148v145q-55 -71 -149 -120.5t-205 -49.5q-190 0 -300 110t-110 292v606h164v-586q0 -270 264 -270q100 0 181.5 56t138.5 141v659z" />
    <glyph glyph-name="uni043A.loclBGR" horiz-adv-x="1071" 
d="M1061 0h-193l-360 422h-193v-422h-163v1434h163v-861h199l311 410h191l-373 -489z" />
    <glyph glyph-name="uni043B.loclBGR" horiz-adv-x="1097" 
d="M1069 0h-182l-338 799l-338 -799h-182l434 983h172z" />
    <glyph glyph-name="uni043F.loclBGR" 
d="M299 838q55 71 149 120.5t205 49.5q179 0 294.5 -112t115.5 -290v-606h-164v586q0 133 -72.5 201.5t-191.5 68.5q-100 0 -181.5 -56t-138.5 -141v-659h-163v983h147v-145z" />
    <glyph glyph-name="uni0442.loclBGR" horiz-adv-x="1822" 
d="M315 0h-163v983h147v-131q34 36 74 67t113 60t149 29q108 0 189 -44t126 -122q162 166 359 166q178 0 276 -112t98 -290v-606h-163v610q0 113 -61.5 179.5t-168.5 66.5q-159 0 -286 -162q6 -44 6 -88v-606h-164v610q0 113 -61.5 179.5t-168.5 66.5q-166 0 -301 -178v-678
z" />
    <glyph glyph-name="uni0446.loclBGR" horiz-adv-x="1259" 
d="M1051 205q0 -76 75 -76h68v-395h-152v256q-124 17 -149 143q-56 -67 -147 -112.5t-197 -45.5q-190 0 -300 110t-110 292v606h164v-586q0 -270 264 -270q100 0 181.5 56t138.5 141v659h164v-778z" />
    <glyph glyph-name="uni0448.loclBGR" horiz-adv-x="1822" 
d="M1507 983h164v-983h-147v131q-34 -36 -74 -67t-113 -60t-149 -29q-108 0 -189.5 44t-126.5 122q-162 -166 -358 -166q-178 0 -276.5 112t-98.5 290v606h164v-610q0 -113 61 -179.5t168 -66.5q160 0 287 162q-6 43 -6 88v606h164v-610q0 -113 61 -179.5t168 -66.5
q166 0 301 178v678z" />
    <glyph glyph-name="uni0449.loclBGR" horiz-adv-x="1880" 
d="M1671 205q0 -76 76 -76h68v-395h-152v256q-119 17 -147 133q-143 -148 -328 -148q-108 0 -189.5 44t-126.5 122q-162 -166 -358 -166q-178 0 -276.5 112t-98.5 290v606h164v-610q0 -113 61 -179.5t168 -66.5q160 0 287 162q-6 43 -6 88v606h164v-610q0 -113 61 -179.5
t168 -66.5q166 0 301 178v678h164v-778z" />
    <glyph glyph-name="uni044E.loclBGR" horiz-adv-x="1685" 
d="M1602 492q0 -98 -29 -182.5t-79 -145t-116.5 -104t-143 -64.5t-157.5 -21q-126 0 -236 49.5t-188.5 152t-95.5 239.5h-242v-416h-163v1434h163v-867h242q17 137 95.5 239.5t188.5 152t236 49.5q81 0 157.5 -21t143 -64t116.5 -103.5t79 -145t29 -182.5zM717 492
q0 -166 102.5 -263.5t257.5 -97.5t258 97.5t103 263.5t-102.5 263t-258.5 97q-155 0 -257.5 -97t-102.5 -263z" />
    <glyph glyph-name="uni0430.ss01" horiz-adv-x="1271" 
d="M973 164q-166 -189 -398 -189q-211 0 -351 148t-140 369t140 368.5t351 147.5q232 0 398 -189v164h147v-983h-147v164zM248 492q0 -165 99.5 -265t246.5 -100q125 0 221.5 69.5t140.5 172.5v245q-44 103 -140.5 172.5t-221.5 69.5q-147 0 -246.5 -100t-99.5 -264z" />
    <glyph glyph-name="uni0437.ss01" horiz-adv-x="950" 
d="M793 668q0 -96 -45.5 -173t-157.5 -133q137 -31 219 -135.5t82 -251.5q0 -143 -72 -247t-186.5 -153.5t-253.5 -49.5q-195 0 -340 96v156q139 -103 317 -103q160 0 265.5 77t105.5 224q0 144 -96.5 228.5t-249.5 50.5l-139 -31v152l157 35q230 58 230 247
q0 100 -70 149.5t-172 49.5q-182 0 -330 -96v153q159 97 342 97q78 0 147.5 -21.5t125 -63t88.5 -108t33 -149.5z" />
    <glyph glyph-name="uni0443.ss01" 
d="M1051 0q-2 -103 -33 -185t-80 -135.5t-115.5 -89t-137 -50.5t-146.5 -15q-100 0 -196.5 22.5t-160.5 59.5v151q58 -40 148 -61t188 -21q59 0 109.5 9t100 31.5t84 58.5t55.5 93.5t20 131.5v125q-58 -64 -147 -107t-191 -43q-190 0 -300 110t-110 292v606h164v-586
q0 -270 264 -270q100 0 181.5 56t138.5 141v659h164v-983z" />
    <glyph glyph-name="zero.osf" horiz-adv-x="1331" 
d="M1239 532q0 -103 -37 -200.5t-106 -178t-181 -129.5t-249 -49q-111 0 -205.5 32t-161.5 86.5t-114.5 126.5t-70 151t-22.5 161t22.5 161t70 151t114.5 126.5t161.5 87t205.5 32.5q137 0 249 -49t181 -130t106 -178.5t37 -200.5zM266 532q0 -163 106.5 -278t293.5 -115
q126 0 218.5 56t136.5 144t44 193t-44 193t-136.5 144.5t-218.5 56.5q-95 0 -172.5 -32.5t-126.5 -87.5t-75 -125.5t-26 -148.5z" />
    <glyph glyph-name="one.osf" horiz-adv-x="888" 
d="M451 1065h127v-901h260v-164h-725v164h293v719l-293 -111v164z" />
    <glyph glyph-name="two.osf" horiz-adv-x="1089" 
d="M987 0h-899v102q0 46 11.5 87t28 71t47.5 59t56 47.5t69 41t71 34.5t77 32.5t74 31.5q9 4 48 21t52 23t45.5 22.5t45.5 26.5t35.5 28.5t31.5 35t17 39t8 46.5q0 83 -75.5 132.5t-190.5 49.5q-189 0 -402 -125v172q196 113 416 113q117 0 213 -41t153.5 -120.5
t57.5 -183.5q0 -61 -26 -115t-54.5 -87.5t-92 -72.5t-93.5 -53.5t-105 -47.5q-5 -3 -8 -4t-7.5 -3t-8.5 -4q-25 -11 -65 -28.5t-64.5 -28t-56 -25.5t-50 -26.5t-36.5 -26t-26 -30t-8 -31.5l711 2v-164z" />
    <glyph glyph-name="three.osf" horiz-adv-x="1112" 
d="M967 711q0 -107 -56.5 -192t-146.5 -116q48 -15 91 -41.5t83 -67.5t63 -104t23 -139q0 -97 -42.5 -176t-113 -127.5t-156.5 -74t-177 -25.5q-253 0 -445 92v170q96 -55 196.5 -77.5t233.5 -22.5q65 0 122.5 14t107.5 42t79 78t29 115q0 68 -25.5 118.5t-69.5 78
t-94.5 40.5t-109.5 13h-192v164l174 -2q119 -1 189.5 62.5t70.5 162.5q0 107 -82 170.5t-217 63.5q-201 0 -387 -107v168q181 99 409 99q191 0 317 -106t126 -273z" />
    <glyph glyph-name="four.osf" horiz-adv-x="1216" 
d="M737 1065h187v-924h241v-159h-241v-310h-170v310h-715v153zM754 141v682l-512 -682h512z" />
    <glyph glyph-name="five.osf" horiz-adv-x="1095" 
d="M180 1065h774v-164h-612l-25 -393q115 31 218 31q70 0 136 -14t130.5 -47.5t113 -83.5t78 -128t29.5 -174q0 -136 -74 -239t-190.5 -154t-255.5 -51q-213 0 -406 94v164q187 -99 385 -99q156 0 261.5 75t105.5 210q0 66 -22 117.5t-58 83.5t-86 53t-100.5 29t-106.5 8
q-161 0 -340 -66z" />
    <glyph glyph-name="six.osf" horiz-adv-x="1212" 
d="M279 739q178 129 395 129q64 0 128 -17t123.5 -53t105 -86.5t72.5 -123t27 -156.5q0 -108 -39 -196t-106 -144.5t-152.5 -86.5t-181.5 -30q-267 0 -407 185t-140 514q0 149 33.5 273t91 210t136 145.5t167 87t185.5 27.5q160 0 317 -80v-163q-149 79 -313 79
q-60 0 -117.5 -16.5t-114 -55t-100 -96.5t-73.5 -147t-37 -199zM281 563q20 -213 115 -320.5t243 -107.5q65 0 120 16t100 49t71 90.5t26 133.5q0 79 -27.5 136.5t-75.5 88.5t-103 45.5t-119 14.5q-191 0 -350 -146z" />
    <glyph glyph-name="seven.osf" horiz-adv-x="1011" 
d="M41 1065h942v-156l-561 -1237h-184l557 1229h-754v164z" />
    <glyph glyph-name="eight.osf" horiz-adv-x="1263" 
d="M150 1057q0 68 29.5 131t86.5 115t150.5 83t210.5 31q209 0 345.5 -113.5t141.5 -269.5q3 -99 -45 -192t-145 -160q239 -119 239 -328q0 -75 -30.5 -141t-91.5 -120.5t-164.5 -86t-237.5 -31.5q-247 0 -393 118t-146 290q0 102 60.5 204.5t177.5 170.5q-188 114 -188 299
zM639 631q-94 32 -156 57q-103 -50 -157 -128t-54 -159q0 -127 100.5 -196.5t270.5 -69.5q150 0 249 58.5t99 152.5q0 26 -4 47.5t-9.5 39t-20.5 34.5t-26.5 29.5t-38.5 27.5t-45.5 24.5t-59 26t-67.5 26.5zM942 1004q0 106 -88.5 179.5t-230.5 73.5q-131 0 -216 -57
t-85 -141q0 -97 72 -156t243 -119q65 -21 141 -45q81 52 122.5 122t41.5 143z" />
    <glyph glyph-name="nine.osf" horiz-adv-x="1185" 
d="M68 633q0 108 39 196t106 144.5t152.5 86.5t181.5 30q267 0 407 -185t140 -514q0 -149 -33.5 -273t-91 -210t-136 -145.5t-167 -87t-185.5 -27.5q-160 0 -317 80v163q149 -79 313 -79q60 0 118 16.5t114 55t100 96.5t74 147t37 199q-178 -129 -396 -129q-64 0 -128 17
t-123.5 53t-105 86.5t-72.5 123t-27 156.5zM559 930q-65 0 -120 -16t-100 -49t-71 -90.5t-26 -133.5q0 -79 27.5 -136.5t75.5 -88.5t103 -45.5t119 -14.5q192 0 351 146q-20 213 -115.5 320.5t-243.5 107.5z" />
    <glyph glyph-name="zero.sinf" horiz-adv-x="892" 
d="M821 213q0 -194 -94.5 -314t-280.5 -120t-280 120t-94 314t94 314t280 120t280.5 -120t94.5 -314zM215 213q0 -299 231 -299q232 0 232 299t-232 299q-231 0 -231 -299z" />
    <glyph glyph-name="one.sinf" horiz-adv-x="573" 
d="M283 631h106v-701h143v-135h-460v135h176v551l-168 -63v135z" />
    <glyph glyph-name="two.sinf" horiz-adv-x="741" 
d="M92 563q120 84 279 84q136 0 215.5 -61.5t79.5 -173.5q0 -50 -19 -95t-55.5 -82t-72.5 -63.5t-85 -56.5q-121 -70 -152 -94q-60 -47 -63 -93l451 2v-135h-607v66q0 56 16 103.5t39.5 80.5t60 64t69 51t74.5 45q12 7 18 10q98 58 128 85q54 51 54 114q0 100 -164 100
q-135 0 -266 -94v143z" />
    <glyph glyph-name="three.sinf" horiz-adv-x="749" 
d="M649 416q0 -61 -29 -109.5t-69 -70.5q131 -64 131 -209q0 -120 -92 -184t-228 -64q-161 0 -290 57v139q116 -63 278 -63q91 0 143 27.5t52 95.5q0 69 -46 96t-128 27h-133v135h116q77 0 117.5 28t40.5 82q0 111 -176 111q-131 0 -250 -68v140q119 61 268 61
q132 0 213.5 -62.5t81.5 -168.5z" />
    <glyph glyph-name="four.sinf" horiz-adv-x="823" 
d="M479 631h154v-531h143v-133h-143v-172h-139v172h-451v129zM494 100v340l-277 -340h277z" />
    <glyph glyph-name="five.sinf" horiz-adv-x="741" 
d="M123 631h516v-135h-381l-10 -170q50 12 108 12q62 0 117 -14.5t103 -45.5t76 -88t28 -133q0 -131 -97.5 -204.5t-242.5 -73.5q-154 0 -268 57v135q106 -59 250 -59q98 0 155.5 35.5t57.5 109.5q0 46 -18.5 77t-52.5 47t-72 22t-87 6q-109 0 -209 -39z" />
    <glyph glyph-name="six.sinf" horiz-adv-x="800" 
d="M219 274q104 52 236 52q71 0 136.5 -29t111 -91.5t45.5 -146.5q0 -132 -89.5 -206t-222.5 -74q-185 0 -274.5 111.5t-89.5 316.5q0 213 109 326.5t278 113.5q113 0 217 -49v-137q-94 51 -213 51q-89 0 -158 -57.5t-86 -180.5zM217 135q22 -223 209 -223q82 0 129 30.5
t47 110.5q0 142 -184 142q-116 0 -201 -60z" />
    <glyph glyph-name="seven.sinf" horiz-adv-x="673" 
d="M317 -205h-153l319 701h-444v135h598v-131z" />
    <glyph glyph-name="eight.sinf" horiz-adv-x="825" 
d="M96 422q0 91 80 158t232 67q137 0 226.5 -69.5t94.5 -169.5q2 -51 -21 -104.5t-75 -94.5q125 -72 125 -195q0 -99 -85 -167t-255 -68q-166 0 -258 73t-92 177q0 53 31.5 112t95.5 103q-99 74 -99 178zM426 150q-89 27 -111 36q-53 -28 -78.5 -67t-25.5 -74q0 -65 56 -100
t155 -35q80 0 136 25t56 73q0 39 -27.5 67t-52.5 38.5t-87 29.5q-14 5 -21 7zM586 381q0 60 -48.5 97.5t-131.5 37.5q-73 0 -119.5 -25.5t-46.5 -66.5q0 -15 3 -28t10 -24t13.5 -19t20 -16t21.5 -13t26.5 -12t26.5 -10t30 -10t29 -9q5 -1 39 -10.5t55 -16.5q72 58 72 125z
" />
    <glyph glyph-name="nine.sinf" horiz-adv-x="800" 
d="M53 367q0 132 89.5 206t222.5 74q185 0 274.5 -111.5t89.5 -316.5q0 -213 -109.5 -326.5t-279.5 -113.5q-113 0 -217 49v137q96 -51 215 -51q89 0 158 57.5t86 180.5q-104 -52 -236 -52q-71 0 -136.5 29t-111 91.5t-45.5 146.5zM375 514q-82 0 -130 -30.5t-48 -110.5
q0 -142 186 -142q116 0 201 60q-22 223 -209 223z" />
    <glyph glyph-name="zero.sups" horiz-adv-x="892" 
d="M821 1188q0 -194 -94.5 -314t-280.5 -120t-280 120t-94 314t94 314t280 120t280.5 -120t94.5 -314zM215 1188q0 -299 231 -299q232 0 232 299t-232 299q-231 0 -231 -299z" />
    <glyph glyph-name="one.sups" horiz-adv-x="573" 
d="M283 1597h106v-700h143v-135h-460v135h176v551l-168 -64v136z" />
    <glyph glyph-name="two.sups" horiz-adv-x="741" 
d="M92 1538q120 84 279 84q136 0 215.5 -62t79.5 -174q0 -50 -19 -95t-55.5 -81.5t-72 -63t-85.5 -56.5q-121 -70 -152 -94q-60 -47 -63 -93l451 2v-135h-607v66q0 56 16 103.5t39.5 80.5t60 64t69 51t74.5 45q12 7 18 10q98 58 128 85q54 51 54 114q0 100 -164 100
q-135 0 -266 -94v143z" />
    <glyph glyph-name="three.sups" horiz-adv-x="749" 
d="M649 1391q0 -61 -29 -110t-69 -71q131 -64 131 -209q0 -81 -45.5 -138t-116 -83t-158.5 -26q-161 0 -290 57v139q116 -63 278 -63q91 0 143 27.5t52 95.5q0 69 -46 96t-128 27h-133v135h116q77 0 117.5 28t40.5 82q0 111 -176 111q-131 0 -250 -68v140q119 61 268 61
q132 0 213.5 -62.5t81.5 -168.5z" />
    <glyph glyph-name="four.sups" horiz-adv-x="823" 
d="M479 1597h154v-530h143v-133h-143v-172h-139v172h-451v129zM494 1067v340l-277 -340h277z" />
    <glyph glyph-name="five.sups" horiz-adv-x="741" 
d="M123 1597h516v-135h-381l-10 -170q54 13 108 13q62 0 117 -14.5t103 -45.5t76 -88t28 -133q0 -131 -97.5 -205t-242.5 -74q-152 0 -268 58v135q106 -59 250 -59q98 0 155.5 35.5t57.5 109.5q0 46 -18.5 77t-52.5 47t-72 22t-87 6q-109 0 -209 -39z" />
    <glyph glyph-name="six.sups" horiz-adv-x="800" 
d="M219 1249q102 51 236 51q53 0 104 -17.5t93.5 -49.5t69 -84t26.5 -115q0 -132 -89.5 -206t-222.5 -74q-185 0 -274.5 111.5t-89.5 316.5q0 213 109 326.5t278 113.5q113 0 217 -49v-137q-94 51 -213 51q-89 0 -158 -57.5t-86 -180.5zM217 1110q22 -223 209 -223
q82 0 129 30.5t47 110.5q0 141 -184 141q-117 0 -201 -59z" />
    <glyph glyph-name="seven.sups" horiz-adv-x="673" 
d="M317 762h-153l319 700h-444v135h598v-131z" />
    <glyph glyph-name="eight.sups" horiz-adv-x="825" 
d="M96 1397q0 91 80 158t232 67q137 0 226.5 -70t94.5 -170q2 -51 -21 -104t-75 -94q125 -72 125 -195q0 -99 -85 -167t-255 -68q-166 0 -258 73t-92 177q0 53 31.5 112t95.5 103q-99 74 -99 178zM426 1124q-80 24 -111 37q-53 -28 -78.5 -67t-25.5 -74q0 -65 56 -100
t155 -35q80 0 136 25t56 73q0 13 -3 25t-6.5 21t-13 18.5l-15 15t-20 13t-21.5 11t-25.5 10.5t-25.5 9t-29 9t-29 9zM586 1356q0 60 -48.5 97.5t-131.5 37.5q-73 0 -119.5 -25.5t-46.5 -66.5q0 -15 2.5 -28t10.5 -24t13.5 -19t20 -16.5t21.5 -13.5t27 -12t26.5 -9.5t30 -10
t28.5 -9.5q8 -2 41 -10.5t53 -15.5q72 58 72 125z" />
    <glyph glyph-name="nine.sups" horiz-adv-x="800" 
d="M53 1341q0 132 89.5 206.5t222.5 74.5q185 0 274.5 -111.5t89.5 -316.5q0 -213 -109.5 -326.5t-279.5 -113.5q-113 0 -217 49v137q96 -51 215 -51q89 0 158 57t86 180q-102 -51 -236 -51q-53 0 -104 17.5t-93.5 49.5t-69 84t-26.5 115zM375 1489q-82 0 -130 -30.5
t-48 -110.5q0 -142 186 -142q116 0 201 60q-22 223 -209 223z" />
    <glyph glyph-name="zero.tf" horiz-adv-x="1290" 
d="M1208 696q0 -156 -36.5 -287t-105.5 -228t-177 -151.5t-244 -54.5t-244 54.5t-177 151.5t-105.5 228t-36.5 287t36.5 287t105.5 228t177 151.5t244 54.5t244 -54.5t177 -151.5t105.5 -228t36.5 -287zM256 696q0 -263 101 -410t288 -147t288 147t101 410t-101 410
t-288 147t-288 -147t-101 -410z" />
    <glyph glyph-name="one.tf" horiz-adv-x="1290" 
d="M645 1393h127v-1229h424v-164h-1055v164h459v1046l-391 -145v164z" />
    <glyph glyph-name="two.tf" horiz-adv-x="1290" 
d="M164 1282q207 135 467 135q231 0 363 -98t132 -275q0 -69 -21 -131t-55 -110.5t-86.5 -94.5t-106.5 -80.5t-124 -72.5q-178 -95 -243 -141q-158 -113 -166 -243v-9l833 2v-164h-1022v82q0 82 18.5 152.5t60 128t79.5 99.5t106 86.5t108 67t116 62.5q85 44 136 76.5
t100.5 77.5t72 97.5t22.5 117.5q0 103 -86 156.5t-252 53.5q-229 0 -452 -147v172z" />
    <glyph glyph-name="three.tf" horiz-adv-x="1290" 
d="M1110 1038q0 -107 -56.5 -191.5t-146.5 -115.5q48 -15 91 -41.5t83 -67.5t63 -104t23 -139q0 -99 -40.5 -176.5t-112.5 -127t-168 -75t-209 -25.5q-279 0 -506 101v170q213 -112 492 -109q378 3 378 250q0 250 -360 250h-233v164l215 -2q160 -1 240.5 61t80.5 164
q0 110 -89.5 171.5t-260.5 61.5q-224 0 -438 -114v168q207 106 460 106q227 0 360.5 -104.5t133.5 -274.5z" />
    <glyph glyph-name="four.tf" horiz-adv-x="1290" 
d="M805 1393h186v-924h242v-160h-242v-309h-170v309h-776v154zM821 469v692l-565 -692h565z" />
    <glyph glyph-name="five.tf" horiz-adv-x="1290" 
d="M225 1393h877v-164h-715l-25 -393q111 30 259 30q88 0 166 -14t149 -47t122 -83.5t81 -127.5t30 -174q0 -138 -73 -240t-199 -153.5t-289 -51.5q-272 0 -467 95v163q185 -98 447 -98q190 0 298.5 73.5t108.5 211.5q0 291 -434 291q-202 0 -381 -66z" />
    <glyph glyph-name="six.tf" horiz-adv-x="1290" 
d="M289 735q199 133 436 133q89 0 172.5 -28t152.5 -80.5t110.5 -137.5t41.5 -190q0 -144 -69 -249.5t-181 -156.5t-250 -51q-295 0 -441 183.5t-146 515.5q0 187 48 331t134.5 233t200 134t250.5 45q180 0 337 -80v-163q-149 79 -333 79q-72 0 -135.5 -16.5t-122 -55
t-101.5 -97.5t-70.5 -148t-33.5 -201zM291 563q20 -216 122.5 -322t276.5 -106q151 0 244.5 70t93.5 219q0 64 -19 113.5t-51 81.5t-77 52.5t-93.5 29t-105.5 8.5q-226 0 -391 -146z" />
    <glyph glyph-name="seven.tf" horiz-adv-x="1290" 
d="M119 1393h1065v-156l-602 -1237h-185l598 1229h-876v164z" />
    <glyph glyph-name="eight.tf" horiz-adv-x="1290" 
d="M131 1057q0 68 30 130.5t89.5 115t160 83.5t228.5 31q117 0 215.5 -31.5t163 -84.5t101 -122t38.5 -145q3 -99 -45 -192t-145 -160q239 -119 239 -328q0 -75 -32.5 -141t-97.5 -120.5t-174.5 -86t-250.5 -31.5q-138 0 -248.5 33.5t-179.5 91t-105 130t-36 153.5
q0 102 60 204.5t177 170.5q-188 114 -188 299zM659 627q-107 28 -194 61q-103 -50 -157 -128t-54 -159q0 -125 103 -195.5t298 -70.5q165 0 272 58.5t107 152.5q0 50 -20 89.5t-48 65t-79 49t-92 36.5t-108 33q-6 2 -9.5 3t-9 2.5t-9.5 2.5zM985 1004q0 108 -92.5 180.5
t-257.5 72.5q-153 0 -242.5 -56t-89.5 -142q0 -49 21 -88.5t43.5 -63t77.5 -48.5t80.5 -34t93.5 -29q22 -7 32 -10q159 -44 170 -47q81 52 122.5 122t41.5 143z" />
    <glyph glyph-name="nine.tf" horiz-adv-x="1290" 
d="M88 961q0 144 69 249t180.5 156t250.5 51q295 0 441.5 -183t146.5 -515q0 -150 -31.5 -273.5t-88 -210t-136 -145.5t-174 -87t-203.5 -28q-181 0 -338 80v164q151 -80 334 -80q72 0 135.5 16.5t121.5 55t101 97.5t70.5 148t33.5 201q-200 -133 -436 -133q-70 0 -138 17
t-129.5 53t-108 87t-74 123t-27.5 157zM600 1257q-57 0 -106.5 -9.5t-92.5 -31t-73.5 -54.5t-48 -82t-17.5 -111q0 -64 19 -113.5t51 -81.5t77 -52.5t93.5 -29t105.5 -8.5q227 0 391 145q-20 216 -122.5 322t-276.5 106z" />
    <glyph glyph-name="zero.tosf" horiz-adv-x="1290" 
d="M1219 532q0 -82 -22.5 -161t-70 -151t-114.5 -126.5t-161.5 -86.5t-205.5 -32q-137 0 -249 49t-181 129.5t-106 178t-37 200.5t37 200.5t106 178.5t181 130t249 49q111 0 205.5 -32.5t161.5 -87t114.5 -126.5t70 -151t22.5 -161zM246 532q0 -105 44 -193t136.5 -144
t218.5 -56t218.5 56t136.5 144t44 193t-44 193t-136.5 144.5t-218.5 56.5t-218.5 -56.5t-136.5 -144.5t-44 -193z" />
    <glyph glyph-name="one.tosf" horiz-adv-x="1290" 
d="M643 1065h127v-901h424v-164h-1055v164h459v719l-391 -146v164z" />
    <glyph glyph-name="two.tosf" horiz-adv-x="1290" 
d="M1139 0h-1002v102q0 56 18 105t41.5 83.5t70.5 67t79 50.5t95.5 40t91.5 30.5t93 25.5q5 1 7 2q175 47 249 95t74 138q0 89 -85.5 140t-241.5 51q-103 0 -221.5 -38t-221.5 -110v172q99 68 220.5 102t236.5 34q222 0 353.5 -95.5t131.5 -257.5q0 -64 -22.5 -116.5
t-58.5 -90t-95 -70.5t-118 -55t-142 -47q-15 -5 -47 -14q-38 -11 -58 -17t-55.5 -17.5t-55 -19.5t-47.5 -20t-43 -23t-31 -25t-22.5 -29t-6.5 -31l813 2v-164z" />
    <glyph glyph-name="three.tosf" horiz-adv-x="1290" 
d="M1098 711q0 -107 -56.5 -192t-146.5 -116q48 -15 91 -41.5t83 -67.5t63 -104t23 -139q0 -131 -70.5 -223.5t-186 -136t-263.5 -43.5q-289 0 -496 92v170q104 -55 219 -78.5t263 -21.5q368 3 368 249q0 250 -350 250h-223v164l205 -2q153 -1 232 61t79 164
q0 109 -87.5 171.5t-252.5 62.5q-227 0 -428 -107v168q196 99 450 99q220 0 352 -104.5t132 -274.5z" />
    <glyph glyph-name="four.tosf" horiz-adv-x="1290" 
d="M795 1065h186v-924h262v-159h-262v-310h-170v310h-776v153zM811 141v693l-565 -693h565z" />
    <glyph glyph-name="five.tosf" horiz-adv-x="1290" 
d="M236 1065h856v-164h-695l-24 -393q115 31 258 31q82 0 156 -14t143 -47.5t119 -83.5t80 -127.5t30 -174.5q0 -138 -72.5 -240t-194 -153t-274.5 -51q-273 0 -466 94v164q187 -99 446 -99q176 0 281.5 74t105.5 211q0 82 -33.5 140.5t-93 90.5t-130 46t-157.5 14
q-202 0 -381 -66z" />
    <glyph glyph-name="six.tosf" horiz-adv-x="1290" 
d="M289 735q199 133 436 133q89 0 172.5 -28t152.5 -80.5t110.5 -137.5t41.5 -190q0 -144 -69 -249.5t-181 -156.5t-250 -51q-295 0 -441 183.5t-146 515.5q0 187 48 331t134.5 233t200 134t250.5 45q180 0 337 -80v-163q-149 79 -333 79q-72 0 -135.5 -16.5t-122 -55
t-101.5 -97.5t-70.5 -148t-33.5 -201zM291 563q20 -216 122.5 -322t276.5 -106q151 0 244.5 70t93.5 219q0 64 -19 113.5t-51 81.5t-77 52.5t-93.5 29t-105.5 8.5q-226 0 -391 -146z" />
    <glyph glyph-name="seven.tosf" horiz-adv-x="1290" 
d="M117 1065h1065v-156l-602 -1237h-185l598 1229h-876v164z" />
    <glyph glyph-name="eight.tosf" horiz-adv-x="1290" 
d="M133 1057q0 68 30 130.5t89.5 115t160 83.5t228.5 31q117 0 215.5 -31.5t163 -84.5t101 -122t38.5 -145q3 -99 -45 -192t-145 -160q239 -119 239 -328q0 -75 -32.5 -141t-97.5 -120.5t-174.5 -86t-250.5 -31.5q-138 0 -248.5 33.5t-179.5 91t-105 130t-36 153.5
q0 102 60.5 204.5t177.5 170.5q-189 114 -189 299zM662 627q-110 29 -195 61q-103 -50 -157 -128t-54 -159q0 -125 103 -195.5t298 -70.5q165 0 272 58.5t107 152.5q0 50 -20 89.5t-48 65t-79 49t-92 37t-107 32.5q-19 5 -28 8zM987 1004q0 108 -92.5 180.5t-257.5 72.5
q-153 0 -242.5 -56t-89.5 -142q0 -49 21 -88.5t43.5 -63t77.5 -48.5t80.5 -34t93.5 -29q22 -7 32 -10q159 -44 170 -47q81 52 122.5 122t41.5 143z" />
    <glyph glyph-name="nine.tosf" horiz-adv-x="1290" 
d="M88 633q0 144 69 249.5t181 156.5t250 51q295 0 441.5 -183.5t146.5 -515.5q0 -187 -48 -331t-134.5 -233t-200 -134t-250.5 -45q-181 0 -338 80v163q149 -79 334 -79q72 0 135.5 16.5t121.5 55t101 97.5t70.5 148t33.5 201q-200 -133 -436 -133q-89 0 -172.5 28
t-152.5 80.5t-110.5 137.5t-41.5 190zM600 930q-151 0 -244.5 -70t-93.5 -219q0 -64 19 -113.5t51 -81.5t77 -52.5t93.5 -29t105.5 -8.5q226 0 391 146q-20 216 -122.5 322t-276.5 106z" />
    <glyph glyph-name="zero.dnom" horiz-adv-x="892" 
d="M821 418q0 -194 -94.5 -314t-280.5 -120t-280 120t-94 314t94 314t280 120t280.5 -120t94.5 -314zM215 418q0 -299 231 -299q232 0 232 299t-232 299q-231 0 -231 -299z" />
    <glyph glyph-name="one.dnom" horiz-adv-x="573" 
d="M283 836h106v-701h143v-135h-460v135h176v551l-168 -63v135z" />
    <glyph glyph-name="two.dnom" horiz-adv-x="741" 
d="M92 768q120 84 279 84q136 0 215.5 -62t79.5 -174q0 -50 -19 -95t-55.5 -82t-72.5 -63.5t-85 -56.5q-9 -5 -35 -20t-36 -21t-31.5 -19t-31 -20t-25.5 -19t-23 -21t-16 -20.5t-12.5 -22.5t-4.5 -23l451 2v-135h-607v66q0 56 16 103.5t39.5 80.5t60 64t69 51t74.5 45
q12 7 18 10q97 58 126 83q56 51 56 115q0 101 -164 101q-135 0 -266 -94v143z" />
    <glyph glyph-name="three.dnom" horiz-adv-x="749" 
d="M649 621q0 -61 -29 -110t-69 -71q131 -64 131 -209q0 -81 -45.5 -138t-116 -83t-158.5 -26q-161 0 -290 57v139q116 -63 278 -63q91 0 143 27.5t52 95.5t-46 95t-128 27h-133v136h116q77 0 117.5 28t40.5 82q0 111 -176 111q-131 0 -250 -68v140q119 61 268 61
q132 0 213.5 -62.5t81.5 -168.5z" />
    <glyph glyph-name="four.dnom" horiz-adv-x="823" 
d="M479 836h154v-531h143v-133h-143v-172h-139v172h-451v129zM494 305v340l-277 -340h277z" />
    <glyph glyph-name="five.dnom" horiz-adv-x="741" 
d="M123 836h516v-136h-381l-10 -170q54 13 108 13q62 0 117 -14.5t103 -45.5t76 -88t28 -133q0 -131 -97.5 -204.5t-242.5 -73.5q-154 0 -268 57v135q106 -59 250 -59q98 0 155.5 35.5t57.5 109.5q0 46 -18.5 77t-52.5 47t-72 22t-87 6q-109 0 -209 -39z" />
    <glyph glyph-name="six.dnom" horiz-adv-x="800" 
d="M219 479q102 51 236 51q53 0 104 -17.5t93.5 -49.5t69 -84t26.5 -115q0 -132 -89.5 -206t-222.5 -74q-185 0 -274.5 111.5t-89.5 316.5q0 213 109 326.5t278 113.5q113 0 217 -49v-137q-94 51 -213 51q-89 0 -158 -57.5t-86 -180.5zM217 340q22 -223 209 -223
q82 0 129 30.5t47 110.5q0 141 -184 141q-117 0 -201 -59z" />
    <glyph glyph-name="seven.dnom" horiz-adv-x="673" 
d="M317 0h-153l319 700h-444v136h598v-131z" />
    <glyph glyph-name="eight.dnom" horiz-adv-x="825" 
d="M96 627q0 91 80 158t232 67q137 0 226.5 -70t94.5 -170q2 -51 -21 -104t-75 -94q125 -72 125 -195q0 -99 -85 -167t-255 -68q-166 0 -258 72.5t-92 176.5q0 53 31.5 112.5t95.5 103.5q-99 74 -99 178zM426 354q-80 24 -111 37q-53 -28 -78.5 -67t-25.5 -74q0 -65 56 -100
t155 -35q80 0 136 25t56 73q0 13 -3 25t-6.5 21t-13 18.5l-15 15t-20 13t-21.5 11t-25.5 10.5t-25.5 9t-29 9t-29 9zM586 586q0 60 -48.5 97.5t-131.5 37.5q-73 0 -119.5 -25.5t-46.5 -66.5q0 -15 2.5 -28t10.5 -24t13.5 -19t20 -16.5t21.5 -13.5t27 -12t26.5 -9.5t30 -10
t28.5 -9.5q8 -2 41 -10.5t53 -15.5q72 58 72 125z" />
    <glyph glyph-name="nine.dnom" horiz-adv-x="800" 
d="M53 571q0 132 89.5 206.5t222.5 74.5q185 0 274.5 -111.5t89.5 -316.5q0 -213 -109.5 -326.5t-279.5 -113.5q-113 0 -217 49v137q96 -51 215 -51q89 0 158 57t86 180q-102 -51 -236 -51q-53 0 -104 17.5t-93.5 49.5t-69 84t-26.5 115zM375 719q-82 0 -130 -30.5
t-48 -110.5q0 -142 186 -142q116 0 201 60q-22 223 -209 223z" />
    <glyph glyph-name="zero.numr" horiz-adv-x="892" 
d="M821 983q0 -194 -94.5 -314t-280.5 -120t-280 120t-94 314t94 314t280 120t280.5 -120t94.5 -314zM215 983q0 -299 231 -299q232 0 232 299t-232 299q-231 0 -231 -299z" />
    <glyph glyph-name="one.numr" horiz-adv-x="573" 
d="M283 1393h106v-701h143v-135h-460v135h176v551l-168 -63v135z" />
    <glyph glyph-name="two.numr" horiz-adv-x="741" 
d="M92 1333q120 84 279 84q136 0 215.5 -61.5t79.5 -173.5q0 -50 -19 -95t-55.5 -82t-72.5 -63.5t-85 -56.5q-121 -70 -152 -94q-60 -47 -63 -93l451 2v-135h-607v66q0 56 16 103.5t39.5 80.5t60 64t69 51t74.5 45q12 7 18 10q98 58 128 85q54 51 54 114q0 100 -164 100
q-135 0 -266 -94v143z" />
    <glyph glyph-name="three.numr" horiz-adv-x="749" 
d="M649 1186q0 -61 -29 -109.5t-69 -70.5q131 -64 131 -209q0 -120 -92 -184t-228 -64q-161 0 -290 57v139q116 -63 278 -63q91 0 143 27.5t52 95.5q0 69 -46 96t-128 27h-133v135h116q77 0 117.5 28.5t40.5 82.5q0 110 -176 110q-133 0 -250 -67v139q119 61 268 61
q132 0 213.5 -62.5t81.5 -168.5z" />
    <glyph glyph-name="four.numr" horiz-adv-x="823" 
d="M479 1393h154v-531h143v-133h-143v-172h-139v172h-451v129zM494 862v340l-277 -340h277z" />
    <glyph glyph-name="five.numr" horiz-adv-x="741" 
d="M123 1393h516v-136h-381l-10 -170q54 13 108 13q62 0 117 -14.5t103 -45.5t76 -88t28 -133q0 -131 -97.5 -204.5t-242.5 -73.5q-154 0 -268 57v135q106 -59 250 -59q98 0 155.5 35.5t57.5 109.5q0 46 -18.5 77t-52.5 47t-72 22t-87 6q-109 0 -209 -39z" />
    <glyph glyph-name="six.numr" horiz-adv-x="800" 
d="M219 1044q104 52 236 52q71 0 136.5 -29t111 -91.5t45.5 -146.5q0 -132 -89.5 -206t-222.5 -74q-185 0 -274.5 111.5t-89.5 316.5q0 213 109 326.5t278 113.5q113 0 217 -49v-137q-94 51 -213 51q-89 0 -158 -57.5t-86 -180.5zM217 905q22 -223 209 -223q82 0 129 30.5
t47 110.5q0 142 -184 142q-116 0 -201 -60z" />
    <glyph glyph-name="seven.numr" horiz-adv-x="673" 
d="M317 557h-153l319 700h-444v136h598v-131z" />
    <glyph glyph-name="eight.numr" horiz-adv-x="825" 
d="M96 1192q0 91 80 158t232 67q137 0 226.5 -69.5t94.5 -169.5q2 -51 -21 -104.5t-75 -94.5q125 -72 125 -195q0 -99 -85 -167t-255 -68q-166 0 -258 73t-92 177q0 53 31.5 112t95.5 103q-99 74 -99 178zM426 920q-89 27 -111 36q-53 -28 -78.5 -67t-25.5 -74
q0 -65 56 -100t155 -35q80 0 136 25t56 73q0 39 -27.5 67t-52.5 38.5t-87 29.5q-14 5 -21 7zM586 1151q0 60 -48.5 97.5t-131.5 37.5q-73 0 -119.5 -25.5t-46.5 -66.5q0 -15 3 -28t10 -24t13.5 -19t20 -16t21.5 -13t26.5 -12t26.5 -10t30 -10t29 -9q5 -1 39 -10.5t55 -16.5
q72 58 72 125z" />
    <glyph glyph-name="nine.numr" horiz-adv-x="800" 
d="M53 1137q0 132 89.5 206t222.5 74q185 0 274.5 -111.5t89.5 -316.5q0 -213 -109.5 -326.5t-279.5 -113.5q-113 0 -217 49v137q96 -51 215 -51q89 0 158 57.5t86 180.5q-104 -52 -236 -52q-71 0 -136.5 29t-111 91.5t-45.5 146.5zM375 1284q-82 0 -130 -30.5t-48 -110.5
q0 -142 186 -142q116 0 201 60q-22 223 -209 223z" />
    <glyph glyph-name="emdash.case" horiz-adv-x="1568" 
d="M1434 639h-1299v156h1299v-156z" />
    <glyph glyph-name="endash.case" horiz-adv-x="1183" 
d="M1049 639h-914v156h914v-156z" />
    <glyph glyph-name="hyphen.case" horiz-adv-x="1001" 
d="M135 795h731v-156h-731v156z" />
    <glyph glyph-name="guillemotleft.case" horiz-adv-x="1040" 
d="M915 344h-176l-252 356v33l252 357h176l-262 -373zM532 344h-176l-252 356v33l252 357h176l-264 -373z" />
    <glyph glyph-name="guillemotright.case" horiz-adv-x="1040" 
d="M682 344h-174l262 373l-262 373h174l254 -357v-33zM299 344h-174l262 373l-262 373h174l254 -357v-33z" />
    <glyph glyph-name="guilsinglleft.case" horiz-adv-x="657" 
d="M532 344h-176l-252 356v33l252 357h176l-264 -373z" />
    <glyph glyph-name="guilsinglright.case" horiz-adv-x="657" 
d="M299 344h-174l262 373l-262 373h174l254 -357v-33z" />
    <glyph glyph-name="cent.tf" horiz-adv-x="1290" 
d="M807 129q141 9 256 78v-164q-118 -57 -256 -66v-223h-143v228q-89 11 -167.5 48t-142 97.5t-100.5 153.5t-37 206q0 115 37.5 209t101.5 155.5t142 99t166 50.5v228h143v-223q145 -13 246 -78v-160q-99 76 -246 86v-725zM664 844q-124 -27 -203.5 -115.5t-79.5 -236.5
q0 -147 79 -237t204 -118v707z" />
    <glyph glyph-name="currency.tf" horiz-adv-x="1290" 
d="M426 381l-172 -172l-115 115l166 165q-69 90 -69 228q0 137 69 227l-166 166l115 115l172 -172q94 55 219 55t219 -55l172 172l115 -115l-166 -166q70 -92 70 -227q0 -136 -70 -228l166 -165l-115 -115l-172 172q-94 -55 -219 -55t-219 55zM399 717q0 -111 67.5 -175.5
t178.5 -64.5t178.5 64.5t67.5 175.5t-67 175t-179 64t-179 -64t-67 -175z" />
    <glyph glyph-name="dollar.tf" horiz-adv-x="1290" 
d="M705 -266h-144v246q-235 22 -407 118v172q216 -131 499 -131q63 0 113 5.5t95 19.5t75 36.5t47.5 58.5t17.5 83q0 61 -29.5 108.5t-79.5 78t-115 55.5t-136.5 46t-143 43.5t-136.5 54t-115 73t-79.5 104.5t-29.5 144q0 85 33.5 152.5t92.5 111.5t134 69.5t164 32.5v244
h144v-244q207 -16 358 -102v-172q-85 55 -197.5 84.5t-224.5 27.5q-155 0 -242.5 -45t-87.5 -153q0 -58 29.5 -102.5t79.5 -73.5t115 -52.5t136.5 -44t143.5 -43.5t137 -55.5t115 -75t79.5 -107.5t29.5 -147q0 -79 -24.5 -142t-67 -106t-102.5 -72t-128.5 -43t-148.5 -16
v-241z" />
    <glyph glyph-name="Euro.tf" horiz-adv-x="1290" 
d="M418 489q44 -113 134.5 -193.5t202 -118.5t234.5 -38q120 0 230 35v-160q-131 -39 -267 -39q-157 0 -301 57.5t-257.5 176.5t-157.5 280h-185v144h160q-2 20 -2 63q0 44 2 64h-160v143h185q44 161 157 280t255 176.5t294 57.5q135 0 266 -39v-159q-106 34 -229 34
q-183 0 -339.5 -91.5t-221.5 -258.5h596v-143h-629q-2 -20 -2 -64q0 -43 2 -63h629v-144h-596z" />
    <glyph glyph-name="sterling.tf" horiz-adv-x="1290" 
d="M1200 0h-1116v164h76q63 0 101 47.5t38 122.5v272h-154v160h154v174q0 100 26 180t72.5 135t111.5 92t140 53.5t162 16.5q167 0 307 -78v-163q-135 84 -287 84q-166 0 -263 -78.5t-97 -245.5v-170h455v-160h-455v-272q0 -128 -57 -170h786v-164z" />
    <glyph glyph-name="yen.tf" horiz-adv-x="1290" 
d="M1055 1393h190l-438 -725h270v-144h-346v-114h346v-144h-346v-266h-172v266h-342v144h342v114h-342v144h266l-438 725h191l409 -697z" />
    </font>
</defs>
</svg>
