<?xml version="1.0" standalone="no"?>
<!DOCTYPE svg PUBLIC "-//W3C//DTD SVG 1.1//EN" "http://www.w3.org/Graphics/SVG/1.1/DTD/svg11.dtd" >
<svg xmlns="http://www.w3.org/2000/svg" xmlns:xlink="http://www.w3.org/1999/xlink" version="1.1">
<metadata>
Created by FontForge 20170731 at Sat Feb 25 21:44:23 2023
 By Aleksey,,,
Copyright (c) 2015 by Fontfabric LLC. All rights reserved.
</metadata>
<defs>
<font id="MullerLightItalic" horiz-adv-x="1275" >
  <font-face 
    font-family="Muller Light Italic"
    font-weight="300"
    font-style="italic"
    font-stretch="normal"
    units-per-em="2048"
    panose-1="0 0 0 0 0 0 0 0 0 0"
    ascent="1597"
    descent="-451"
    x-height="983"
    cap-height="1434"
    bbox="-424 -479 2501.5 1937"
    underline-thickness="102"
    underline-position="-358"
    slope="-9"
    unicode-range="U+0020-25CA"
  />
<missing-glyph horiz-adv-x="530" 
 />
    <glyph glyph-name="f_f" unicode="ff" horiz-adv-x="1390" 
d="M1548 1325q-82 45 -205 45q-243 0 -280 -235l-25 -152h396l-17 -109h-397l-137 -874h-117l139 874h-520l-137 -874h-117l139 874h-178l17 109h178l18 117q25 158 141 244t277 86q87 0 157 -22t144 -69q100 138 303 138q139 0 238 -47zM403 983h519l26 164q8 54 27 102
q-110 72 -248 72q-124 0 -205.5 -57.5t-99.5 -171.5z" />
    <glyph glyph-name="f_f_i" unicode="ffi" horiz-adv-x="1761" 
d="M248 0h-117l139 874h-178l17 109h178l18 117q25 159 140 244.5t278 85.5q90 0 162.5 -24.5t148.5 -74.5q57 69 141.5 104t182.5 35q156 0 299 -81l-19 -113q-128 86 -278 86q-120 0 -200 -60.5t-99 -183.5l-23 -135h617l-156 -983h-117l140 874h-502l-137 -874h-117
l139 874h-520zM422 1092l-19 -109h519l24 143q8 55 35 115q-60 41 -117.5 60.5t-136.5 19.5q-124 0 -205.5 -57.5t-99.5 -171.5z" />
    <glyph glyph-name="f_f_l" unicode="ffl" horiz-adv-x="1781" 
d="M1626 1407l2 12l121 31l-229 -1450h-117l207 1300q-118 62 -250 62q-120 0 -200 -60t-99 -184l-23 -135h344l-16 -109h-346l-137 -874h-117l139 874h-520l-137 -874h-117l139 874h-178l17 109h178l18 117q25 158 141.5 244t276.5 86q158 0 309 -99q57 69 141 104t179 35
q151 0 274 -63zM922 983l24 143q8 60 35 115q-58 41 -116.5 60.5t-137.5 19.5q-121 0 -204 -58t-101 -171l-19 -109h519z" />
    <glyph glyph-name=".notdef" horiz-adv-x="530" 
 />
    <glyph glyph-name=".null" horiz-adv-x="0" 
 />
    <glyph glyph-name="nonmarkingreturn" horiz-adv-x="682" 
 />
    <glyph glyph-name="space" unicode=" " horiz-adv-x="530" 
 />
    <glyph glyph-name="exclam" unicode="!" horiz-adv-x="440" 
d="M240 387h-103l158 1047h121zM215 53q-6 -34 -29.5 -51.5t-54.5 -17.5q-37 0 -58.5 23t-15.5 63q6 34 29.5 51.5t54.5 17.5q37 0 58.5 -23t15.5 -63z" />
    <glyph glyph-name="quotedbl" unicode="&#x22;" horiz-adv-x="598" 
d="M526 1106h-82l54 328h110zM295 1106h-82l53 328h111z" />
    <glyph glyph-name="numbersign" unicode="#" horiz-adv-x="1333" 
d="M188 0h-116l145 367h-174l16 102h199l180 457h-202l14 102h227l146 365h116l-143 -365h436l146 365h116l-145 -365h170l-14 -102h-195l-182 -457h200l-16 -102h-223l-146 -367h-116l143 367h-436zM555 926l-180 -457h436l180 457h-436z" />
    <glyph glyph-name="dollar" unicode="$" horiz-adv-x="1183" 
d="M514 -266h-102l39 246q-254 20 -418 120l18 119q95 -62 218.5 -94.5t248.5 -32.5q79 0 147 13t128 40.5t100 77t51 117.5q9 61 -13.5 109.5t-68.5 81.5t-108 60.5t-131.5 51.5t-138.5 49.5t-130 60.5t-105 77.5t-64 106.5t-7 144q13 79 61.5 143t118.5 104t151.5 62
t168.5 25l37 244h102l-37 -246q198 -16 336 -102l-16 -115q-75 50 -182.5 77t-223.5 27q-93 0 -174 -22t-143.5 -75.5t-75.5 -131.5q-11 -62 11 -112t67.5 -83.5t107 -61.5t131 -52.5t139 -50t130.5 -59t105.5 -75.5t65.5 -104t9 -139q-15 -92 -64 -162t-121.5 -110.5
t-154.5 -61.5t-174 -23z" />
    <glyph glyph-name="percent" unicode="%" horiz-adv-x="1816" 
d="M436 -123h-121l1104 1679h121zM799 1137q-21 -141 -125.5 -220t-235.5 -79q-62 0 -117 21.5t-95.5 60.5t-59 101t-6.5 136q22 141 127 220t237 79q62 0 116.5 -21.5t95 -60.5t58.5 -101t5 -136zM266 1149q-14 -91 35 -150t141 -59q96 0 165.5 56t84.5 149
q14 91 -34.5 150t-137.5 59q-99 0 -169 -56t-85 -149zM1696 276q-15 -95 -71.5 -164.5t-132 -102t-159.5 -32.5q-62 0 -117 21.5t-95.5 61t-59 101.5t-6.5 136q22 141 126 220t238 79q129 0 214.5 -87t62.5 -233zM1161 289q-14 -91 35 -150t141 -59q96 0 165.5 56t84.5 149
q14 91 -34.5 150t-137.5 59q-99 0 -169 -56t-85 -149z" />
    <glyph glyph-name="ampersand" unicode="&#x26;" horiz-adv-x="1406" 
d="M1085 238l224 -238h-142l-155 164q-217 -187 -520 -187q-218 0 -334.5 108t-91.5 267q9 57 38 111t66 94.5t89 80.5t96 67t98 55q-163 193 -136 360q22 142 153.5 239t311.5 97q157 0 258 -88.5t80 -222.5q-7 -46 -27.5 -87.5t-64.5 -82t-72 -65.5t-98 -63.5t-91.5 -50
t-99.5 -49.5q-27 -14 -40 -20l381 -408q128 149 153 338h121q-36 -235 -197 -419zM780 1346q-151 0 -242.5 -71t-105.5 -177q-19 -129 121 -289q197 90 279 144q156 101 172 204q13 85 -54 137t-170 52zM186 342q-19 -112 69.5 -183t256.5 -71q241 0 424 158l-410 432
q-66 -34 -112 -62.5t-100 -71t-86.5 -93.5t-41.5 -109z" />
    <glyph glyph-name="quotesingle" unicode="'" horiz-adv-x="366" 
d="M295 1106h-82l53 328h111z" />
    <glyph glyph-name="parenleft" unicode="(" horiz-adv-x="557" 
d="M563 1657h117q-165 -196 -281.5 -449t-154.5 -499q-39 -238 -3 -489t138 -443h-111q-107 201 -149 451t-4 497q39 243 158.5 490t289.5 442z" />
    <glyph glyph-name="parenright" unicode=")" horiz-adv-x="557" 
d="M215 1657h111q108 -202 150 -452t3 -496q-38 -241 -157 -488.5t-289 -443.5h-119q165 196 281.5 449t154.5 499q39 238 3 489t-138 443z" />
    <glyph glyph-name="asterisk" unicode="*" horiz-adv-x="888" 
d="M516 1044l-201 -243l-82 61l211 225l-256 76l54 103l247 -101l31 269h109l-56 -269l279 101l22 -103l-286 -76l145 -225l-96 -61z" />
    <glyph glyph-name="plus" unicode="+" horiz-adv-x="1089" 
d="M629 772h393l-18 -110h-394l-61 -394h-111l62 394h-391l16 110h393l62 393h110z" />
    <glyph glyph-name="comma" unicode="," horiz-adv-x="446" 
d="M23 -301h-97l183 459h122z" />
    <glyph glyph-name="hyphen" unicode="-" horiz-adv-x="995" 
d="M131 559h721l-18 -110h-719z" />
    <glyph glyph-name="period" unicode="." horiz-adv-x="415" 
d="M213 57q-6 -35 -30 -54t-56 -19q-37 0 -59 24t-15 64q4 33 29.5 52t56.5 19q38 0 59.5 -23.5t14.5 -62.5z" />
    <glyph glyph-name="slash" unicode="/" horiz-adv-x="858" 
d="M57 -119h-92l875 1671h90z" />
    <glyph glyph-name="zero" unicode="0" horiz-adv-x="1439" 
d="M129 707q25 157 82 285t145 223t212.5 147.5t275.5 52.5q120 0 214.5 -35.5t155.5 -100.5t98.5 -156t43 -201t-12.5 -236q-25 -157 -82.5 -285t-145.5 -223.5t-212.5 -148t-275.5 -52.5q-120 0 -214.5 36t-155.5 101t-98 155.5t-42.5 201t12.5 236.5zM1221 694
q24 137 10.5 248.5t-58 191t-130 123t-207.5 43.5q-245 0 -394 -158t-194 -444q-24 -137 -10.5 -248.5t58 -191t130 -123t207.5 -43.5q247 0 395.5 158t192.5 444z" />
    <glyph glyph-name="one" unicode="1" horiz-adv-x="849" 
d="M578 1393h88l-203 -1276h272l-18 -117h-701l19 117h307l180 1145l-323 -115l20 117z" />
    <glyph glyph-name="two" unicode="2" horiz-adv-x="1163" 
d="M254 1286q211 129 453 129q201 0 318.5 -98.5t90.5 -265.5q-11 -69 -42 -129.5t-70 -105.5t-102 -92.5t-117.5 -79.5t-137.5 -77q-186 -98 -229 -125q-167 -102 -227 -218q-26 -50 -37 -107h829l-20 -117h-959l10 66q9 56 25.5 106t36 91t50 80.5t57 68.5t69 61t73 53
t81 49t82.5 44.5t87 44.5q49 25 75.5 39t70 38t69 42t59.5 43.5t54.5 50t42 54t33.5 62.5t18 70q17 113 -64.5 176.5t-242.5 63.5q-218 0 -457 -146z" />
    <glyph glyph-name="three" unicode="3" horiz-adv-x="1202" 
d="M1106 1034q-18 -108 -93.5 -193.5t-191.5 -115.5q54 -13 100 -40.5t82.5 -70t52 -106.5t3.5 -141q-21 -125 -103 -215t-198 -132.5t-254 -42.5q-279 0 -467 93l16 112q177 -92 447 -92q177 0 298 75.5t146 221.5q11 74 -9.5 128.5t-68 85.5t-110.5 46t-144 15h-211
l21 112h192q162 0 259 76t116 190q19 116 -64 189.5t-247 73.5q-212 0 -445 -101l21 121q201 92 446 92q199 0 315 -109t91 -272z" />
    <glyph glyph-name="four" unicode="4" horiz-adv-x="1312" 
d="M967 1393h135l-152 -955h277l-19 -112h-276l-51 -326h-121l51 326h-797l17 106zM827 438l127 789l-770 -789h643z" />
    <glyph glyph-name="five" unicode="5" horiz-adv-x="1183" 
d="M328 1393h815l-19 -117h-702l-107 -477q133 39 281 39q79 0 150.5 -15.5t135 -49.5t107 -84.5t62.5 -126t4 -167.5q-20 -129 -104 -225t-207.5 -144.5t-270.5 -48.5q-258 0 -434 95l16 110q79 -44 187.5 -68t222.5 -24q188 0 317 85t152 235q11 69 -3.5 123.5t-48.5 90.5
t-86 59.5t-112 33.5t-131 10q-189 0 -383 -68z" />
    <glyph glyph-name="six" unicode="6" horiz-adv-x="1257" 
d="M1151 1227q-125 73 -295 73q-108 0 -201.5 -33.5t-174.5 -104.5t-140.5 -191.5t-89.5 -284.5q232 170 487 170q87 0 166 -28t139.5 -80.5t89 -138t11.5 -191.5q-33 -207 -188 -324t-361 -117q-186 0 -303.5 85.5t-158.5 241t-7 368.5q30 191 98.5 335.5t166 232.5
t215.5 131.5t255 43.5q172 0 309 -78zM592 90q166 0 284.5 86t145.5 250q13 85 -6.5 148.5t-66.5 99t-107.5 52.5t-136.5 17q-122 0 -247 -49t-227 -141q-17 -227 76 -345t285 -118z" />
    <glyph glyph-name="seven" unicode="7" horiz-adv-x="1079" 
d="M182 1393h975l-16 -109l-815 -1284h-133l808 1276h-837z" />
    <glyph glyph-name="eight" unicode="8" horiz-adv-x="1318" 
d="M1171 328q-11 -71 -53 -133t-112.5 -111.5t-177 -78t-236.5 -28.5q-137 0 -243.5 34t-168.5 92.5t-88.5 133.5t-13.5 160q18 108 98.5 205.5t218.5 167.5q-189 112 -157 303q10 66 48 125.5t102.5 109t164 78.5t221.5 29q114 0 207.5 -34t150.5 -90t83.5 -127t15.5 -144
q-27 -203 -266 -348q244 -112 206 -344zM201 397q-22 -138 84.5 -222.5t320.5 -84.5q183 0 305 72.5t140 181.5q9 56 -7.5 101t-40.5 72.5t-82.5 55t-94.5 39.5t-115 36q-5 2 -8 2.5t-7 2t-8 2.5q-100 27 -192 62q-127 -57 -203.5 -140t-91.5 -180zM688 766q11 -3 176 -49
q217 130 246 303q18 114 -72.5 198.5t-267.5 84.5q-175 0 -285.5 -68.5t-126.5 -169.5q-9 -54 6.5 -98t44 -72.5t75 -52.5t88.5 -39t95 -31z" />
    <glyph glyph-name="nine" unicode="9" horiz-adv-x="1255" 
d="M145 975q22 139 104 240.5t197 150.5t248 49q279 0 400 -185.5t69 -508.5q-30 -191 -98.5 -335.5t-166 -233t-215.5 -132t-255 -43.5q-172 0 -309 78l18 113q122 -76 295 -76q108 0 201.5 33.5t174.5 104.5t140.5 192t89.5 285q-232 -170 -487 -170q-70 0 -135 17
t-120.5 53t-94 87t-54.5 123.5t-2 157.5zM696 1303q-166 0 -284.5 -85t-145.5 -251q-11 -68 0.5 -122.5t40 -90.5t72 -60t94.5 -34.5t111 -10.5q122 0 246 49.5t227 141.5q17 227 -76 345t-285 118z" />
    <glyph glyph-name="colon" unicode=":" horiz-adv-x="438" 
d="M334 805q-6 -35 -30 -53.5t-58 -18.5q-36 0 -58 23t-16 63q6 35 30.5 54.5t55.5 19.5q38 0 60 -24t16 -64zM215 57q-6 -35 -30 -54t-58 -19q-36 0 -57.5 24t-14.5 64q4 33 29.5 52t56.5 19q38 0 59.5 -23.5t14.5 -62.5z" />
    <glyph glyph-name="semicolon" unicode=";" horiz-adv-x="577" 
d="M90 -301h-96l182 459h123zM412 885q-6 -35 -30 -53.5t-58 -18.5q-36 0 -58 23t-16 63q4 35 30 54.5t58 19.5q38 0 59 -24t15 -64z" />
    <glyph glyph-name="less" unicode="&#x3c;" horiz-adv-x="989" 
d="M819 453l-18 -115l-703 321l19 117l803 320l-17 -115l-676 -264z" />
    <glyph glyph-name="equal" unicode="=" horiz-adv-x="1130" 
d="M1022 848h-838l19 110h835zM963 475h-838l16 111h838z" />
    <glyph glyph-name="greater" unicode="&#x3e;" horiz-adv-x="987" 
d="M907 657l-803 -319l19 115l678 264l-594 264l16 115l705 -322z" />
    <glyph glyph-name="question" unicode="?" horiz-adv-x="1005" 
d="M502 408h-117q11 80 63 158.5t119.5 143t135 127t119.5 134.5t63 143q18 115 -63 171t-242 56q-198 0 -404 -116l19 121q197 110 409 110q126 0 222.5 -38.5t147 -118.5t32.5 -189q-9 -59 -40 -117t-73.5 -106.5t-92.5 -96.5t-99.5 -94t-91 -91t-71 -96t-36.5 -101z
M469 57q-6 -35 -30 -54t-56 -19q-37 0 -59 24t-15 64q4 33 29.5 52t56.5 19q38 0 59.5 -23.5t14.5 -62.5z" />
    <glyph glyph-name="at" unicode="@" horiz-adv-x="2160" 
d="M84 516q29 186 123 354.5t238.5 299.5t348 208.5t435.5 77.5q113 0 214.5 -22t182 -62t150 -94.5t118 -120t86 -139t54.5 -150.5t23.5 -155t-7.5 -152q-43 -268 -169 -405.5t-298 -137.5q-125 0 -196 61.5t-74 174.5q-63 -90 -157.5 -140.5t-199.5 -50.5
q-167 0 -267.5 123t-70.5 308q29 183 159.5 300t301.5 117q105 0 183 -54.5t110 -137.5l27 174h114l-90 -561q-32 -211 164 -211q128 0 219 121t123 333q17 105 -1 213t-73 207t-140 176.5t-213 123.5t-281 46q-165 0 -315 -44.5t-267 -122.5t-209 -183.5t-149 -230
t-78 -258.5q-25 -159 2.5 -297.5t98.5 -240.5t176 -175t235.5 -110t275.5 -37q243 0 469 75l-18 -120q-209 -70 -459 -70q-136 0 -261.5 29.5t-234 86.5t-194.5 141.5t-141 194.5t-74 244.5t6 292.5zM1350 582q-11 94 -81.5 158.5t-181.5 64.5q-131 0 -232 -87t-124 -231
q-21 -140 48.5 -228.5t193.5 -88.5q115 0 210 66.5t138 160.5z" />
    <glyph glyph-name="A" unicode="A" horiz-adv-x="1462" 
d="M1343 0h-126l-109 385h-811l-229 -385h-138l865 1434h139zM823 1262l-458 -762h714l-217 764q-8 31 -10 49q-7 -16 -29 -51z" />
    <glyph glyph-name="B" unicode="B" horiz-adv-x="1404" 
d="M334 1434h555q136 0 238 -40t155.5 -125.5t34.5 -205.5q-22 -131 -106.5 -208t-200.5 -103q42 -10 79.5 -25.5t76.5 -45.5t64.5 -69t37 -98.5t0.5 -130.5q-13 -80 -46.5 -143t-82.5 -103.5t-104.5 -68.5t-122 -42.5t-123.5 -20t-119 -5.5h-564zM1147 410q9 60 -1.5 107
t-38 76.5t-61 49t-78 29t-80 13t-75.5 3.5h-477l-90 -571h413q47 0 85 2t86.5 9.5t87 19.5t78.5 34t69 52.5t51 75t31 100.5zM1194 1065q21 134 -67 193t-263 59h-430l-80 -514h484q137 0 235.5 64.5t120.5 197.5z" />
    <glyph glyph-name="C" unicode="C" horiz-adv-x="1325" 
d="M123 745q22 136 83.5 253.5t147.5 200t190.5 141.5t214.5 87.5t218 28.5q222 0 379 -98l-19 -117q-136 100 -348 100q-96 0 -192 -23.5t-187.5 -73.5t-166 -120.5t-128 -172.5t-73.5 -222q-20 -127 1 -234t73 -180t128 -124.5t162 -75t178 -23.5q222 0 398 107l-21 -131
q-178 -91 -407 -91q-106 0 -207 30.5t-189.5 92t-149 153.5t-85.5 215t0 277z" />
    <glyph glyph-name="D" unicode="D" horiz-adv-x="1505" 
d="M334 1434h438q184 0 321.5 -54.5t217 -151.5t108.5 -229t4 -290q-25 -157 -91 -284.5t-171.5 -223.5t-260.5 -148.5t-347 -52.5h-447zM1300 725q45 276 -91 434t-449 158h-326l-188 -1200h319q314 0 502.5 162.5t232.5 445.5z" />
    <glyph glyph-name="E" unicode="E" horiz-adv-x="1271" 
d="M334 1434h952l-18 -117h-832l-84 -537h768l-16 -116h-770l-86 -547h842l-19 -117h-965z" />
    <glyph glyph-name="F" unicode="F" horiz-adv-x="1236" 
d="M334 1434h956l-20 -117h-834l-88 -559h774l-18 -117h-774l-103 -641h-121z" />
    <glyph glyph-name="G" unicode="G" horiz-adv-x="1452" 
d="M123 745q23 145 86.5 265.5t150.5 201.5t194.5 137t217 81.5t219.5 25.5q232 0 410 -96l-17 -117q-70 48 -171.5 73t-211.5 25q-98 0 -193 -20.5t-189 -67t-169 -115.5t-130.5 -174.5t-75.5 -234.5q-21 -131 1 -239.5t75 -181t130.5 -122.5t165.5 -72t183 -22
q182 0 331 70l95 594h123l-107 -684q-220 -95 -457 -95q-113 0 -217.5 27.5t-197.5 88.5t-156 148.5t-89 217.5t-1 286z" />
    <glyph glyph-name="H" unicode="H" horiz-adv-x="1572" 
d="M1384 1434h121l-227 -1434h-121l105 662h-930l-105 -662h-121l228 1434h121l-103 -656h928z" />
    <glyph glyph-name="I" unicode="I" horiz-adv-x="522" 
d="M334 1434h121l-228 -1434h-121z" />
    <glyph glyph-name="J" unicode="J" horiz-adv-x="1056" 
d="M440 1434h564l-162 -1031q-34 -217 -171.5 -320t-344.5 -103q-226 0 -359 90l19 118q127 -92 323 -92q362 0 412 320l143 901h-444z" />
    <glyph glyph-name="K" unicode="K" horiz-adv-x="1347" 
d="M1288 1434h139l-608 -703l428 -731h-131l-399 676h-383l-107 -676h-121l228 1434h121l-101 -643h375z" />
    <glyph glyph-name="L" unicode="L" horiz-adv-x="1171" 
d="M334 1434h121l-207 -1317h827l-18 -117h-951z" />
    <glyph glyph-name="M" unicode="M" horiz-adv-x="1849" 
d="M1659 1434h123l-228 -1434h-120l192 1214l-694 -849h-80l-430 849l-195 -1214h-121l228 1434h106l465 -922z" />
    <glyph glyph-name="N" unicode="N" horiz-adv-x="1572" 
d="M227 0h-121l228 1434h102l754 -1237q3 22 8.5 62.5t7.5 62.5l178 1112h121l-227 -1434h-102l-754 1239q-3 -23 -8.5 -63.5t-7.5 -61.5z" />
    <glyph glyph-name="O" unicode="O" horiz-adv-x="1683" 
d="M1606 709q-22 -140 -88 -268t-170.5 -233t-259.5 -168t-338 -63q-87 0 -165.5 17t-141 48t-116.5 74.5t-92 96t-67.5 113.5t-42.5 126.5t-16.5 134.5t8.5 138q18 110 64 215t122.5 198.5t173.5 164t225.5 112t270.5 41.5q87 0 166 -17t142 -48t117 -74t92 -96t67 -113.5
t42 -126t16.5 -134.5t-9.5 -138zM240 717q-8 -64 -8 -127.5t17.5 -125.5t44 -117t71.5 -102t100.5 -81t130.5 -53t162 -19q122 0 231.5 35t192 95t147 140t103 170t53.5 185q8 64 8 127.5t-17.5 125t-44 117t-71.5 102t-100.5 80.5t-130.5 53t-162 19q-152 0 -283 -53
t-220.5 -142t-147 -199t-76.5 -230z" />
    <glyph glyph-name="P" unicode="P" horiz-adv-x="1351" 
d="M334 1434h479q94 0 174.5 -13.5t153 -47t120.5 -85t69 -133t5 -184.5q-71 -449 -671 -449h-353l-84 -522h-121zM1212 985q12 78 -4.5 137.5t-53 95.5t-94 59t-118.5 31.5t-135 8.5h-373l-106 -678h352q83 0 153 9.5t135.5 34t114 63t82.5 99.5t47 140z" />
    <glyph glyph-name="Q" unicode="Q" horiz-adv-x="1683" 
d="M1489 -45l-86 -74l-191 223q-207 -127 -462 -127q-87 0 -165.5 17t-141 48t-116.5 74.5t-92 96t-67.5 113.5t-42.5 126.5t-16.5 134.5t8.5 138q18 110 64 215t122.5 198.5t173.5 164t225.5 112t270.5 41.5q87 0 166 -17t142 -48t117 -74t92 -96t67 -113.5t42 -126
t16.5 -134.5t-9.5 -138q-24 -153 -101 -294.5t-200 -244.5zM240 717q-8 -64 -8 -127.5t17.5 -125.5t44 -117t71.5 -102t100.5 -81t130.5 -53t162 -19q206 0 379 105l-240 282l86 74l246 -293q103 87 169 207.5t87 249.5q8 64 8 127.5t-17.5 125t-44 117t-71.5 102
t-100.5 80.5t-130.5 53t-162 19q-152 0 -283 -53t-220.5 -142t-147 -199t-76.5 -230z" />
    <glyph glyph-name="R" unicode="R" horiz-adv-x="1415" 
d="M227 0h-121l228 1434h547q78 0 148 -14t134.5 -46.5t108 -81t63 -124t4.5 -169.5q-16 -97 -61.5 -173t-112.5 -123.5t-142 -74.5t-161 -38l416 -590h-143l-410 580h-406zM434 1317l-96 -621h432q78 0 148 16.5t134 51.5t108 99t57 151q11 69 -3.5 122.5t-46.5 87
t-81.5 55t-101.5 30t-112 8.5h-438z" />
    <glyph glyph-name="S" unicode="S" horiz-adv-x="1177" 
d="M193 1108q14 89 65.5 158t126.5 109.5t160 60.5t176 20q243 0 407 -108l-18 -117q-74 53 -176 81.5t-211 28.5q-78 0 -144.5 -13t-123 -40.5t-94 -76t-48.5 -113.5q-9 -56 8 -102.5t53.5 -78t87.5 -60.5t110 -50t121 -46.5t121 -50t109 -60.5t85 -78t50 -103t3 -135
q-15 -97 -67 -168.5t-129 -111.5t-164 -59t-185 -18q-138 0 -264.5 32t-220.5 91l18 117q193 -125 465 -125q386 0 424 248q11 66 -10 119t-65.5 88.5t-104.5 65.5t-128 56t-135.5 52.5t-127 61t-103 77.5t-63.5 106t-8 142z" />
    <glyph glyph-name="T" unicode="T" horiz-adv-x="1220" 
d="M158 1434h1169l-18 -117h-525l-209 -1317h-120l209 1317h-525z" />
    <glyph glyph-name="U" unicode="U" horiz-adv-x="1542" 
d="M1370 1434h121l-145 -926q-23 -145 -84 -250.5t-151 -165.5t-194.5 -87.5t-228.5 -27.5q-100 0 -183.5 18t-155.5 57t-115.5 102t-63 153t1.5 209l145 918h121l-145 -922q-18 -114 3 -197t76.5 -131t133 -70t180.5 -22q471 0 541 428z" />
    <glyph glyph-name="V" unicode="V" horiz-adv-x="1402" 
d="M670 0h-125l-381 1434h127l332 -1297l747 1297h135z" />
    <glyph glyph-name="W" unicode="W" horiz-adv-x="2037" 
d="M2005 1434h129l-674 -1434h-137l-199 1208l-583 -1208h-144l-227 1434h123l201 -1278l612 1271h100l207 -1255z" />
    <glyph glyph-name="X" unicode="X" horiz-adv-x="1286" 
d="M68 0h-154l682 743l-416 691h135l363 -603l553 603h153l-647 -705l439 -729h-134l-387 639z" />
    <glyph glyph-name="Y" unicode="Y" horiz-adv-x="1316" 
d="M625 0h-123l90 559l-424 875h127l371 -758l612 758h139l-702 -875z" />
    <glyph glyph-name="Z" unicode="Z" horiz-adv-x="1183" 
d="M1026 0h-1059l17 109l1073 1208h-852l18 117h1006l-17 -109l-1075 -1208h910z" />
    <glyph glyph-name="bracketleft" unicode="[" horiz-adv-x="540" 
d="M362 -225h-342l299 1884h340l-18 -117h-219l-262 -1651h219z" />
    <glyph glyph-name="backslash" unicode="\" horiz-adv-x="845" 
d="M659 -119h-86l-346 1671h86z" />
    <glyph glyph-name="bracketright" unicode="]" horiz-adv-x="542" 
d="M262 -225h-342l17 116h221l262 1651h-219l16 117h342z" />
    <glyph glyph-name="asciicircum" unicode="^" horiz-adv-x="1050" 
d="M276 799h-135l471 635h103l270 -635h-125l-211 506z" />
    <glyph glyph-name="underscore" unicode="_" horiz-adv-x="907" 
d="M766 -287h-905l16 111h907z" />
    <glyph glyph-name="grave" unicode="`" horiz-adv-x="362" 
d="M537 1583h-125l-156 291h141z" />
    <glyph glyph-name="a" unicode="a" horiz-adv-x="1265" 
d="M938 203q-80 -102 -195.5 -164t-253.5 -62q-140 0 -243 67t-148.5 187.5t-21.5 270.5q35 223 195.5 363.5t367.5 140.5q139 0 238 -64.5t151 -165.5l33 207h104l-155 -983h-105zM188 494q-29 -183 63.5 -296.5t254.5 -113.5q141 0 260.5 79t183.5 195l43 271
q-24 114 -118.5 192t-227.5 78q-167 0 -298 -109.5t-161 -295.5z" />
    <glyph glyph-name="b" unicode="b" horiz-adv-x="1267" 
d="M295 1434h117l-105 -646q76 96 190 157t248 61q102 0 187 -39.5t141 -108t79.5 -167t6.5 -210.5q-35 -226 -191 -365t-374 -139q-140 0 -236.5 64t-150.5 168l-35 -209h-104zM1044 489q28 182 -65 296t-252 114q-142 0 -260 -79t-184 -197l-45 -269q29 -117 121 -193.5
t227 -76.5q178 0 303 108t155 297z" />
    <glyph glyph-name="c" unicode="c" horiz-adv-x="1013" 
d="M76 504q16 104 60.5 189.5t104.5 142.5t135.5 96t152 56.5t153.5 17.5q171 0 293 -86l-19 -109q-104 88 -266 88q-65 0 -128.5 -14t-125 -45.5t-111 -77.5t-85.5 -115.5t-50 -154.5q-16 -101 5.5 -181t73 -128.5t122 -73.5t156.5 -25q161 0 317 86l-18 -121
q-147 -72 -324 -72q-102 0 -190 33t-153 96t-94 166t-9 232z" />
    <glyph glyph-name="d" unicode="d" horiz-adv-x="1265" 
d="M1122 1434h115l-227 -1434h-103l33 209q-78 -106 -193 -169t-258 -63q-139 0 -242 67t-149 187.5t-22 270.5q35 224 191.5 364t365.5 140q141 0 240.5 -64t144.5 -162zM995 629q-26 116 -119 193t-229 77q-170 0 -299.5 -108.5t-159.5 -296.5q-14 -91 4 -168.5t62 -130
t109 -82t143 -29.5q141 0 260.5 79.5t183.5 196.5z" />
    <glyph glyph-name="e" unicode="e" horiz-adv-x="1120" 
d="M74 496q18 122 74 221t133.5 161t168 95t183.5 33q106 0 187 -34.5t127 -92t68.5 -131.5t17 -154.5t-33.5 -159.5h-817q-9 -91 20.5 -160.5t86.5 -109.5t126 -60t146 -20q187 0 344 82l-18 -117q-144 -72 -344 -72q-79 0 -153 19.5t-139 61.5t-110.5 101.5t-64.5 146.5
t-2 190zM913 537q10 37 11.5 77t-6.5 81t-29.5 77.5t-54 65t-84.5 45t-117 16.5q-154 0 -278 -97.5t-158 -264.5h716z" />
    <glyph glyph-name="f" unicode="f" horiz-adv-x="755" 
d="M311 1141q14 86 52.5 149.5t93 98.5t114 51t127.5 16q132 0 228 -47l-19 -104q-82 45 -196 45q-248 0 -285 -222l-23 -145h396l-17 -109h-397l-137 -874h-117l139 874h-178l17 109h178z" />
    <glyph glyph-name="g" unicode="g" horiz-adv-x="1267" 
d="M1012 -4q-15 -100 -55.5 -180t-96.5 -133t-127.5 -89t-147 -51.5t-157.5 -15.5q-235 0 -389 98l18 111q147 -103 361 -103q88 0 165 21t142.5 63.5t110 116t59.5 170.5l31 186q-73 -93 -186.5 -153t-250.5 -60q-214 0 -332 148.5t-81 376.5q35 223 194.5 363.5
t368.5 140.5q142 0 239 -65t148 -173l33 215h108zM188 494q-29 -183 63 -296.5t255 -113.5q141 0 260.5 76.5t183.5 189.5l45 279q-26 116 -118.5 193t-229.5 77q-169 0 -299 -109t-160 -296z" />
    <glyph glyph-name="h" unicode="h" horiz-adv-x="1196" 
d="M295 1434h117l-101 -621q78 81 184 137t222 56q173 0 266.5 -111.5t65.5 -292.5l-97 -602h-116l94 596q24 147 -43.5 225t-196.5 78q-115 0 -222.5 -67.5t-178.5 -161.5l-105 -670h-116z" />
    <glyph glyph-name="i" unicode="i" horiz-adv-x="452" 
d="M190 0h-116l155 983h117zM414 1274q-6 -35 -29.5 -52.5t-56.5 -17.5q-36 0 -57 22t-15 62q4 34 29 53t57 19q35 0 56.5 -24t15.5 -62z" />
    <glyph glyph-name="j" unicode="j" horiz-adv-x="452" 
d="M156 -209q-11 -74 -41 -127.5t-72.5 -82t-88 -41.5t-97.5 -13q-83 0 -152 29l16 102q55 -25 115 -25q178 0 209 183l184 1167h117zM414 1274q-6 -35 -29.5 -52.5t-56.5 -17.5q-36 0 -57 22t-15 62q4 34 29 53t57 19q35 0 56.5 -24t15.5 -62z" />
    <glyph glyph-name="k" unicode="k" horiz-adv-x="1040" 
d="M909 983h140l-465 -479l352 -504h-131l-324 463h-225l-72 -463h-116l227 1434h117l-138 -865h234z" />
    <glyph glyph-name="l" unicode="l" horiz-adv-x="452" 
d="M311 1495h117l-238 -1495h-116z" />
    <glyph glyph-name="m" unicode="m" horiz-adv-x="1828" 
d="M977 817q193 189 399 189q168 0 251 -110t56 -280l-98 -616h-115l99 627q20 123 -36.5 197.5t-174.5 74.5q-105 0 -197 -57.5t-162 -136.5q0 -43 -6 -89l-98 -616h-117l101 627q19 123 -37.5 197.5t-173.5 74.5q-193 0 -375 -211l-109 -688h-116l155 983h105l-29 -168
q67 75 169 133t216 58q112 0 187.5 -50.5t105.5 -138.5z" />
    <glyph glyph-name="n" unicode="n" horiz-adv-x="1196" 
d="M297 801q80 87 189 146t233 59q172 0 264.5 -111.5t65.5 -292.5l-97 -602h-116l94 596q24 147 -43.5 225t-196.5 78q-115 0 -222 -67t-179 -160l-105 -672h-116l155 983h105z" />
    <glyph glyph-name="o" unicode="o" horiz-adv-x="1214" 
d="M1106 481q-18 -120 -76.5 -217.5t-141 -159t-179.5 -94.5t-197 -33q-97 0 -183.5 35.5t-150 100t-92.5 166t-10 223.5q18 120 77 217.5t141.5 159t179 94.5t196.5 33q98 0 184.5 -35.5t150 -100.5t92 -166t9.5 -223zM188 487q-28 -182 69.5 -290.5t262.5 -108.5
q174 0 308.5 109.5t164.5 298.5q28 183 -69 291t-262 108q-173 0 -308.5 -110t-165.5 -298z" />
    <glyph glyph-name="p" unicode="p" horiz-adv-x="1267" 
d="M295 774q80 106 196.5 169t253.5 63t239.5 -67t150 -187.5t24.5 -270.5q-35 -224 -194.5 -364t-370.5 -140q-141 0 -237 65t-140 169l-104 -662h-117l227 1434h105zM1044 489q30 182 -63 296t-254 114q-140 0 -259.5 -79.5t-184.5 -198.5l-43 -267q28 -116 120.5 -193
t227.5 -77q170 0 298 108.5t158 296.5z" />
    <glyph glyph-name="q" unicode="q" horiz-adv-x="1265" 
d="M76 502q35 223 195.5 363.5t367.5 140.5q136 0 237.5 -66t149.5 -170l35 213h104l-227 -1434h-115l103 646q-73 -96 -186.5 -157t-250.5 -61q-140 0 -243 67t-148.5 187.5t-21.5 270.5zM995 631q-26 114 -120.5 191t-227.5 77q-167 0 -298 -109.5t-161 -295.5
q-29 -183 63.5 -296.5t254.5 -113.5q141 0 260.5 79t183.5 195z" />
    <glyph glyph-name="r" unicode="r" horiz-adv-x="729" 
d="M293 760q73 117 192 185t279 59l-19 -119q-151 16 -277.5 -67.5t-188.5 -219.5l-95 -598h-116l155 983h105z" />
    <glyph glyph-name="s" unicode="s" horiz-adv-x="946" 
d="M117 748q10 67 49 118.5t97.5 81t124 44t136.5 14.5q195 0 330 -86l-16 -107q-59 39 -144 63.5t-174 24.5q-70 0 -130.5 -16t-105.5 -54t-53 -94q-7 -51 24.5 -88t86.5 -59.5t122.5 -42t134.5 -43t120 -55t80.5 -86t15.5 -127.5q-15 -91 -80.5 -151t-152 -84t-191.5 -24
q-106 0 -203.5 28t-160.5 73l18 115q66 -51 160 -80t190 -29q122 0 207 39.5t98 124.5q7 45 -16 79t-66 54t-99 40t-115 35.5t-114.5 41t-97.5 55.5t-63 80.5t-12 114.5z" />
    <glyph glyph-name="t" unicode="t" horiz-adv-x="796" 
d="M322 1292l120 35l-55 -344h414l-17 -109h-413l-92 -575q-18 -115 29 -165t157 -50q117 0 227 55l-18 -112q-103 -50 -244 -50q-140 0 -216 81t-52 231l94 585h-184l16 109h184z" />
    <glyph glyph-name="u" unicode="u" horiz-adv-x="1193" 
d="M977 983h117l-156 -983h-104l30 182q-69 -84 -179 -144.5t-230 -60.5q-177 0 -273 112t-67 296l94 598h117l-95 -596q-24 -147 42.5 -225t197.5 -78q122 0 226 66t173 163z" />
    <glyph glyph-name="v" unicode="v" horiz-adv-x="1085" 
d="M985 983h127l-602 -983h-123l-289 983h121l246 -852z" />
    <glyph glyph-name="w" unicode="w" horiz-adv-x="1628" 
d="M1520 983h125l-508 -983h-121l-162 817l-428 -817h-125l-197 983h117l166 -836l434 830h105l166 -827z" />
    <glyph glyph-name="x" unicode="x" horiz-adv-x="995" 
d="M72 0h-138l484 506l-303 477h131l248 -397l378 397h138l-461 -481l323 -502h-131l-266 422z" />
    <glyph glyph-name="y" unicode="y" horiz-adv-x="1095" 
d="M487 119l506 864h127l-680 -1147q-99 -166 -194.5 -237.5t-200.5 -71.5q-60 0 -106 14l14 99q40 -11 82 -11q87 0 160.5 61.5t150.5 192.5l70 117l-328 983h117z" />
    <glyph glyph-name="z" unicode="z" horiz-adv-x="935" 
d="M158 983h745l-18 -102l-750 -779h653l-16 -102h-797l17 102l751 779h-602z" />
    <glyph glyph-name="braceleft" unicode="{" horiz-adv-x="587" 
d="M391 -123l-16 -104q-139 -26 -200 35t-40 186l80 498q14 95 -25.5 133.5t-119.5 38.5l16 106q77 0 132 44.5t69 139.5l80 498q43 261 307 205l-17 -101q-83 13 -123 -25.5t-55 -139.5l-73 -469q-28 -170 -164 -207q55 -12 83.5 -64.5t12.5 -148.5l-74 -469
q-14 -93 12.5 -131t114.5 -25z" />
    <glyph glyph-name="bar" unicode="|" horiz-adv-x="421" 
d="M145 -205h-120l294 1864h121z" />
    <glyph glyph-name="braceright" unicode="}" horiz-adv-x="583" 
d="M258 -16q-44 -266 -307 -207l16 106q81 -18 121.5 17.5t54.5 126.5l78 497q15 89 61.5 139.5t114.5 59.5q-61 14 -92.5 68.5t-17.5 144.5l75 471q14 95 -12.5 131.5t-116.5 22.5l17 100q137 27 197.5 -34t39.5 -187l-77 -496q-14 -93 28 -135.5t113 -42.5l-14 -102
q-76 0 -131.5 -45t-69.5 -140z" />
    <glyph glyph-name="asciitilde" unicode="~" horiz-adv-x="1191" 
d="M1075 772q-6 -100 -67.5 -157.5t-155.5 -57.5q-64 0 -153.5 31.5t-176.5 63.5t-145 32q-53 0 -86.5 -28.5t-36.5 -77.5h-109q7 101 70 158t154 57q53 0 121 -19.5t122.5 -43t119.5 -43t114 -19.5q52 0 85 27t36 77h108z" />
    <glyph glyph-name="exclamdown" unicode="&#xa1;" horiz-adv-x="415" 
d="M102 -444h-120l174 1046h102zM338 920q-6 -34 -29.5 -52t-54.5 -18q-37 0 -58 23t-14 63q4 33 28.5 51.5t55.5 18.5q37 0 58 -23t14 -63z" />
    <glyph glyph-name="cent" unicode="&#xa2;" horiz-adv-x="1046" 
d="M985 920l-18 -109q-101 85 -252 88l-127 -815q148 9 286 86l-18 -121q-132 -63 -287 -72l-34 -223h-103l37 228q-92 10 -168.5 47t-132 100t-78 159.5t-4.5 215.5q15 96 54 176.5t92 136t120 96.5t136.5 62.5t142.5 28.5l35 225h102l-35 -225q139 -6 252 -84zM612 893
q-73 -11 -137.5 -40t-121.5 -76.5t-97 -120.5t-55 -164q-29 -177 52 -279.5t232 -124.5z" />
    <glyph glyph-name="sterling" unicode="&#xa3;" horiz-adv-x="1234" 
d="M1059 0h-1071l18 117h70q70 0 119 50.5t63 135.5l51 330h-170l19 112h170l32 203q19 126 71.5 219.5t127 146t157 77t173.5 24.5q166 0 291 -80l-19 -112q-118 80 -278 80q-70 0 -132 -19t-118.5 -60t-97 -114t-56.5 -172l-30 -193h485l-19 -112h-483l-55 -338
q-11 -73 -37.5 -117t-75.5 -65l815 4z" />
    <glyph glyph-name="currency" unicode="&#xa4;" horiz-adv-x="1177" 
d="M328 399l-156 -133l-70 82l150 129q-67 99 -47 248q24 141 121 238l-105 122l92 82l111 -131q109 68 240 68t227 -70l153 133l70 -82l-149 -129q67 -104 45 -247q-21 -137 -119 -238l106 -123l-94 -82l-110 131q-107 -67 -240 -67q-130 0 -225 69zM322 709
q-20 -124 47 -197.5t190 -73.5q127 0 222 78.5t116 208.5q20 123 -47.5 196.5t-190.5 73.5q-128 0 -222 -78t-115 -208z" />
    <glyph glyph-name="yen" unicode="&#xa5;" horiz-adv-x="1341" 
d="M1255 1393h136l-600 -744h307l-17 -102h-362l-25 -152h365l-17 -102h-364l-47 -293h-121l47 293h-362l16 102h362l25 152h-362l16 102h307l-364 744h131l348 -727z" />
    <glyph glyph-name="brokenbar" unicode="&#xa6;" horiz-adv-x="456" 
d="M344 940h-121l113 719h121zM162 -205h-121l115 719h120z" />
    <glyph glyph-name="section" unicode="&#xa7;" horiz-adv-x="1009" 
d="M815 184q-14 -86 -77.5 -145t-150 -84t-190.5 -25q-94 0 -187.5 26.5t-156.5 68.5l17 108q66 -46 154.5 -73t170.5 -27q125 0 208.5 40.5t96.5 123.5q4 30 -1.5 54.5t-25.5 44t-39 33t-57 28t-63.5 22.5t-73.5 22q-62 18 -99 30.5t-86.5 38t-74 53.5t-39 73.5t-4.5 101.5
q22 153 225 267q-149 76 -126 231q14 87 77 147.5t145.5 86.5t176.5 26q170 0 313 -84l-16 -106q-124 88 -295 88q-70 0 -130.5 -18.5t-103.5 -58t-51 -93.5q-15 -91 91 -143q49 -24 186 -62q58 -16 97 -30t84.5 -38.5t70.5 -53.5t38 -73.5t3 -99.5q-23 -149 -234 -264
q150 -77 127 -236zM481 498q20 -7 56.5 -16t50.5 -13q84 30 148 87t75 126q6 44 -7 76.5t-51.5 56t-69 36t-91.5 32.5q-108 30 -123 35q-80 -28 -143.5 -88.5t-73.5 -129.5q-6 -35 3.5 -62.5t27.5 -46.5t49 -35.5t61 -27.5t72 -25q11 -3 16 -5z" />
    <glyph glyph-name="dieresis" unicode="&#xa8;" horiz-adv-x="595" 
d="M817 1706q-4 -32 -31 -55t-59 -23q-38 0 -61 27.5t-17 64.5q6 31 33 54.5t59 23.5q36 0 59 -28t17 -64zM406 1706q-4 -32 -31.5 -55t-59.5 -23q-38 0 -60.5 27.5t-16.5 64.5q6 31 33 54.5t59 23.5q36 0 59 -28t17 -64z" />
    <glyph glyph-name="copyright" unicode="&#xa9;" horiz-adv-x="1742" 
d="M1657 707q-22 -142 -85 -263t-151.5 -205.5t-196 -144.5t-220.5 -88.5t-224 -28.5q-109 0 -212.5 29.5t-194 92t-154 149.5t-90.5 211t-4 268q23 142 86 263t151 205.5t195.5 144t220 88t223.5 28.5q109 0 213 -29.5t195 -92t154 -149t90 -210.5t4 -268zM1143 373
q-136 -68 -283 -68q-75 0 -143.5 25.5t-121.5 73.5t-77 128t-8 179q17 107 68 190.5t121.5 131t147 71.5t154.5 24q148 0 244 -71l-8 -86q-95 67 -223 67q-67 0 -130 -18.5t-121 -56.5t-99.5 -105.5t-55.5 -157.5q-13 -80 5 -140.5t59 -95.5t94.5 -52t116.5 -17
q135 0 268 70zM172 727q-21 -133 2.5 -248t81 -197t140.5 -141t180 -87.5t200 -28.5q106 0 212.5 26t209 81.5t186.5 134t144.5 192.5t81.5 248q21 133 -2.5 248t-80.5 197t-139.5 141t-179.5 87.5t-200 28.5q-106 0 -213 -26t-210 -81.5t-187 -134t-144.5 -192.5
t-81.5 -248z" />
    <glyph glyph-name="guillemotleft" unicode="&#xab;" horiz-adv-x="946" 
d="M748 129h-123l-193 350l4 29l301 346h127l-315 -362zM395 129h-123l-192 350l4 29l301 346h127l-315 -362z" />
    <glyph glyph-name="logicalnot" unicode="&#xac;" horiz-adv-x="1177" 
d="M1020 582h-117l47 290h-780l16 111h897z" />
    <glyph glyph-name="registered" unicode="&#xae;" horiz-adv-x="1742" 
d="M1657 707q-22 -142 -85 -263t-151.5 -205.5t-196 -144.5t-220.5 -88.5t-224 -28.5q-109 0 -212.5 29.5t-194 92t-154 149.5t-90.5 211t-4 268q23 142 86 263t151 205.5t195.5 144t220 88t223.5 28.5q109 0 213 -29.5t195 -92t154 -149t90 -210.5t4 -268zM172 727
q-21 -133 2.5 -248t81 -197t140.5 -141t180 -87.5t200 -28.5q106 0 212.5 26t209 81.5t186.5 134t144.5 192.5t81.5 248q21 133 -2.5 248t-80.5 197t-139.5 141t-179.5 87.5t-200 28.5q-106 0 -213 -26t-210 -81.5t-187 -134t-144.5 -192.5t-81.5 -248zM637 311h-88l127 807
h328q39 0 76.5 -6.5t77 -24.5t66.5 -45.5t40 -74.5t4 -107q-28 -174 -215 -223l176 -326h-99l-167 314q-16 -2 -45 -2h-232zM750 1032l-52 -323h232q32 0 56.5 2t60 11.5t60 26t46 48.5t29.5 77q7 43 -4 74t-30 46.5t-51 24.5t-55.5 11t-54.5 2h-237z" />
    <glyph glyph-name="macron" unicode="&#xaf;" horiz-adv-x="681" 
d="M287 1735h573l-16 -107h-574z" />
    <glyph glyph-name="degree" unicode="&#xb0;" horiz-adv-x="802" 
d="M795 1155q-21 -135 -121 -214t-225 -79q-126 0 -208.5 85.5t-60.5 226.5q22 132 124.5 211t225.5 79q125 0 207 -86.5t58 -222.5zM268 1165q-15 -96 37.5 -156.5t143.5 -60.5q98 0 171.5 57.5t90.5 157.5q13 95 -38.5 154t-142.5 59q-97 0 -171 -56.5t-91 -154.5z" />
    <glyph glyph-name="plusminus" unicode="&#xb1;" horiz-adv-x="1181" 
d="M750 1210l-62 -391h393l-18 -110h-391l-64 -394h-110l63 394h-393l16 110h394l61 391h111zM950 0h-895l19 111h895z" />
    <glyph glyph-name="acute" unicode="&#xb4;" horiz-adv-x="362" 
d="M391 1583h-129l230 291h147z" />
    <glyph glyph-name="paragraph" unicode="&#xb6;" horiz-adv-x="1267" 
d="M475 -451h-121l166 1039q-210 0 -312.5 114t-70.5 316q31 196 166.5 306t345.5 110h580l-299 -1885h-121l278 1768h-331z" />
    <glyph glyph-name="periodcentered" unicode="&#xb7;" horiz-adv-x="438" 
d="M283 481q-6 -34 -30 -52.5t-56 -18.5q-37 0 -59.5 24t-16.5 64q6 34 31 52.5t57 18.5q37 0 58.5 -24t15.5 -64z" />
    <glyph glyph-name="cedilla" unicode="&#xb8;" horiz-adv-x="436" 
d="M113 0h100l-61 -150q95 11 156.5 -30t51.5 -123q-12 -82 -82 -126t-184 -44q-115 0 -213 43l17 94q81 -43 186 -43q81 0 126.5 23.5t51.5 62.5q7 55 -67.5 72.5t-167.5 -6.5z" />
    <glyph glyph-name="guillemotright" unicode="&#xbb;" horiz-adv-x="946" 
d="M526 129h-127l316 363l-197 362h121l195 -350l-7 -29zM176 129h-127l316 363l-197 362h121l194 -350l-6 -29z" />
    <glyph glyph-name="onequarter" unicode="&#xbc;" horiz-adv-x="1925" 
d="M1622 836h111l-88 -555h157l-14 -95h-158l-31 -186h-98l29 186h-467l14 93zM1544 281l66 413l-406 -413h340zM387 -25h-59l1171 1481h60zM453 1393h75l-116 -740h149l-16 -96h-441l15 96h190l101 633l-189 -69l17 98z" />
    <glyph glyph-name="onehalf" unicode="&#xbd;" horiz-adv-x="1828" 
d="M377 -25h-60l1172 1481h59zM1217 774q131 76 274 76q119 0 195 -63.5t57 -168.5q-16 -90 -87 -156.5t-192 -129.5q-44 -23 -55 -28.5t-48 -26.5t-49 -30.5t-38 -30t-36.5 -36.5t-22 -38t-15.5 -46h469l-16 -96h-588l8 53q6 42 20.5 80t31 66t45 56t50 46t59.5 40.5t60 34
t64 32.5q111 57 169.5 107t69.5 116q10 60 -34.5 92.5t-120.5 32.5q-141 0 -287 -90zM442 1393h76l-117 -740h150l-16 -96h-441l15 96h190l100 633l-188 -69l16 98z" />
    <glyph glyph-name="threequarters" unicode="&#xbe;" horiz-adv-x="2031" 
d="M526 -25h-59l1171 1481h60zM1726 836h111l-88 -555h158l-15 -95h-157l-31 -186h-98l28 186h-467l15 93zM1649 281l65 413l-405 -413h340zM764 1182q-9 -64 -53 -113.5t-113 -69.5q67 -15 109 -69.5t28 -145.5q-18 -114 -113 -173.5t-231 -59.5q-161 0 -278 57l16 99
q111 -60 258 -60q106 0 173.5 38.5t78.5 119.5q13 78 -35.5 110.5t-142.5 32.5h-131l14 96h117q89 0 142.5 40t64.5 104q9 60 -39 95.5t-133 35.5q-133 0 -267 -64l17 105q123 55 266 55q120 0 193.5 -67t58.5 -166z" />
    <glyph glyph-name="questiondown" unicode="&#xbf;" horiz-adv-x="989" 
d="M772 -360q-199 -111 -407 -111q-197 0 -314 92.5t-92 253.5q10 59 41 118t73.5 108.5t92.5 98.5t99.5 95.5t91 91.5t71.5 94.5t37 96.5h115q-10 -64 -49 -130t-90 -118.5t-110.5 -111.5t-110.5 -110.5t-89.5 -114t-48.5 -122.5q-18 -114 63.5 -169.5t243.5 -55.5
q208 0 404 118zM657 920q-6 -34 -31 -53t-57 -19q-36 0 -57 23.5t-14 62.5q4 35 28.5 53.5t57.5 18.5q37 0 58.5 -23t14.5 -63z" />
    <glyph glyph-name="Agrave" unicode="&#xc0;" horiz-adv-x="1462" 
d="M1343 0h-126l-109 385h-811l-229 -385h-138l865 1434h139zM823 1262l-458 -762h714l-217 764q-8 31 -10 49q-7 -16 -29 -51zM987 1583h-125l-155 291h141z" />
    <glyph glyph-name="Aacute" unicode="&#xc1;" horiz-adv-x="1462" 
d="M1343 0h-126l-109 385h-811l-229 -385h-138l865 1434h139zM823 1262l-458 -762h714l-217 764q-8 31 -10 49q-7 -16 -29 -51zM924 1583h-129l229 291h147z" />
    <glyph glyph-name="Acircumflex" unicode="&#xc2;" horiz-adv-x="1462" 
d="M1343 0h-126l-109 385h-811l-229 -385h-138l865 1434h139zM823 1262l-458 -762h714l-217 764q-8 31 -10 49q-7 -16 -29 -51zM874 1866h105l221 -281h-127l-155 193l-216 -193h-137z" />
    <glyph glyph-name="Atilde" unicode="&#xc3;" horiz-adv-x="1462" 
d="M1343 0h-126l-109 385h-811l-229 -385h-138l865 1434h139zM823 1262l-458 -762h714l-217 764q-8 31 -10 49q-7 -16 -29 -51zM1227 1774q-1 -91 -49.5 -140t-120.5 -49q-51 0 -110.5 24.5t-111.5 49t-87 24.5q-39 0 -61.5 -24t-22.5 -64h-101q1 89 50 140t118 51
q51 0 111 -24.5t112.5 -49t87.5 -24.5q84 0 84 86h101z" />
    <glyph glyph-name="Adieresis" unicode="&#xc4;" horiz-adv-x="1462" 
d="M1343 0h-126l-109 385h-811l-229 -385h-138l865 1434h139zM823 1262l-458 -762h714l-217 764q-8 31 -10 49q-7 -16 -29 -51zM1190 1706q-4 -32 -31 -55t-59 -23q-38 0 -61 27.5t-17 64.5q6 31 33 54.5t59 23.5q36 0 59 -28t17 -64zM778 1706q-4 -32 -31 -55t-59 -23
q-38 0 -61 27.5t-17 64.5q6 31 33 54.5t59 23.5q36 0 59 -28t17 -64z" />
    <glyph glyph-name="Aring" unicode="&#xc5;" horiz-adv-x="1462" 
d="M1343 0h-126l-109 385h-811l-229 -385h-138l865 1434h139zM823 1262l-458 -762h714l-217 764q-8 31 -10 49q-7 -16 -29 -51zM1124 1731q-13 -87 -81.5 -141t-151.5 -54q-87 0 -142.5 58.5t-41.5 150.5q14 86 83 139t152 53q87 0 141.5 -57.5t40.5 -148.5zM795 1737
q-9 -52 20.5 -85.5t75.5 -33.5q54 0 96 31.5t51 87.5q7 52 -21.5 85t-74.5 33q-54 0 -96 -31.5t-51 -86.5z" />
    <glyph glyph-name="AE" unicode="&#xc6;" horiz-adv-x="2048" 
d="M2062 1434l-18 -117h-768l-84 -537h706l-18 -116h-706l-89 -547h783l-19 -117h-903l62 389h-643l-332 -389h-148l1233 1434h944zM459 500h565l129 809z" />
    <glyph glyph-name="Ccedilla" unicode="&#xc7;" horiz-adv-x="1325" 
d="M1337 1241q-136 100 -348 100q-96 0 -192 -23.5t-187.5 -73.5t-166 -120.5t-128 -172.5t-73.5 -222q-20 -127 1 -234t73 -180t128 -124.5t162 -75t178 -23.5q222 0 398 107l-21 -131q-164 -84 -379 -91l-51 -127q95 11 157 -30t52 -123q-12 -82 -82 -126t-184 -44
q-115 0 -213 43l16 94q81 -43 187 -43q81 0 126.5 23.5t51.5 62.5q7 55 -68 72.5t-168 -6.5l80 209q-100 9 -192 45t-170.5 99t-130.5 152.5t-73 206.5t3 260q22 136 83.5 253.5t147.5 200t190.5 141.5t214.5 87.5t218 28.5q222 0 379 -98z" />
    <glyph glyph-name="Egrave" unicode="&#xc8;" horiz-adv-x="1271" 
d="M334 1434h952l-18 -117h-832l-84 -537h768l-16 -116h-770l-86 -547h842l-19 -117h-965zM934 1583h-125l-156 291h142z" />
    <glyph glyph-name="Eacute" unicode="&#xc9;" horiz-adv-x="1271" 
d="M334 1434h952l-18 -117h-832l-84 -537h768l-16 -116h-770l-86 -547h842l-19 -117h-965zM870 1583h-129l230 291h147z" />
    <glyph glyph-name="Ecircumflex" unicode="&#xca;" horiz-adv-x="1271" 
d="M334 1434h952l-18 -117h-832l-84 -537h768l-16 -116h-770l-86 -547h842l-19 -117h-965zM821 1866h105l221 -281h-127l-156 193l-215 -193h-137z" />
    <glyph glyph-name="Edieresis" unicode="&#xcb;" horiz-adv-x="1271" 
d="M334 1434h952l-18 -117h-832l-84 -537h768l-16 -116h-770l-86 -547h842l-19 -117h-965zM1137 1706q-4 -32 -31 -55t-59 -23q-38 0 -61 27.5t-17 64.5q6 31 33 54.5t59 23.5q36 0 59 -28t17 -64zM725 1706q-4 -32 -31 -55t-59 -23q-38 0 -61 27.5t-17 64.5q6 31 33 54.5
t59 23.5q36 0 59 -28t17 -64z" />
    <glyph glyph-name="Igrave" unicode="&#xcc;" horiz-adv-x="522" 
d="M334 1434h121l-228 -1434h-121zM516 1583h-125l-155 291h141z" />
    <glyph glyph-name="Iacute" unicode="&#xcd;" horiz-adv-x="522" 
d="M334 1434h121l-228 -1434h-121zM453 1583h-129l229 291h147z" />
    <glyph glyph-name="Icircumflex" unicode="&#xce;" horiz-adv-x="522" 
d="M334 1434h121l-228 -1434h-121zM403 1866h105l221 -281h-127l-156 193l-215 -193h-137z" />
    <glyph glyph-name="Idieresis" unicode="&#xcf;" horiz-adv-x="522" 
d="M334 1434h121l-228 -1434h-121zM719 1706q-4 -32 -31 -55t-59 -23q-38 0 -61 27.5t-17 64.5q6 31 33 54.5t59 23.5q36 0 59 -28t17 -64zM307 1706q-4 -32 -31 -55t-59 -23q-38 0 -61 27.5t-17 64.5q6 31 33 54.5t59 23.5q36 0 59 -28t17 -64z" />
    <glyph glyph-name="Eth" unicode="&#xd0;" horiz-adv-x="1509" 
d="M338 1434h438q183 0 320.5 -54.5t217 -151.5t109 -229t4.5 -290q-25 -156 -91 -284t-172 -224t-261 -148.5t-346 -52.5h-446l104 659h-152l17 111h151zM569 117q314 0 503 163t233 445q45 276 -91 434t-450 158h-326l-86 -547h475l-18 -111h-473l-86 -542h319z" />
    <glyph glyph-name="Ntilde" unicode="&#xd1;" horiz-adv-x="1572" 
d="M227 0h-121l228 1434h102l754 -1237q3 22 8.5 62.5t7.5 62.5l178 1112h121l-227 -1434h-102l-754 1239q-3 -23 -8.5 -63.5t-7.5 -61.5zM1284 1774q-1 -91 -49.5 -140t-120.5 -49q-51 0 -110.5 24.5t-111.5 49t-87 24.5q-39 0 -61.5 -24t-22.5 -64h-100q1 90 50 140.5
t117 50.5q51 0 111 -24.5t113 -49t88 -24.5q84 0 84 86h100z" />
    <glyph glyph-name="Ograve" unicode="&#xd2;" horiz-adv-x="1683" 
d="M1606 709q-22 -140 -88 -268t-170.5 -233t-259.5 -168t-338 -63q-87 0 -165.5 17t-141 48t-116.5 74.5t-92 96t-67.5 113.5t-42.5 126.5t-16.5 134.5t8.5 138q18 110 64 215t122.5 198.5t173.5 164t225.5 112t270.5 41.5q87 0 166 -17t142 -48t117 -74t92 -96t67 -113.5
t42 -126t16.5 -134.5t-9.5 -138zM240 717q-8 -64 -8 -127.5t17.5 -125.5t44 -117t71.5 -102t100.5 -81t130.5 -53t162 -19q122 0 231.5 35t192 95t147 140t103 170t53.5 185q8 64 8 127.5t-17.5 125t-44 117t-71.5 102t-100.5 80.5t-130.5 53t-162 19q-152 0 -283 -53
t-220.5 -142t-147 -199t-76.5 -230zM1098 1583h-125l-156 291h141z" />
    <glyph glyph-name="Oacute" unicode="&#xd3;" horiz-adv-x="1683" 
d="M1606 709q-22 -140 -88 -268t-170.5 -233t-259.5 -168t-338 -63q-87 0 -165.5 17t-141 48t-116.5 74.5t-92 96t-67.5 113.5t-42.5 126.5t-16.5 134.5t8.5 138q18 110 64 215t122.5 198.5t173.5 164t225.5 112t270.5 41.5q87 0 166 -17t142 -48t117 -74t92 -96t67 -113.5
t42 -126t16.5 -134.5t-9.5 -138zM240 717q-8 -64 -8 -127.5t17.5 -125.5t44 -117t71.5 -102t100.5 -81t130.5 -53t162 -19q122 0 231.5 35t192 95t147 140t103 170t53.5 185q8 64 8 127.5t-17.5 125t-44 117t-71.5 102t-100.5 80.5t-130.5 53t-162 19q-152 0 -283 -53
t-220.5 -142t-147 -199t-76.5 -230zM1034 1583h-129l230 291h147z" />
    <glyph glyph-name="Ocircumflex" unicode="&#xd4;" horiz-adv-x="1683" 
d="M1606 709q-22 -140 -88 -268t-170.5 -233t-259.5 -168t-338 -63q-87 0 -165.5 17t-141 48t-116.5 74.5t-92 96t-67.5 113.5t-42.5 126.5t-16.5 134.5t8.5 138q18 110 64 215t122.5 198.5t173.5 164t225.5 112t270.5 41.5q87 0 166 -17t142 -48t117 -74t92 -96t67 -113.5
t42 -126t16.5 -134.5t-9.5 -138zM240 717q-8 -64 -8 -127.5t17.5 -125.5t44 -117t71.5 -102t100.5 -81t130.5 -53t162 -19q122 0 231.5 35t192 95t147 140t103 170t53.5 185q8 64 8 127.5t-17.5 125t-44 117t-71.5 102t-100.5 80.5t-130.5 53t-162 19q-152 0 -283 -53
t-220.5 -142t-147 -199t-76.5 -230zM985 1866h105l221 -281h-127l-156 193l-215 -193h-137z" />
    <glyph glyph-name="Otilde" unicode="&#xd5;" horiz-adv-x="1683" 
d="M1606 709q-22 -140 -88 -268t-170.5 -233t-259.5 -168t-338 -63q-87 0 -165.5 17t-141 48t-116.5 74.5t-92 96t-67.5 113.5t-42.5 126.5t-16.5 134.5t8.5 138q18 110 64 215t122.5 198.5t173.5 164t225.5 112t270.5 41.5q87 0 166 -17t142 -48t117 -74t92 -96t67 -113.5
t42 -126t16.5 -134.5t-9.5 -138zM240 717q-8 -64 -8 -127.5t17.5 -125.5t44 -117t71.5 -102t100.5 -81t130.5 -53t162 -19q122 0 231.5 35t192 95t147 140t103 170t53.5 185q8 64 8 127.5t-17.5 125t-44 117t-71.5 102t-100.5 80.5t-130.5 53t-162 19q-152 0 -283 -53
t-220.5 -142t-147 -199t-76.5 -230zM1337 1774q-1 -91 -49.5 -140t-120.5 -49q-51 0 -110.5 24.5t-111.5 49t-87 24.5q-39 0 -61.5 -24t-22.5 -64h-100q1 89 50 140t118 51q51 0 111 -24.5t112.5 -49t87.5 -24.5q84 0 84 86h100z" />
    <glyph glyph-name="Odieresis" unicode="&#xd6;" horiz-adv-x="1683" 
d="M1606 709q-22 -140 -88 -268t-170.5 -233t-259.5 -168t-338 -63q-87 0 -165.5 17t-141 48t-116.5 74.5t-92 96t-67.5 113.5t-42.5 126.5t-16.5 134.5t8.5 138q18 110 64 215t122.5 198.5t173.5 164t225.5 112t270.5 41.5q87 0 166 -17t142 -48t117 -74t92 -96t67 -113.5
t42 -126t16.5 -134.5t-9.5 -138zM240 717q-8 -64 -8 -127.5t17.5 -125.5t44 -117t71.5 -102t100.5 -81t130.5 -53t162 -19q122 0 231.5 35t192 95t147 140t103 170t53.5 185q8 64 8 127.5t-17.5 125t-44 117t-71.5 102t-100.5 80.5t-130.5 53t-162 19q-152 0 -283 -53
t-220.5 -142t-147 -199t-76.5 -230zM1300 1706q-4 -32 -31 -55t-59 -23q-38 0 -60.5 27.5t-16.5 64.5q6 31 33 54.5t59 23.5q36 0 58.5 -28t16.5 -64zM889 1706q-4 -32 -31 -55t-59 -23q-38 0 -61 27.5t-17 64.5q6 31 33 54.5t59 23.5q36 0 59 -28t17 -64z" />
    <glyph glyph-name="multiply" unicode="&#xd7;" horiz-adv-x="937" 
d="M477 645l-311 -268l-64 76l310 266l-226 266l84 76l226 -266l309 266l65 -76l-311 -266l225 -268l-84 -74z" />
    <glyph glyph-name="Oslash" unicode="&#xd8;" horiz-adv-x="1683" 
d="M201 -98h-121l215 243q-112 107 -157.5 260.5t-20.5 319.5q18 110 64 215t122.5 198.5t173.5 164t225.5 112t270.5 41.5q230 0 387 -110l164 186h121l-218 -244q114 -107 160 -260t19 -319q-22 -140 -88 -268t-170.5 -233t-259.5 -168t-338 -63q-226 0 -385 111zM238 717
q-21 -135 13.5 -263.5t123.5 -217.5l903 1019q-130 86 -311 86q-152 0 -283 -53t-221.5 -142t-148 -199t-76.5 -230zM444 178q130 -86 314 -86q122 0 231.5 35t192 95t147 140t103 170t53.5 185q21 136 -13 264t-124 217z" />
    <glyph glyph-name="Ugrave" unicode="&#xd9;" horiz-adv-x="1542" 
d="M1370 1434h121l-145 -926q-23 -145 -84 -250.5t-151 -165.5t-194.5 -87.5t-228.5 -27.5q-100 0 -183.5 18t-155.5 57t-115.5 102t-63 153t1.5 209l145 918h121l-145 -922q-18 -114 3 -197t76.5 -131t133 -70t180.5 -22q471 0 541 428zM1014 1583h-125l-156 291h141z" />
    <glyph glyph-name="Uacute" unicode="&#xda;" horiz-adv-x="1542" 
d="M1370 1434h121l-145 -926q-23 -145 -84 -250.5t-151 -165.5t-194.5 -87.5t-228.5 -27.5q-100 0 -183.5 18t-155.5 57t-115.5 102t-63 153t1.5 209l145 918h121l-145 -922q-18 -114 3 -197t76.5 -131t133 -70t180.5 -22q471 0 541 428zM950 1583h-129l230 291h147z" />
    <glyph glyph-name="Ucircumflex" unicode="&#xdb;" horiz-adv-x="1542" 
d="M1370 1434h121l-145 -926q-23 -145 -84 -250.5t-151 -165.5t-194.5 -87.5t-228.5 -27.5q-100 0 -183.5 18t-155.5 57t-115.5 102t-63 153t1.5 209l145 918h121l-145 -922q-18 -114 3 -197t76.5 -131t133 -70t180.5 -22q471 0 541 428zM901 1866h105l221 -281h-127
l-156 193l-215 -193h-137z" />
    <glyph glyph-name="Udieresis" unicode="&#xdc;" horiz-adv-x="1542" 
d="M1370 1434h121l-145 -926q-23 -145 -84 -250.5t-151 -165.5t-194.5 -87.5t-228.5 -27.5q-100 0 -183.5 18t-155.5 57t-115.5 102t-63 153t1.5 209l145 918h121l-145 -922q-18 -114 3 -197t76.5 -131t133 -70t180.5 -22q471 0 541 428zM1217 1706q-4 -32 -31.5 -55
t-59.5 -23q-38 0 -60.5 27.5t-16.5 64.5q6 31 33 54.5t59 23.5q36 0 59 -28t17 -64zM805 1706q-4 -32 -31 -55t-59 -23q-38 0 -61 27.5t-17 64.5q6 31 33 54.5t59 23.5q36 0 59 -28t17 -64z" />
    <glyph glyph-name="Yacute" unicode="&#xdd;" horiz-adv-x="1316" 
d="M625 0h-123l90 559l-424 875h127l371 -758l612 758h139l-702 -875zM838 1583h-129l229 291h147z" />
    <glyph glyph-name="Thorn" unicode="&#xde;" horiz-adv-x="1341" 
d="M414 1171h350q97 0 179.5 -13.5t156 -46.5t121 -84.5t68.5 -132.5t5 -185q-73 -447 -671 -447h-353l-43 -262h-121l228 1434h121zM287 377h352q105 0 189.5 16.5t158.5 54.5t121 108t63 169q12 78 -4 137.5t-52.5 95.5t-94.5 59t-120.5 31.5t-139.5 8.5h-365z" />
    <glyph glyph-name="germandbls" unicode="&#xdf;" horiz-adv-x="1216" 
d="M1094 297q-13 -81 -58 -144.5t-109.5 -100.5t-138 -56t-151.5 -19q-148 0 -258 58l16 100q99 -55 223 -55q88 0 162 22.5t130 77.5t69 137q9 57 -14.5 113t-63 100.5t-79 86.5t-65 87t-18.5 87q5 37 26.5 72.5t49 65.5t55 61.5t50.5 74.5t30 90q13 82 -50.5 140.5
t-182.5 58.5q-146 0 -246 -84t-123 -232l-164 -1038h-116l161 1028q33 203 163.5 315.5t324.5 112.5q93 1 166 -26.5t115 -71.5t60 -97.5t9 -107.5q-10 -60 -43.5 -115t-68 -89t-65.5 -76t-36 -80q-5 -27 8 -55.5t36.5 -56t53 -57.5t58 -65t51 -73t32 -87t1.5 -102z" />
    <glyph glyph-name="agrave" unicode="&#xe0;" horiz-adv-x="1265" 
d="M938 203q-80 -102 -195.5 -164t-253.5 -62q-140 0 -243 67t-148.5 187.5t-21.5 270.5q35 223 195.5 363.5t367.5 140.5q139 0 238 -64.5t151 -165.5l33 207h104l-155 -983h-105zM188 494q-29 -183 63.5 -296.5t254.5 -113.5q141 0 260.5 79t183.5 195l43 271
q-24 114 -118.5 192t-227.5 78q-167 0 -298 -109.5t-161 -295.5zM799 1133h-125l-156 290h141z" />
    <glyph glyph-name="aacute" unicode="&#xe1;" horiz-adv-x="1265" 
d="M938 203q-80 -102 -195.5 -164t-253.5 -62q-140 0 -243 67t-148.5 187.5t-21.5 270.5q35 223 195.5 363.5t367.5 140.5q139 0 238 -64.5t151 -165.5l33 207h104l-155 -983h-105zM188 494q-29 -183 63.5 -296.5t254.5 -113.5q141 0 260.5 79t183.5 195l43 271
q-24 114 -118.5 192t-227.5 78q-167 0 -298 -109.5t-161 -295.5zM735 1133h-129l230 290h147z" />
    <glyph glyph-name="acircumflex" unicode="&#xe2;" horiz-adv-x="1265" 
d="M938 203q-80 -102 -195.5 -164t-253.5 -62q-140 0 -243 67t-148.5 187.5t-21.5 270.5q35 223 195.5 363.5t367.5 140.5q139 0 238 -64.5t151 -165.5l33 207h104l-155 -983h-105zM188 494q-29 -183 63.5 -296.5t254.5 -113.5q141 0 260.5 79t183.5 195l43 271
q-24 114 -118.5 192t-227.5 78q-167 0 -298 -109.5t-161 -295.5zM686 1415h105l221 -280h-127l-156 192l-215 -192h-137z" />
    <glyph glyph-name="atilde" unicode="&#xe3;" horiz-adv-x="1265" 
d="M938 203q-80 -102 -195.5 -164t-253.5 -62q-140 0 -243 67t-148.5 187.5t-21.5 270.5q35 223 195.5 363.5t367.5 140.5q139 0 238 -64.5t151 -165.5l33 207h104l-155 -983h-105zM188 494q-29 -183 63.5 -296.5t254.5 -113.5q141 0 260.5 79t183.5 195l43 271
q-24 114 -118.5 192t-227.5 78q-167 0 -298 -109.5t-161 -295.5zM1038 1323q-1 -91 -49.5 -139.5t-120.5 -48.5q-51 0 -110.5 24.5t-111.5 49t-87 24.5q-39 0 -61.5 -24t-22.5 -64h-100q1 89 50 139.5t118 50.5q51 0 111 -24.5t112.5 -49t87.5 -24.5q84 0 84 86h100z" />
    <glyph glyph-name="adieresis" unicode="&#xe4;" horiz-adv-x="1265" 
d="M938 203q-80 -102 -195.5 -164t-253.5 -62q-140 0 -243 67t-148.5 187.5t-21.5 270.5q35 223 195.5 363.5t367.5 140.5q139 0 238 -64.5t151 -165.5l33 207h104l-155 -983h-105zM188 494q-29 -183 63.5 -296.5t254.5 -113.5q141 0 260.5 79t183.5 195l43 271
q-24 114 -118.5 192t-227.5 78q-167 0 -298 -109.5t-161 -295.5zM1001 1255q-4 -32 -31 -54.5t-59 -22.5q-38 0 -60.5 27.5t-16.5 64.5q6 31 33 54.5t59 23.5q36 0 58.5 -28.5t16.5 -64.5zM590 1255q-4 -32 -31 -54.5t-59 -22.5q-38 0 -61 27.5t-17 64.5q6 31 33 54.5
t59 23.5q36 0 59 -28.5t17 -64.5z" />
    <glyph glyph-name="aring" unicode="&#xe5;" horiz-adv-x="1265" 
d="M938 203q-80 -102 -195.5 -164t-253.5 -62q-140 0 -243 67t-148.5 187.5t-21.5 270.5q35 223 195.5 363.5t367.5 140.5q139 0 238 -64.5t151 -165.5l33 207h104l-155 -983h-105zM188 494q-29 -183 63.5 -296.5t254.5 -113.5q141 0 260.5 79t183.5 195l43 271
q-24 114 -118.5 192t-227.5 78q-167 0 -298 -109.5t-161 -295.5zM936 1280q-13 -87 -82 -141t-152 -54q-87 0 -142.5 58.5t-41.5 150.5q14 86 83.5 139.5t152.5 53.5q87 0 142 -58t40 -149zM606 1286q-9 -52 20.5 -85.5t75.5 -33.5q54 0 96.5 31.5t51.5 87.5
q7 52 -21.5 85.5t-74.5 33.5q-54 0 -96.5 -32t-51.5 -87z" />
    <glyph glyph-name="ae" unicode="&#xe6;" horiz-adv-x="2031" 
d="M938 203q-80 -102 -195 -164t-254 -62t-242 67t-149 187.5t-22 270.5q35 223 195.5 363.5t367.5 140.5q139 0 238 -64.5t151 -165.5l33 207h104l-32 -217q72 116 185.5 178t242.5 62q107 0 186.5 -34.5t123.5 -92t63.5 -132t12.5 -154.5t-36 -159h-817
q-9 -91 20.5 -160.5t86.5 -109.5t126 -60t146 -20q180 0 337 82l-18 -117q-144 -72 -340 -72q-87 0 -166.5 26.5t-145.5 86t-91 143.5l-39 -233h-105zM188 494q-29 -183 63.5 -296.5t254.5 -113.5q141 0 260.5 79t183.5 195l43 271q-24 113 -119 191.5t-227 78.5
q-169 0 -299 -109.5t-160 -295.5zM1548 899q-157 0 -282.5 -100.5t-155.5 -261.5h715q13 46 13.5 93.5t-15 96.5t-47.5 86.5t-90.5 61.5t-137.5 24z" />
    <glyph glyph-name="ccedilla" unicode="&#xe7;" horiz-adv-x="1013" 
d="M956 811q-104 88 -266 88q-65 0 -128 -14t-124.5 -45.5t-111 -77.5t-86 -115.5t-50.5 -154.5q-16 -101 6 -181t74 -128.5t123 -73.5t156 -25q158 0 317 86l-18 -121q-135 -66 -297 -72l-51 -127q95 11 157 -30t52 -123q-12 -82 -82.5 -126t-184.5 -44q-113 0 -211 43
l17 94q81 -43 186 -43q81 0 126 23.5t50 62.5q6 36 -28 57t-88.5 21.5t-118.5 -12.5l80 209q-91 10 -166 47.5t-130 100.5t-77 159.5t-4 214.5q20 129 82 228.5t148.5 157.5t181.5 87t192 29q173 0 295 -86z" />
    <glyph glyph-name="egrave" unicode="&#xe8;" horiz-adv-x="1120" 
d="M74 496q18 122 74 221t133.5 161t168 95t183.5 33q106 0 187 -34.5t127 -92t68.5 -131.5t17 -154.5t-33.5 -159.5h-817q-9 -91 20.5 -160.5t86.5 -109.5t126 -60t146 -20q187 0 344 82l-18 -117q-144 -72 -344 -72q-79 0 -153 19.5t-139 61.5t-110.5 101.5t-64.5 146.5
t-2 190zM913 537q10 37 11.5 77t-6.5 81t-29.5 77.5t-54 65t-84.5 45t-117 16.5q-154 0 -278 -97.5t-158 -264.5h716zM756 1133h-125l-156 290h141z" />
    <glyph glyph-name="eacute" unicode="&#xe9;" horiz-adv-x="1120" 
d="M74 496q18 122 74 221t133.5 161t168 95t183.5 33q106 0 187 -34.5t127 -92t68.5 -131.5t17 -154.5t-33.5 -159.5h-817q-9 -91 20.5 -160.5t86.5 -109.5t126 -60t146 -20q187 0 344 82l-18 -117q-144 -72 -344 -72q-79 0 -153 19.5t-139 61.5t-110.5 101.5t-64.5 146.5
t-2 190zM913 537q10 37 11.5 77t-6.5 81t-29.5 77.5t-54 65t-84.5 45t-117 16.5q-154 0 -278 -97.5t-158 -264.5h716zM692 1133h-129l230 290h147z" />
    <glyph glyph-name="ecircumflex" unicode="&#xea;" horiz-adv-x="1120" 
d="M74 496q18 122 74 221t133.5 161t168 95t183.5 33q106 0 187 -34.5t127 -92t68.5 -131.5t17 -154.5t-33.5 -159.5h-817q-9 -91 20.5 -160.5t86.5 -109.5t126 -60t146 -20q187 0 344 82l-18 -117q-144 -72 -344 -72q-79 0 -153 19.5t-139 61.5t-110.5 101.5t-64.5 146.5
t-2 190zM913 537q10 37 11.5 77t-6.5 81t-29.5 77.5t-54 65t-84.5 45t-117 16.5q-154 0 -278 -97.5t-158 -264.5h716zM643 1415h105l221 -280h-127l-156 192l-215 -192h-137z" />
    <glyph glyph-name="edieresis" unicode="&#xeb;" horiz-adv-x="1120" 
d="M74 496q18 122 74 221t133.5 161t168 95t183.5 33q106 0 187 -34.5t127 -92t68.5 -131.5t17 -154.5t-33.5 -159.5h-817q-9 -91 20.5 -160.5t86.5 -109.5t126 -60t146 -20q187 0 344 82l-18 -117q-144 -72 -344 -72q-79 0 -153 19.5t-139 61.5t-110.5 101.5t-64.5 146.5
t-2 190zM913 537q10 37 11.5 77t-6.5 81t-29.5 77.5t-54 65t-84.5 45t-117 16.5q-154 0 -278 -97.5t-158 -264.5h716zM958 1255q-4 -32 -31 -54.5t-59 -22.5q-38 0 -60.5 27.5t-16.5 64.5q6 31 33 54.5t59 23.5q36 0 58.5 -28.5t16.5 -64.5zM547 1255q-4 -32 -31 -54.5
t-59 -22.5q-38 0 -61 27.5t-17 64.5q6 31 33 54.5t59 23.5q36 0 59 -28.5t17 -64.5z" />
    <glyph glyph-name="igrave" unicode="&#xec;" horiz-adv-x="452" 
d="M391 1133h-117l-108 290h141zM190 0h-116l155 983h117z" />
    <glyph glyph-name="iacute" unicode="&#xed;" horiz-adv-x="452" 
d="M190 0h-116l155 983h117zM348 1133h-129l230 290h147z" />
    <glyph glyph-name="icircumflex" unicode="&#xee;" horiz-adv-x="452" 
d="M190 0h-116l155 983h117zM164 1135h-137l274 280h105l186 -280h-125l-121 192z" />
    <glyph glyph-name="idieresis" unicode="&#xef;" horiz-adv-x="452" 
d="M190 0h-116l155 983h117zM246 1255q-4 -29 -29.5 -50t-56.5 -21q-34 0 -55 25.5t-15 60.5q6 28 30.5 49.5t53.5 21.5q35 0 56.5 -26t15.5 -60zM561 1255q-4 -29 -29.5 -50t-56.5 -21q-34 0 -54.5 25.5t-14.5 60.5q6 28 30 49.5t53 21.5q35 0 56.5 -26t15.5 -60z" />
    <glyph glyph-name="eth" unicode="&#xf0;" horiz-adv-x="1218" 
d="M1098 543q-42 -268 -204 -417t-390 -149q-107 0 -195 35t-146.5 97t-83 154t-7.5 200q20 129 100 233.5t194.5 160.5t239.5 56q155 0 267.5 -77t132.5 -209q6 50 6 55q7 115 -14 210.5t-66 164t-103 117t-131 81.5l-247 -215l-60 68l211 180q-114 35 -276 35l12 111
q192 0 354 -64l207 176l57 -67l-176 -152q68 -36 122.5 -83t102.5 -115t73.5 -152.5t34 -194t-14.5 -239.5zM186 449q-26 -164 64 -262.5t260 -98.5q162 0 275.5 90t164.5 244q24 177 -71 280t-258 103q-107 0 -200.5 -44.5t-156 -126t-78.5 -185.5z" />
    <glyph glyph-name="ntilde" unicode="&#xf1;" horiz-adv-x="1196" 
d="M297 801q80 87 189 146t233 59q172 0 264.5 -111.5t65.5 -292.5l-97 -602h-116l94 596q24 147 -43.5 225t-196.5 78q-115 0 -222 -67t-179 -160l-105 -672h-116l155 983h105zM1028 1323q-1 -91 -49.5 -139.5t-120.5 -48.5q-51 0 -110.5 24.5t-111.5 49t-87 24.5
q-39 0 -61.5 -24t-22.5 -64h-100q1 89 49.5 139.5t117.5 50.5q51 0 111 -24.5t113 -49t88 -24.5q84 0 84 86h100z" />
    <glyph glyph-name="ograve" unicode="&#xf2;" horiz-adv-x="1214" 
d="M1106 481q-18 -120 -76.5 -217.5t-141 -159t-179.5 -94.5t-197 -33q-97 0 -183.5 35.5t-150 100t-92.5 166t-10 223.5q18 120 77 217.5t141.5 159t179 94.5t196.5 33q98 0 184.5 -35.5t150 -100.5t92 -166t9.5 -223zM188 487q-28 -182 69.5 -290.5t262.5 -108.5
q174 0 308.5 109.5t164.5 298.5q28 183 -69 291t-262 108q-173 0 -308.5 -110t-165.5 -298zM784 1126h-125l-155 291h141z" />
    <glyph glyph-name="oacute" unicode="&#xf3;" horiz-adv-x="1214" 
d="M1106 481q-18 -120 -76.5 -217.5t-141 -159t-179.5 -94.5t-197 -33q-97 0 -183.5 35.5t-150 100t-92.5 166t-10 223.5q18 120 77 217.5t141.5 159t179 94.5t196.5 33q98 0 184.5 -35.5t150 -100.5t92 -166t9.5 -223zM188 487q-28 -182 69.5 -290.5t262.5 -108.5
q174 0 308.5 109.5t164.5 298.5q28 183 -69 291t-262 108q-173 0 -308.5 -110t-165.5 -298zM721 1126h-129l229 291h148z" />
    <glyph glyph-name="ocircumflex" unicode="&#xf4;" horiz-adv-x="1214" 
d="M1106 481q-18 -120 -76.5 -217.5t-141 -159t-179.5 -94.5t-197 -33q-97 0 -183.5 35.5t-150 100t-92.5 166t-10 223.5q18 120 77 217.5t141.5 159t179 94.5t196.5 33q98 0 184.5 -35.5t150 -100.5t92 -166t9.5 -223zM188 487q-28 -182 69.5 -290.5t262.5 -108.5
q174 0 308.5 109.5t164.5 298.5q28 183 -69 291t-262 108q-173 0 -308.5 -110t-165.5 -298zM672 1409h104l221 -281h-127l-155 193l-215 -193h-138z" />
    <glyph glyph-name="otilde" unicode="&#xf5;" horiz-adv-x="1214" 
d="M1106 481q-18 -120 -76.5 -217.5t-141 -159t-179.5 -94.5t-197 -33q-97 0 -183.5 35.5t-150 100t-92.5 166t-10 223.5q18 120 77 217.5t141.5 159t179 94.5t196.5 33q98 0 184.5 -35.5t150 -100.5t92 -166t9.5 -223zM188 487q-28 -182 69.5 -290.5t262.5 -108.5
q174 0 308.5 109.5t164.5 298.5q28 183 -69 291t-262 108q-173 0 -308.5 -110t-165.5 -298zM1024 1317q-1 -91 -49.5 -140t-120.5 -49q-51 0 -110.5 25t-111.5 49.5t-87 24.5q-39 0 -61.5 -24t-22.5 -64h-101q1 89 50 139.5t118 50.5q51 0 111 -24.5t113 -49t88 -24.5
q84 0 84 86h100z" />
    <glyph glyph-name="odieresis" unicode="&#xf6;" horiz-adv-x="1214" 
d="M1106 481q-18 -120 -76.5 -217.5t-141 -159t-179.5 -94.5t-197 -33q-97 0 -183.5 35.5t-150 100t-92.5 166t-10 223.5q18 120 77 217.5t141.5 159t179 94.5t196.5 33q98 0 184.5 -35.5t150 -100.5t92 -166t9.5 -223zM188 487q-28 -182 69.5 -290.5t262.5 -108.5
q174 0 308.5 109.5t164.5 298.5q28 183 -69 291t-262 108q-173 0 -308.5 -110t-165.5 -298zM987 1249q-4 -32 -31 -55t-59 -23q-38 0 -61 28t-17 65q6 31 33 54t59 23q36 0 59 -28t17 -64zM575 1249q-4 -32 -31 -55t-59 -23q-38 0 -60.5 28t-16.5 65q6 31 33 54t59 23
q36 0 58.5 -28t16.5 -64z" />
    <glyph glyph-name="divide" unicode="&#xf7;" horiz-adv-x="1300" 
d="M1153 662h-983l16 110h983zM676 250q-4 -35 -28 -53.5t-58 -18.5q-37 0 -58.5 23t-15.5 63q6 35 30.5 53.5t55.5 18.5q38 0 59.5 -23t14.5 -63zM823 1165q-6 -35 -30 -53t-58 -18q-37 0 -57.5 23t-13.5 63q4 35 28.5 53t57.5 18q38 0 58.5 -23t14.5 -63z" />
    <glyph glyph-name="oslash" unicode="&#xf8;" horiz-adv-x="1214" 
d="M1145 1112l-172 -211q81 -71 117.5 -178t15.5 -242q-18 -120 -76.5 -217.5t-141 -159t-179.5 -94.5t-197 -33q-133 0 -240 64l-129 -162h-106l170 209q-80 69 -116.5 175t-14.5 239q18 120 77 217.5t141.5 159t179 94.5t196.5 33q127 0 235 -60l133 166h107zM659 895
q-173 0 -307 -110t-164 -298q-33 -197 91 -311l550 680q-71 39 -170 39zM520 88q173 0 308 110t165 298q33 201 -94 315l-553 -682q77 -41 174 -41z" />
    <glyph glyph-name="ugrave" unicode="&#xf9;" horiz-adv-x="1193" 
d="M977 983h117l-156 -983h-104l30 182q-69 -84 -179 -144.5t-230 -60.5q-177 0 -273 112t-67 296l94 598h117l-95 -596q-24 -147 42.5 -225t197.5 -78q122 0 226 66t173 163zM764 1133h-125l-156 290h142z" />
    <glyph glyph-name="uacute" unicode="&#xfa;" horiz-adv-x="1193" 
d="M977 983h117l-156 -983h-104l30 182q-69 -84 -179 -144.5t-230 -60.5q-177 0 -273 112t-67 296l94 598h117l-95 -596q-24 -147 42.5 -225t197.5 -78q122 0 226 66t173 163zM700 1133h-129l230 290h147z" />
    <glyph glyph-name="ucircumflex" unicode="&#xfb;" horiz-adv-x="1193" 
d="M977 983h117l-156 -983h-104l30 182q-69 -84 -179 -144.5t-230 -60.5q-177 0 -273 112t-67 296l94 598h117l-95 -596q-24 -147 42.5 -225t197.5 -78q122 0 226 66t173 163zM651 1415h105l221 -280h-127l-156 192l-215 -192h-137z" />
    <glyph glyph-name="udieresis" unicode="&#xfc;" horiz-adv-x="1193" 
d="M977 983h117l-156 -983h-104l30 182q-69 -84 -179 -144.5t-230 -60.5q-177 0 -273 112t-67 296l94 598h117l-95 -596q-24 -147 42.5 -225t197.5 -78q122 0 226 66t173 163zM967 1255q-4 -32 -31 -54.5t-59 -22.5q-38 0 -61 27.5t-17 64.5q6 31 33 54.5t59 23.5
q36 0 59 -28.5t17 -64.5zM555 1255q-4 -32 -31 -54.5t-59 -22.5q-38 0 -61 27.5t-17 64.5q6 31 33 54.5t59 23.5q36 0 59 -28.5t17 -64.5z" />
    <glyph glyph-name="yacute" unicode="&#xfd;" horiz-adv-x="1095" 
d="M487 119l506 864h127l-680 -1147q-99 -166 -194.5 -237.5t-200.5 -71.5q-60 0 -106 14l14 99q40 -11 82 -11q87 0 160.5 61.5t150.5 192.5l70 117l-328 983h117zM641 1133h-129l229 290h148z" />
    <glyph glyph-name="thorn" unicode="&#xfe;" horiz-adv-x="1267" 
d="M113 -451h-117l299 1885h117l-105 -652q79 102 190.5 163t247.5 61q137 0 239.5 -67t150 -187.5t24.5 -270.5q-35 -224 -194.5 -364t-370.5 -140q-141 0 -237 65t-140 169zM240 354q28 -116 120.5 -193t227.5 -77q170 0 298 108.5t158 296.5q30 182 -63 296t-254 114
q-140 0 -259.5 -79.5t-184.5 -198.5z" />
    <glyph glyph-name="ydieresis" unicode="&#xff;" horiz-adv-x="1095" 
d="M487 119l506 864h127l-680 -1147q-99 -166 -194.5 -237.5t-200.5 -71.5q-60 0 -106 14l14 99q40 -11 82 -11q87 0 160.5 61.5t150.5 192.5l70 117l-328 983h117zM907 1255q-4 -32 -31 -54.5t-59 -22.5q-38 0 -61 27.5t-17 64.5q6 31 33 54.5t59 23.5q36 0 59 -28.5
t17 -64.5zM496 1255q-4 -32 -31 -54.5t-59 -22.5q-38 0 -61 27.5t-17 64.5q6 31 33 54.5t59 23.5q36 0 59 -28.5t17 -64.5z" />
    <glyph glyph-name="Amacron" unicode="&#x100;" horiz-adv-x="1462" 
d="M1343 0h-126l-109 385h-811l-229 -385h-138l865 1434h139zM823 1262l-458 -762h714l-217 764q-8 31 -10 49q-7 -16 -29 -51zM631 1735h573l-16 -107h-574z" />
    <glyph glyph-name="amacron" unicode="&#x101;" horiz-adv-x="1265" 
d="M938 203q-80 -102 -195.5 -164t-253.5 -62q-140 0 -243 67t-148.5 187.5t-21.5 270.5q35 223 195.5 363.5t367.5 140.5q139 0 238 -64.5t151 -165.5l33 207h104l-155 -983h-105zM188 494q-29 -183 63.5 -296.5t254.5 -113.5q141 0 260.5 79t183.5 195l43 271
q-24 114 -118.5 192t-227.5 78q-167 0 -298 -109.5t-161 -295.5zM442 1284h574l-17 -106h-573z" />
    <glyph glyph-name="Abreve" unicode="&#x102;" horiz-adv-x="1462" 
d="M1343 0h-126l-109 385h-811l-229 -385h-138l865 1434h139zM823 1262l-458 -762h714l-217 764q-8 31 -10 49q-7 -16 -29 -51zM1176 1677q-128 -84 -283 -84q-165 0 -264 84l18 117q60 -49 120 -69.5t136 -20.5q154 0 289 90z" />
    <glyph glyph-name="abreve" unicode="&#x103;" horiz-adv-x="1265" 
d="M938 203q-80 -102 -195.5 -164t-253.5 -62q-140 0 -243 67t-148.5 187.5t-21.5 270.5q35 223 195.5 363.5t367.5 140.5q139 0 238 -64.5t151 -165.5l33 207h104l-155 -983h-105zM188 494q-29 -183 63.5 -296.5t254.5 -113.5q141 0 260.5 79t183.5 195l43 271
q-24 114 -118.5 192t-227.5 78q-167 0 -298 -109.5t-161 -295.5zM987 1227q-128 -84 -282 -84q-166 0 -265 84l19 116q60 -49 120 -69.5t136 -20.5q154 0 289 90z" />
    <glyph glyph-name="Aogonek" unicode="&#x104;" horiz-adv-x="1462" 
d="M1343 0q-105 -65 -177 -142t-81 -143q-8 -42 15.5 -67t73.5 -25q52 0 112 31l-14 -100q-64 -27 -129 -27q-94 0 -138 50.5t-32 129.5q22 143 237 318l-102 360h-811l-229 -385h-138l865 1434h139zM823 1262l-458 -762h714l-217 764q-8 31 -10 49q-7 -16 -29 -51z" />
    <glyph glyph-name="aogonek" unicode="&#x105;" horiz-adv-x="1265" 
d="M1165 983l-155 -983q-102 -64 -172.5 -142t-79.5 -143q-8 -43 14 -68.5t68 -25.5q51 0 112 23l-16 -99q-55 -18 -125 -18q-89 0 -133.5 50t-32.5 130q22 149 264 324l29 172q-80 -102 -195.5 -164t-253.5 -62q-140 0 -243 67t-148.5 187.5t-21.5 270.5
q35 223 195.5 363.5t367.5 140.5q139 0 238 -64.5t151 -165.5l33 207h104zM188 494q-29 -183 63.5 -296.5t254.5 -113.5q141 0 260.5 79t183.5 195l43 271q-24 114 -118.5 192t-227.5 78q-167 0 -298 -109.5t-161 -295.5z" />
    <glyph glyph-name="Cacute" unicode="&#x106;" horiz-adv-x="1325" 
d="M123 745q22 136 83.5 253.5t147.5 200t190.5 141.5t214.5 87.5t218 28.5q222 0 379 -98l-19 -117q-136 100 -348 100q-96 0 -192 -23.5t-187.5 -73.5t-166 -120.5t-128 -172.5t-73.5 -222q-20 -127 1 -234t73 -180t128 -124.5t162 -75t178 -23.5q222 0 398 107l-21 -131
q-178 -91 -407 -91q-106 0 -207 30.5t-189.5 92t-149 153.5t-85.5 215t0 277zM1042 1583h-129l230 291h147z" />
    <glyph glyph-name="cacute" unicode="&#x107;" horiz-adv-x="1013" 
d="M76 504q16 104 60.5 189.5t104.5 142.5t135.5 96t152 56.5t153.5 17.5q171 0 293 -86l-19 -109q-104 88 -266 88q-65 0 -128.5 -14t-125 -45.5t-111 -77.5t-85.5 -115.5t-50 -154.5q-16 -101 5.5 -181t73 -128.5t122 -73.5t156.5 -25q161 0 317 86l-18 -121
q-147 -72 -324 -72q-102 0 -190 33t-153 96t-94 166t-9 232zM721 1133h-129l229 290h148z" />
    <glyph glyph-name="Cdotaccent" unicode="&#x10a;" horiz-adv-x="1325" 
d="M123 745q22 136 83.5 253.5t147.5 200t190.5 141.5t214.5 87.5t218 28.5q222 0 379 -98l-19 -117q-136 100 -348 100q-96 0 -192 -23.5t-187.5 -73.5t-166 -120.5t-128 -172.5t-73.5 -222q-20 -127 1 -234t73 -180t128 -124.5t162 -75t178 -23.5q222 0 398 107l-21 -131
q-178 -91 -407 -91q-106 0 -207 30.5t-189.5 92t-149 153.5t-85.5 215t0 277zM1106 1677q-6 -41 -34.5 -63.5t-67.5 -22.5q-42 0 -67.5 28t-18.5 75q7 40 36 62t66 22q44 0 69.5 -27.5t16.5 -73.5z" />
    <glyph glyph-name="cdotaccent" unicode="&#x10b;" horiz-adv-x="1013" 
d="M76 504q16 104 60.5 189.5t104.5 142.5t135.5 96t152 56.5t153.5 17.5q171 0 293 -86l-19 -109q-104 88 -266 88q-65 0 -128.5 -14t-125 -45.5t-111 -77.5t-85.5 -115.5t-50 -154.5q-16 -101 5.5 -181t73 -128.5t122 -73.5t156.5 -25q161 0 317 86l-18 -121
q-147 -72 -324 -72q-102 0 -190 33t-153 96t-94 166t-9 232zM784 1227q-6 -41 -34.5 -63.5t-67.5 -22.5q-42 0 -67.5 27.5t-18.5 74.5q7 40 36 62t66 22q44 0 69.5 -27t16.5 -73z" />
    <glyph glyph-name="Ccaron" unicode="&#x10c;" horiz-adv-x="1325" 
d="M123 745q22 136 83.5 253.5t147.5 200t190.5 141.5t214.5 87.5t218 28.5q222 0 379 -98l-19 -117q-136 100 -348 100q-96 0 -192 -23.5t-187.5 -73.5t-166 -120.5t-128 -172.5t-73.5 -222q-20 -127 1 -234t73 -180t128 -124.5t162 -75t178 -23.5q222 0 398 107l-21 -131
q-178 -91 -407 -91q-106 0 -207 30.5t-189.5 92t-149 153.5t-85.5 215t0 277zM1360 1845l-309 -280h-105l-221 280h129l154 -192l211 192h141z" />
    <glyph glyph-name="ccaron" unicode="&#x10d;" horiz-adv-x="1013" 
d="M76 504q16 104 60.5 189.5t104.5 142.5t135.5 96t152 56.5t153.5 17.5q171 0 293 -86l-19 -109q-104 88 -266 88q-65 0 -128.5 -14t-125 -45.5t-111 -77.5t-85.5 -115.5t-50 -154.5q-16 -101 5.5 -181t73 -128.5t122 -73.5t156.5 -25q161 0 317 86l-18 -121
q-147 -72 -324 -72q-102 0 -190 33t-153 96t-94 166t-9 232zM1038 1395l-309 -281h-104l-222 281h129l154 -193l211 193h141z" />
    <glyph glyph-name="Dcaron" unicode="&#x10e;" horiz-adv-x="1505" 
d="M334 1434h438q184 0 321.5 -54.5t217 -151.5t108.5 -229t4 -290q-25 -157 -91 -284.5t-171.5 -223.5t-260.5 -148.5t-347 -52.5h-447zM1300 725q45 276 -91 434t-449 158h-326l-188 -1200h319q314 0 502.5 162.5t232.5 445.5zM1180 1845l-310 -280h-104l-221 280h129
l153 -192l211 192h142z" />
    <glyph glyph-name="dcaron" unicode="&#x10f;" horiz-adv-x="1263" 
d="M1399 1434h117l-109 -353h-100zM1122 1434h115l-227 -1434h-103l33 209q-78 -106 -193 -169t-258 -63q-139 0 -242 67t-149 187.5t-22 270.5q35 224 191.5 364t365.5 140q141 0 240.5 -64t144.5 -162zM995 629q-26 116 -119 193t-229 77q-170 0 -299.5 -108.5
t-159.5 -296.5q-14 -91 4 -168.5t62 -130t109 -82t143 -29.5q141 0 260.5 79.5t183.5 196.5z" />
    <glyph glyph-name="Dcroat" unicode="&#x110;" horiz-adv-x="1509" 
d="M338 1434h438q183 0 320.5 -54.5t217 -151.5t109 -229t4.5 -290q-25 -156 -91 -284t-172 -224t-261 -148.5t-346 -52.5h-446l104 659h-152l17 111h151zM569 117q314 0 503 163t233 445q45 276 -91 434t-450 158h-326l-86 -547h475l-18 -111h-473l-86 -542h319z" />
    <glyph glyph-name="dcroat" unicode="&#x111;" horiz-adv-x="1263" 
d="M1210 1264h150l-12 -90h-152l-186 -1174h-103l33 209q-78 -106 -193 -169t-258 -63q-139 0 -242 67t-149 187.5t-22 270.5q35 224 191.5 364t365.5 140q141 0 240.5 -64t144.5 -162l63 394h-372l12 90h373l28 170h115zM506 84q141 0 260.5 79.5t183.5 196.5l45 269
q-26 116 -119 193t-229 77q-170 0 -299.5 -108.5t-159.5 -296.5q-14 -91 4 -168.5t62 -130t109 -82t143 -29.5z" />
    <glyph glyph-name="Emacron" unicode="&#x112;" horiz-adv-x="1271" 
d="M334 1434h952l-18 -117h-832l-84 -537h768l-16 -116h-770l-86 -547h842l-19 -117h-965zM578 1735h573l-16 -107h-574z" />
    <glyph glyph-name="emacron" unicode="&#x113;" horiz-adv-x="1120" 
d="M74 496q18 122 74 221t133.5 161t168 95t183.5 33q106 0 187 -34.5t127 -92t68.5 -131.5t17 -154.5t-33.5 -159.5h-817q-9 -91 20.5 -160.5t86.5 -109.5t126 -60t146 -20q187 0 344 82l-18 -117q-144 -72 -344 -72q-79 0 -153 19.5t-139 61.5t-110.5 101.5t-64.5 146.5
t-2 190zM913 537q10 37 11.5 77t-6.5 81t-29.5 77.5t-54 65t-84.5 45t-117 16.5q-154 0 -278 -97.5t-158 -264.5h716zM399 1284h574l-17 -106h-573z" />
    <glyph glyph-name="Edotaccent" unicode="&#x116;" horiz-adv-x="1271" 
d="M334 1434h952l-18 -117h-832l-84 -537h768l-16 -116h-770l-86 -547h842l-19 -117h-965zM934 1677q-6 -41 -35 -63.5t-68 -22.5q-42 0 -67.5 28t-18.5 75q7 40 36.5 62t66.5 22q44 0 69.5 -27.5t16.5 -73.5z" />
    <glyph glyph-name="edotaccent" unicode="&#x117;" horiz-adv-x="1120" 
d="M74 496q18 122 74 221t133.5 161t168 95t183.5 33q106 0 187 -34.5t127 -92t68.5 -131.5t17 -154.5t-33.5 -159.5h-817q-9 -91 20.5 -160.5t86.5 -109.5t126 -60t146 -20q187 0 344 82l-18 -117q-144 -72 -344 -72q-79 0 -153 19.5t-139 61.5t-110.5 101.5t-64.5 146.5
t-2 190zM913 537q10 37 11.5 77t-6.5 81t-29.5 77.5t-54 65t-84.5 45t-117 16.5q-154 0 -278 -97.5t-158 -264.5h716zM756 1227q-6 -41 -35 -63.5t-68 -22.5q-42 0 -67.5 27.5t-18.5 74.5q7 40 36.5 62t66.5 22q44 0 69.5 -27t16.5 -73z" />
    <glyph glyph-name="Eogonek" unicode="&#x118;" horiz-adv-x="1271" 
d="M1010 -352l-17 -101q-59 -20 -131 -20q-89 0 -131.5 49.5t-30.5 128.5q11 71 70 149t156 146h-820l228 1434h952l-18 -117h-832l-84 -537h768l-16 -116h-770l-86 -547h842l-19 -117q-106 -67 -177.5 -142t-80.5 -139q-8 -43 14 -69.5t66 -26.5q59 0 117 25z" />
    <glyph glyph-name="eogonek" unicode="&#x119;" horiz-adv-x="1122" 
d="M788 -432q-69 -41 -163 -41q-94 -1 -138 49t-32 129q10 68 70.5 142.5t158.5 144.5q-84 -15 -141 -15q-79 0 -153 19.5t-139 61.5t-110.5 101.5t-64.5 146.5t-2 190q18 122 74 221t133.5 161t168 95t183.5 33q106 0 187 -34.5t127 -92t68.5 -131.5t17 -154.5
t-33.5 -159.5h-817q-9 -91 20.5 -160.5t86.5 -109.5t126 -60t146 -20q187 0 344 82l-18 -117q-300 -206 -320 -334q-6 -43 16.5 -68.5t71.5 -25.5q80 3 150 47zM633 899q-154 0 -278 -97.5t-158 -264.5h716q10 37 11.5 77t-6.5 81t-29.5 77.5t-54 65t-84.5 45t-117 16.5z
" />
    <glyph glyph-name="Ecaron" unicode="&#x11a;" horiz-adv-x="1271" 
d="M334 1434h952l-18 -117h-832l-84 -537h768l-16 -116h-770l-86 -547h842l-19 -117h-965zM1188 1845l-309 -280h-105l-221 280h129l154 -192l211 192h141z" />
    <glyph glyph-name="ecaron" unicode="&#x11b;" horiz-adv-x="1120" 
d="M74 496q18 122 74 221t133.5 161t168 95t183.5 33q106 0 187 -34.5t127 -92t68.5 -131.5t17 -154.5t-33.5 -159.5h-817q-9 -91 20.5 -160.5t86.5 -109.5t126 -60t146 -20q187 0 344 82l-18 -117q-144 -72 -344 -72q-79 0 -153 19.5t-139 61.5t-110.5 101.5t-64.5 146.5
t-2 190zM913 537q10 37 11.5 77t-6.5 81t-29.5 77.5t-54 65t-84.5 45t-117 16.5q-154 0 -278 -97.5t-158 -264.5h716zM1010 1395l-310 -281h-104l-221 281h129l153 -193l211 193h142z" />
    <glyph glyph-name="Gbreve" unicode="&#x11e;" horiz-adv-x="1452" 
d="M123 745q23 145 86.5 265.5t150.5 201.5t194.5 137t217 81.5t219.5 25.5q232 0 410 -96l-17 -117q-70 48 -171.5 73t-211.5 25q-98 0 -193 -20.5t-189 -67t-169 -115.5t-130.5 -174.5t-75.5 -234.5q-21 -131 1 -239.5t75 -181t130.5 -122.5t165.5 -72t183 -22
q182 0 331 70l95 594h123l-107 -684q-220 -95 -457 -95q-113 0 -217.5 27.5t-197.5 88.5t-156 148.5t-89 217.5t-1 286zM1272 1677q-128 -84 -283 -84q-165 0 -264 84l18 117q60 -49 120 -69.5t136 -20.5q154 0 289 90z" />
    <glyph glyph-name="gbreve" unicode="&#x11f;" horiz-adv-x="1267" 
d="M1012 -4q-15 -100 -55.5 -180t-96.5 -133t-127.5 -89t-147 -51.5t-157.5 -15.5q-235 0 -389 98l18 111q147 -103 361 -103q88 0 165 21t142.5 63.5t110 116t59.5 170.5l31 186q-73 -93 -186.5 -153t-250.5 -60q-214 0 -332 148.5t-81 376.5q35 223 194.5 363.5
t368.5 140.5q142 0 239 -65t148 -173l33 215h108zM188 494q-29 -183 63 -296.5t255 -113.5q141 0 260.5 76.5t183.5 189.5l45 279q-26 116 -118.5 193t-229.5 77q-169 0 -299 -109t-160 -296zM965 1227q-128 -84 -283 -84q-165 0 -264 84l18 116q60 -49 120 -69.5t136 -20.5
q154 0 289 90z" />
    <glyph glyph-name="Gdotaccent" unicode="&#x120;" horiz-adv-x="1452" 
d="M123 745q23 145 86.5 265.5t150.5 201.5t194.5 137t217 81.5t219.5 25.5q232 0 410 -96l-17 -117q-70 48 -171.5 73t-211.5 25q-98 0 -193 -20.5t-189 -67t-169 -115.5t-130.5 -174.5t-75.5 -234.5q-21 -131 1 -239.5t75 -181t130.5 -122.5t165.5 -72t183 -22
q182 0 331 70l95 594h123l-107 -684q-220 -95 -457 -95q-113 0 -217.5 27.5t-197.5 88.5t-156 148.5t-89 217.5t-1 286zM1083 1677q-6 -41 -34.5 -63.5t-67.5 -22.5q-42 0 -67.5 28t-18.5 75q7 40 36 62t66 22q44 0 69.5 -27.5t16.5 -73.5z" />
    <glyph glyph-name="gdotaccent" unicode="&#x121;" horiz-adv-x="1267" 
d="M1012 -4q-15 -100 -55.5 -180t-96.5 -133t-127.5 -89t-147 -51.5t-157.5 -15.5q-235 0 -389 98l18 111q147 -103 361 -103q88 0 165 21t142.5 63.5t110 116t59.5 170.5l31 186q-73 -93 -186.5 -153t-250.5 -60q-214 0 -332 148.5t-81 376.5q35 223 194.5 363.5
t368.5 140.5q142 0 239 -65t148 -173l33 215h108zM188 494q-29 -183 63 -296.5t255 -113.5q141 0 260.5 76.5t183.5 189.5l45 279q-26 116 -118.5 193t-229.5 77q-169 0 -299 -109t-160 -296zM776 1227q-6 -41 -34.5 -63.5t-67.5 -22.5q-42 0 -67.5 27.5t-18.5 74.5
q7 40 36 62t66 22q44 0 69.5 -27t16.5 -73z" />
    <glyph glyph-name="Gcommaaccent" unicode="&#x122;" horiz-adv-x="1452" 
d="M123 745q23 145 86.5 265.5t150.5 201.5t194.5 137t217 81.5t219.5 25.5q232 0 410 -96l-17 -117q-70 48 -171.5 73t-211.5 25q-98 0 -193 -20.5t-189 -67t-169 -115.5t-130.5 -174.5t-75.5 -234.5q-21 -131 1 -239.5t75 -181t130.5 -122.5t165.5 -72t183 -22
q182 0 331 70l95 594h123l-107 -684q-220 -95 -457 -95q-113 0 -217.5 27.5t-197.5 88.5t-156 148.5t-89 217.5t-1 286zM707 -479h-103l105 368h116z" />
    <glyph glyph-name="gcommaaccent" unicode="&#x123;" horiz-adv-x="1267" 
d="M711 1122h-117l111 326h102zM1012 -4q-15 -100 -55.5 -180t-96.5 -133t-127.5 -89t-147 -51.5t-157.5 -15.5q-235 0 -389 98l18 111q147 -103 361 -103q88 0 165 21t142.5 63.5t110 116t59.5 170.5l31 186q-73 -93 -186.5 -153t-250.5 -60q-214 0 -332 148.5t-81 376.5
q35 223 194.5 363.5t368.5 140.5q142 0 239 -65t148 -173l33 215h108zM188 494q-29 -183 63 -296.5t255 -113.5q141 0 260.5 76.5t183.5 189.5l45 279q-26 116 -118.5 193t-229.5 77q-169 0 -299 -109t-160 -296z" />
    <glyph glyph-name="Hbar" unicode="&#x126;" horiz-adv-x="1581" 
d="M231 0h-120l165 1044h-155l16 103h156l45 287h121l-45 -287h929l46 287h120l-45 -287h156l-16 -103h-156l-166 -1044h-121l105 662h-930zM399 1044l-43 -266h928l43 266h-928z" />
    <glyph glyph-name="hbar" unicode="&#x127;" horiz-adv-x="1193" 
d="M309 813q78 81 184 137t222 56q173 0 266.5 -111.5t65.5 -292.5l-97 -602h-116l94 596q24 147 -43.5 225t-196.5 78q-115 0 -222.5 -67.5t-178.5 -161.5l-105 -670h-116l186 1174h-121l12 90h121l29 170h117l-29 -170h401l-14 -90h-399z" />
    <glyph glyph-name="Imacron" unicode="&#x12a;" horiz-adv-x="522" 
d="M334 1434h121l-228 -1434h-121zM160 1735h573l-16 -107h-574z" />
    <glyph glyph-name="imacron" unicode="&#x12b;" horiz-adv-x="452" 
d="M547 1192h-451l17 108h450zM190 0h-116l155 983h117z" />
    <glyph glyph-name="Iogonek" unicode="&#x12e;" horiz-adv-x="522" 
d="M227 0q-167 -166 -184 -279q-6 -45 17.5 -73t72.5 -27q74 0 150 45l-17 -100q-69 -39 -164 -39q-90 0 -136 52t-34 130q19 128 177 303l225 1422h121z" />
    <glyph glyph-name="iogonek" unicode="&#x12f;" horiz-adv-x="452" 
d="M256 1288q4 34 29 53t57 19q35 0 56.5 -24t15.5 -62q-6 -35 -29.5 -52.5t-56.5 -17.5q-36 0 -57 22t-15 62zM346 983l-156 -983q-161 -165 -180 -279q-8 -44 16 -72t74 -28q70 0 138 39l-17 -100q-67 -33 -151 -33q-92 0 -135.5 53.5t-32.5 130.5q11 69 61 149.5
t113 149.5l153 973h117z" />
    <glyph glyph-name="Idotaccent" unicode="&#x130;" horiz-adv-x="522" 
d="M334 1434h121l-228 -1434h-121zM516 1677q-6 -41 -34.5 -63.5t-67.5 -22.5q-42 0 -67.5 28t-18.5 75q7 40 36 62t66 22q44 0 69.5 -27.5t16.5 -73.5z" />
    <glyph glyph-name="dotlessi" unicode="&#x131;" horiz-adv-x="452" 
d="M190 0h-116l155 983h117z" />
    <glyph glyph-name="IJ" unicode="&#x132;" horiz-adv-x="1579" 
d="M334 1434h121l-228 -1434h-121zM963 1434h563l-162 -1031q-34 -217 -171.5 -320t-344.5 -103q-226 0 -359 90l19 118q127 -92 323 -92q362 0 412 320l143 901h-444z" />
    <glyph glyph-name="ij" unicode="&#x133;" horiz-adv-x="905" 
d="M190 0h-116l155 983h117zM414 1274q-6 -35 -29.5 -52.5t-56.5 -17.5q-36 0 -57 22t-15 62q4 34 29 53t57 19q35 0 56.5 -24t15.5 -62zM608 -209q-11 -74 -41 -127.5t-72.5 -82t-88 -41.5t-97.5 -13q-82 0 -151 29l16 102q55 -25 115 -25q178 0 209 183l184 1167h117z
M866 1274q-6 -35 -29.5 -52.5t-56.5 -17.5q-36 0 -56.5 22t-14.5 62q4 34 29 53t57 19q35 0 56 -23.5t15 -62.5z" />
    <glyph glyph-name="Kcommaaccent" unicode="&#x136;" horiz-adv-x="1347" 
d="M1288 1434h139l-608 -703l428 -731h-131l-399 676h-383l-107 -676h-121l228 1434h121l-101 -643h375zM578 -459h-103l105 369h116z" />
    <glyph glyph-name="kcommaaccent" unicode="&#x137;" horiz-adv-x="1040" 
d="M909 983h140l-465 -479l352 -504h-131l-324 463h-225l-72 -463h-116l227 1434h117l-138 -865h234zM420 -459h-103l105 369h117z" />
    <glyph glyph-name="Lacute" unicode="&#x139;" horiz-adv-x="1171" 
d="M334 1434h121l-207 -1317h827l-18 -117h-951zM483 1583h-129l230 291h147z" />
    <glyph glyph-name="lacute" unicode="&#x13a;" horiz-adv-x="452" 
d="M311 1495h117l-238 -1495h-116zM442 1589h-129l230 291h147z" />
    <glyph glyph-name="Lcommaaccent" unicode="&#x13b;" horiz-adv-x="1171" 
d="M334 1434h121l-207 -1317h827l-18 -117h-951zM539 -459h-103l105 369h116z" />
    <glyph glyph-name="lcommaaccent" unicode="&#x13c;" horiz-adv-x="452" 
d="M311 1495h117l-238 -1495h-116zM53 -459h-102l104 369h117z" />
    <glyph glyph-name="Lcaron" unicode="&#x13d;" horiz-adv-x="1173" 
d="M905 1434h117l-109 -353h-100zM334 1434h121l-207 -1317h827l-18 -117h-951z" />
    <glyph glyph-name="lcaron" unicode="&#x13e;" horiz-adv-x="452" 
d="M590 1495h117l-109 -352h-100zM311 1495h117l-238 -1495h-116z" />
    <glyph glyph-name="Ldot" unicode="&#x13f;" horiz-adv-x="1179" 
d="M831 696q-6 -35 -30 -54t-56 -19q-37 0 -59 24t-16 64q6 35 30.5 53t57.5 18q37 0 58 -23t15 -63zM334 1434h121l-207 -1317h827l-18 -117h-951z" />
    <glyph glyph-name="ldot" unicode="&#x140;" horiz-adv-x="585" 
d="M311 1495h117l-238 -1495h-116zM616 709q-6 -34 -30 -53t-56 -19q-37 0 -59 24t-16 64q6 34 31 53t57 19q36 0 57.5 -24t15.5 -64z" />
    <glyph glyph-name="Lslash" unicode="&#x141;" horiz-adv-x="1181" 
d="M1069 0h-950l90 571l-189 -75l17 102l188 76l121 760h121l-113 -713l490 194l-17 -102l-489 -195l-78 -501h827z" />
    <glyph glyph-name="lslash" unicode="&#x142;" horiz-adv-x="536" 
d="M352 1495h117l-107 -655l191 75l-16 -102l-189 -78l-117 -735h-116l108 690l-186 -76l16 103l189 78z" />
    <glyph glyph-name="Nacute" unicode="&#x143;" horiz-adv-x="1572" 
d="M227 0h-121l228 1434h102l754 -1237q3 22 8.5 62.5t7.5 62.5l178 1112h121l-227 -1434h-102l-754 1239q-3 -23 -8.5 -63.5t-7.5 -61.5zM981 1583h-129l229 291h148z" />
    <glyph glyph-name="nacute" unicode="&#x144;" horiz-adv-x="1196" 
d="M297 801q80 87 189 146t233 59q172 0 264.5 -111.5t65.5 -292.5l-97 -602h-116l94 596q24 147 -43.5 225t-196.5 78q-115 0 -222 -67t-179 -160l-105 -672h-116l155 983h105zM725 1133h-129l229 290h148z" />
    <glyph glyph-name="Ncommaaccent" unicode="&#x145;" horiz-adv-x="1572" 
d="M227 0h-121l228 1434h102l754 -1237q3 22 8.5 62.5t7.5 62.5l178 1112h121l-227 -1434h-102l-754 1239q-3 -23 -8.5 -63.5t-7.5 -61.5zM653 -459h-102l104 369h117z" />
    <glyph glyph-name="ncommaaccent" unicode="&#x146;" horiz-adv-x="1196" 
d="M297 801q80 87 189 146t233 59q172 0 264.5 -111.5t65.5 -292.5l-97 -602h-116l94 596q24 147 -43.5 225t-196.5 78q-115 0 -222 -67t-179 -160l-105 -672h-116l155 983h105zM457 -459h-103l105 369h116z" />
    <glyph glyph-name="Ncaron" unicode="&#x147;" horiz-adv-x="1572" 
d="M227 0h-121l228 1434h102l754 -1237q3 22 8.5 62.5t7.5 62.5l178 1112h121l-227 -1434h-102l-754 1239q-3 -23 -8.5 -63.5t-7.5 -61.5zM1298 1845l-309 -280h-104l-221 280h129l153 -192l211 192h141z" />
    <glyph glyph-name="ncaron" unicode="&#x148;" horiz-adv-x="1196" 
d="M297 801q80 87 189 146t233 59q172 0 264.5 -111.5t65.5 -292.5l-97 -602h-116l94 596q24 147 -43.5 225t-196.5 78q-115 0 -222 -67t-179 -160l-105 -672h-116l155 983h105zM1042 1395l-309 -281h-104l-221 281h129l153 -193l211 193h141z" />
    <glyph glyph-name="Eng" unicode="&#x14a;" horiz-adv-x="1574" 
d="M1247 -199q-24 -142 -105.5 -208t-201.5 -66q-78 0 -152 24l19 111q55 -20 111 -20q179 0 210 182l33 201l-739 1214q-3 -23 -8.5 -63.5t-7.5 -61.5l-179 -1114h-121l228 1434h102l754 -1237q3 22 8.5 62.5t7.5 62.5l178 1112h121z" />
    <glyph glyph-name="eng" unicode="&#x14b;" horiz-adv-x="1196" 
d="M920 -209q-12 -76 -42.5 -130.5t-74 -82t-88.5 -39.5t-97 -12q-82 0 -151 27l16 104q55 -25 123 -25q170 0 201 183l123 780q24 147 -43.5 225t-196.5 78q-115 0 -222 -67t-179 -160l-105 -672h-116l155 983h105l-31 -182q80 87 189 146t233 59q172 0 265.5 -111.5
t64.5 -292.5z" />
    <glyph glyph-name="Omacron" unicode="&#x14c;" horiz-adv-x="1683" 
d="M1606 709q-22 -140 -88 -268t-170.5 -233t-259.5 -168t-338 -63q-87 0 -165.5 17t-141 48t-116.5 74.5t-92 96t-67.5 113.5t-42.5 126.5t-16.5 134.5t8.5 138q18 110 64 215t122.5 198.5t173.5 164t225.5 112t270.5 41.5q87 0 166 -17t142 -48t117 -74t92 -96t67 -113.5
t42 -126t16.5 -134.5t-9.5 -138zM240 717q-8 -64 -8 -127.5t17.5 -125.5t44 -117t71.5 -102t100.5 -81t130.5 -53t162 -19q122 0 231.5 35t192 95t147 140t103 170t53.5 185q8 64 8 127.5t-17.5 125t-44 117t-71.5 102t-100.5 80.5t-130.5 53t-162 19q-152 0 -283 -53
t-220.5 -142t-147 -199t-76.5 -230zM741 1735h574l-17 -107h-573z" />
    <glyph glyph-name="omacron" unicode="&#x14d;" horiz-adv-x="1214" 
d="M1106 481q-18 -120 -76.5 -217.5t-141 -159t-179.5 -94.5t-197 -33q-97 0 -183.5 35.5t-150 100t-92.5 166t-10 223.5q18 120 77 217.5t141.5 159t179 94.5t196.5 33q98 0 184.5 -35.5t150 -100.5t92 -166t9.5 -223zM188 487q-28 -182 69.5 -290.5t262.5 -108.5
q174 0 308.5 109.5t164.5 298.5q28 183 -69 291t-262 108q-173 0 -308.5 -110t-165.5 -298zM428 1278h573l-16 -107h-573z" />
    <glyph glyph-name="Ohungarumlaut" unicode="&#x150;" horiz-adv-x="1683" 
d="M1606 709q-22 -140 -88 -268t-170.5 -233t-259.5 -168t-338 -63q-87 0 -165.5 17t-141 48t-116.5 74.5t-92 96t-67.5 113.5t-42.5 126.5t-16.5 134.5t8.5 138q18 110 64 215t122.5 198.5t173.5 164t225.5 112t270.5 41.5q87 0 166 -17t142 -48t117 -74t92 -96t67 -113.5
t42 -126t16.5 -134.5t-9.5 -138zM240 717q-8 -64 -8 -127.5t17.5 -125.5t44 -117t71.5 -102t100.5 -81t130.5 -53t162 -19q122 0 231.5 35t192 95t147 140t103 170t53.5 185q8 64 8 127.5t-17.5 125t-44 117t-71.5 102t-100.5 80.5t-130.5 53t-162 19q-152 0 -283 -53
t-220.5 -142t-147 -199t-76.5 -230zM1221 1595h-127l194 297h133zM907 1595h-127l195 297h133z" />
    <glyph glyph-name="ohungarumlaut" unicode="&#x151;" horiz-adv-x="1214" 
d="M1106 481q-18 -120 -76.5 -217.5t-141 -159t-179.5 -94.5t-197 -33q-97 0 -183.5 35.5t-150 100t-92.5 166t-10 223.5q18 120 77 217.5t141.5 159t179 94.5t196.5 33q98 0 184.5 -35.5t150 -100.5t92 -166t9.5 -223zM188 487q-28 -182 69.5 -290.5t262.5 -108.5
q174 0 308.5 109.5t164.5 298.5q28 183 -69 291t-262 108q-173 0 -308.5 -110t-165.5 -298zM907 1139h-127l195 297h133zM594 1139h-127l195 297h133z" />
    <glyph glyph-name="OE" unicode="&#x152;" horiz-adv-x="2093" 
d="M993 -2q-105 -21 -221 -21q-103 0 -194 22.5t-161 63.5t-128 97.5t-94.5 125t-60 146t-24.5 159.5t11 167q22 133 90.5 256.5t172.5 222.5t253 159t317 60q146 0 240 -24l913 2l-18 -117h-768l-86 -537h709l-19 -116h-708l-87 -547h781l-19 -117zM242 743
q-17 -84 -9 -165t30.5 -153t69.5 -133.5t108.5 -105.5t148 -69t188.5 -25q115 0 228 29l188 1190q-82 30 -246 30q-142 0 -268 -51t-214 -136t-146.5 -191t-77.5 -220z" />
    <glyph glyph-name="oe" unicode="&#x153;" horiz-adv-x="2017" 
d="M1008 274q-75 -145 -207 -221t-293 -76q-96 0 -181.5 36t-149 101t-92 167t-9.5 223q18 119 77 216t140.5 158.5t177 94.5t193.5 33q149 0 260 -79t147 -220q70 145 195 222t268 77q106 0 186.5 -34.5t126.5 -92.5t67.5 -132.5t16.5 -155.5t-33 -161h-808
q-8 -89 21.5 -158t85.5 -108.5t123 -59.5t142 -20q178 0 342 82l-20 -117q-144 -72 -344 -72q-157 0 -277 75.5t-155 221.5zM188 487q-28 -182 69 -290.5t259 -108.5q177 0 308 109.5t161 298.5q28 184 -67.5 291.5t-260.5 107.5q-170 0 -304.5 -110t-164.5 -298zM1536 899
q-153 0 -274.5 -98t-155.5 -269h706q10 39 11.5 79.5t-5.5 82t-28 78t-53.5 65.5t-84 45.5t-116.5 16.5z" />
    <glyph glyph-name="Racute" unicode="&#x154;" horiz-adv-x="1415" 
d="M227 0h-121l228 1434h547q78 0 148 -14t134.5 -46.5t108 -81t63 -124t4.5 -169.5q-16 -97 -61.5 -173t-112.5 -123.5t-142 -74.5t-161 -38l416 -590h-143l-410 580h-406zM434 1317l-96 -621h432q78 0 148 16.5t134 51.5t108 99t57 151q11 69 -3.5 122.5t-46.5 87
t-81.5 55t-101.5 30t-112 8.5h-438zM879 1583h-129l229 291h147z" />
    <glyph glyph-name="racute" unicode="&#x155;" horiz-adv-x="729" 
d="M293 760q73 117 192 185t279 59l-19 -119q-151 16 -277.5 -67.5t-188.5 -219.5l-95 -598h-116l155 983h105zM561 1133h-129l230 290h147z" />
    <glyph glyph-name="Rcommaaccent" unicode="&#x156;" horiz-adv-x="1415" 
d="M227 0h-121l228 1434h547q78 0 148 -14t134.5 -46.5t108 -81t63 -124t4.5 -169.5q-16 -97 -61.5 -173t-112.5 -123.5t-142 -74.5t-161 -38l416 -590h-143l-410 580h-406zM434 1317l-96 -621h432q78 0 148 16.5t134 51.5t108 99t57 151q11 69 -3.5 122.5t-46.5 87
t-81.5 55t-101.5 30t-112 8.5h-438zM614 -459h-102l104 369h117z" />
    <glyph glyph-name="rcommaaccent" unicode="&#x157;" horiz-adv-x="729" 
d="M293 760q73 117 192 185t279 59l-19 -119q-151 16 -277.5 -67.5t-188.5 -219.5l-95 -598h-116l155 983h105zM53 -459h-102l104 369h117z" />
    <glyph glyph-name="Rcaron" unicode="&#x158;" horiz-adv-x="1415" 
d="M227 0h-121l228 1434h547q78 0 148 -14t134.5 -46.5t108 -81t63 -124t4.5 -169.5q-16 -97 -61.5 -173t-112.5 -123.5t-142 -74.5t-161 -38l416 -590h-143l-410 580h-406zM434 1317l-96 -621h432q78 0 148 16.5t134 51.5t108 99t57 151q11 69 -3.5 122.5t-46.5 87
t-81.5 55t-101.5 30t-112 8.5h-438zM1196 1845l-309 -280h-105l-221 280h129l154 -192l211 192h141z" />
    <glyph glyph-name="rcaron" unicode="&#x159;" horiz-adv-x="727" 
d="M291 760q73 117 192 185t279 59l-19 -119q-151 16 -278 -68t-189 -219l-94 -598h-116l155 983h105zM877 1395l-310 -281h-104l-221 281h129l153 -193l211 193h142z" />
    <glyph glyph-name="Sacute" unicode="&#x15a;" horiz-adv-x="1177" 
d="M193 1108q14 89 65.5 158t126.5 109.5t160 60.5t176 20q243 0 407 -108l-18 -117q-74 53 -176 81.5t-211 28.5q-78 0 -144.5 -13t-123 -40.5t-94 -76t-48.5 -113.5q-9 -56 8 -102.5t53.5 -78t87.5 -60.5t110 -50t121 -46.5t121 -50t109 -60.5t85 -78t50 -103t3 -135
q-15 -97 -67 -168.5t-129 -111.5t-164 -59t-185 -18q-138 0 -264.5 32t-220.5 91l18 117q193 -125 465 -125q386 0 424 248q11 66 -10 119t-65.5 88.5t-104.5 65.5t-128 56t-135.5 52.5t-127 61t-103 77.5t-63.5 106t-8 142zM750 1583h-129l229 291h147z" />
    <glyph glyph-name="sacute" unicode="&#x15b;" horiz-adv-x="946" 
d="M117 748q10 67 49 118.5t97.5 81t124 44t136.5 14.5q195 0 330 -86l-16 -107q-59 39 -144 63.5t-174 24.5q-70 0 -130.5 -16t-105.5 -54t-53 -94q-7 -51 24.5 -88t86.5 -59.5t122.5 -42t134.5 -43t120 -55t80.5 -86t15.5 -127.5q-15 -91 -80.5 -151t-152 -84t-191.5 -24
q-106 0 -203.5 28t-160.5 73l18 115q66 -51 160 -80t190 -29q122 0 207 39.5t98 124.5q7 45 -16 79t-66 54t-99 40t-115 35.5t-114.5 41t-97.5 55.5t-63 80.5t-12 114.5zM571 1133h-129l230 290h147z" />
    <glyph glyph-name="Scedilla" unicode="&#x15e;" horiz-adv-x="1177" 
d="M727 -303q-12 -82 -82 -126t-184 -44q-115 0 -213 43l16 94q81 -43 187 -43q81 0 126.5 23.5t51.5 62.5q7 55 -68 72.5t-168 -6.5l78 204q-264 13 -440 123l18 117q193 -125 465 -125q386 0 424 248q11 66 -10 119t-65.5 88.5t-104.5 65.5t-128 56t-135.5 52.5t-127 61
t-103 77.5t-63.5 106t-8 142q14 89 65.5 158t126.5 109.5t160 60.5t176 20q243 0 407 -108l-18 -117q-74 53 -176 81.5t-211 28.5q-78 0 -144.5 -13t-123 -40.5t-94 -76t-48.5 -113.5q-9 -56 8 -102.5t53.5 -78t87.5 -60.5t110 -50t121 -46.5t121 -50t109 -60.5t85 -78
t50 -103t3 -135q-13 -90 -59.5 -158.5t-115 -109.5t-147.5 -62.5t-168 -26.5l-53 -127q95 11 157 -30t52 -123z" />
    <glyph glyph-name="scedilla" unicode="&#x15f;" horiz-adv-x="946" 
d="M598 -303q-12 -82 -82 -126t-184 -44q-115 0 -213 43l16 94q81 -43 187 -43q81 0 126.5 23.5t51.5 62.5q7 55 -68 72.5t-168 -6.5l78 204q-92 6 -175 33t-140 68l18 115q66 -51 160 -80t190 -29q122 0 207 39.5t98 124.5q7 45 -16 79t-66 54t-99 40t-115 35.5t-114.5 41
t-97.5 55.5t-63 80.5t-12 114.5q10 67 49 118.5t97.5 81t124 44t136.5 14.5q195 0 330 -86l-16 -107q-59 39 -144 63.5t-174 24.5q-70 0 -130.5 -16t-105.5 -54t-53 -94q-7 -51 24.5 -88t86.5 -59.5t122.5 -42t134.5 -43t120 -55t80.5 -86t15.5 -127.5q-13 -83 -69.5 -141.5
t-133 -85.5t-170.5 -32l-53 -127q95 11 157 -30t52 -123z" />
    <glyph glyph-name="Scaron" unicode="&#x160;" horiz-adv-x="1177" 
d="M193 1108q14 89 65.5 158t126.5 109.5t160 60.5t176 20q243 0 407 -108l-18 -117q-74 53 -176 81.5t-211 28.5q-78 0 -144.5 -13t-123 -40.5t-94 -76t-48.5 -113.5q-9 -56 8 -102.5t53.5 -78t87.5 -60.5t110 -50t121 -46.5t121 -50t109 -60.5t85 -78t50 -103t3 -135
q-15 -97 -67 -168.5t-129 -111.5t-164 -59t-185 -18q-138 0 -264.5 32t-220.5 91l18 117q193 -125 465 -125q386 0 424 248q11 66 -10 119t-65.5 88.5t-104.5 65.5t-128 56t-135.5 52.5t-127 61t-103 77.5t-63.5 106t-8 142zM1067 1845l-309 -280h-105l-221 280h129
l154 -192l211 192h141z" />
    <glyph glyph-name="scaron" unicode="&#x161;" horiz-adv-x="946" 
d="M117 748q10 67 49 118.5t97.5 81t124 44t136.5 14.5q195 0 330 -86l-16 -107q-59 39 -144 63.5t-174 24.5q-70 0 -130.5 -16t-105.5 -54t-53 -94q-7 -51 24.5 -88t86.5 -59.5t122.5 -42t134.5 -43t120 -55t80.5 -86t15.5 -127.5q-15 -91 -80.5 -151t-152 -84t-191.5 -24
q-106 0 -203.5 28t-160.5 73l18 115q66 -51 160 -80t190 -29q122 0 207 39.5t98 124.5q7 45 -16 79t-66 54t-99 40t-115 35.5t-114.5 41t-97.5 55.5t-63 80.5t-12 114.5zM889 1395l-309 -281h-105l-221 281h129l154 -193l211 193h141z" />
    <glyph glyph-name="Tcommaaccent" unicode="&#x162;" horiz-adv-x="1220" 
d="M158 1434h1169l-18 -117h-525l-209 -1317h-120l209 1317h-525zM444 -459h-102l104 369h117z" />
    <glyph glyph-name="tcommaaccent" unicode="&#x163;" horiz-adv-x="796" 
d="M322 1292l120 35l-55 -344h414l-17 -109h-413l-92 -575q-18 -115 29 -165t157 -50q117 0 227 55l-18 -112q-103 -50 -244 -50q-140 0 -216 81t-52 231l94 585h-184l16 109h184zM375 -459h-103l105 369h117z" />
    <glyph glyph-name="Tcaron" unicode="&#x164;" horiz-adv-x="1220" 
d="M158 1434h1169l-18 -117h-525l-209 -1317h-120l209 1317h-525zM1124 1845l-309 -280h-104l-222 280h129l154 -192l211 192h141z" />
    <glyph glyph-name="tcaron" unicode="&#x165;" horiz-adv-x="796" 
d="M676 1470h115l-107 -340h-100zM322 1292l120 35l-55 -344h414l-17 -109h-413l-92 -575q-18 -115 29 -165t157 -50q117 0 227 55l-18 -112q-103 -50 -244 -50q-140 0 -216 81t-52 231l94 585h-184l16 109h184z" />
    <glyph glyph-name="Tbar" unicode="&#x166;" horiz-adv-x="1243" 
d="M586 0h-121l106 670h-262l17 102h262l86 545h-524l18 117h1169l-18 -117h-524l-86 -545h262l-17 -102h-262z" />
    <glyph glyph-name="tbar" unicode="&#x167;" horiz-adv-x="796" 
d="M801 983l-17 -109h-413l-39 -243h332l-17 -103h-332l-36 -229q-18 -115 29 -165t157 -50q117 0 227 55l-18 -112q-103 -50 -244 -50q-140 0 -216 81t-52 231l39 239h-103l17 103h102l39 243h-184l16 109h184l50 309l120 35l-55 -344h414z" />
    <glyph glyph-name="Umacron" unicode="&#x16a;" horiz-adv-x="1542" 
d="M1370 1434h121l-145 -926q-23 -145 -84 -250.5t-151 -165.5t-194.5 -87.5t-228.5 -27.5q-100 0 -183.5 18t-155.5 57t-115.5 102t-63 153t1.5 209l145 918h121l-145 -922q-18 -114 3 -197t76.5 -131t133 -70t180.5 -22q471 0 541 428zM657 1735h574l-17 -107h-573z" />
    <glyph glyph-name="umacron" unicode="&#x16b;" horiz-adv-x="1193" 
d="M977 983h117l-156 -983h-104l30 182q-69 -84 -179 -144.5t-230 -60.5q-177 0 -273 112t-67 296l94 598h117l-95 -596q-24 -147 42.5 -225t197.5 -78q122 0 226 66t173 163zM408 1284h573l-16 -106h-574z" />
    <glyph glyph-name="Uring" unicode="&#x16e;" horiz-adv-x="1542" 
d="M1370 1434h121l-145 -926q-23 -145 -84 -250.5t-151 -165.5t-194.5 -87.5t-228.5 -27.5q-100 0 -183.5 18t-155.5 57t-115.5 102t-63 153t1.5 209l145 918h121l-145 -922q-18 -114 3 -197t76.5 -131t133 -70t180.5 -22q471 0 541 428zM1151 1731q-13 -87 -81.5 -141
t-151.5 -54q-87 0 -143 58.5t-42 150.5q14 86 83.5 139t152.5 53q87 0 141.5 -57.5t40.5 -148.5zM821 1737q-9 -52 21 -85.5t76 -33.5q54 0 96 31.5t51 87.5q7 52 -21.5 85t-74.5 33q-54 0 -96.5 -31.5t-51.5 -86.5z" />
    <glyph glyph-name="uring" unicode="&#x16f;" horiz-adv-x="1193" 
d="M977 983h117l-156 -983h-104l30 182q-69 -84 -179 -144.5t-230 -60.5q-177 0 -273 112t-67 296l94 598h117l-95 -596q-24 -147 42.5 -225t197.5 -78q122 0 226 66t173 163zM901 1280q-13 -87 -81.5 -141t-151.5 -54q-87 0 -143 58.5t-42 150.5q14 86 83.5 139.5
t152.5 53.5q87 0 142 -58t40 -149zM571 1286q-9 -52 21 -85.5t76 -33.5q54 0 96 31.5t51 87.5q7 52 -21.5 85.5t-74.5 33.5q-54 0 -96.5 -32t-51.5 -87z" />
    <glyph glyph-name="Uhungarumlaut" unicode="&#x170;" horiz-adv-x="1542" 
d="M1370 1434h121l-145 -926q-23 -145 -84 -250.5t-151 -165.5t-194.5 -87.5t-228.5 -27.5q-100 0 -183.5 18t-155.5 57t-115.5 102t-63 153t1.5 209l145 918h121l-145 -922q-18 -114 3 -197t76.5 -131t133 -70t180.5 -22q471 0 541 428zM1137 1595h-127l194 297h133z
M823 1595h-127l195 297h133z" />
    <glyph glyph-name="uhungarumlaut" unicode="&#x171;" horiz-adv-x="1193" 
d="M977 983h117l-156 -983h-104l30 182q-69 -84 -179 -144.5t-230 -60.5q-177 0 -273 112t-67 296l94 598h117l-95 -596q-24 -147 42.5 -225t197.5 -78q122 0 226 66t173 163zM887 1145h-127l194 297h133zM573 1145h-127l195 297h133z" />
    <glyph glyph-name="Uogonek" unicode="&#x172;" horiz-adv-x="1542" 
d="M1227 520l143 914h121l-145 -926q-42 -273 -230 -412q-152 -111 -228.5 -209t-86.5 -172q-8 -42 16.5 -68.5t73.5 -25.5q75 0 147 43l-16 -98q-74 -39 -166 -39q-93 0 -139.5 50t-34.5 128q23 137 197 295q-82 -23 -191 -23q-100 0 -183.5 18t-155.5 57t-115.5 102
t-63 153t1.5 209l145 918h121l-145 -922q-18 -114 3 -197t76.5 -131t133 -70t180.5 -22q471 0 541 428z" />
    <glyph glyph-name="uogonek" unicode="&#x173;" horiz-adv-x="1193" 
d="M1094 983l-156 -983q-102 -64 -172.5 -142t-79.5 -143q-8 -43 14 -68.5t68 -25.5q54 0 111 23l-17 -99q-52 -18 -123 -18q-89 0 -133.5 50t-32.5 130q22 149 267 332l24 143q-69 -84 -179 -144.5t-230 -60.5q-177 0 -273 112t-67 296l94 598h117l-95 -596
q-24 -147 42.5 -225t197.5 -78q122 0 226 66t173 163l107 670h117z" />
    <glyph glyph-name="Wcircumflex" unicode="&#x174;" horiz-adv-x="2041" 
d="M2005 1434h129l-674 -1434h-137l-199 1208l-583 -1208h-144l-227 1434h123l201 -1278l612 1271h100l207 -1255zM1161 1866h105l221 -281h-127l-156 193l-215 -193h-137z" />
    <glyph glyph-name="wcircumflex" unicode="&#x175;" horiz-adv-x="1628" 
d="M1520 983h125l-508 -983h-121l-162 817l-428 -817h-125l-197 983h117l166 -836l434 830h105l166 -827zM885 1415h104l221 -280h-127l-155 192l-215 -192h-138z" />
    <glyph glyph-name="Ycircumflex" unicode="&#x176;" horiz-adv-x="1316" 
d="M625 0h-123l90 559l-424 875h127l371 -758l612 758h139l-702 -875zM788 1866h105l221 -281h-127l-156 193l-215 -193h-137z" />
    <glyph glyph-name="ycircumflex" unicode="&#x177;" horiz-adv-x="1095" 
d="M487 119l506 864h127l-680 -1147q-99 -166 -194.5 -237.5t-200.5 -71.5q-60 0 -106 14l14 99q40 -11 82 -11q87 0 160.5 61.5t150.5 192.5l70 117l-328 983h117zM592 1415h104l222 -280h-127l-156 192l-215 -192h-137z" />
    <glyph glyph-name="Ydieresis" unicode="&#x178;" horiz-adv-x="1316" 
d="M625 0h-123l90 559l-424 875h127l371 -758l612 758h139l-702 -875zM1104 1706q-4 -32 -31 -55t-59 -23q-38 0 -61 27.5t-17 64.5q6 31 33 54.5t59 23.5q36 0 59 -28t17 -64zM692 1706q-4 -32 -31 -55t-59 -23q-38 0 -61 27.5t-17 64.5q6 31 33 54.5t59 23.5q36 0 59 -28
t17 -64z" />
    <glyph glyph-name="Zacute" unicode="&#x179;" horiz-adv-x="1183" 
d="M1026 0h-1059l17 109l1073 1208h-852l18 117h1006l-17 -109l-1075 -1208h910zM803 1583h-129l229 291h148z" />
    <glyph glyph-name="zacute" unicode="&#x17a;" horiz-adv-x="935" 
d="M158 983h745l-18 -102l-750 -779h653l-16 -102h-797l17 102l751 779h-602zM592 1133h-129l229 290h148z" />
    <glyph glyph-name="Zdotaccent" unicode="&#x17b;" horiz-adv-x="1183" 
d="M1026 0h-1059l17 109l1073 1208h-852l18 117h1006l-17 -109l-1075 -1208h910zM866 1677q-6 -41 -34.5 -63.5t-67.5 -22.5q-42 0 -67.5 28t-18.5 75q7 40 36 62t66 22q44 0 69.5 -27.5t16.5 -73.5z" />
    <glyph glyph-name="zdotaccent" unicode="&#x17c;" horiz-adv-x="935" 
d="M158 983h745l-18 -102l-750 -779h653l-16 -102h-797l17 102l751 779h-602zM655 1227q-6 -41 -34.5 -63.5t-67.5 -22.5q-42 0 -67.5 27.5t-18.5 74.5q7 40 36 62t66 22q44 0 69.5 -27t16.5 -73z" />
    <glyph glyph-name="Zcaron" unicode="&#x17d;" horiz-adv-x="1183" 
d="M1026 0h-1059l17 109l1073 1208h-852l18 117h1006l-17 -109l-1075 -1208h910zM1120 1845l-309 -280h-104l-222 280h129l154 -192l211 192h141z" />
    <glyph glyph-name="zcaron" unicode="&#x17e;" horiz-adv-x="935" 
d="M158 983h745l-18 -102l-750 -779h653l-16 -102h-797l17 102l751 779h-602zM909 1395l-309 -281h-104l-222 281h129l154 -193l211 193h141z" />
    <glyph glyph-name="Scommaaccent" unicode="&#x218;" horiz-adv-x="1177" 
d="M193 1108q14 89 65.5 158t126.5 109.5t160 60.5t176 20q243 0 407 -108l-18 -117q-74 53 -176 81.5t-211 28.5q-78 0 -144.5 -13t-123 -40.5t-94 -76t-48.5 -113.5q-9 -56 8 -102.5t53.5 -78t87.5 -60.5t110 -50t121 -46.5t121 -50t109 -60.5t85 -78t50 -103t3 -135
q-15 -97 -67 -168.5t-129 -111.5t-164 -59t-185 -18q-138 0 -264.5 32t-220.5 91l18 117q193 -125 465 -125q386 0 424 248q11 66 -10 119t-65.5 88.5t-104.5 65.5t-128 56t-135.5 52.5t-127 61t-103 77.5t-63.5 106t-8 142zM489 -459h-102l105 369h116z" />
    <glyph glyph-name="scommaaccent" unicode="&#x219;" horiz-adv-x="946" 
d="M117 748q10 67 49 118.5t97.5 81t124 44t136.5 14.5q195 0 330 -86l-16 -107q-59 39 -144 63.5t-174 24.5q-70 0 -130.5 -16t-105.5 -54t-53 -94q-7 -51 24.5 -88t86.5 -59.5t122.5 -42t134.5 -43t120 -55t80.5 -86t15.5 -127.5q-15 -91 -80.5 -151t-152 -84t-191.5 -24
q-106 0 -203.5 28t-160.5 73l18 115q66 -51 160 -80t190 -29q122 0 207 39.5t98 124.5q7 45 -16 79t-66 54t-99 40t-115 35.5t-114.5 41t-97.5 55.5t-63 80.5t-12 114.5zM360 -459h-102l104 369h117z" />
    <glyph glyph-name="uni021A" unicode="&#x21a;" horiz-adv-x="1220" 
d="M158 1434h1169l-18 -117h-525l-209 -1317h-120l209 1317h-525zM446 -459h-102l105 369h116z" />
    <glyph glyph-name="uni021B" unicode="&#x21b;" horiz-adv-x="796" 
d="M322 1292l120 35l-55 -344h414l-17 -109h-413l-92 -575q-18 -115 29 -165t157 -50q117 0 227 55l-18 -112q-103 -50 -244 -50q-140 0 -216 81t-52 231l94 585h-184l16 109h184zM375 -459h-103l105 369h117z" />
    <glyph glyph-name="circumflex" unicode="&#x2c6;" horiz-adv-x="612" 
d="M504 1866h104l221 -281h-127l-155 193l-215 -193h-137z" />
    <glyph glyph-name="caron" unicode="&#x2c7;" horiz-adv-x="612" 
d="M874 1845l-309 -280h-104l-221 280h129l153 -192l211 192h141z" />
    <glyph glyph-name="breve" unicode="&#x2d8;" horiz-adv-x="673" 
d="M834 1677q-128 -84 -283 -84q-165 0 -264 84l18 117q60 -49 120 -69.5t136 -20.5q154 0 289 90z" />
    <glyph glyph-name="dotaccent" unicode="&#x2d9;" horiz-adv-x="206" 
d="M422 1677q-6 -41 -35 -63.5t-68 -22.5q-42 0 -67.5 28t-18.5 75q7 40 36.5 62t66.5 22q44 0 69.5 -27.5t16.5 -73.5z" />
    <glyph glyph-name="ring" unicode="&#x2da;" horiz-adv-x="436" 
d="M659 1731q-13 -87 -81.5 -141t-151.5 -54q-87 0 -142.5 58.5t-41.5 150.5q14 86 83 139t152 53q87 0 141.5 -57.5t40.5 -148.5zM330 1737q-9 -52 20.5 -85.5t75.5 -33.5q54 0 96 31.5t51 87.5q7 52 -21.5 85t-74.5 33q-54 0 -96 -31.5t-51 -86.5z" />
    <glyph glyph-name="ogonek" unicode="&#x2db;" horiz-adv-x="430" 
d="M174 6l137 -6q-106 -67 -177.5 -142t-80.5 -139q-8 -44 15 -70t73 -26q78 0 148 39l-17 -102q-67 -33 -161 -33t-138 49.5t-32 128.5q11 73 72 152t161 149z" />
    <glyph glyph-name="tilde" unicode="&#x2dc;" horiz-adv-x="681" 
d="M897 1774q-1 -91 -49.5 -140t-120.5 -49q-51 0 -110.5 24.5t-111.5 49t-87 24.5q-39 0 -61.5 -24t-22.5 -64h-101q1 89 50 140t118 51q51 0 111 -24.5t113 -49t88 -24.5q84 0 84 86h100z" />
    <glyph glyph-name="hungarumlaut" unicode="&#x2dd;" horiz-adv-x="702" 
d="M705 1595h-127l194 297h133zM391 1595h-127l195 297h133z" />
    <glyph glyph-name="uni0326" unicode="&#x326;" horiz-adv-x="245" 
d="M31 -459h-103l105 369h117z" />
    <glyph glyph-name="uni0401" unicode="&#x401;" horiz-adv-x="1267" 
d="M1137 1706q-4 -32 -31 -55t-59 -23q-38 0 -61 27.5t-17 64.5q6 31 33 54.5t59 23.5q36 0 59 -28t17 -64zM725 1706q-4 -32 -31 -55t-59 -23q-38 0 -61 27.5t-17 64.5q6 31 33 54.5t59 23.5q36 0 59 -28t17 -64zM334 1434h952l-18 -117h-832l-84 -537h768l-16 -116h-770
l-86 -547h842l-19 -117h-965z" />
    <glyph glyph-name="uni0410" unicode="&#x410;" horiz-adv-x="1462" 
d="M1343 0h-126l-109 385h-811l-229 -385h-138l865 1434h139zM823 1262l-458 -762h714l-217 764q-8 31 -10 49q-7 -16 -29 -51z" />
    <glyph glyph-name="uni0411" unicode="&#x411;" horiz-adv-x="1357" 
d="M360 836h394q87 0 160.5 -10t145 -39t117.5 -75t67 -123t5 -179q-15 -100 -59.5 -174.5t-103.5 -118.5t-139.5 -71t-156.5 -36.5t-167 -9.5h-517l228 1434h971l-21 -117h-848zM246 117h395q73 0 130.5 6t121 25t108.5 51.5t80 89.5t47 135q12 76 -4.5 131.5t-50 86.5
t-90.5 49t-110 23t-125 5h-406z" />
    <glyph glyph-name="uni0412" unicode="&#x412;" horiz-adv-x="1404" 
d="M334 1434h555q136 0 238 -40t155.5 -125.5t34.5 -205.5q-22 -131 -106.5 -208t-200.5 -103q42 -10 79.5 -25.5t76.5 -45.5t64.5 -69t37 -98.5t0.5 -130.5q-13 -80 -46.5 -143t-82.5 -103.5t-104.5 -68.5t-122 -42.5t-123.5 -20t-119 -5.5h-564zM1147 410q9 60 -1.5 107
t-38 76.5t-61 49t-78 29t-80 13t-75.5 3.5h-477l-90 -571h413q47 0 85 2t86.5 9.5t87 19.5t78.5 34t69 52.5t51 75t31 100.5zM1194 1065q21 134 -67 193t-263 59h-430l-80 -514h484q137 0 235.5 64.5t120.5 197.5z" />
    <glyph glyph-name="uni0413" unicode="&#x413;" horiz-adv-x="1173" 
d="M227 0h-121l228 1434h934l-19 -117h-813z" />
    <glyph glyph-name="uni0414" unicode="&#x414;" horiz-adv-x="1558" 
d="M8 -348h-117l74 465h168q168 243 284 594t171 723h858l-209 -1317h178l-74 -465h-114l53 348h-1217zM692 1317q-67 -349 -174.5 -668.5t-251.5 -531.5h852l189 1200h-615z" />
    <glyph glyph-name="uni0415" unicode="&#x415;" horiz-adv-x="1267" 
d="M334 1434h952l-18 -117h-832l-84 -537h768l-16 -116h-770l-86 -547h842l-19 -117h-965z" />
    <glyph glyph-name="uni0416" unicode="&#x416;" horiz-adv-x="1904" 
d="M1837 1434h137l-540 -699l360 -735h-127l-332 676h-305l-106 -676h-123l106 676h-291l-550 -676h-144l602 735l-319 699h129l289 -643h305l100 643h123l-102 -643h292z" />
    <glyph glyph-name="uni0417" unicode="&#x417;" horiz-adv-x="1239" 
d="M1104 379q-14 -87 -57 -157t-103.5 -115t-138 -75t-155.5 -42.5t-161 -12.5q-277 0 -491 91l18 118q195 -94 471 -94q85 0 162.5 16t150 50t122 97t63.5 148q10 66 -7.5 116.5t-54 82t-91 51.5t-111.5 27.5t-123 7.5h-285l19 115h266q176 0 295.5 73t140.5 201
q10 67 -14 118.5t-74 83t-117.5 47t-148.5 15.5q-132 0 -243.5 -23.5t-231.5 -78.5l18 119q212 98 473 98q105 0 194 -25t153.5 -71.5t95 -120t16.5 -164.5q-20 -128 -111.5 -213t-226.5 -114q63 -10 117 -35t99 -67.5t65 -111t6 -155.5z" />
    <glyph glyph-name="uni0418" unicode="&#x418;" horiz-adv-x="1572" 
d="M1505 1434l-227 -1434h-121l178 1120q5 48 21 117l-1131 -1237h-119l228 1434h121l-179 -1123q-10 -66 -20 -114l1130 1237h119z" />
    <glyph glyph-name="uni0419" unicode="&#x419;" horiz-adv-x="1572" 
d="M1505 1434l-227 -1434h-121l178 1120q5 48 21 117l-1131 -1237h-119l228 1434h121l-179 -1123q-10 -66 -20 -114l1130 1237h119zM1249 1677q-128 -84 -282 -84q-166 0 -265 84l19 117q60 -49 120 -69.5t136 -20.5q154 0 289 90z" />
    <glyph glyph-name="uni041A" unicode="&#x41a;" horiz-adv-x="1347" 
d="M1288 1434h139l-608 -703l428 -731h-131l-399 676h-383l-107 -676h-121l228 1434h121l-101 -643h375z" />
    <glyph glyph-name="uni041B" unicode="&#x41b;" horiz-adv-x="1519" 
d="M606 1434h846l-227 -1434h-121l207 1317h-609q-33 -147 -55 -239t-55 -221.5t-58.5 -211t-61.5 -183.5t-68.5 -165t-74.5 -130t-85.5 -103.5t-95.5 -60t-109 -23.5q-75 0 -129 22l18 119q58 -21 99 -21q44 0 85 23.5t77 62t71.5 103t65 132t61.5 165t57.5 185t55.5 208.5
t53 220.5t53 234.5z" />
    <glyph glyph-name="uni041C" unicode="&#x41c;" horiz-adv-x="1849" 
d="M1659 1434h123l-228 -1434h-120l192 1214l-694 -849h-80l-430 849l-195 -1214h-121l228 1434h106l465 -922z" />
    <glyph glyph-name="uni041D" unicode="&#x41d;" horiz-adv-x="1572" 
d="M1384 1434h121l-227 -1434h-121l105 662h-930l-105 -662h-121l228 1434h121l-103 -656h928z" />
    <glyph glyph-name="uni041E" unicode="&#x41e;" horiz-adv-x="1683" 
d="M1606 709q-22 -140 -88 -268t-170.5 -233t-259.5 -168t-338 -63q-87 0 -165.5 17t-141 48t-116.5 74.5t-92 96t-67.5 113.5t-42.5 126.5t-16.5 134.5t8.5 138q18 110 64 215t122.5 198.5t173.5 164t225.5 112t270.5 41.5q87 0 166 -17t142 -48t117 -74t92 -96t67 -113.5
t42 -126t16.5 -134.5t-9.5 -138zM240 717q-8 -64 -8 -127.5t17.5 -125.5t44 -117t71.5 -102t100.5 -81t130.5 -53t162 -19q122 0 231.5 35t192 95t147 140t103 170t53.5 185q8 64 8 127.5t-17.5 125t-44 117t-71.5 102t-100.5 80.5t-130.5 53t-162 19q-152 0 -283 -53
t-220.5 -142t-147 -199t-76.5 -230z" />
    <glyph glyph-name="uni041F" unicode="&#x41f;" horiz-adv-x="1542" 
d="M227 0h-121l228 1434h1141l-228 -1434h-121l209 1317h-899z" />
    <glyph glyph-name="uni0420" unicode="&#x420;" horiz-adv-x="1347" 
d="M334 1434h479q94 0 174.5 -13.5t153 -47t120.5 -85t69 -133t5 -184.5q-71 -449 -671 -449h-353l-84 -522h-121zM1212 985q12 78 -4.5 137.5t-53 95.5t-94 59t-118.5 31.5t-135 8.5h-373l-106 -678h352q83 0 153 9.5t135.5 34t114 63t82.5 99.5t47 140z" />
    <glyph glyph-name="uni0421" unicode="&#x421;" horiz-adv-x="1335" 
d="M123 745q22 136 83.5 253.5t147.5 200t190.5 141.5t214.5 87.5t218 28.5q222 0 379 -98l-19 -117q-136 100 -348 100q-96 0 -192 -23.5t-187.5 -73.5t-166 -120.5t-128 -172.5t-73.5 -222q-20 -127 1 -234t73 -180t128 -124.5t162 -75t178 -23.5q222 0 398 107l-21 -131
q-178 -91 -407 -91q-106 0 -207 30.5t-189.5 92t-149 153.5t-85.5 215t0 277z" />
    <glyph glyph-name="uni0422" unicode="&#x422;" horiz-adv-x="1220" 
d="M158 1434h1169l-18 -117h-525l-209 -1317h-120l209 1317h-525z" />
    <glyph glyph-name="uni0423" unicode="&#x423;" horiz-adv-x="1277" 
d="M700 324q-66 -103 -130.5 -173t-126 -107t-116.5 -52t-116 -15q-93 0 -178 29l18 115q76 -29 146 -29q98 0 181 47.5t177 177.5l35 50l-445 1067h129l392 -957l608 957h137z" />
    <glyph glyph-name="uni0424" unicode="&#x424;" horiz-adv-x="1755" 
d="M831 -74h-120l28 189q-155 3 -284.5 46.5t-219.5 121t-131.5 194t-19.5 256.5q29 185 144 316.5t294 198.5t410 71l31 188h120l-30 -188q119 -2 226 -30t193.5 -81.5t146.5 -126t85 -171t8 -210.5q-29 -185 -143.5 -316.5t-294 -198t-412.5 -70.5zM207 725
q-34 -225 112 -358t439 -142l155 983q-305 -9 -488 -132.5t-218 -350.5zM1034 1208l-155 -983q306 9 489.5 133.5t220.5 350.5q35 223 -116 356.5t-439 142.5z" />
    <glyph glyph-name="uni0425" unicode="&#x425;" horiz-adv-x="1286" 
d="M68 0h-154l682 743l-416 691h135l363 -603l553 603h153l-647 -705l439 -729h-134l-387 639z" />
    <glyph glyph-name="uni0426" unicode="&#x426;" horiz-adv-x="1591" 
d="M1372 -348h-115l56 348h-1207l228 1434h121l-207 -1317h901l207 1317h123l-209 -1317h176z" />
    <glyph glyph-name="uni0427" unicode="&#x427;" horiz-adv-x="1386" 
d="M1094 0h-123l92 578q-239 -77 -449 -74q-250 3 -372.5 127.5t-85.5 361.5l69 441h121l-72 -455q-30 -185 69.5 -270.5t305.5 -87.5q196 -3 432 71l117 742h123z" />
    <glyph glyph-name="uni0428" unicode="&#x428;" horiz-adv-x="2177" 
d="M1882 0h-1776l228 1434h121l-207 -1317h704l209 1317h121l-207 -1317h705l209 1317h120z" />
    <glyph glyph-name="uni0429" unicode="&#x429;" horiz-adv-x="2222" 
d="M2005 -348h-115l56 348h-1840l228 1434h121l-207 -1317h704l209 1317h121l-207 -1317h705l209 1317h120l-206 -1317h176z" />
    <glyph glyph-name="uni042A" unicode="&#x42a;" horiz-adv-x="1540" 
d="M772 0h-475l209 1317h-373l19 117h495l-84 -525h355q97 0 179 -13.5t155 -46.5t120 -84t67.5 -131.5t4.5 -184.5q-20 -127 -80 -217t-153 -139.5t-199.5 -71t-239.5 -21.5zM545 793l-107 -676h353q106 0 190.5 16t158 53.5t120.5 107.5t63 169q13 77 -3 136t-52.5 95.5
t-94.5 59t-121.5 31t-142.5 8.5h-364z" />
    <glyph glyph-name="uni042B" unicode="&#x42b;" horiz-adv-x="1761" 
d="M580 0h-474l228 1434h121l-82 -525h354q97 0 179 -13.5t155 -46.5t120 -84t67 -131.5t3 -184.5q-15 -102 -58 -180.5t-104 -129t-143.5 -82t-171 -44.5t-194.5 -13zM352 793l-106 -676h352q106 0 190.5 16t158 53.5t120.5 107.5t63 169q13 77 -3 136t-52.5 95.5t-94 59
t-121 31t-142.5 8.5h-365zM1466 0h-120l227 1434h121z" />
    <glyph glyph-name="uni042C" unicode="&#x42c;" horiz-adv-x="1347" 
d="M580 0h-474l228 1434h121l-82 -525h354q97 0 179 -13.5t155 -46.5t120 -84t67 -131.5t3 -184.5q-68 -449 -671 -449zM352 793l-106 -676h352q106 0 190.5 16t158 53.5t120.5 107.5t63 169q13 77 -3 136t-52.5 95.5t-94 59t-121 31t-142.5 8.5h-365z" />
    <glyph glyph-name="uni042D" unicode="&#x42d;" horiz-adv-x="1339" 
d="M215 1364q182 92 410 92q106 0 206.5 -29.5t188 -92t148 -150t85.5 -214t2 -274.5q-23 -146 -81.5 -267t-139.5 -203.5t-182.5 -139.5t-211 -83t-226.5 -26q-110 0 -218 26.5t-186 72.5l19 114q74 -46 173 -72t201 -26q101 0 194.5 20.5t179.5 65.5t155 111t120 162
t74 213l-786 -5l18 115l785 4q13 139 -30 250t-123.5 177.5t-180 101t-207.5 34.5q-218 0 -407 -100z" />
    <glyph glyph-name="uni042E" unicode="&#x42e;" horiz-adv-x="2222" 
d="M2144 709q-22 -140 -88 -268t-170.5 -233t-259.5 -168t-338 -63q-130 0 -239.5 38t-185.5 103t-127.5 152t-73 186t-13.5 203h-317l-105 -659h-121l228 1434h121l-105 -660h316q24 105 72.5 203t124.5 185.5t171 152.5t218 103t259 38q87 0 166 -17t142 -48t117 -74
t92 -96t67 -113.5t42 -126t16.5 -134.5t-9.5 -138zM778 717q-8 -64 -8 -127.5t17.5 -125.5t44 -117t71.5 -102t100.5 -81t130.5 -53t162 -19q122 0 231.5 35t192 95t147 140t103 170t53.5 185q8 64 8 127.5t-17.5 125t-44 117t-71.5 102t-100.5 80.5t-130.5 53t-162 19
q-152 0 -283 -53t-220.5 -142t-147 -199t-76.5 -230z" />
    <glyph glyph-name="uni042F" unicode="&#x42f;" horiz-adv-x="1402" 
d="M113 0h-146l535 557q-170 40 -253.5 151.5t-55.5 284.5q14 93 53.5 167.5t97 125t133.5 84.5t161.5 49t182.5 15h514l-227 -1434h-123l86 539h-383q-39 0 -57 2zM315 979q-13 -87 9 -150.5t75.5 -101t126.5 -55t168 -17.5h396l104 662h-391q-195 0 -327.5 -82.5
t-160.5 -255.5z" />
    <glyph glyph-name="uni0430" unicode="&#x430;" horiz-adv-x="1265" 
d="M938 203q-80 -102 -195.5 -164t-253.5 -62q-140 0 -243 67t-148.5 187.5t-21.5 270.5q35 223 195.5 363.5t367.5 140.5q139 0 238 -64.5t151 -165.5l33 207h104l-155 -983h-105zM188 494q-29 -183 63.5 -296.5t254.5 -113.5q141 0 260.5 79t183.5 195l43 271
q-24 114 -118.5 192t-227.5 78q-167 0 -298 -109.5t-161 -295.5z" />
    <glyph glyph-name="uni0431" unicode="&#x431;" horiz-adv-x="1210" 
d="M1094 451q-34 -221 -181.5 -347.5t-365.5 -126.5q-113 0 -204 40t-151.5 114t-84 187t-1.5 251q35 229 145 394t265 251q102 56 208 92t174.5 49t139 38t119.5 65l-18 -127q-45 -33 -110 -54.5t-126.5 -33t-152 -42t-175.5 -77.5q-225 -125 -327 -403q71 101 190.5 161
t243.5 60q91 0 173.5 -36t141.5 -99t86.5 -156.5t10.5 -199.5zM211 512q-28 -192 66 -308t274 -116q177 0 290 103t138 272q26 157 -68.5 264t-251.5 107q-156 0 -281.5 -90t-166.5 -232z" />
    <glyph glyph-name="uni0432" unicode="&#x432;" horiz-adv-x="1118" 
d="M596 0h-528l155 983h504q143 0 219 -71.5t55 -196.5q-12 -78 -60.5 -135t-123.5 -82q75 -19 118.5 -81t27.5 -159q-19 -124 -113 -191t-254 -67zM254 446l-55 -344h391q233 0 260 179q7 48 -4 81.5t-38 51t-60 25t-76 7.5h-418zM324 881l-54 -332h394q90 0 149 43t72 127
q11 84 -37 123t-143 39h-381z" />
    <glyph glyph-name="uni0433" unicode="&#x433;" horiz-adv-x="903" 
d="M184 0h-116l155 983h707l-17 -109h-591z" />
    <glyph glyph-name="uni0434" unicode="&#x434;" 
d="M31 -272h-113l59 376h134q124 183 198.5 388t118.5 491h698l-139 -879h143l-61 -376h-113l43 272h-925zM520 874q-42 -243 -111 -422t-176 -348h639l121 770h-473z" />
    <glyph glyph-name="uni0435" unicode="&#x435;" horiz-adv-x="1116" 
d="M74 496q18 122 74 221t133.5 161t168 95t183.5 33q106 0 187 -34.5t127 -92t68.5 -131.5t17 -154.5t-33.5 -159.5h-817q-9 -91 20.5 -160.5t86.5 -109.5t126 -60t146 -20q187 0 344 82l-18 -117q-144 -72 -344 -72q-79 0 -153 19.5t-139 61.5t-110.5 101.5t-64.5 146.5
t-2 190zM913 537q10 37 11.5 77t-6.5 81t-29.5 77.5t-54 65t-84.5 45t-117 16.5q-154 0 -278 -97.5t-158 -264.5h716z" />
    <glyph glyph-name="uni0436" unicode="&#x436;" horiz-adv-x="1503" 
d="M59 0h-137l498 504l-285 479h121l262 -434h170l68 434h116l-69 -434h170l395 434h131l-442 -487l336 -496h-129l-303 442h-175l-69 -442h-117l70 442h-168z" />
    <glyph glyph-name="uni0437" unicode="&#x437;" horiz-adv-x="980" 
d="M829 254q-23 -138 -146.5 -207.5t-330.5 -69.5q-204 -3 -358 74l18 111q60 -35 149.5 -56.5t182.5 -21.5q340 0 373 197q6 37 -3.5 66.5t-29.5 47.5t-49 30t-58.5 16.5t-62.5 4.5h-246l19 107h231q102 0 169 43t79 123q13 88 -68.5 134t-208.5 46q-186 0 -358 -76l19 113
q176 75 358 72q186 -2 290 -80t83 -209q-12 -87 -70.5 -143.5t-153.5 -73.5q84 -22 135 -88t37 -160z" />
    <glyph glyph-name="uni0438" unicode="&#x438;" horiz-adv-x="1206" 
d="M170 0h-102l155 983h117l-125 -790l789 790h102l-156 -983h-114l122 788z" />
    <glyph glyph-name="uni0439" unicode="&#x439;" horiz-adv-x="1206" 
d="M981 1227q-128 -84 -283 -84q-165 0 -264 84l17 108q60 -49 120 -69.5t136 -20.5q152 0 290 90zM170 0h-102l155 983h117l-125 -790l789 790h102l-156 -983h-114l122 788z" />
    <glyph glyph-name="uni043A" unicode="&#x43a;" horiz-adv-x="1046" 
d="M184 0h-116l155 983h117l-66 -414h234l401 414h140l-463 -477l352 -506h-131l-324 463h-227z" />
    <glyph glyph-name="uni043B" unicode="&#x43b;" horiz-adv-x="1210" 
d="M512 874q-26 -126 -48.5 -221.5t-50 -192t-54.5 -165.5t-61 -130.5t-70.5 -98.5t-81.5 -58.5t-97 -21.5q-69 0 -119 20l17 96q26 -16 84 -16q67 0 122 58.5t101.5 182.5t83.5 276t80 380h692l-156 -983h-116l139 874h-465z" />
    <glyph glyph-name="uni043C" unicode="&#x43c;" horiz-adv-x="1382" 
d="M184 0h-116l155 983h117l315 -582l488 582h139l-156 -983h-116l129 813l-445 -528h-96l-285 526z" />
    <glyph glyph-name="uni043D" unicode="&#x43d;" horiz-adv-x="1193" 
d="M184 0h-116l155 983h117l-70 -438h639l70 438h115l-156 -983h-115l68 438h-639z" />
    <glyph glyph-name="uni043E" unicode="&#x43e;" horiz-adv-x="1214" 
d="M1106 481q-18 -120 -76.5 -217.5t-141 -159t-179.5 -94.5t-197 -33q-97 0 -183.5 35.5t-150 100t-92.5 166t-10 223.5q18 120 77 217.5t141.5 159t179 94.5t196.5 33q98 0 184.5 -35.5t150 -100.5t92 -166t9.5 -223zM188 487q-28 -182 69.5 -290.5t262.5 -108.5
q174 0 308.5 109.5t164.5 298.5q28 183 -69 291t-262 108q-173 0 -308.5 -110t-165.5 -298z" />
    <glyph glyph-name="uni043F" unicode="&#x43f;" horiz-adv-x="1193" 
d="M184 0h-116l155 983h871l-156 -983h-115l138 874h-639z" />
    <glyph glyph-name="uni0440" unicode="&#x440;" horiz-adv-x="1267" 
d="M295 774q80 106 196.5 169t253.5 63t239.5 -67t150 -187.5t24.5 -270.5q-35 -224 -194.5 -364t-370.5 -140q-141 0 -237 65t-140 169l-104 -662h-117l227 1434h105zM1044 489q30 182 -63 296t-254 114q-140 0 -259.5 -79.5t-184.5 -198.5l-43 -267q28 -116 120.5 -193
t227.5 -77q170 0 298 108.5t158 296.5z" />
    <glyph glyph-name="uni0441" unicode="&#x441;" horiz-adv-x="1019" 
d="M76 504q16 104 60.5 189.5t104.5 142.5t135.5 96t152 56.5t153.5 17.5q171 0 293 -86l-19 -109q-104 88 -266 88q-65 0 -128.5 -14t-125 -45.5t-111 -77.5t-85.5 -115.5t-50 -154.5q-16 -101 5.5 -181t73 -128.5t122 -73.5t156.5 -25q161 0 317 86l-18 -121
q-147 -72 -324 -72q-102 0 -190 33t-153 96t-94 166t-9 232z" />
    <glyph glyph-name="uni0442" unicode="&#x442;" horiz-adv-x="942" 
d="M434 0h-115l138 874h-381l16 109h879l-17 -109h-381z" />
    <glyph glyph-name="uni0443" unicode="&#x443;" horiz-adv-x="1095" 
d="M487 119l506 864h127l-680 -1147q-99 -166 -194.5 -237.5t-200.5 -71.5q-60 0 -106 14l14 99q40 -11 82 -11q87 0 160.5 61.5t150.5 192.5l70 117l-328 983h117z" />
    <glyph glyph-name="uni0444" unicode="&#x444;" horiz-adv-x="1458" 
d="M621 -451h-115l67 428q-156 3 -277 66.5t-183.5 183.5t-38.5 275q25 154 120 268.5t235 173.5t308 62l68 428h115l-68 -428q116 -2 215.5 -40t169.5 -104.5t102 -165.5t13 -215q-36 -230 -221 -364.5t-443 -139.5zM188 494q-29 -187 82.5 -298t321.5 -116l131 823
q-211 -5 -357.5 -112t-177.5 -297zM836 903l-131 -823q212 5 358 112t176 297q29 187 -82 298t-321 116z" />
    <glyph glyph-name="uni0445" unicode="&#x445;" horiz-adv-x="995" 
d="M72 0h-138l484 506l-303 477h131l248 -397l378 397h138l-461 -481l323 -502h-131l-266 422z" />
    <glyph glyph-name="uni0446" unicode="&#x446;" horiz-adv-x="1224" 
d="M1020 -272h-115l43 272h-880l155 983h117l-139 -874h618l139 874h115l-137 -874h143z" />
    <glyph glyph-name="uni0447" unicode="&#x447;" horiz-adv-x="1062" 
d="M807 0h-115l56 354q-143 -53 -316 -53q-176 0 -270.5 90t-67.5 264l53 328h115l-51 -328q-21 -133 46.5 -190t211.5 -57q143 0 297 53l82 522h115z" />
    <glyph glyph-name="uni0448" unicode="&#x448;" horiz-adv-x="1669" 
d="M1413 0h-1345l155 983h117l-139 -874h499l138 874h116l-139 -874h500l137 874h117z" />
    <glyph glyph-name="uni0449" unicode="&#x449;" horiz-adv-x="1718" 
d="M1511 -272h-112l43 272h-1374l155 983h117l-139 -874h499l138 874h116l-139 -874h500l137 874h117l-139 -874h143z" />
    <glyph glyph-name="uni044A" unicode="&#x44a;" horiz-adv-x="1193" 
d="M664 0h-453l139 881h-274l16 102h389l-55 -358h344q161 0 248 -91t65 -229q-22 -136 -132.5 -220.5t-286.5 -84.5zM410 520l-66 -416h318q129 0 209.5 57t97.5 158q15 95 -46.5 148t-177.5 53h-335z" />
    <glyph glyph-name="uni044B" unicode="&#x44b;" horiz-adv-x="1460" 
d="M520 0h-452l155 983h117l-57 -358h346q161 0 247 -91t64 -229q-21 -136 -132 -220.5t-288 -84.5zM266 520l-65 -416h317q129 0 209.5 57t97.5 158q15 95 -46 148t-177 53h-336zM1204 0h-117l156 983h117z" />
    <glyph glyph-name="uni044C" unicode="&#x44c;" horiz-adv-x="1050" 
d="M520 0h-452l155 983h117l-57 -358h346q161 0 247 -91t64 -229q-21 -136 -132 -220.5t-288 -84.5zM266 520l-65 -416h317q129 0 209.5 57t97.5 158q15 95 -46 148t-177 53h-336z" />
    <glyph glyph-name="uni044D" unicode="&#x44d;" horiz-adv-x="1032" 
d="M922 471q-21 -129 -78 -226.5t-138.5 -154.5t-173 -85t-192.5 -28q-184 0 -334 89l19 108q134 -90 299 -90q70 0 131 11.5t118 38.5t101 67.5t76.5 102t48.5 138.5l-547 -4l18 107l545 4q7 91 -23 161t-86 110t-122.5 59.5t-139.5 19.5q-170 0 -321 -90l18 111
q148 86 320 86q77 0 149 -19.5t136.5 -62t109.5 -103.5t63.5 -151.5t2.5 -198.5z" />
    <glyph glyph-name="uni044E" unicode="&#x44e;" horiz-adv-x="1667" 
d="M1559 481q-18 -120 -76.5 -217.5t-140.5 -159t-178.5 -94.5t-196.5 -33q-92 0 -174 31t-145 88t-97.5 146t-28.5 196h-270l-68 -438h-116l155 983h117l-70 -436h269q33 141 123.5 247t209.5 159t250 53q78 0 150 -22.5t131.5 -65.5t100 -107t56 -146.5t-0.5 -183.5z
M641 487q-28 -182 69.5 -290.5t262.5 -108.5q174 0 308.5 109.5t164.5 298.5q28 182 -69.5 290.5t-262.5 108.5q-173 0 -308 -110t-165 -298z" />
    <glyph glyph-name="uni044F" unicode="&#x44f;" horiz-adv-x="1103" 
d="M106 0h-133l353 381q-112 30 -166.5 108.5t-36.5 192.5q21 131 131.5 216t284.5 85h465l-156 -983h-115l58 365h-345zM238 666q-15 -91 47.5 -144t183.5 -53h338l65 410h-331q-127 0 -208 -58t-95 -155z" />
    <glyph glyph-name="uni0451" unicode="&#x451;" horiz-adv-x="1116" 
d="M958 1255q-4 -32 -31 -54.5t-59 -22.5q-38 0 -60.5 27.5t-16.5 64.5q6 31 33 54.5t59 23.5q36 0 58.5 -28.5t16.5 -64.5zM547 1255q-4 -32 -31 -54.5t-59 -22.5q-38 0 -61 27.5t-17 64.5q6 31 33 54.5t59 23.5q36 0 59 -28.5t17 -64.5zM74 496q18 122 74 221t133.5 161
t168 95t183.5 33q106 0 187 -34.5t127 -92t68.5 -131.5t17 -154.5t-33.5 -159.5h-817q-9 -91 20.5 -160.5t86.5 -109.5t126 -60t146 -20q187 0 344 82l-18 -117q-144 -72 -344 -72q-79 0 -153 19.5t-139 61.5t-110.5 101.5t-64.5 146.5t-2 190zM913 537q10 37 11.5 77
t-6.5 81t-29.5 77.5t-54 65t-84.5 45t-117 16.5q-154 0 -278 -97.5t-158 -264.5h716z" />
    <glyph glyph-name="Wgrave" unicode="&#x1e80;" horiz-adv-x="2041" 
d="M2005 1434h129l-674 -1434h-137l-199 1208l-583 -1208h-144l-227 1434h123l201 -1278l612 1271h100l207 -1255zM1274 1583h-125l-156 291h142z" />
    <glyph glyph-name="wgrave" unicode="&#x1e81;" horiz-adv-x="1628" 
d="M1520 983h125l-508 -983h-121l-162 817l-428 -817h-125l-197 983h117l166 -836l434 830h105l166 -827zM997 1133h-125l-155 290h141z" />
    <glyph glyph-name="Wacute" unicode="&#x1e82;" horiz-adv-x="2041" 
d="M2005 1434h129l-674 -1434h-137l-199 1208l-583 -1208h-144l-227 1434h123l201 -1278l612 1271h100l207 -1255zM1210 1583h-129l230 291h147z" />
    <glyph glyph-name="wacute" unicode="&#x1e83;" horiz-adv-x="1628" 
d="M1520 983h125l-508 -983h-121l-162 817l-428 -817h-125l-197 983h117l166 -836l434 830h105l166 -827zM934 1133h-129l229 290h148z" />
    <glyph glyph-name="Wdieresis" unicode="&#x1e84;" horiz-adv-x="2041" 
d="M2005 1434h129l-674 -1434h-137l-199 1208l-583 -1208h-144l-227 1434h123l201 -1278l612 1271h100l207 -1255zM1477 1706q-4 -32 -31.5 -55t-59.5 -23q-38 0 -60.5 27.5t-16.5 64.5q6 31 33 54.5t59 23.5q36 0 59 -28t17 -64zM1065 1706q-4 -32 -31 -55t-59 -23
q-38 0 -61 27.5t-17 64.5q6 31 33 54.5t59 23.5q36 0 59 -28t17 -64z" />
    <glyph glyph-name="wdieresis" unicode="&#x1e85;" horiz-adv-x="1628" 
d="M1520 983h125l-508 -983h-121l-162 817l-428 -817h-125l-197 983h117l166 -836l434 830h105l166 -827zM1200 1255q-4 -32 -31 -54.5t-59 -22.5q-38 0 -61 27.5t-17 64.5q6 31 33 54.5t59 23.5q36 0 59 -28.5t17 -64.5zM788 1255q-4 -32 -31 -54.5t-59 -22.5
q-38 0 -60.5 27.5t-16.5 64.5q6 31 33 54.5t59 23.5q36 0 58.5 -28.5t16.5 -64.5z" />
    <glyph glyph-name="Ygrave" unicode="&#x1ef2;" horiz-adv-x="1316" 
d="M625 0h-123l90 559l-424 875h127l371 -758l612 758h139l-702 -875zM901 1583h-125l-155 291h141z" />
    <glyph glyph-name="ygrave" unicode="&#x1ef3;" horiz-adv-x="1095" 
d="M487 119l506 864h127l-680 -1147q-99 -166 -194.5 -237.5t-200.5 -71.5q-60 0 -106 14l14 99q40 -11 82 -11q87 0 160.5 61.5t150.5 192.5l70 117l-328 983h117zM705 1133h-125l-156 290h141z" />
    <glyph glyph-name="endash" unicode="&#x2013;" horiz-adv-x="1171" 
d="M1010 449h-895l16 110h897z" />
    <glyph glyph-name="emdash" unicode="&#x2014;" horiz-adv-x="1550" 
d="M1391 449h-1276l16 110h1276z" />
    <glyph glyph-name="quoteleft" unicode="&#x2018;" horiz-adv-x="425" 
d="M287 977h-125l207 457h98z" />
    <glyph glyph-name="quoteright" unicode="&#x2019;" horiz-adv-x="419" 
d="M264 977h-96l180 457h125z" />
    <glyph glyph-name="quotesinglbase" unicode="&#x201a;" horiz-adv-x="446" 
d="M23 -301h-97l183 459h122z" />
    <glyph glyph-name="quotedblleft" unicode="&#x201c;" horiz-adv-x="698" 
d="M559 977h-125l207 457h98zM287 977h-125l207 457h98z" />
    <glyph glyph-name="quotedblright" unicode="&#x201d;" horiz-adv-x="694" 
d="M539 977h-97l181 457h125zM264 977h-96l180 457h125z" />
    <glyph glyph-name="quotedblbase" unicode="&#x201e;" horiz-adv-x="718" 
d="M295 -301h-96l182 459h123zM23 -301h-97l183 459h122z" />
    <glyph glyph-name="dagger" unicode="&#x2020;" horiz-adv-x="1026" 
d="M408 -451h-121l209 1317h-383l18 117h383l72 451h121l-72 -451h383l-19 -117h-383z" />
    <glyph glyph-name="daggerdbl" unicode="&#x2021;" horiz-adv-x="1075" 
d="M432 -451h-123l103 641h-381l18 115h381l88 561h-379l19 117h379l71 451h123l-72 -451h381l-18 -117h-381l-88 -561h381l-19 -115h-380z" />
    <glyph glyph-name="bullet" unicode="&#x2022;" horiz-adv-x="645" 
d="M209 725q9 57 50 89t95 32q58 0 92 -36.5t25 -100.5q-9 -57 -50 -89t-95 -32q-58 0 -92 36.5t-25 100.5z" />
    <glyph glyph-name="ellipsis" unicode="&#x2026;" horiz-adv-x="1091" 
d="M889 57q-6 -35 -30 -54t-58 -19q-36 0 -57.5 24t-14.5 64q4 33 29.5 52t56.5 19q38 0 59.5 -23.5t14.5 -62.5zM213 57q-6 -35 -30 -54t-56 -19q-37 0 -59 24t-15 64q4 33 29.5 52t56.5 19q38 0 59.5 -23.5t14.5 -62.5zM551 57q-6 -35 -30 -54t-56 -19q-37 0 -59 24
t-15 64q4 33 29.5 52t56.5 19q38 0 59.5 -23.5t14.5 -62.5z" />
    <glyph glyph-name="perthousand" unicode="&#x2030;" horiz-adv-x="2594" 
d="M436 -123h-121l1104 1679h121zM799 1137q-21 -141 -125.5 -220t-235.5 -79q-62 0 -117 21.5t-95.5 60.5t-59 101t-6.5 136q22 141 127 220t237 79q62 0 116.5 -21.5t95 -60.5t58.5 -101t5 -136zM266 1149q-14 -91 35 -150t141 -59q96 0 165.5 56t84.5 149
q14 91 -34.5 150t-137.5 59q-99 0 -169 -56t-85 -149zM1696 276q-15 -95 -71.5 -164.5t-132 -102t-159.5 -32.5q-62 0 -117 21.5t-95.5 61t-59 101.5t-6.5 136q22 141 126 220t238 79q129 0 214.5 -87t62.5 -233zM1161 289q-14 -91 35 -150t141 -59q96 0 165.5 56t84.5 149
q14 91 -34.5 150t-137.5 59q-99 0 -169 -56t-85 -149zM2474 276q-15 -95 -71.5 -164.5t-132 -102t-159.5 -32.5q-62 0 -117 21.5t-95.5 61t-59 101.5t-6.5 136q22 141 126.5 220t238.5 79q129 0 214 -87t62 -233zM1939 289q-14 -91 35.5 -150t141.5 -59q96 0 165 56t84 149
q14 91 -34.5 150t-137.5 59q-99 0 -169 -56t-85 -149z" />
    <glyph glyph-name="guilsinglleft" unicode="&#x2039;" horiz-adv-x="593" 
d="M395 129h-123l-192 350l4 29l301 346h127l-315 -362z" />
    <glyph glyph-name="guilsinglright" unicode="&#x203a;" horiz-adv-x="595" 
d="M176 129h-127l316 363l-197 362h121l194 -350l-6 -29z" />
    <glyph glyph-name="fraction" unicode="&#x2044;" horiz-adv-x="342" 
d="M-365 -25h-59l1172 1481h59z" />
    <glyph glyph-name="Euro" unicode="&#x20ac;" horiz-adv-x="1484" 
d="M1448 1200q-148 100 -361 100q-100 0 -195.5 -23.5t-184.5 -71.5t-162 -129t-117 -187h750l-17 -103h-766q-7 -26 -14 -71q-8 -49 -8 -109h760l-17 -102h-735q31 -190 175.5 -301t338.5 -111q246 0 414 103l-19 -127q-178 -91 -411 -91q-242 0 -416.5 143t-206.5 384
h-184l16 102h162q0 63 8 115q10 59 12 65h-153l16 103h166q47 131 133.5 234t194.5 165.5t225 94.5t235 32q208 0 381 -100z" />
    <glyph glyph-name="trademark" unicode="&#x2122;" horiz-adv-x="1351" 
d="M739 915h-71l84 519h79l154 -295l250 295h86l-82 -519h-72l66 412l-236 -272h-43l-147 272zM387 915h-74l72 451h-180l10 68h434l-10 -68h-180z" />
    <glyph glyph-name="oneeighth" unicode="&#x215b;" horiz-adv-x="1890" 
d="M1176 641q13 85 99.5 147t231.5 62q142 0 217 -70.5t64 -169.5q-8 -57 -45.5 -111.5t-102.5 -95.5q134 -71 111 -198q-13 -93 -103 -156t-257 -63q-166 0 -246 73.5t-62 180.5q10 60 54 118t123 101q-100 67 -84 182zM1458 379q-68 17 -112 35q-70 -31 -112 -78t-48 -96
q-12 -77 41 -118.5t168 -41.5q109 0 178 37t78 98q5 35 -6 60.5t-38 42.5t-56 29t-70 25q-15 5 -23 7zM1683 604q11 64 -35.5 108t-144.5 44q-97 0 -157.5 -34.5t-69.5 -90.5q-5 -34 4.5 -59t40.5 -44.5t48.5 -27t64.5 -23.5l7.5 -3t7 -2.5l7.5 -2.5q48 -13 100 -25
q114 66 127 160zM365 -25h-60l1172 1481h59zM444 1393h76l-117 -740h150l-16 -96h-441l15 96h190l100 633l-188 -69l16 98z" />
    <glyph glyph-name="threeeighths" unicode="&#x215c;" horiz-adv-x="1976" 
d="M1262 641q13 85 99.5 147t231.5 62q142 0 217 -70.5t64 -169.5q-8 -57 -45.5 -111.5t-102.5 -95.5q134 -71 111 -198q-13 -93 -103 -156t-257 -63q-166 0 -246 73.5t-62 180.5q10 60 54 118t123 101q-100 67 -84 182zM1544 379q-68 17 -112 35q-70 -31 -112 -78t-48 -96
q-12 -77 41 -118.5t168 -41.5q109 0 178 37t78 98q5 35 -6 60.5t-38 42.5t-56 29t-70 25q-15 5 -23 7zM1769 604q11 64 -35.5 108t-144.5 44q-97 0 -157.5 -34.5t-69.5 -90.5q-5 -34 4.5 -59t40.5 -44.5t48.5 -27t64.5 -23.5l7.5 -3t7 -2.5l7.5 -2.5q48 -13 100 -25
q114 66 127 160zM471 -25h-59l1171 1481h59zM756 1182q-9 -64 -53 -113.5t-113 -69.5q67 -15 109 -69.5t28 -145.5q-18 -114 -113 -173.5t-231 -59.5q-162 0 -279 57l17 99q111 -60 258 -60q106 0 173.5 38.5t78.5 119.5q13 78 -35.5 110.5t-142.5 32.5h-131l14 96h117
q89 0 142 40t64 104q9 60 -39 95.5t-133 35.5q-132 0 -266 -64l17 105q123 55 266 55q120 0 193.5 -67t58.5 -166z" />
    <glyph glyph-name="fiveeighths" unicode="&#x215d;" horiz-adv-x="1957" 
d="M1243 641q13 85 100 147t232 62q141 0 216 -70.5t64 -169.5q-8 -57 -45 -111.5t-102 -95.5q134 -71 111 -198q-13 -92 -103.5 -155.5t-257.5 -63.5q-166 0 -245.5 73.5t-61.5 180.5q10 60 53.5 118t122.5 101q-100 67 -84 182zM1526 379q-71 18 -113 35q-70 -31 -112 -78
t-48 -96q-12 -77 41 -118.5t168 -41.5q109 0 178 37t78 98q5 35 -5.5 60.5t-39 43.5t-54 28t-71.5 25q-15 5 -22 7zM1751 604q11 64 -35.5 108t-144.5 44q-97 0 -158 -34.5t-70 -90.5q-4 -23 0 -42t17 -34.5t24.5 -25.5t36.5 -21t37.5 -16t42.5 -15q5 -2 8 -3t7 -2.5t8 -2.5
q48 -13 100 -25q114 66 127 160zM453 -25h-60l1172 1481h59zM274 1393h502l-16 -97h-406l-55 -237q71 18 143 18q57 0 109 -15t96 -46t65.5 -86.5t10.5 -128.5q-20 -121 -120.5 -189.5t-240.5 -68.5q-157 0 -262 57l15 94q98 -55 239 -55q108 0 181 46t86 132q8 48 -6 82
t-46.5 52t-72.5 26t-90 8q-103 0 -228 -41z" />
    <glyph glyph-name="seveneighths" unicode="&#x215e;" horiz-adv-x="1767" 
d="M252 -25h-59l1171 1481h59zM1049 641q13 85 99.5 147t231.5 62q142 0 217 -70.5t64 -169.5q-8 -57 -45.5 -111.5t-102.5 -95.5q134 -71 111 -198q-13 -93 -103 -156t-257 -63q-166 0 -246 73.5t-62 180.5q10 60 54 118t123 101q-100 67 -84 182zM1331 379q-68 17 -112 35
q-70 -31 -112 -78t-48 -96q-12 -77 41 -118.5t168 -41.5q109 0 178 37t78 98q5 35 -6 60.5t-38 42.5t-56 29t-70 25q-15 5 -23 7zM1556 604q11 64 -35.5 108t-144.5 44q-97 0 -157.5 -34.5t-69.5 -90.5q-5 -34 4.5 -59t40.5 -44.5t48.5 -27t64.5 -23.5l7.5 -3t7 -2.5
l7.5 -2.5q33 -9 101 -25q113 66 126 160zM315 557h-112l448 739h-467l17 97h577l-14 -93z" />
    <glyph glyph-name="partialdiff" unicode="&#x2202;" horiz-adv-x="1216" 
d="M1098 543q-42 -268 -204 -417t-390 -149q-106 0 -193.5 35t-146.5 97t-84 154t-8 200q20 129 100 233.5t194.5 160.5t239.5 56q155 0 267.5 -77t132.5 -209q6 54 6 55q5 137 -31.5 249t-102.5 185.5t-157 123t-191 69.5t-208 16l16 109q110 0 211.5 -21t197.5 -66
t169 -115.5t125 -169.5t65.5 -228t-8.5 -291zM184 449q-26 -165 63.5 -263t260.5 -98q163 0 277 90.5t163 245.5q25 175 -71 278t-259 103t-286 -99.5t-148 -256.5z" />
    <glyph glyph-name="emptyset" unicode="&#x2205;" horiz-adv-x="1673" 
d="M1597 702q-23 -145 -100 -277.5t-188.5 -231t-259 -157.5t-304.5 -59q-262 0 -440 160l-137 -137h-80l178 176q-96 106 -135.5 252t-13.5 303q23 145 99 277.5t188 231t260 157.5t305 59q266 0 436 -160l139 138h80l-180 -177q98 -105 138 -250.5t15 -304.5zM180 717
q-22 -142 12.5 -271.5t120.5 -224.5l1047 1032q-156 140 -389 140q-147 0 -285 -55.5t-241 -148.5t-173.5 -216t-91.5 -256zM352 182q157 -141 391 -141q147 0 285 55.5t241 148.5t173.5 216t91.5 256q22 142 -12.5 271.5t-120.5 225.5z" />
    <glyph glyph-name="product" unicode="&#x220f;" horiz-adv-x="1519" 
d="M233 -451h-120l280 1768h-203l21 117h1364l-19 -117h-200l-281 -1768h-121l279 1768h-719z" />
    <glyph glyph-name="summation" unicode="&#x2211;" horiz-adv-x="1155" 
d="M956 0h-968l10 70l670 651l-463 645l10 68h965l-21 -117h-774l420 -586l-6 -39l-592 -575h768z" />
    <glyph glyph-name="minus" unicode="&#x2212;" horiz-adv-x="1062" 
d="M922 655h-768l16 111h768z" />
    <glyph glyph-name="radical" unicode="&#x221a;" horiz-adv-x="1495" 
d="M637 0h-109l-231 866h-201l19 117h264l223 -842l914 1456h131z" />
    <glyph glyph-name="infinity" unicode="&#x221e;" horiz-adv-x="1705" 
d="M887 825q52 61 93.5 103t96.5 83t116 62t128 21t126.5 -25.5t102 -72t61 -117t5.5 -154.5q-25 -162 -137.5 -257t-257.5 -95q-218 0 -361 268q-51 -61 -93.5 -103t-97 -83t-115.5 -61.5t-128 -20.5q-68 0 -127.5 25.5t-101.5 71.5t-60.5 116.5t-5.5 154.5
q17 108 76.5 189.5t142.5 122.5t176 41q214 0 361 -269zM809 737q-27 56 -50.5 94t-56.5 76t-73.5 57t-89.5 19q-111 0 -193.5 -64t-101.5 -186q-19 -119 39.5 -184.5t162.5 -65.5q54 0 103.5 19t96 58.5t81.5 78.5t82 98zM1503 741q18 118 -40.5 180t-162.5 62
q-54 0 -103 -19t-96 -59t-81.5 -77.5t-83.5 -98.5q27 -55 51 -94t57 -76.5t74 -56.5t90 -19q110 0 192 67t103 191z" />
    <glyph glyph-name="integral" unicode="&#x222b;" horiz-adv-x="843" 
d="M481 1335q13 78 48.5 136t84.5 89t100 45.5t105 14.5q84 0 156 -31l-17 -106q-54 26 -133 26q-38 0 -71 -8t-67 -27.5t-58.5 -59t-34.5 -95.5l-238 -1507q-13 -79 -48 -137t-83.5 -89t-99.5 -45t-107 -14q-83 0 -155 31l16 106q50 -26 119 -26q216 0 246 190z" />
    <glyph glyph-name="approxequal" unicode="&#x2248;" horiz-adv-x="1196" 
d="M1112 983q-6 -98 -68.5 -155.5t-156.5 -57.5q-63 0 -152 31t-176 62.5t-145 31.5q-53 0 -86.5 -27.5t-36.5 -76.5h-109q7 101 70 157t154 56q53 0 121 -19t122.5 -42.5t119.5 -42.5t114 -19q52 0 85 26.5t36 75.5h108zM1065 680q-6 -98 -68.5 -155.5t-156.5 -57.5
q-63 0 -152 31.5t-176 62.5t-145 31q-53 0 -86.5 -28t-36.5 -77h-109q7 101 69.5 157t153.5 56q67 0 156 -30.5t175 -61t147 -30.5q52 0 84.5 26.5t35.5 75.5h109z" />
    <glyph glyph-name="notequal" unicode="&#x2260;" horiz-adv-x="1130" 
d="M289 268h-107l162 207h-219l16 111h285l203 262h-445l17 110h512l159 207h107l-160 -207h219l-18 -110h-285l-203 -262h447l-16 -111h-512z" />
    <glyph glyph-name="lessequal" unicode="&#x2264;" horiz-adv-x="1087" 
d="M891 485l-19 -114l-702 321l18 117l803 319l-16 -114l-678 -264zM813 0h-754l19 111h751z" />
    <glyph glyph-name="greaterequal" unicode="&#x2265;" horiz-adv-x="1079" 
d="M952 690l-802 -319l18 114l676 265l-592 264l16 114l705 -321zM844 0h-754l19 111h751z" />
    <glyph glyph-name="lozenge" unicode="&#x25ca;" horiz-adv-x="1136" 
d="M541 0h-131l-314 717l539 717h129l315 -717zM225 707l262 -594l463 612l-262 596z" />
    <glyph glyph-name="i.loclTRK" horiz-adv-x="452" 
d="M190 0h-116l155 983h117zM412 1227q-6 -41 -35 -63.5t-68 -22.5q-42 0 -67.5 27.5t-18.5 74.5q7 40 36.5 62t66.5 22q44 0 69.5 -27t16.5 -73z" />
    <glyph glyph-name="a.ss01" horiz-adv-x="1110" 
d="M870 174q-15 -82 70 -82q37 0 84 14l-16 -96q-50 -18 -105 -18q-67 0 -109.5 35t-41.5 110q-80 -77 -187.5 -118.5t-218.5 -41.5q-92 0 -166.5 34t-118 105.5t-34.5 168.5q7 69 39 123.5t78.5 88t107.5 55t119.5 30t120.5 8.5q175 0 321 -45l12 76q22 136 -51.5 207
t-245.5 71q-154 0 -338 -70l19 115q160 62 336 62q223 0 323 -103.5t68 -304.5zM369 78q110 0 220.5 50.5t180.5 141.5l29 183q-136 39 -295 39q-62 0 -119 -10.5t-111.5 -33.5t-89 -67t-39.5 -105q-9 -92 55 -145t169 -53z" />
    <glyph glyph-name="aacute.ss01" horiz-adv-x="1107" 
d="M868 174q-15 -82 70 -82q37 0 84 14l-16 -96q-50 -18 -105 -18q-67 0 -109.5 35t-41.5 110q-80 -77 -187.5 -118.5t-218.5 -41.5q-92 0 -166.5 34t-118 105.5t-34.5 168.5q7 69 39 123.5t78.5 88t107 55t119 30t120.5 8.5q176 0 322 -45l12 76q22 136 -51.5 207
t-245.5 71q-154 0 -338 -70l19 115q160 62 336 62q223 0 323 -103.5t68 -304.5zM367 78q110 0 220.5 50.5t180.5 141.5l29 183q-136 39 -295 39q-62 0 -119 -10.5t-111.5 -33.5t-89 -67t-39.5 -105q-9 -92 55 -145t169 -53zM635 1133h-129l229 290h148z" />
    <glyph glyph-name="abreve.ss01" horiz-adv-x="1107" 
d="M868 174q-15 -82 70 -82q37 0 84 14l-16 -96q-50 -18 -105 -18q-67 0 -109.5 35t-41.5 110q-80 -77 -187.5 -118.5t-218.5 -41.5q-92 0 -166.5 34t-118 105.5t-34.5 168.5q7 69 39 123.5t78.5 88t107 55t119 30t120.5 8.5q176 0 322 -45l12 76q22 136 -51.5 207
t-245.5 71q-154 0 -338 -70l19 115q160 62 336 62q223 0 323 -103.5t68 -304.5zM367 78q110 0 220.5 50.5t180.5 141.5l29 183q-136 39 -295 39q-62 0 -119 -10.5t-111.5 -33.5t-89 -67t-39.5 -105q-9 -92 55 -145t169 -53zM887 1227q-128 -84 -283 -84q-165 0 -264 84
l18 116q60 -49 120 -69.5t136 -20.5q154 0 289 90z" />
    <glyph glyph-name="acircumflex.ss01" horiz-adv-x="1107" 
d="M868 174q-15 -82 70 -82q37 0 84 14l-16 -96q-50 -18 -105 -18q-67 0 -109.5 35t-41.5 110q-80 -77 -187.5 -118.5t-218.5 -41.5q-92 0 -166.5 34t-118 105.5t-34.5 168.5q7 69 39 123.5t78.5 88t107 55t119 30t120.5 8.5q176 0 322 -45l12 76q22 136 -51.5 207
t-245.5 71q-154 0 -338 -70l19 115q160 62 336 62q223 0 323 -103.5t68 -304.5zM367 78q110 0 220.5 50.5t180.5 141.5l29 183q-136 39 -295 39q-62 0 -119 -10.5t-111.5 -33.5t-89 -67t-39.5 -105q-9 -92 55 -145t169 -53zM586 1415h104l221 -280h-127l-155 192l-215 -192
h-138z" />
    <glyph glyph-name="adieresis.ss01" horiz-adv-x="1107" 
d="M868 174q-15 -82 70 -82q37 0 84 14l-16 -96q-50 -18 -105 -18q-67 0 -109.5 35t-41.5 110q-80 -77 -187.5 -118.5t-218.5 -41.5q-92 0 -166.5 34t-118 105.5t-34.5 168.5q7 69 39 123.5t78.5 88t107 55t119 30t120.5 8.5q176 0 322 -45l12 76q22 136 -51.5 207
t-245.5 71q-154 0 -338 -70l19 115q160 62 336 62q223 0 323 -103.5t68 -304.5zM367 78q110 0 220.5 50.5t180.5 141.5l29 183q-136 39 -295 39q-62 0 -119 -10.5t-111.5 -33.5t-89 -67t-39.5 -105q-9 -92 55 -145t169 -53zM901 1255q-4 -32 -31 -54.5t-59 -22.5
q-38 0 -61 27.5t-17 64.5q6 31 33 54.5t59 23.5q36 0 59 -28.5t17 -64.5zM489 1255q-4 -32 -31 -54.5t-59 -22.5q-38 0 -60.5 27.5t-16.5 64.5q6 31 33 54.5t59 23.5q36 0 58.5 -28.5t16.5 -64.5z" />
    <glyph glyph-name="agrave.ss01" horiz-adv-x="1107" 
d="M868 174q-15 -82 70 -82q37 0 84 14l-16 -96q-50 -18 -105 -18q-67 0 -109.5 35t-41.5 110q-80 -77 -187.5 -118.5t-218.5 -41.5q-92 0 -166.5 34t-118 105.5t-34.5 168.5q7 69 39 123.5t78.5 88t107 55t119 30t120.5 8.5q176 0 322 -45l12 76q22 136 -51.5 207
t-245.5 71q-154 0 -338 -70l19 115q160 62 336 62q223 0 323 -103.5t68 -304.5zM367 78q110 0 220.5 50.5t180.5 141.5l29 183q-136 39 -295 39q-62 0 -119 -10.5t-111.5 -33.5t-89 -67t-39.5 -105q-9 -92 55 -145t169 -53zM698 1133h-125l-155 290h141z" />
    <glyph glyph-name="amacron.ss01" horiz-adv-x="1107" 
d="M868 174q-15 -82 70 -82q37 0 84 14l-16 -96q-50 -18 -105 -18q-67 0 -109.5 35t-41.5 110q-80 -77 -187.5 -118.5t-218.5 -41.5q-92 0 -166.5 34t-118 105.5t-34.5 168.5q7 69 39 123.5t78.5 88t107 55t119 30t120.5 8.5q176 0 322 -45l12 76q22 136 -51.5 207
t-245.5 71q-154 0 -338 -70l19 115q160 62 336 62q223 0 323 -103.5t68 -304.5zM367 78q110 0 220.5 50.5t180.5 141.5l29 183q-136 39 -295 39q-62 0 -119 -10.5t-111.5 -33.5t-89 -67t-39.5 -105q-9 -92 55 -145t169 -53zM342 1284h573l-16 -106h-573z" />
    <glyph glyph-name="aogonek.ss01" horiz-adv-x="1107" 
d="M1022 106l-16 -96q-107 -69 -178 -146.5t-80 -144.5q-8 -42 14 -67t67 -25q50 0 111 21l-16 -97q-58 -20 -123 -20q-89 0 -133.5 51t-32.5 129q18 131 215 287q-103 25 -100 139q-80 -77 -187.5 -118.5t-218.5 -41.5q-92 0 -166.5 34t-118 105.5t-34.5 168.5
q7 69 39 123.5t78.5 88t107 55t119 30t120.5 8.5q176 0 322 -45l12 76q22 136 -51.5 207t-245.5 71q-154 0 -338 -70l19 115q160 62 336 62q223 0 323 -103.5t68 -304.5l-66 -424q-15 -82 70 -82q37 0 84 14zM367 78q110 0 220.5 50.5t180.5 141.5l29 183q-136 39 -295 39
q-62 0 -119 -10.5t-111.5 -33.5t-89 -67t-39.5 -105q-9 -92 55 -145t169 -53z" />
    <glyph glyph-name="aring.ss01" horiz-adv-x="1107" 
d="M868 174q-15 -82 70 -82q37 0 84 14l-16 -96q-50 -18 -105 -18q-67 0 -109.5 35t-41.5 110q-80 -77 -187.5 -118.5t-218.5 -41.5q-92 0 -166.5 34t-118 105.5t-34.5 168.5q7 69 39 123.5t78.5 88t107 55t119 30t120.5 8.5q176 0 322 -45l12 76q22 136 -51.5 207
t-245.5 71q-154 0 -338 -70l19 115q160 62 336 62q223 0 323 -103.5t68 -304.5zM367 78q110 0 220.5 50.5t180.5 141.5l29 183q-136 39 -295 39q-62 0 -119 -10.5t-111.5 -33.5t-89 -67t-39.5 -105q-9 -92 55 -145t169 -53zM836 1280q-13 -87 -82 -141t-152 -54
q-87 0 -142.5 58.5t-41.5 150.5q14 86 83 139.5t152 53.5q87 0 142 -58t41 -149zM506 1286q-9 -52 20.5 -85.5t75.5 -33.5q54 0 96.5 31.5t51.5 87.5q7 52 -22 85.5t-75 33.5q-54 0 -96 -32t-51 -87z" />
    <glyph glyph-name="atilde.ss01" horiz-adv-x="1107" 
d="M868 174q-15 -82 70 -82q37 0 84 14l-16 -96q-50 -18 -105 -18q-67 0 -109.5 35t-41.5 110q-80 -77 -187.5 -118.5t-218.5 -41.5q-92 0 -166.5 34t-118 105.5t-34.5 168.5q7 69 39 123.5t78.5 88t107 55t119 30t120.5 8.5q176 0 322 -45l12 76q22 136 -51.5 207
t-245.5 71q-154 0 -338 -70l19 115q160 62 336 62q223 0 323 -103.5t68 -304.5zM367 78q110 0 220.5 50.5t180.5 141.5l29 183q-136 39 -295 39q-62 0 -119 -10.5t-111.5 -33.5t-89 -67t-39.5 -105q-9 -92 55 -145t169 -53zM938 1323q-1 -91 -49.5 -139.5t-120.5 -48.5
q-51 0 -110.5 24.5t-111.5 49t-87 24.5q-39 0 -61.5 -24t-22.5 -64h-101q1 89 50 139.5t118 50.5q51 0 111 -24.5t113 -49t88 -24.5q84 0 84 86h100z" />
    <glyph glyph-name="ae.ss01" horiz-adv-x="1832" 
d="M854 184q-220 -207 -504 -207q-146 0 -243.5 84.5t-81.5 227.5q10 86 56 147.5t117 93.5t146 46t160 14q161 0 307 -45l12 76q22 131 -49 204.5t-227 73.5q-164 0 -359 -70l19 115q179 62 356 62q153 0 245 -65.5t107 -184.5q76 119 196.5 184.5t256.5 65.5
q99 0 175.5 -34t120.5 -91.5t65.5 -131.5t16.5 -156t-34 -163h-803q-7 -73 10.5 -132.5t52 -98.5t85 -65.5t107.5 -38t122 -11.5q187 0 332 82l-19 -119q-140 -70 -339 -70q-133 0 -241.5 52t-164.5 155zM141 281q-10 -91 59.5 -147t170.5 -56q116 0 221 44t221 146
q-25 84 -14 185q-142 39 -285 39q-53 0 -100 -5.5t-96 -20t-85 -37.5t-61 -61t-31 -87zM1356 899q-157 0 -277.5 -97.5t-154.5 -269.5h702q10 48 12.5 98t-15.5 98.5t-48.5 86.5t-87.5 61t-131 23z" />
    <glyph glyph-name="y.ss01" horiz-adv-x="1193" 
d="M936 -10q-17 -101 -57 -181.5t-93 -132.5t-120.5 -86t-136.5 -48.5t-144 -14.5q-109 0 -202.5 21.5t-151.5 56.5l18 110q124 -82 326 -82q81 0 151 19t132.5 59.5t105 113.5t57.5 173l27 170q-72 -79 -175 -135t-218 -56q-183 0 -276 110.5t-64 293.5l94 602h117
l-97 -596q-24 -154 40 -228.5t202 -74.5q117 0 220.5 66t178.5 159l107 674h117z" />
    <glyph glyph-name="yacute.ss01" horiz-adv-x="1193" 
d="M936 -10q-17 -101 -57 -181.5t-93 -132.5t-120.5 -86t-136.5 -48.5t-144 -14.5q-109 0 -202.5 21.5t-151.5 56.5l18 110q124 -82 326 -82q81 0 151 19t132.5 59.5t105 113.5t57.5 173l27 170q-72 -79 -175 -135t-218 -56q-183 0 -276 110.5t-64 293.5l94 602h117
l-97 -596q-24 -154 40 -228.5t202 -74.5q117 0 220.5 66t178.5 159l107 674h117zM707 1133h-129l229 290h147z" />
    <glyph glyph-name="ycircumflex.ss01" horiz-adv-x="1193" 
d="M936 -10q-17 -101 -57 -181.5t-93 -132.5t-120.5 -86t-136.5 -48.5t-144 -14.5q-109 0 -202.5 21.5t-151.5 56.5l18 110q124 -82 326 -82q81 0 151 19t132.5 59.5t105 113.5t57.5 173l27 170q-72 -79 -175 -135t-218 -56q-183 0 -276 110.5t-64 293.5l94 602h117
l-97 -596q-24 -154 40 -228.5t202 -74.5q117 0 220.5 66t178.5 159l107 674h117zM657 1415h105l221 -280h-127l-156 192l-215 -192h-137z" />
    <glyph glyph-name="ydieresis.ss01" horiz-adv-x="1193" 
d="M936 -10q-17 -101 -57 -181.5t-93 -132.5t-120.5 -86t-136.5 -48.5t-144 -14.5q-109 0 -202.5 21.5t-151.5 56.5l18 110q124 -82 326 -82q81 0 151 19t132.5 59.5t105 113.5t57.5 173l27 170q-72 -79 -175 -135t-218 -56q-183 0 -276 110.5t-64 293.5l94 602h117
l-97 -596q-24 -154 40 -228.5t202 -74.5q117 0 220.5 66t178.5 159l107 674h117zM973 1255q-4 -32 -31 -54.5t-59 -22.5q-38 0 -61 27.5t-17 64.5q6 31 33 54.5t59 23.5q36 0 59 -28.5t17 -64.5zM561 1255q-4 -32 -31 -54.5t-59 -22.5q-38 0 -61 27.5t-17 64.5q6 31 33 54.5
t59 23.5q36 0 59 -28.5t17 -64.5z" />
    <glyph glyph-name="ygrave.ss01" horiz-adv-x="1193" 
d="M936 -10q-17 -101 -57 -181.5t-93 -132.5t-120.5 -86t-136.5 -48.5t-144 -14.5q-109 0 -202.5 21.5t-151.5 56.5l18 110q124 -82 326 -82q81 0 151 19t132.5 59.5t105 113.5t57.5 173l27 170q-72 -79 -175 -135t-218 -56q-183 0 -276 110.5t-64 293.5l94 602h117
l-97 -596q-24 -154 40 -228.5t202 -74.5q117 0 220.5 66t178.5 159l107 674h117zM770 1133h-125l-156 290h142z" />
    <glyph glyph-name="f_b" horiz-adv-x="1968" 
d="M1008 788q76 96 190 157t248 61q102 0 187 -39.5t141 -108t79.5 -167t6.5 -210.5q-35 -226 -191.5 -365t-374.5 -139q-140 0 -236.5 64t-150.5 168l-35 -209h-104l205 1288q-115 62 -250 62q-121 0 -200 -58.5t-97 -173.5l-23 -135h345l-17 -109h-346l-137 -874h-117
l139 874h-178l17 109h178l24 143q24 159 137 244.5t273 85.5q143 0 268 -61l2 12l121 31zM1288 84q178 0 303.5 108t155.5 297q28 182 -65 296t-252 114q-142 0 -260.5 -79t-184.5 -197l-45 -269q29 -117 121 -193.5t227 -76.5z" />
    <glyph glyph-name="f_f_b" horiz-adv-x="2603" 
d="M1642 788q76 96 190.5 157t248.5 61q136 0 238.5 -67t150 -188t24.5 -270q-35 -226 -191 -365t-374 -139q-140 0 -236.5 64t-150.5 168l-35 -209h-104l207 1300q-118 62 -250 62q-120 0 -200 -60t-99 -184l-23 -135h344l-16 -109h-346l-137 -874h-117l139 874h-520
l-137 -874h-117l139 874h-178l17 109h178l18 117q25 158 141.5 244t276.5 86q158 0 309 -99q57 69 141 104t179 35q151 0 274 -63l2 12l121 31zM922 983l24 143q8 60 35 115q-58 41 -116.5 60.5t-137.5 19.5q-121 0 -204 -58t-101 -171l-19 -109h519zM1923 84
q178 0 303.5 108t155.5 297q28 182 -65.5 296t-252.5 114q-142 0 -260 -79t-184 -197l-45 -269q29 -117 121 -193.5t227 -76.5z" />
    <glyph glyph-name="f_f_h" horiz-adv-x="2531" 
d="M1647 813q78 81 183.5 137t221.5 56q173 0 266.5 -111.5t65.5 -292.5l-96 -602h-117l94 596q24 147 -43.5 225t-196.5 78q-115 0 -222.5 -67.5t-178.5 -161.5l-104 -670h-117l207 1300q-118 62 -250 62q-120 0 -200 -60t-99 -184l-23 -135h344l-16 -109h-346l-137 -874
h-117l139 874h-520l-137 -874h-117l139 874h-178l17 109h178l18 117q25 158 141.5 244t276.5 86q158 0 309 -99q57 69 141 104t179 35q151 0 274 -63l2 12l121 31zM922 983l24 143q8 60 35 115q-58 41 -116.5 60.5t-137.5 19.5q-121 0 -204 -58t-101 -171l-19 -109h519z" />
    <glyph glyph-name="f_f_j" horiz-adv-x="1761" 
d="M1466 -209q-12 -74 -42 -127.5t-72.5 -82t-88.5 -41.5t-98 -13q-83 0 -149 29l16 102q52 -25 115 -25q176 0 207 183l168 1058h-502l-137 -874h-117l139 874h-520l-137 -874h-117l139 874h-178l17 109h178l18 117q25 159 140 244.5t278 85.5q90 0 162.5 -24.5
t148.5 -74.5q57 69 141.5 104t182.5 35q156 0 299 -81l-19 -113q-128 86 -278 86q-120 0 -200 -60.5t-99 -183.5l-23 -135h617zM422 1092l-19 -109h519l24 143q8 55 35 115q-60 41 -117.5 60.5t-136.5 19.5q-124 0 -205.5 -57.5t-99.5 -171.5z" />
    <glyph glyph-name="f_f_k" horiz-adv-x="2377" 
d="M2247 983h139l-465 -479l352 -504h-131l-323 463h-226l-71 -463h-117l207 1300q-118 62 -252 62q-120 0 -200 -60t-99 -184l-23 -135h344l-16 -109h-346l-137 -874h-117l139 874h-520l-137 -874h-117l139 874h-178l17 109h178l18 117q25 158 141.5 244t276.5 86
q158 0 309 -99q57 69 141 104t179 35q150 0 276 -63l2 12l121 31l-139 -881h233zM922 983l24 143q8 60 35 115q-58 41 -116.5 60.5t-137.5 19.5q-121 0 -204 -58t-101 -171l-19 -109h519z" />
    <glyph glyph-name="f_h" horiz-adv-x="1896" 
d="M1012 813q78 81 183.5 137t221.5 56q173 0 266.5 -111.5t65.5 -292.5l-96 -602h-117l94 596q24 147 -43.5 225t-195.5 78q-115 0 -223 -67.5t-179 -161.5l-104 -670h-117l205 1288q-115 62 -250 62q-121 0 -200 -58.5t-97 -173.5l-23 -135h345l-17 -109h-346l-137 -874
h-117l139 874h-178l17 109h178l24 143q24 159 137 244.5t273 85.5q143 0 268 -61l2 12l121 31z" />
    <glyph glyph-name="f_i" horiz-adv-x="1126" 
d="M248 0h-117l139 874h-178l17 109h178l24 143q24 159 135.5 244.5t270.5 85.5q169 0 305 -82l-18 -110q-134 86 -281 86q-119 0 -199 -58.5t-98 -173.5l-23 -135h617l-156 -983h-116l139 874h-502z" />
    <glyph glyph-name="f_j" horiz-adv-x="1126" 
d="M831 -209q-12 -74 -42 -127.5t-72.5 -82t-88.5 -41.5t-98 -13q-83 0 -149 29l16 102q52 -25 115 -25q176 0 207 183l168 1058h-502l-137 -874h-117l139 874h-178l17 109h178l24 143q24 159 135.5 244.5t270.5 85.5q169 0 305 -82l-18 -110q-134 86 -281 86
q-119 0 -199 -58.5t-98 -173.5l-23 -135h617z" />
    <glyph glyph-name="f_k" horiz-adv-x="1740" 
d="M1612 983h137l-463 -479l352 -504h-131l-323 463h-228l-71 -463h-117l205 1288q-115 62 -250 62q-121 0 -200 -58.5t-97 -173.5l-23 -135h345l-17 -109h-346l-137 -874h-117l139 874h-178l17 109h178l24 143q24 159 137 244.5t273 85.5q143 0 268 -61l2 12l121 31
l-137 -869h235z" />
    <glyph glyph-name="f_l" horiz-adv-x="1146" 
d="M989 1395l2 12l121 31l-227 -1438h-117l205 1288q-115 62 -250 62q-121 0 -200 -58.5t-97 -173.5l-23 -135h345l-17 -109h-346l-137 -874h-117l139 874h-178l17 109h178l24 143q24 159 137 244.5t273 85.5q143 0 268 -61z" />
    <glyph glyph-name="uni0414.loclBGR" horiz-adv-x="1617" 
d="M23 -348h-117l74 465h151l741 1317h138l327 -1317h152l-74 -465h-117l56 348h-1276zM928 1298l-660 -1181h949z" />
    <glyph glyph-name="uni041B.loclBGR" horiz-adv-x="1394" 
d="M-68 0l836 1434h125l381 -1434h-127l-332 1288l-747 -1288h-136z" />
    <glyph glyph-name="uni0424.loclBGR" horiz-adv-x="1835" 
d="M848 -211h-119l33 197q-221 8 -379.5 107t-227.5 265t-36 369q24 151 97 280.5t185 225t264.5 152.5t327.5 63l31 197h119l-31 -197q221 -8 379.5 -107t227.5 -265t36 -369q-24 -151 -97 -280.5t-185 -225t-264.5 -152.5t-327.5 -63zM240 719q-19 -123 5.5 -231.5
t89.5 -193t179.5 -135.5t265.5 -57l195 1229q-302 -12 -498 -182.5t-237 -429.5zM1094 1331l-195 -1229q302 12 499 183.5t236 429.5q20 123 -4.5 231.5t-90.5 192.5t-180 135t-265 57z" />
    <glyph glyph-name="uni0432.loclBGR" horiz-adv-x="1185" 
d="M754 1456q168 0 260.5 -101.5t70.5 -244.5q-16 -103 -80 -178t-196 -127q139 -28 211 -141t47 -269q-30 -185 -169 -301.5t-347 -116.5q-224 0 -345 142t-79 411l41 261q53 326 200 495.5t386 169.5zM633 829q164 35 242 108t94 177q14 97 -44.5 166.5t-174.5 69.5
q-377 0 -465 -559l-4 -31zM553 84q158 0 267 83.5t132 229.5q17 103 -18.5 185.5t-119.5 123t-198 17.5l-352 -72l-18 -121q-35 -226 48 -336t259 -110z" />
    <glyph glyph-name="uni0433.loclBGR" horiz-adv-x="968" 
d="M786 78q-75 -46 -183.5 -73.5t-211.5 -27.5q-86 0 -155.5 16.5t-121 49.5t-75.5 88.5t-14 128.5q11 76 55.5 128.5t108 79.5t138.5 45t149 32.5t137 34t106.5 58.5t52.5 97t-24 96t-86.5 53t-124.5 15q-193 0 -371 -98l18 112q181 93 377 93q72 0 134.5 -16.5t110.5 -49
t71 -87.5t12 -126q-12 -79 -58 -133.5t-110 -82.5t-139 -46t-149 -32t-136 -32.5t-105 -55.5t-51 -93q-13 -90 60.5 -129t214.5 -39q94 0 201.5 30.5t187.5 82.5z" />
    <glyph glyph-name="uni0434.loclBGR" horiz-adv-x="1267" 
d="M1012 -4q-15 -100 -55.5 -180t-96.5 -133t-127.5 -89t-147 -51.5t-157.5 -15.5q-235 0 -389 98l18 111q147 -103 361 -103q88 0 165 21t142.5 63.5t110 116t59.5 170.5l31 186q-73 -93 -186.5 -153t-250.5 -60q-214 0 -332 148.5t-81 376.5q35 223 194.5 363.5
t368.5 140.5q142 0 239 -65t148 -173l33 215h108zM188 494q-29 -183 63 -296.5t255 -113.5q141 0 260.5 76.5t183.5 189.5l45 279q-26 116 -118.5 193t-229.5 77q-169 0 -299 -109t-160 -296z" />
    <glyph glyph-name="uni0436.loclBGR" horiz-adv-x="1503" 
d="M59 0h-137l498 504l-285 479h121l262 -434h170l139 885h117l-141 -885h170l395 434h131l-442 -487l336 -496h-129l-303 442h-175l-69 -442h-117l70 442h-168z" />
    <glyph glyph-name="uni0438.loclBGR" horiz-adv-x="1193" 
d="M977 983h117l-156 -983h-104l30 182q-69 -84 -179 -144.5t-230 -60.5q-177 0 -273 112t-67 296l94 598h117l-95 -596q-24 -147 42.5 -225t197.5 -78q122 0 226 66t173 163z" />
    <glyph glyph-name="uni0439.loclBGR" horiz-adv-x="1193" 
d="M952 1227q-128 -84 -282 -84q-165 0 -264 84l16 108q60 -49 120 -69.5t136 -20.5q153 0 291 90zM977 983h117l-156 -983h-104l30 182q-69 -84 -179 -144.5t-230 -60.5q-177 0 -273 112t-67 296l94 598h117l-95 -596q-24 -147 42.5 -225t197.5 -78q122 0 226 66t173 163z
" />
    <glyph glyph-name="uni043A.loclBGR" horiz-adv-x="1046" 
d="M909 983h140l-465 -479l352 -504h-131l-324 463h-225l-72 -463h-116l227 1434h117l-138 -865h234z" />
    <glyph glyph-name="uni043B.loclBGR" horiz-adv-x="1087" 
d="M668 983l290 -983h-124l-244 852l-512 -852h-135l602 983h123z" />
    <glyph glyph-name="uni043F.loclBGR" horiz-adv-x="1196" 
d="M297 801q80 87 189 146t233 59q172 0 264.5 -111.5t65.5 -292.5l-97 -602h-116l94 596q24 147 -43.5 225t-196.5 78q-115 0 -222 -67t-179 -160l-105 -672h-116l155 983h105z" />
    <glyph glyph-name="uni0442.loclBGR" horiz-adv-x="1828" 
d="M977 817q193 189 399 189q168 0 251 -110t56 -280l-98 -616h-115l99 627q20 123 -36.5 197.5t-174.5 74.5q-105 0 -197 -57.5t-162 -136.5q0 -43 -6 -89l-98 -616h-117l101 627q19 123 -37.5 197.5t-173.5 74.5q-193 0 -375 -211l-109 -688h-116l155 983h105l-29 -168
q67 75 169 133t216 58q112 0 187.5 -50.5t105.5 -138.5z" />
    <glyph glyph-name="uni0446.loclBGR" horiz-adv-x="1253" 
d="M969 188q-7 -55 14.5 -75.5t71.5 -20.5h57l-57 -364h-109l41 266q-67 5 -104.5 47.5t-30.5 126.5q-72 -80 -177 -135.5t-220 -55.5q-177 0 -273 112t-67 296l94 598h117l-95 -596q-24 -147 42.5 -225t197.5 -78q122 0 226 66t173 163l107 670h117z" />
    <glyph glyph-name="uni0448.loclBGR" horiz-adv-x="1828" 
d="M1503 285l109 698h117l-156 -983h-105l25 164q-62 -72 -163.5 -129.5t-217.5 -57.5q-111 0 -187 52t-106 143q-187 -195 -397 -195q-166 0 -251 110.5t-58 279.5l98 616h115l-99 -627q-19 -123 37.5 -197.5t173.5 -74.5q187 0 361 197q0 43 6 86l96 616h117l-100 -627
q-19 -123 37 -197.5t173 -74.5q112 0 209 60.5t166 140.5z" />
    <glyph glyph-name="uni0449.loclBGR" horiz-adv-x="1890" 
d="M1604 186q-8 -52 14 -73t72 -21h59l-57 -364h-109l41 264q-65 7 -103.5 46t-35.5 116q-65 -70 -162.5 -123.5t-208.5 -53.5t-187 51.5t-108 141.5q-82 -85 -183.5 -139t-213.5 -54q-166 0 -251 110.5t-58 279.5l98 616h115l-99 -627q-19 -123 37.5 -197.5t173.5 -74.5
q106 0 199.5 58.5t161.5 138.5q0 39 6 86l98 616h115l-98 -627q-19 -123 37 -197.5t173 -74.5q112 0 209.5 61t163.5 140l111 698h117z" />
    <glyph glyph-name="uni044E.loclBGR" horiz-adv-x="1667" 
d="M1559 481q-18 -120 -76.5 -217.5t-140.5 -159t-178.5 -94.5t-196.5 -33q-92 0 -174 31t-144.5 88t-97 146t-29.5 196h-270l-68 -438h-116l227 1434h117l-142 -887h269q33 141 123.5 247t209.5 159t250 53q78 0 150 -22.5t131.5 -65.5t100 -107t56 -146.5t-0.5 -183.5z
M641 487q-28 -182 69.5 -290.5t262.5 -108.5q174 0 308.5 109.5t164.5 298.5q28 182 -69.5 290.5t-262.5 108.5q-173 0 -308 -110t-165 -298z" />
    <glyph glyph-name="uni0430.ss01" horiz-adv-x="1120" 
d="M868 174q-15 -82 70 -82q37 0 84 14l-16 -96q-50 -18 -105 -18q-67 0 -109.5 35t-41.5 110q-80 -77 -187.5 -118.5t-218.5 -41.5q-92 0 -166.5 34t-118 105.5t-34.5 168.5q7 69 39 123.5t78.5 88t107 55t119 30t120.5 8.5q176 0 322 -45l12 76q22 136 -51.5 207
t-245.5 71q-154 0 -338 -70l19 115q160 62 336 62q223 0 323 -103.5t68 -304.5zM367 78q110 0 220.5 50.5t180.5 141.5l29 183q-136 39 -295 39q-62 0 -119 -10.5t-111.5 -33.5t-89 -67t-39.5 -105q-9 -92 55 -145t169 -53z" />
    <glyph glyph-name="uni0437.ss01" horiz-adv-x="931" 
d="M770 -70q-22 -135 -100.5 -227.5t-191 -134t-253.5 -41.5q-224 0 -348 94l17 111q63 -48 148 -73.5t171 -25.5q82 0 154 18.5t132 55t100.5 97t53.5 139.5q13 76 -5 144t-61 115.5t-113 68t-155 1.5l-135 -28l17 108l153 33q285 67 316 283q17 104 -51.5 167.5
t-184.5 63.5q-179 0 -344 -102l19 125q171 86 335 86q106 0 190 -43.5t126.5 -124t27.5 -181.5q-32 -214 -276 -307q136 -31 209.5 -151.5t48.5 -270.5z" />
    <glyph glyph-name="uni0443.ss01" horiz-adv-x="1193" 
d="M936 -10q-17 -101 -57 -181.5t-93 -132.5t-120.5 -86t-136.5 -48.5t-144 -14.5q-109 0 -202.5 21.5t-151.5 56.5l18 110q124 -82 326 -82q81 0 151 19t132.5 59.5t105 113.5t57.5 173l27 170q-72 -79 -175 -135t-218 -56q-183 0 -276 110.5t-64 293.5l94 602h117
l-97 -596q-24 -154 40 -228.5t202 -74.5q117 0 220.5 66t178.5 159l107 674h117z" />
    <glyph glyph-name="zero.osf" horiz-adv-x="1343" 
d="M1233 518q-13 -81 -47 -158.5t-91 -147t-130 -122t-170.5 -83t-206.5 -30.5q-94 0 -174 23t-136 63.5t-99 95.5t-63.5 118.5t-28.5 132.5t5 137q16 102 68.5 197.5t132.5 172.5t195.5 123.5t246.5 46.5q93 0 172.5 -23t135.5 -63t100 -95t65 -118t29.5 -132t-4.5 -138z
M213 535q-13 -85 3 -163t59.5 -141t125 -101t189.5 -38t201 36t158 97.5t106.5 139.5t54.5 165q14 84 -2.5 162.5t-61 141.5t-125.5 101t-186 38q-108 0 -201 -36t-158 -97.5t-107 -139.5t-56 -165z" />
    <glyph glyph-name="one.osf" horiz-adv-x="862" 
d="M528 1065h88l-149 -948h274l-20 -117h-698l18 117h305l129 817l-321 -115l18 117z" />
    <glyph glyph-name="two.osf" horiz-adv-x="1077" 
d="M879 0h-877l14 80q5 36 17.5 69t26 59t37.5 51.5t42.5 43.5t52.5 39t55 33.5t62 31t62 27t66.5 27t64.5 26.5q13 5 51.5 20.5t55 22t50.5 21.5t51 25.5t44 27.5t41.5 32.5t31 35.5t26 43t13.5 49q15 95 -56 153t-204 58q-204 0 -424 -123l19 125q202 110 420 110
q183 0 285.5 -93t78.5 -246q-5 -32 -17 -61t-26 -52.5t-37 -47t-41.5 -40t-50 -36t-51.5 -31t-57 -29t-55.5 -25.5t-58 -24.5t-54.5 -22.5q-185 -78 -232 -103q-131 -69 -151 -148q-1 -5 -2 -11h747z" />
    <glyph glyph-name="three.osf" horiz-adv-x="1107" 
d="M973 707q-18 -108 -93 -194t-190 -116q53 -13 98.5 -40.5t82 -70t51.5 -106.5t2 -141q-14 -94 -65.5 -169.5t-126 -122.5t-163 -72t-182.5 -25q-250 0 -426 92l19 117q88 -50 183 -72.5t220 -22.5q103 0 192 30.5t154.5 99t81.5 165.5q12 73 -8 128t-65 86t-102.5 46
t-127.5 15h-176l18 117l158 -2q144 -1 237 75.5t111 188.5q19 115 -59.5 188.5t-227.5 73.5q-202 0 -403 -103l20 123q199 92 404 92q193 0 301 -108.5t82 -271.5z" />
    <glyph glyph-name="four.osf" horiz-adv-x="1212" 
d="M848 1065h133l-150 -954h259l-17 -113h-260l-51 -326h-121l53 326h-743l16 108zM711 111l125 784l-721 -784h596z" />
    <glyph glyph-name="five.osf" horiz-adv-x="1091" 
d="M260 1065h756l-19 -117h-643l-102 -477q124 39 256 39q67 0 131 -15.5t123.5 -49.5t101 -84t60 -124.5t4.5 -164.5q-30 -193 -190 -307.5t-378 -114.5q-217 0 -391 94l19 115q163 -97 362 -97q180 0 306.5 87t150.5 237q13 85 -11 148.5t-76.5 98t-116 50.5t-138.5 16
q-173 0 -361 -67z" />
    <glyph glyph-name="six.osf" horiz-adv-x="1200" 
d="M1114 1225q-127 75 -285 75q-70 0 -138.5 -20t-137.5 -66.5t-126.5 -115t-104.5 -173t-72 -233.5q208 164 444 164q83 0 158 -28t133.5 -80.5t85.5 -138.5t10 -191q-16 -104 -66 -189t-120.5 -139.5t-155.5 -83.5t-174 -29q-263 0 -377.5 186t-62.5 509q24 152 76 277
t121 210.5t154 144t174 85t181 26.5q168 0 299 -78zM557 90q94 0 177 35t146 113t81 188q13 85 -6.5 148.5t-64.5 99t-101.5 52.5t-124.5 17q-107 0 -221 -48.5t-212 -139.5q-17 -227 69.5 -346t256.5 -119z" />
    <glyph glyph-name="seven.osf" horiz-adv-x="985" 
d="M111 1065h915l-14 -109l-797 -1284h-133l790 1276h-778z" />
    <glyph glyph-name="eight.osf" horiz-adv-x="1257" 
d="M233 1073q22 138 160 240t355 102q105 0 191 -32t138.5 -85t77 -121.5t14.5 -140.5q-14 -105 -83 -198.5t-187 -165.5q248 -112 211 -334q-11 -71 -52 -134.5t-109 -115t-172.5 -81.5t-231.5 -30q-246 0 -372 117.5t-97 290.5q16 108 97 211t218 174q-189 109 -158 303z
M647 659q-75 25 -158 58q-124 -56 -201.5 -145.5t-92.5 -188.5q-22 -136 73 -214.5t283 -78.5q177 0 298.5 74t139.5 184q6 36 3 65.5t-14 53.5t-30 43.5t-44.5 36t-58 32t-71 31t-82.5 32.5q-30 11 -45 17zM1049 1032q18 109 -66.5 190t-241.5 81q-155 0 -264.5 -71
t-124.5 -171q-7 -41 -1 -75.5t27.5 -62.5t44.5 -48.5t66.5 -41.5t75.5 -34.5t88 -34.5q130 -41 146 -45q104 59 169.5 140.5t80.5 172.5z" />
    <glyph glyph-name="nine.osf" horiz-adv-x="1175" 
d="M86 653q22 137 101 237.5t186.5 148.5t228.5 48q264 0 378 -186t62 -508q-24 -152 -76 -277t-120.5 -210.5t-153 -144t-173 -85t-181.5 -26.5q-162 0 -301 78l16 114q132 -78 287 -78q69 0 137.5 20t137.5 66.5t126.5 115t103.5 172t70 231.5q-198 -160 -442 -160
q-84 0 -159.5 29t-133.5 82.5t-84.5 140t-9.5 192.5zM608 975q-70 0 -134.5 -20t-120 -59t-94.5 -104t-52 -149t6.5 -148t65 -100.5t103 -54.5t124.5 -18q111 0 222.5 48.5t207.5 139.5q17 225 -71 345t-257 120z" />
    <glyph glyph-name="zero.sinf" horiz-adv-x="886" 
d="M752 203q-30 -188 -143.5 -305t-286.5 -117q-124 0 -201.5 59t-102 157t-4.5 226q30 188 143.5 305t288.5 117q123 0 200 -59t101.5 -157t4.5 -226zM117 215q-26 -159 25 -248.5t182 -89.5q272 0 327 334q26 159 -25 248.5t-182 89.5q-275 0 -327 -334z" />
    <glyph glyph-name="one.sinf" horiz-adv-x="538" 
d="M287 631h75l-116 -740h149l-16 -96h-440l14 96h190l101 633l-189 -69l17 98z" />
    <glyph glyph-name="two.sinf" horiz-adv-x="718" 
d="M88 569q131 76 274 76q119 0 195 -63t57 -168q-16 -90 -87 -157.5t-191 -129.5q-44 -23 -55 -28.5t-48 -26.5t-49 -30.5t-38 -30t-36.5 -36.5t-22 -38t-15.5 -46h469l-17 -96h-587l8 53q7 49 23 91t43.5 76t52.5 58.5t67 50.5t68.5 40.5t74.5 38.5q111 57 170 107t70 116
q10 60 -35 92.5t-121 32.5q-140 0 -286 -90z" />
    <glyph glyph-name="three.sinf" horiz-adv-x="733" 
d="M600 412q-9 -64 -53 -113.5t-113 -69.5q67 -15 109 -69.5t28 -145.5q-18 -114 -113 -173.5t-231 -59.5q-161 0 -278 57l16 99q111 -60 258 -60q106 0 173.5 38.5t78.5 119.5q13 78 -35.5 110.5t-142.5 32.5h-131l14 96h117q89 0 142.5 40t64.5 104q9 60 -39 95.5
t-133 35.5q-132 0 -266 -64l16 105q123 55 266 55q120 0 193.5 -67t58.5 -166z" />
    <glyph glyph-name="four.sinf" horiz-adv-x="808" 
d="M504 631h110l-88 -555h158l-14 -94h-158l-31 -187h-98l29 187h-467l14 92zM426 76l66 413l-406 -413h340z" />
    <glyph glyph-name="five.sinf" horiz-adv-x="727" 
d="M129 631h502l-17 -96h-405l-55 -238q71 18 143 18q57 0 109 -15t96 -46t65.5 -86.5t10.5 -128.5q-20 -121 -120.5 -189.5t-240.5 -68.5q-157 0 -262 57l14 94q98 -55 240 -55q108 0 180.5 45.5t85.5 132.5q8 48 -6 82t-46.5 52t-72.5 26t-90 8q-102 0 -227 -41z" />
    <glyph glyph-name="six.sinf" horiz-adv-x="782" 
d="M123 238q129 77 266 77q116 0 193 -71.5t57 -196.5q-13 -85 -63 -146.5t-120 -90.5t-153 -29q-170 0 -246 114.5t-45 311.5q35 217 157.5 327.5t285.5 110.5q111 0 198 -49l-14 -94q-73 47 -184 47q-115 0 -205.5 -75t-126.5 -236zM299 -125q96 0 160 41.5t78 132.5
q16 90 -35.5 131t-139.5 41q-140 0 -256 -90q-10 -129 40.5 -192.5t152.5 -63.5z" />
    <glyph glyph-name="seven.sinf" horiz-adv-x="647" 
d="M154 -205h-113l448 740h-466l16 96h577l-14 -92z" />
    <glyph glyph-name="eight.sinf" horiz-adv-x="815" 
d="M74 436q13 85 100 147t232 62q142 0 216.5 -70t63.5 -169q-8 -57 -45 -111.5t-102 -95.5q133 -70 110 -199q-13 -93 -103 -156t-257 -63q-166 0 -245.5 73.5t-61.5 180.5q10 60 53.5 118t122.5 101q-100 67 -84 182zM356 174q-68 17 -112 35q-70 -31 -112 -78t-48 -96
q-12 -77 41 -118.5t168 -41.5q109 0 178 37t78 98q5 35 -6 60.5t-38 42.5t-56 29t-70 25q-15 5 -23 7zM582 399q11 64 -36 108t-145 44q-97 0 -157.5 -34.5t-69.5 -90.5q-5 -34 4.5 -59t40.5 -44.5t48.5 -27t64.5 -23.5q15 -5 22 -8q18 -5 54 -13t47 -11q114 67 127 159z
" />
    <glyph glyph-name="nine.sinf" horiz-adv-x="782" 
d="M23 379q19 127 114 196.5t221 69.5q175 0 248.5 -113.5t42.5 -312.5q-35 -218 -157 -328t-287 -110q-113 0 -197 49l15 94q78 -47 184 -47q116 0 206 74.5t126 234.5q-130 -75 -267 -75q-116 0 -192.5 71.5t-56.5 196.5zM362 551q-93 0 -159 -42.5t-80 -131.5
q-14 -90 37.5 -131t140.5 -41q139 0 254 92q20 254 -193 254z" />
    <glyph glyph-name="zero.sups" horiz-adv-x="884" 
d="M905 1178q-30 -188 -143.5 -305t-286.5 -117q-184 0 -261 122.5t-46 319.5q30 188 143.5 305t288.5 117q123 0 199.5 -59t101 -157t4.5 -226zM270 1190q-26 -159 25 -248.5t182 -89.5q273 0 328 334q26 159 -25 248.5t-182 89.5q-139 0 -221 -86t-107 -248z" />
    <glyph glyph-name="one.sups" horiz-adv-x="536" 
d="M438 1597h76l-117 -739h150l-17 -96h-440l14 96h191l100 633l-188 -70l16 99z" />
    <glyph glyph-name="two.sups" horiz-adv-x="720" 
d="M244 1544q131 76 274 76q119 0 195 -63t57 -168q-16 -90 -87 -157.5t-191 -129.5q-131 -68 -175 -102q-77 -61 -90 -134h469l-16 -96h-588l8 53q6 42 20.5 80t31 66t45 56t50 46t59.5 40.5t60 34t64 32.5q111 57 170 107t70 116q10 60 -35 92.5t-121 32.5
q-141 0 -287 -90z" />
    <glyph glyph-name="three.sups" horiz-adv-x="735" 
d="M756 1386q-9 -64 -53 -113t-113 -69q67 -15 109 -69.5t28 -145.5q-18 -114 -113 -173.5t-231 -59.5q-162 0 -279 57l17 98q109 -59 258 -59q106 0 173.5 38.5t78.5 119.5q13 78 -35.5 110.5t-142.5 32.5h-131l14 96h117q89 0 142 40t64 104q9 60 -39 95.5t-133 35.5
q-132 0 -266 -64l17 105q123 55 266 55q119 0 193 -67.5t59 -166.5z" />
    <glyph glyph-name="four.sups" horiz-adv-x="808" 
d="M655 1597h111l-88 -555h158l-15 -94h-157l-31 -186h-98l28 186h-467l15 92zM578 1042l65 414l-405 -414h340z" />
    <glyph glyph-name="five.sups" horiz-adv-x="729" 
d="M283 1597h501l-16 -96h-406l-55 -237q70 18 144 18q45 0 87.5 -9t82 -30t67 -52t40 -78.5t3.5 -106.5q-20 -121 -120 -189.5t-240 -68.5q-157 0 -262 57l14 94q98 -55 239 -55q108 0 181 46t86 132q8 48 -6 82t-46.5 52t-72.5 26t-90 8q-103 0 -228 -41z" />
    <glyph glyph-name="six.sups" horiz-adv-x="780" 
d="M276 1212q130 78 267 78q116 0 193 -71.5t57 -196.5q-13 -85 -63 -146.5t-120 -90.5t-153 -29q-170 0 -246 114.5t-45 311.5q35 217 157 327.5t285 110.5q112 0 199 -49l-14 -94q-73 47 -185 47q-115 0 -205.5 -75.5t-126.5 -236.5zM453 850q95 0 159 41.5t78 132.5
q16 90 -35 131t-139 41q-140 0 -256 -90q-10 -129 40.5 -192.5t152.5 -63.5z" />
    <glyph glyph-name="seven.sups" horiz-adv-x="647" 
d="M307 762h-112l448 739h-467l17 96h577l-14 -92z" />
    <glyph glyph-name="eight.sups" horiz-adv-x="815" 
d="M229 1411q13 85 100 147t232 62q142 0 217 -70.5t64 -169.5q-8 -56 -45.5 -110.5t-102.5 -95.5q134 -71 111 -199q-13 -92 -103.5 -155.5t-257.5 -63.5q-166 0 -245.5 73.5t-61.5 180.5q10 60 53.5 118t122.5 101q-100 67 -84 182zM512 1149q-71 18 -113 35
q-70 -31 -111.5 -78t-47.5 -96q-12 -77 41 -118.5t168 -41.5q109 0 178 37t78 98q5 35 -6 60.5t-38 42.5t-56 29t-70 25q-15 5 -23 7zM737 1374q11 64 -35.5 108t-144.5 44q-97 0 -157.5 -34.5t-69.5 -90.5q-5 -34 4.5 -59t40.5 -44.5t48.5 -27t64.5 -23.5q15 -5 22 -8
q48 -13 100 -25q114 66 127 160z" />
    <glyph glyph-name="nine.sups" horiz-adv-x="780" 
d="M176 1354q13 85 63.5 146.5t120.5 90.5t152 29q175 0 248.5 -113.5t42.5 -312.5q-18 -111 -61 -196.5t-103 -137.5t-131 -78t-150 -26q-112 0 -196 49l14 94q78 -47 184 -47q116 0 206 74.5t126 234.5q-132 -76 -266 -76q-116 0 -193 72t-57 197zM516 1526
q-94 0 -160 -43t-80 -131q-14 -90 38 -131t141 -41q139 0 254 92q20 254 -193 254z" />
    <glyph glyph-name="zero.tf" 
d="M94 707q33 209 120 366.5t228.5 249.5t319.5 92q175 0 289.5 -95.5t154 -259.5t6.5 -374q-33 -208 -120.5 -366.5t-228.5 -250.5t-318 -92q-175 0 -289.5 95.5t-154.5 260t-7 374.5zM1094 694q44 279 -43.5 442.5t-294.5 163.5q-213 0 -354.5 -160t-186.5 -442
q-44 -279 42.5 -442.5t293.5 -163.5q215 0 356.5 159.5t186.5 442.5z" />
    <glyph glyph-name="one.tf" 
d="M786 1393h88l-202 -1276h438l-20 -117h-1031l19 117h473l182 1145l-434 -152l18 117z" />
    <glyph glyph-name="two.tf" 
d="M289 1286q231 129 473 129q213 0 334 -104.5t94 -274.5q-8 -48 -27.5 -92t-42 -78t-63.5 -71t-72 -61t-89 -58.5t-93 -53.5t-103 -55q-21 -11 -66 -34.5t-68 -35.5t-63.5 -35t-63.5 -38t-57 -39t-54 -44t-45 -47t-40 -53t-28 -58t-20 -66h864l-21 -117h-999l10 66
q10 66 32 124t49 102.5t68 86.5t79 73t92 64.5t98 57.5t105 56q14 7 21.5 11t19 10t20.5 11q12 6 36 19q53 28 80.5 42.5t74.5 42.5t73 47.5t61 49t54.5 56.5t36 61.5t22.5 70.5q19 114 -67.5 183t-258.5 69q-223 0 -462 -146z" />
    <glyph glyph-name="three.tf" 
d="M1161 1034q-18 -109 -93 -194t-191 -115q43 -10 80.5 -29t71.5 -49t55 -70.5t30.5 -93t-2.5 -116.5q-20 -125 -103.5 -214.5t-204.5 -132.5t-267 -43q-292 0 -480 93l17 112q182 -95 461 -92q189 2 313.5 76.5t148.5 220.5q12 74 -8.5 128.5t-69.5 85.5t-115 46t-151 15
h-231l20 112h213q172 0 271.5 76t115.5 190q19 118 -66 190.5t-263 72.5q-126 0 -233 -24.5t-226 -76.5l20 121q201 92 459 92q215 0 334 -108.5t94 -272.5z" />
    <glyph glyph-name="four.tf" 
d="M956 1393h136l-152 -955h258l-16 -112h-260l-52 -326h-120l51 326h-797l16 106zM817 438l125 789l-770 -789h645z" />
    <glyph glyph-name="five.tf" 
d="M356 1393h848l-16 -117h-737l-107 -477q133 39 299 39q105 0 195.5 -25.5t161 -76.5t103.5 -139t15 -202q-32 -194 -197.5 -306t-402.5 -112q-274 0 -450 95l16 110q165 -92 426 -92q200 0 331.5 84t155.5 236q13 86 -12 149t-82 98.5t-133 52.5t-172 17q-205 0 -399 -68
z" />
    <glyph glyph-name="six.tf" 
d="M1161 1227q-125 73 -295 73q-108 0 -201.5 -33.5t-174.5 -104.5t-140.5 -191.5t-89.5 -284.5q232 170 488 170q69 0 134 -17t120.5 -53t94 -87t54.5 -123.5t2 -157.5q-33 -207 -188 -324t-361 -117q-186 0 -303.5 85.5t-158.5 241t-7 368.5q30 191 98.5 335.5t166 232.5
t215.5 131.5t255 43.5q173 0 310 -78zM602 90q166 0 284.5 86t145.5 250q13 85 -6.5 148.5t-66.5 99t-107.5 52.5t-136.5 17q-122 0 -246.5 -49t-226.5 -141q-17 -227 75.5 -345t284.5 -118z" />
    <glyph glyph-name="seven.tf" 
d="M238 1393h1056l-16 -109l-815 -1284h-133l809 1276h-920z" />
    <glyph glyph-name="eight.tf" 
d="M1149 328q-12 -71 -52.5 -132.5t-109.5 -111.5t-176.5 -78.5t-241.5 -28.5q-138 0 -244.5 33.5t-169 91t-88.5 132.5t-12 159q16 110 97 210t219 167q-190 113 -158 303q11 66 48.5 125.5t102 109t166 78.5t226.5 29q115 0 208 -34t148.5 -90t80.5 -126t15 -143
q-26 -206 -268 -350q245 -109 209 -344zM176 397q-22 -139 82.5 -223t323.5 -84q186 0 306 72t138 182q11 69 -8.5 119t-82.5 86t-105.5 52.5t-143.5 46.5q-15 5 -22 7q-103 28 -193 62q-127 -54 -203.5 -137.5t-91.5 -182.5zM664 766q36 -9 174 -49q218 122 247 305
q19 114 -68 197.5t-267 83.5q-181 0 -290.5 -68t-125.5 -170q-9 -54 6.5 -98t44 -72.5t75 -52.5t88.5 -39t95 -31z" />
    <glyph glyph-name="nine.tf" 
d="M156 975q22 139 104 240.5t197 150.5t248 49q279 0 400 -185.5t69 -508.5q-30 -191 -98.5 -335.5t-166.5 -233t-216 -132t-255 -43.5q-172 0 -309 78l18 113q122 -76 295 -76q108 0 201.5 33.5t175 104.5t141 192t89.5 285q-232 -170 -488 -170q-88 0 -166.5 28
t-139 80.5t-88.5 138t-11 191.5zM707 1303q-165 0 -284.5 -89.5t-146.5 -255.5q-13 -84 6.5 -146t66.5 -96.5t108 -50.5t137 -16q122 0 246 49.5t227 141.5q17 227 -75.5 345t-284.5 118z" />
    <glyph glyph-name="zero.tosf" 
d="M1198 524q-17 -103 -67 -199t-128.5 -174.5t-195 -126t-252.5 -47.5q-134 0 -239 49.5t-165 130t-84 180.5t-8 204q13 82 47.5 160t91.5 148t130.5 123t171 84t205.5 31q90 0 167.5 -22.5t133.5 -62.5t100 -94t65.5 -116.5t30.5 -131t-4 -136.5zM180 530
q-8 -67 -2.5 -130.5t35.5 -119.5t74.5 -97.5t113.5 -66t154 -24.5q109 0 202.5 36.5t158 99t106 141.5t55.5 166q8 67 2 130.5t-36 119.5t-75 97.5t-113.5 66t-152.5 24.5q-108 0 -201 -37t-158 -99t-107 -141t-56 -166z" />
    <glyph glyph-name="one.tosf" 
d="M731 1065h88l-149 -948h438l-21 -117h-1030l19 117h473l129 817l-432 -152l18 117z" />
    <glyph glyph-name="two.tosf" 
d="M1036 0h-985l15 80q9 55 34.5 103t50.5 81.5t77.5 67t81.5 51t98.5 42.5t93 32t97.5 28l4.5 1.5t4 1t4.5 1.5q195 55 288.5 114t111.5 159q15 99 -67 156t-234 57q-243 0 -482 -141l21 124q226 129 475 129q203 0 316 -93t89 -249q-10 -58 -39 -106.5t-69.5 -84.5
t-101.5 -67.5t-124 -54t-147 -45.5q-86 -24 -151.5 -47.5t-133.5 -56.5t-109.5 -75.5t-49.5 -90.5h850z" />
    <glyph glyph-name="three.tosf" 
d="M1098 707q-18 -109 -93.5 -194.5t-191.5 -115.5q54 -13 100 -40.5t82.5 -70t52 -106.5t3.5 -141q-21 -125 -103.5 -214.5t-203 -132t-267.5 -42.5q-283 0 -469 92l17 113q179 -93 450 -93q189 0 312.5 75t148.5 222q11 74 -9.5 128t-69.5 85.5t-115 46.5t-152 15h-217
l20 112h199q171 0 270.5 76t118.5 191q19 117 -66.5 189.5t-261.5 72.5q-119 0 -224 -24.5t-224 -76.5l20 121q201 92 449 92q212 0 330.5 -108t93.5 -272z" />
    <glyph glyph-name="four.tosf" 
d="M901 1051h133l-151 -953h270l-18 -114h-269l-53 -326h-121l51 326h-796l16 106zM762 98l127 787l-770 -787h643z" />
    <glyph glyph-name="five.tosf" 
d="M311 1065h836l-19 -117h-722l-107 -477q133 39 281 39q85 0 160.5 -15t141 -49.5t110 -84.5t63.5 -125.5t4 -167.5q-30 -194 -197 -306t-405 -112q-260 0 -434 94l16 111q79 -44 188 -68.5t222 -24.5q201 0 333.5 84.5t155.5 235.5q14 86 -11 149t-82.5 98.5t-134 52.5
t-173.5 17q-192 0 -383 -67z" />
    <glyph glyph-name="six.tosf" 
d="M1161 1227q-125 73 -295 73q-108 0 -201.5 -33.5t-174.5 -104.5t-140.5 -191.5t-89.5 -284.5q232 170 488 170q69 0 134 -17t120.5 -53t94 -87t54.5 -123.5t2 -157.5q-33 -207 -188 -324t-361 -117q-186 0 -303.5 85.5t-158.5 241t-7 368.5q30 191 98.5 335.5t166 232.5
t215.5 131.5t255 43.5q173 0 310 -78zM602 90q166 0 284.5 86t145.5 250q13 85 -6.5 148.5t-66.5 99t-107.5 52.5t-136.5 17q-122 0 -246.5 -49t-226.5 -141q-17 -227 75.5 -345t284.5 -118z" />
    <glyph glyph-name="seven.tosf" 
d="M190 1065h1047l-16 -109l-832 -1284h-135l827 1276h-909z" />
    <glyph glyph-name="eight.tosf" 
d="M1149 328q-25 -149 -174.5 -250t-405.5 -101q-141 0 -248 34t-168.5 92.5t-86.5 133.5t-11 160q15 110 96 208t220 165q-190 113 -158 303q11 66 47.5 125.5t99.5 109t164 78.5t226 29q94 0 173.5 -22.5t135 -60.5t92.5 -88t51 -107t6 -115q-26 -206 -268 -350
q245 -109 209 -344zM176 397q-22 -139 82.5 -223t323.5 -84q186 0 306 72t138 182q11 69 -8.5 119t-82.5 86t-105.5 52.5t-143.5 46.5q-15 5 -22 7q-103 28 -193 62q-127 -54 -203.5 -137.5t-91.5 -182.5zM664 766q36 -9 174 -49q218 122 247 305q19 114 -71 197.5
t-269 83.5q-182 0 -288.5 -67.5t-122.5 -170.5q-9 -54 6.5 -98t44 -72.5t75 -52.5t88.5 -39t95 -31z" />
    <glyph glyph-name="nine.tosf" 
d="M102 647q22 139 104 240.5t197 150.5t248 49q279 0 400 -185.5t69 -508.5q-30 -191 -98.5 -335.5t-166 -232.5t-215.5 -131.5t-255 -43.5q-172 0 -309 78l18 112q122 -76 295 -76q108 0 201.5 33.5t174.5 104.5t140.5 192t89.5 285q-232 -170 -487 -170q-70 0 -135 17
t-120.5 53t-94 87t-54.5 123.5t-2 157.5zM653 975q-166 0 -284.5 -85t-145.5 -251q-13 -84 6.5 -147t66.5 -99t108 -53.5t137 -17.5q122 0 246.5 49t226.5 141q17 227 -76 345t-285 118z" />
    <glyph glyph-name="zero.dnom" horiz-adv-x="886" 
d="M784 408q-30 -188 -143.5 -305t-286.5 -117q-184 0 -261 122.5t-46 319.5q30 188 143.5 305t288.5 117q123 0 199.5 -59t101 -157t4.5 -226zM150 420q-26 -159 24.5 -248.5t181.5 -89.5q273 0 328 334q26 159 -25 248.5t-182 89.5q-275 0 -327 -334z" />
    <glyph glyph-name="one.dnom" horiz-adv-x="536" 
d="M317 836h76l-117 -740h150l-16 -96h-441l15 96h190l100 633l-188 -70l16 99z" />
    <glyph glyph-name="two.dnom" horiz-adv-x="718" 
d="M121 774q131 76 274 76q119 0 195 -63.5t57 -168.5q-16 -90 -86.5 -157t-191.5 -129q-131 -68 -175 -102q-77 -61 -90 -134h469l-16 -96h-588l8 53q6 42 20.5 80t31 66t45 56t50 46t59.5 40.5t60 34t64 32.5q111 57 170 107t70 116q10 60 -35 92.5t-121 32.5
q-141 0 -287 -90z" />
    <glyph glyph-name="three.dnom" horiz-adv-x="733" 
d="M633 616q-9 -64 -53 -113t-113 -69q67 -15 109 -69.5t28 -145.5q-18 -114 -113 -173.5t-231 -59.5q-161 0 -278 57l16 98q109 -59 258 -59q106 0 173.5 38.5t78.5 119.5q13 78 -35.5 110.5t-142.5 32.5h-131l14 96h117q89 0 142.5 40t64.5 104q9 60 -39 95.5t-133 35.5
q-133 0 -267 -64l17 105q123 55 266 55q119 0 193 -67.5t59 -166.5z" />
    <glyph glyph-name="four.dnom" horiz-adv-x="806" 
d="M535 836h110l-88 -555h158l-15 -95h-157l-31 -186h-98l28 186h-467l15 93zM457 281l65 413l-405 -413h340z" />
    <glyph glyph-name="five.dnom" horiz-adv-x="727" 
d="M162 836h502l-17 -97h-405l-56 -237q71 18 144 18q45 0 87.5 -9t82 -30t67 -52t40 -78.5t3.5 -106.5q-20 -121 -120 -189.5t-240 -68.5q-157 0 -262 57l14 94q98 -55 240 -55q108 0 180.5 45.5t85.5 132.5q8 48 -6 82t-46.5 52t-72.5 26t-90 8q-102 0 -227 -41z" />
    <glyph glyph-name="six.dnom" horiz-adv-x="782" 
d="M156 442q130 78 266 78q116 0 193 -71.5t57 -196.5q-13 -85 -63 -146.5t-120 -90.5t-153 -29q-170 0 -246 114.5t-45 311.5q35 217 157 327.5t285 110.5q112 0 199 -49l-14 -94q-73 47 -185 47q-115 0 -205 -75.5t-126 -236.5zM332 80q95 0 159 41.5t78 132.5
q16 90 -35 131t-139 41q-140 0 -256 -90q-10 -129 40.5 -192.5t152.5 -63.5z" />
    <glyph glyph-name="seven.dnom" horiz-adv-x="647" 
d="M186 0h-112l448 739h-467l17 97h577l-14 -93z" />
    <glyph glyph-name="eight.dnom" horiz-adv-x="815" 
d="M106 641q13 85 100 147t232 62q142 0 217 -70.5t64 -169.5q-8 -57 -45.5 -111.5t-102.5 -95.5q134 -71 111 -198q-13 -93 -103 -156t-257 -63q-166 0 -246 73.5t-62 180.5q10 60 53.5 118t122.5 101q-100 67 -84 182zM389 379q-71 18 -113 35q-70 -31 -111.5 -78
t-47.5 -96q-12 -77 41 -118.5t168 -41.5q109 0 178 37t78 98q5 35 -6 60.5t-38 42.5t-56 29t-70 25q-15 5 -23 7zM614 604q11 64 -35.5 108t-144.5 44q-97 0 -157.5 -34.5t-69.5 -90.5q-5 -34 4.5 -59t40.5 -44.5t48.5 -27t64.5 -23.5q15 -5 22 -8q48 -13 100 -25
q114 66 127 160z" />
    <glyph glyph-name="nine.dnom" horiz-adv-x="782" 
d="M55 584q13 85 63.5 146.5t120.5 90.5t152 29q175 0 248.5 -113.5t42.5 -312.5q-35 -218 -157 -328t-287 -110q-113 0 -197 49l14 94q78 -47 185 -47q116 0 205.5 74.5t125.5 234.5q-132 -76 -266 -76q-116 0 -193 72t-57 197zM395 756q-93 0 -159 -42.5t-80 -131.5
q-14 -90 37.5 -131t140.5 -41q139 0 254 92q20 254 -193 254z" />
    <glyph glyph-name="zero.numr" horiz-adv-x="886" 
d="M874 973q-30 -188 -143.5 -305t-286.5 -117q-184 0 -261 122.5t-46 319.5q30 188 143.5 305t288.5 117q123 0 199.5 -59t101 -157t4.5 -226zM240 985q-26 -159 24.5 -248.5t181.5 -89.5q273 0 328 334q26 159 -25 248.5t-182 89.5q-275 0 -327 -334z" />
    <glyph glyph-name="one.numr" horiz-adv-x="538" 
d="M408 1393h75l-116 -740h149l-16 -96h-441l15 96h190l101 633l-189 -69l17 98z" />
    <glyph glyph-name="two.numr" horiz-adv-x="722" 
d="M213 1339q131 76 274 76q119 0 195 -63t57 -168q-16 -90 -87 -157.5t-191 -129.5q-130 -68 -173 -101q-78 -59 -91 -134h469l-17 -97h-588l9 53q7 49 23 91t43.5 76t52.5 58.5t67 50.5t68.5 40.5t74.5 38.5q111 57 170 107t70 116q10 60 -35 92.5t-121 32.5
q-140 0 -286 -90z" />
    <glyph glyph-name="three.numr" horiz-adv-x="733" 
d="M723 1182q-9 -64 -53 -113.5t-113 -69.5q67 -15 109 -69.5t28 -145.5q-18 -114 -113 -173.5t-231 -59.5q-161 0 -278 57l16 99q111 -60 258 -60q106 0 173.5 38.5t78.5 119.5q13 78 -35.5 110.5t-142.5 32.5h-131l14 96h117q89 0 142.5 40t64.5 104q9 60 -39 95.5
t-133 35.5q-133 0 -267 -64l17 105q123 55 266 55q120 0 193.5 -67t58.5 -166z" />
    <glyph glyph-name="four.numr" horiz-adv-x="808" 
d="M625 1393h110l-88 -555h158l-14 -95h-158l-31 -186h-98l28 186h-466l14 93zM547 838l65 413l-405 -413h340z" />
    <glyph glyph-name="five.numr" horiz-adv-x="727" 
d="M250 1393h502l-17 -97h-405l-56 -237q71 18 144 18q45 0 87.5 -9t82 -30t67 -52t40 -78.5t3.5 -106.5q-20 -121 -120 -189.5t-240 -68.5q-157 0 -262 57l14 94q98 -55 240 -55q108 0 180.5 45.5t85.5 132.5q8 48 -6 82t-46.5 52t-72.5 26t-90 8q-102 0 -227 -41z" />
    <glyph glyph-name="six.numr" horiz-adv-x="782" 
d="M246 1008q129 77 266 77q116 0 193 -71.5t57 -196.5q-13 -85 -63 -146.5t-120 -90.5t-153 -29q-170 0 -246 114.5t-45 311.5q35 217 157.5 327.5t285.5 110.5q111 0 198 -49l-14 -94q-73 47 -184 47q-115 0 -205.5 -75t-126.5 -236zM422 645q95 0 159 41.5t78 132.5
q16 90 -35 131t-139 41q-140 0 -256 -90q-10 -129 40.5 -192.5t152.5 -63.5z" />
    <glyph glyph-name="seven.numr" horiz-adv-x="647" 
d="M274 557h-112l448 739h-467l17 97h577l-14 -93z" />
    <glyph glyph-name="eight.numr" horiz-adv-x="815" 
d="M197 1206q13 85 99.5 147t231.5 62q142 0 217 -70t64 -169q-8 -57 -45 -111.5t-102 -95.5q133 -70 110 -199q-13 -93 -103 -156t-257 -63q-166 0 -246 73.5t-62 180.5q10 60 54 118t123 101q-100 67 -84 182zM479 944q-68 18 -112 35q-70 -31 -112 -78t-48 -96
q-12 -77 41 -118.5t168 -41.5q109 0 178 37t78 98q5 35 -6 60.5t-38 42.5t-56 29t-70 25q-15 5 -23 7zM705 1169q11 64 -36 108t-145 44q-97 0 -157.5 -34.5t-69.5 -90.5q-5 -34 4.5 -59t40.5 -44.5t48.5 -27t64.5 -23.5q15 -5 22 -8q18 -5 54 -13t47 -11q114 67 127 159z
" />
    <glyph glyph-name="nine.numr" horiz-adv-x="782" 
d="M145 1149q13 85 63.5 146.5t120.5 90.5t152 29q175 0 248.5 -113.5t42.5 -312.5q-35 -218 -157 -328t-287 -110q-113 0 -197 49l14 94q78 -47 185 -47q116 0 206 74.5t126 234.5q-130 -75 -267 -75q-116 0 -193 71.5t-57 196.5zM485 1321q-93 0 -159 -42.5t-80 -131.5
q-14 -90 37.5 -131t140.5 -41q139 0 254 92q20 254 -193 254z" />
    <glyph glyph-name="emdash.case" horiz-adv-x="1572" 
d="M1432 662h-1276l16 110h1276z" />
    <glyph glyph-name="endash.case" horiz-adv-x="1191" 
d="M1051 662h-895l16 110h897z" />
    <glyph glyph-name="hyphen.case" horiz-adv-x="1015" 
d="M172 772h721l-19 -110h-718z" />
    <glyph glyph-name="guillemotleft.case" horiz-adv-x="980" 
d="M801 354h-123l-193 351l4 28l302 346h127l-316 -362zM449 354h-123l-193 351l4 28l301 346h127l-315 -362z" />
    <glyph glyph-name="guillemotright.case" horiz-adv-x="978" 
d="M578 354h-127l315 363l-197 362h121l195 -350l-6 -29zM225 354h-127l316 363l-197 362h121l194 -350l-6 -29z" />
    <glyph glyph-name="guilsinglleft.case" horiz-adv-x="628" 
d="M449 354h-123l-193 351l4 28l301 346h127l-315 -362z" />
    <glyph glyph-name="guilsinglright.case" horiz-adv-x="626" 
d="M225 354h-127l316 363l-197 362h121l194 -350l-6 -29z" />
    <glyph glyph-name="cent.tf" 
d="M1100 920l-19 -109q-100 85 -256 88l-127 -815q153 9 291 86l-18 -121q-132 -66 -291 -72l-35 -223h-102l37 228q-92 10 -167.5 47.5t-130.5 100.5t-77 159.5t-4 214.5q15 95 53.5 175t91 135.5t118.5 96t134.5 62t140.5 28.5l37 228h103l-35 -223q149 -10 256 -86z
M723 891q-72 -11 -136.5 -40t-121 -76t-96 -120t-54.5 -163q-28 -176 52 -278t229 -124z" />
    <glyph glyph-name="currency.tf" 
d="M377 399l-156 -133l-69 82l149 129q-67 99 -47 248q24 141 121 238l-105 122l92 82l111 -131q109 68 240 68t227 -70l154 133l69 -82l-149 -129q67 -104 45 -247q-21 -137 -119 -238l107 -123l-95 -82l-110 131q-107 -67 -240 -67q-130 0 -225 69zM371 709
q-20 -124 47 -197.5t190 -73.5q127 0 222 78.5t116 208.5q20 124 -47 197t-190 73q-128 0 -222.5 -78t-115.5 -208z" />
    <glyph glyph-name="dollar.tf" 
d="M563 -266h-102l37 246q-254 20 -418 120l18 119q95 -62 218.5 -94.5t248.5 -32.5q79 0 147 13t128 40.5t100 77t51 117.5q9 61 -13.5 109.5t-68.5 81.5t-108 60.5t-131.5 51.5t-138.5 49.5t-130 60.5t-105 77.5t-64 106.5t-7 144q13 79 61.5 143t119 104t152 62t167.5 25
l37 244h102l-37 -246q198 -16 336 -102l-16 -115q-75 50 -182.5 77t-223.5 27q-93 0 -174 -22t-143.5 -75.5t-75.5 -131.5q-11 -62 11 -112t67.5 -83.5t107 -61.5t131 -52.5t139 -50t130.5 -59t105.5 -75.5t65.5 -104t9 -139q-15 -92 -64 -162t-121.5 -110.5t-154.5 -61.5
t-174 -23z" />
    <glyph glyph-name="Euro.tf" 
d="M1300 1264q-98 36 -258 36q-103 0 -200 -24t-184.5 -72.5t-158.5 -129t-114 -185.5h672l-17 -103h-688q-7 -27 -14 -67q-10 -65 -10 -113h684l-17 -102h-659q21 -129 95.5 -223.5t183 -141.5t237.5 -47q152 0 283 41l-17 -117q-121 -39 -282 -39q-154 0 -287 61
t-224 182.5t-112 283.5h-186l16 102h164q0 54 10 129q2 20 10 51h-155l16 103h168q47 131 133 234t194 165.5t226.5 94.5t241.5 32q152 0 268 -43z" />
    <glyph glyph-name="sterling.tf" 
d="M1079 0h-1071l19 117h69q70 0 119.5 50.5t63.5 135.5l51 330h-170l18 112h170l33 203q19 126 71.5 219.5t126.5 146t156.5 77t173.5 24.5q166 0 291 -80l-18 -112q-118 80 -279 80q-70 0 -132 -19t-118 -60t-96.5 -114t-56.5 -172l-31 -193h485l-18 -112h-483l-56 -338
q-11 -73 -37 -117t-75 -65l815 4z" />
    <glyph glyph-name="yen.tf" 
d="M1223 1393h135l-600 -744h307l-16 -102h-363l-24 -152h364l-16 -102h-365l-47 -293h-121l47 293h-362l16 102h363l24 152h-362l16 102h307l-364 744h131l348 -727z" />
    </font>
</defs>
</svg>
